<?xml version="1.0" standalone="no"?>
<!DOCTYPE svg PUBLIC "-//W3C//DTD SVG 1.1//EN" "http://www.w3.org/Graphics/SVG/1.1/DTD/svg11.dtd" >
<svg xmlns="http://www.w3.org/2000/svg" xmlns:xlink="http://www.w3.org/1999/xlink" version="1.1">
<metadata>
Created by FontForge 20170731 at Wed Feb 19 22:37:29 2014
 By Aleksey,,,
Copyright (c) 2013 by Hans Samuelson / Samuelstype. All rights reserved.
</metadata>
<defs>
<font id="BrooklynSamuelsFive-Light" horiz-adv-x="545" >
  <font-face 
    font-family="Brooklyn Samuels Five"
    font-weight="300"
    font-stretch="normal"
    units-per-em="1000"
    panose-1="2 0 5 3 0 0 0 2 0 4"
    ascent="800"
    descent="-200"
    x-height="495"
    cap-height="706"
    bbox="-136.923 -375 1240 918"
    underline-thickness="50"
    underline-position="-200"
    unicode-range="U+0020-FB04"
  />
<missing-glyph horiz-adv-x="192" 
 />
    <glyph glyph-name="f_f" unicode="ff" horiz-adv-x="557" 
d="M91 505v80q0 60 35 92.5t100 32.5q54 0 94 -22q10 -4 6 -16l-20 -40q-6 -10 -15 -6q-23 14 -50 14q-30 0 -47.5 -16.5t-17.5 -46.5v-72q0 -10 9 -10h151q10 0 10 10v80q0 60 35 92.5t100 32.5q57 0 112 -31q10 -4 5 -16l-23 -40q-6 -11 -15 -4q-33 21 -64 21
q-30 0 -47.5 -16.5t-17.5 -46.5v-72q0 -10 9 -10h109q11 0 11 -11v-36q0 -11 -11 -11h-109q-9 0 -9 -9v-417q0 -11 -11 -11h-63q-11 0 -11 11v417q0 9 -10 9h-151q-9 0 -9 -9v-417q0 -11 -11 -11h-63q-11 0 -11 11v417q0 9 -10 9h-57q-11 0 -11 11v36q0 11 11 11h57
q10 0 10 10z" />
    <glyph glyph-name="fi" unicode="fi" horiz-adv-x="484" 
d="M91 505v64q0 67 46.5 108.5t127.5 41.5q71 0 135 -41q11 -8 5 -16l-23 -40q-6 -10 -15 -5q-53 32 -96 32t-69 -22.5t-26 -61.5v-60q0 -10 9 -10h227q11 0 11 -11v-473q0 -11 -11 -11h-63q-11 0 -11 11v417q0 9 -9 9h-144q-9 0 -9 -9v-417q0 -11 -11 -11h-63q-11 0 -11 11
v417q0 9 -10 9h-57q-11 0 -11 11v36q0 11 11 11h57q10 0 10 10z" />
    <glyph glyph-name="fl" unicode="fl" horiz-adv-x="489" 
d="M91 505v54q0 60 39 95.5t105 35.5q51 0 96 -27q4 -2 7.5 0t3.5 6v26q0 11 12 11h63q11 0 11 -11v-684q0 -11 -11 -11h-63q-12 0 -12 11v575q0 10 -7 16q-32 21 -74 21q-37 0 -61 -20t-24 -53v-45q0 -10 9 -10h94q11 0 11 -11v-36q0 -11 -11 -11h-94q-9 0 -9 -9v-417
q0 -11 -11 -11h-63q-11 0 -11 11v417q0 9 -10 9h-57q-11 0 -11 11v36q0 11 11 11h57q10 0 10 10z" />
    <glyph glyph-name="f_f_i" unicode="ffi" horiz-adv-x="739" 
d="M91 505v80q0 60 35 92.5t100 32.5q54 0 94 -22q10 -4 6 -16l-20 -40q-6 -10 -15 -6q-23 14 -50 14q-30 0 -47.5 -16.5t-17.5 -46.5v-72q0 -10 9 -10h151q10 0 10 10v64q0 67 46.5 108.5t127.5 41.5q71 0 135 -41q11 -8 5 -16l-23 -40q-6 -10 -15 -5q-53 32 -96 32
t-69 -22.5t-26 -61.5v-60q0 -10 9 -10h227q11 0 11 -11v-473q0 -11 -11 -11h-63q-11 0 -11 11v417q0 9 -9 9h-144q-9 0 -9 -9v-417q0 -11 -11 -11h-63q-11 0 -11 11v417q0 9 -10 9h-151q-9 0 -9 -9v-417q0 -11 -11 -11h-63q-11 0 -11 11v417q0 9 -10 9h-57q-11 0 -11 11v36
q0 11 11 11h57q10 0 10 10z" />
    <glyph glyph-name="f_f_l" unicode="ffl" horiz-adv-x="744" 
d="M91 505v80q0 60 35 92.5t100 32.5q60 0 107 -29q10 -4 5 -16l-21 -40q-5 -11 -15 -5q-29 20 -61 20q-30 0 -47.5 -16.5t-17.5 -46.5v-72q0 -10 9 -10h151q10 0 10 10v54q0 60 39 95.5t105 35.5q51 0 96 -27q4 -2 7.5 0t3.5 6v26q0 11 12 11h63q11 0 11 -11v-684
q0 -11 -11 -11h-63q-12 0 -12 11v575q0 10 -7 16q-32 21 -74 21q-37 0 -61 -20t-24 -53v-45q0 -10 9 -10h94q11 0 11 -11v-36q0 -11 -11 -11h-94q-9 0 -9 -9v-417q0 -11 -11 -11h-63q-11 0 -11 11v417q0 9 -10 9h-151q-9 0 -9 -9v-417q0 -11 -11 -11h-63q-11 0 -11 11v417
q0 9 -10 9h-57q-11 0 -11 11v36q0 11 11 11h57q10 0 10 10z" />
    <glyph glyph-name="f_b" unicode="fb" horiz-adv-x="827" 
d="M91 505v54q0 60 39 95.5t105 35.5q51 0 96 -27q4 -2 7.5 0t3.5 6v26q0 11 12 11h63q11 0 11 -11v-248q0 -4 3 -5t5 2q58 58 142 58q87 0 149 -65q61 -64 61 -165v-50q0 -106 -60 -167q-60 -62 -150 -62q-86 0 -146 63q0 1 -2 1.5t-4 -1t-2 -3.5l-5 -45q-2 -8 -10 -8h-55
q-12 0 -12 11v575q0 10 -7 16q-32 21 -74 21q-37 0 -61 -20t-24 -53v-45q0 -10 9 -10h94q11 0 11 -11v-36q0 -11 -11 -11h-94q-9 0 -9 -9v-417q0 -11 -11 -11h-63q-11 0 -11 11v417q0 9 -10 9h-57q-11 0 -11 11v36q0 11 11 11h57q10 0 10 10zM561 430q-75 0 -122 -50
q-11 -11 -11 -26v-214q0 -16 11 -25q47 -51 122 -51q65 0 104 44t39 117v45q0 72 -39.5 116t-103.5 44z" />
    <glyph glyph-name="f_h" unicode="fh" horiz-adv-x="816" 
d="M91 505v54q0 60 39 95.5t105 35.5q51 0 96 -27q4 -2 7.5 0t3.5 6v26q0 11 12 11h63q11 0 11 -11v-253q0 -4 3.5 -5t5.5 2q58 63 151 63q83 0 127.5 -50t44.5 -144v-297q0 -11 -11 -11h-63q-11 0 -11 11v294q0 123 -111 123q-75 0 -124 -52q-12 -10 -12 -27v-338
q0 -11 -11 -11h-63q-12 0 -12 11v575q0 10 -7 16q-32 21 -74 21q-37 0 -61 -20t-24 -53v-45q0 -10 9 -10h94q11 0 11 -11v-36q0 -11 -11 -11h-94q-9 0 -9 -9v-417q0 -11 -11 -11h-63q-11 0 -11 11v417q0 9 -10 9h-57q-11 0 -11 11v36q0 11 11 11h57q10 0 10 10z" />
    <glyph glyph-name="f_k" unicode="fk" horiz-adv-x="775" 
d="M91 505v54q0 60 39 95.5t105 35.5q51 0 96 -27q4 -2 7.5 0t3.5 6v26q0 11 11 11h64q11 0 11 -11v-411q0 -11 10 -8q84 8 138.5 60.5t64.5 133.5l2 15q1 10 12 10h65q13 0 11 -12l-3 -17q-20 -133 -126 -203q-6 -4 -2 -11l154 -234q4 -6 0.5 -12t-10.5 -6h-71q-7 0 -11 6
l-132 214q-6 6 -13 4q-36 -14 -81 -15q-8 0 -8 -9v-189q0 -11 -11 -11h-64q-11 0 -11 11v575q0 10 -7 16q-32 21 -74 21q-37 0 -61 -20t-24 -53v-45q0 -10 9 -10h94q11 0 11 -11v-36q0 -11 -11 -11h-94q-9 0 -9 -9v-417q0 -11 -11 -11h-63q-11 0 -11 11v417q0 9 -10 9h-57
q-11 0 -11 11v36q0 11 11 11h57q10 0 10 10z" />
    <glyph glyph-name="f_t" unicode="ft" horiz-adv-x="597" 
d="M91 505v80q0 60 35 92.5t100 32.5q57 0 112 -31q10 -4 5 -16l-23 -40q-6 -11 -15 -4q-33 21 -64 21q-30 0 -47.5 -16.5t-17.5 -46.5v-72q0 -10 9 -10h152q9 0 9 9v96q0 12 12 12h62q12 0 12 -12v-96q0 -9 9 -9h109q11 0 11 -12v-35q0 -11 -11 -11h-109q-9 0 -9 -9v-303
q0 -29 18 -45t46 -16q31 0 62 20q12 8 17 -4l24 -40q6 -10 -5 -16q-52 -31 -113 -31q-65 0 -100 31.5t-35 90.5v313q0 9 -9 9h-152q-9 0 -9 -9v-417q0 -11 -11 -11h-63q-11 0 -11 11v417q0 9 -10 9h-57q-11 0 -11 11v36q0 11 11 11h57q10 0 10 10z" />
    <glyph glyph-name="f_j" unicode="fj" horiz-adv-x="494" 
d="M91 505v64q0 67 46.5 108.5t127.5 41.5q71 0 135 -41q11 -8 5 -16l-23 -40q-6 -10 -15 -5q-53 32 -96 32t-69 -22.5t-26 -61.5v-60q0 -10 9 -10h237q11 0 11 -11v-546q0 -71 -40.5 -113.5t-110.5 -42.5q-68 0 -111 30q-9 3 -5 16l23 41q7 9 15 4q29 -19 63 -19
q39 0 60 22t21 62v490q0 9 -9 9h-154q-9 0 -9 -9v-417q0 -11 -11 -11h-63q-11 0 -11 11v417q0 9 -10 9h-57q-11 0 -11 11v36q0 11 11 11h57q10 0 10 10z" />
    <glyph glyph-name="f_f_b" unicode="ffb" horiz-adv-x="1082" 
d="M91 505v80q0 60 35 92.5t100 32.5q60 0 107 -29q10 -4 5 -16l-21 -40q-5 -11 -15 -5q-29 20 -61 20q-30 0 -47.5 -16.5t-17.5 -46.5v-72q0 -10 9 -10h151q10 0 10 10v54q0 60 39 95.5t105 35.5q51 0 96 -27q4 -2 7.5 0t3.5 6v26q0 11 12 11h63q11 0 11 -11v-248
q0 -4 3 -5t5 2q58 58 142 58q87 0 149 -65q61 -64 61 -165v-50q0 -106 -60 -167q-60 -62 -150 -62q-86 0 -146 63q0 1 -2 1.5t-4 -1t-2 -3.5l-5 -45q-2 -8 -10 -8h-55q-12 0 -12 11v575q0 10 -7 16q-32 21 -74 21q-37 0 -61 -20t-24 -53v-45q0 -10 9 -10h94q11 0 11 -11v-36
q0 -11 -11 -11h-94q-9 0 -9 -9v-417q0 -11 -11 -11h-63q-11 0 -11 11v417q0 9 -10 9h-151q-9 0 -9 -9v-417q0 -11 -11 -11h-63q-11 0 -11 11v417q0 9 -10 9h-57q-11 0 -11 11v36q0 11 11 11h57q10 0 10 10zM816 430q-75 0 -122 -50q-11 -11 -11 -26v-214q0 -16 11 -25
q46 -51 122 -51q65 0 104 44t39 117v45q0 72 -39.5 116t-103.5 44z" />
    <glyph glyph-name="f_f_h" unicode="ffh" horiz-adv-x="1071" 
d="M91 505v80q0 60 35 92.5t100 32.5q60 0 107 -29q10 -4 5 -16l-21 -40q-5 -11 -15 -5q-29 20 -61 20q-30 0 -47.5 -16.5t-17.5 -46.5v-72q0 -10 9 -10h151q10 0 10 10v54q0 60 39 95.5t105 35.5q51 0 96 -27q4 -2 7.5 0t3.5 6v26q0 11 12 11h63q11 0 11 -11v-253
q0 -4 3.5 -5t5.5 2q58 63 151 63q83 0 127.5 -50t44.5 -144v-297q0 -11 -11 -11h-63q-11 0 -11 11v294q0 123 -111 123q-75 0 -124 -52q-12 -10 -12 -27v-338q0 -11 -11 -11h-63q-12 0 -12 11v575q0 10 -7 16q-32 21 -74 21q-37 0 -61 -20t-24 -53v-45q0 -10 9 -10h94
q11 0 11 -11v-36q0 -11 -11 -11h-94q-9 0 -9 -9v-417q0 -11 -11 -11h-63q-11 0 -11 11v417q0 9 -10 9h-151q-9 0 -9 -9v-417q0 -11 -11 -11h-63q-11 0 -11 11v417q0 9 -10 9h-57q-11 0 -11 11v36q0 11 11 11h57q10 0 10 10z" />
    <glyph glyph-name="f_f_k" unicode="ffk" horiz-adv-x="1030" 
d="M91 505v80q0 60 35 92.5t100 32.5q60 0 107 -29q10 -4 5 -16l-21 -40q-5 -11 -15 -5q-29 20 -61 20q-30 0 -47.5 -16.5t-17.5 -46.5v-72q0 -10 9 -10h151q10 0 10 10v54q0 60 39 95.5t105 35.5q51 0 96 -27q4 -2 7.5 0t3.5 6v26q0 11 11 11h64q11 0 11 -11v-411
q0 -11 10 -8q84 8 138.5 60.5t64.5 133.5l2 15q1 10 12 10h65q13 0 11 -12l-3 -17q-20 -133 -126 -203q-6 -4 -2 -11l154 -234q4 -6 0.5 -12t-10.5 -6h-71q-7 0 -11 6l-132 214q-5 6 -13 4q-36 -14 -81 -15q-8 0 -8 -9v-189q0 -11 -11 -11h-64q-11 0 -11 11v575q0 10 -7 16
q-32 21 -74 21q-37 0 -61 -20t-24 -53v-45q0 -10 9 -10h94q11 0 11 -11v-36q0 -11 -11 -11h-94q-9 0 -9 -9v-417q0 -11 -11 -11h-63q-11 0 -11 11v417q0 9 -10 9h-151q-9 0 -9 -9v-417q0 -11 -11 -11h-63q-11 0 -11 11v417q0 9 -10 9h-57q-11 0 -11 11v36q0 11 11 11h57
q10 0 10 10z" />
    <glyph glyph-name="f_f_t" unicode="fft" horiz-adv-x="852" 
d="M91 505v80q0 60 35 92.5t100 32.5q54 0 94 -22q10 -4 6 -16l-20 -40q-6 -10 -15 -6q-23 14 -50 14q-30 0 -47.5 -16.5t-17.5 -46.5v-72q0 -10 9 -10h151q10 0 10 10v80q0 60 35 92.5t100 32.5q57 0 112 -31q10 -4 5 -16l-23 -40q-6 -11 -15 -4q-33 21 -64 21
q-30 0 -47.5 -16.5t-17.5 -46.5v-72q0 -10 9 -10h152q9 0 9 9v96q0 12 12 12h62q12 0 12 -12v-96q0 -9 9 -9h109q11 0 11 -12v-35q0 -11 -11 -11h-109q-9 0 -9 -9v-303q0 -29 18 -45t46 -16q10 0 21.5 3.5t19.5 7t16 7.5l8 4q11 2 14 -6l24 -40q5 -8 -3 -13
q-49 -34 -115 -34q-65 0 -100 31.5t-35 90.5v313q0 9 -9 9h-152q-9 0 -9 -9v-417q0 -11 -11 -11h-63q-11 0 -11 11v417q0 9 -10 9h-151q-9 0 -9 -9v-417q0 -11 -11 -11h-63q-11 0 -11 11v417q0 9 -10 9h-57q-11 0 -11 11v36q0 11 11 11h57q10 0 10 10z" />
    <glyph glyph-name="f_f_j" unicode="ffj" horiz-adv-x="749" 
d="M91 505v80q0 60 35 92.5t100 32.5q54 0 94 -22q10 -4 6 -16l-20 -40q-6 -10 -15 -6q-23 14 -50 14q-30 0 -47.5 -16.5t-17.5 -46.5v-72q0 -10 9 -10h151q10 0 10 10v64q0 67 46.5 108.5t127.5 41.5q71 0 135 -41q11 -8 5 -16l-23 -40q-6 -10 -15 -5q-53 32 -96 32
t-69 -22.5t-26 -61.5v-60q0 -10 9 -10h237q11 0 11 -11v-546q0 -71 -40.5 -113.5t-110.5 -42.5q-67 0 -111 30q-9 3 -5 16l23 41q7 9 15 4q29 -19 63 -19q39 0 60 22t21 62v490q0 9 -9 9h-154q-9 0 -9 -9v-417q0 -11 -11 -11h-63q-11 0 -11 11v417q0 9 -10 9h-151
q-9 0 -9 -9v-417q0 -11 -11 -11h-63q-11 0 -11 11v417q0 9 -10 9h-57q-11 0 -11 11v36q0 11 11 11h57q10 0 10 10z" />
    <glyph glyph-name="g_j" unicode="gj" horiz-adv-x="760" 
d="M613 -58v542q0 11 11 11h64q11 0 11 -11v-542q0 -71 -41 -113.5t-111 -42.5q-44 0 -74 13q-11 5 -8 16l17 43q4 10 15 7q14 -7 36 -7q39 0 59.5 22.5t20.5 61.5zM622 595q-14 14 -14 34t14 34t34 14t34 -14t14 -34t-14 -34q-14 -13 -34 -13t-34 13zM39 222v50
q0 101 59 166q58 64 148 64q89 0 148 -62q6 -8 9 2l4 44q3 9 12 9h54q11 0 11 -11v-502q0 -102 -61.5 -161t-169.5 -59q-85 0 -146 40q-9 5 -3 17l23 37q2 5 7 6t9 -2q41 -28 106 -28q73 0 111.5 39.5t38.5 112.5v72q0 3 -3.5 4t-5.5 -1q-57 -66 -145 -66q-91 0 -149 64
q-57 65 -57 165zM123 270v-45q0 -73 39 -117t104 -44q76 0 121 50q12 12 12 26v214q0 14 -12 26q-44 50 -121 50q-65 0 -104 -44t-39 -116z" />
    <glyph glyph-name="c_o" unicode="c&#x2f;o" horiz-adv-x="974" 
d="M539 182v37q0 81 54 133q55 53 137 53t137 -53q55 -52 55 -133v-37q0 -82 -55 -134q-53 -52 -137 -52t-137 52q-54 53 -54 134zM609 219v-37q0 -57 33 -91.5t88 -34.5t88.5 34.5t33.5 91.5v37q0 57 -33.5 92t-88.5 35t-88 -35t-33 -92zM52 486v47q0 75 53 128
q55 53 135 53q66 0 126 -39q9 -6 3 -16l-18 -30q-5 -11 -16 -4q-41 29 -92 29q-52 0 -86.5 -34t-34.5 -88v-44q0 -56 34 -90t87 -34q47 0 91 29q12 5 16 -5l17 -31q7 -10 -3 -16q-58 -37 -126 -37q-75 0 -131 50q-55 51 -55 132zM288 15l304 679q4 12 17 12h37q6 0 9.5 -5
t1.5 -11l-305 -678q-4 -12 -17 -12h-36q-6 0 -10 4.5t-1 10.5z" />
    <glyph glyph-name=".notdef" horiz-adv-x="192" 
 />
    <glyph glyph-name=".null" horiz-adv-x="0" 
 />
    <glyph glyph-name="nonmarkingreturn" horiz-adv-x="333" 
 />
    <glyph glyph-name="space" unicode=" " horiz-adv-x="200" 
 />
    <glyph glyph-name="exclam" unicode="!" horiz-adv-x="259" 
d="M87 212v482q0 12 11 12h64q11 0 11 -12l-1 -482q0 -12 -11 -12h-62q-12 0 -12 12zM130 105q22 0 38 -15.5t16 -38.5t-15.5 -39t-38.5 -16t-39 16t-16 39t16 38.5t39 15.5z" />
    <glyph glyph-name="quotedbl" unicode="&#x22;" horiz-adv-x="294" 
d="M81 535h-6q-9 0 -12 9l-25 85q-8 26 -8 34q-2 29 23 41t50 0t23 -41q0 -10 -7 -34l-26 -85q-3 -9 -12 -9zM219 535h-5q-10 0 -12 9l-26 85q-8 26 -8 34q-2 29 23 41t50 0t23 -41q0 -10 -7 -34l-26 -85q-3 -9 -12 -9z" />
    <glyph glyph-name="numbersign" unicode="#" horiz-adv-x="604" 
d="M159 252v204q0 9 -10 9h-87q-12 0 -12 12v40q0 12 12 12h87q10 0 10 9v126q0 4 3.5 8t8.5 4h40q5 0 8.5 -4t3.5 -8v-126q0 -9 9 -9h141q9 0 9 9v126q0 12 11 12h41q4 0 8 -4t4 -8v-126q0 -9 9 -9h87q4 0 8 -3.5t4 -8.5v-41q0 -11 -12 -11h-87q-9 0 -9 -9v-204q0 -9 9 -9
h87q4 0 8 -3.5t4 -8.5v-41q0 -11 -12 -11h-87q-9 0 -9 -10v-126q0 -12 -12 -12h-41q-11 0 -11 12v126q0 10 -9 10h-141q-9 0 -9 -10v-126q0 -12 -12 -12h-40q-12 0 -12 12v126q0 10 -10 10h-87q-12 0 -12 12v40q0 12 12 12h87q10 0 10 9zM223 456v-204q0 -9 9 -9h141
q9 0 9 9v204q0 9 -9 9h-141q-9 0 -9 -9z" />
    <glyph glyph-name="dollar" unicode="$" horiz-adv-x="549" 
d="M258 714v136q0 12 11 12h29q4 0 8 -4t4 -8v-136q81 -8 144 -53q9 -7 2 -17l-36 -47q-8 -9 -16 -2q-52 40 -118 40q-58 0 -92 -29t-34 -72v-4q0 -48 33 -74q35 -26 123 -48q107 -29 156 -73q50 -44 50 -131v-4q0 -82 -55 -140q-56 -59 -157 -68v-137q0 -11 -12 -11h-29
q-11 0 -11 11v136q-116 6 -205 71q-10 7 -2 17l36 49q7 7 17 1q31 -24 77.5 -41.5t93.5 -17.5q76 0 117 33.5t41 93.5v4q0 61 -39 87q-42 27 -138 52q-92 26 -138 64q-45 40 -45 124v4q0 75 50.5 124.5t134.5 57.5z" />
    <glyph glyph-name="percent" unicode="%" horiz-adv-x="905" 
d="M409 543v-3q0 -77 -50 -124t-125 -47q-74 0 -126 47q-50 47 -50 124v3q0 77 51 123q52 47 125 47q74 0 124 -47q51 -46 51 -123zM342 540v3q0 50 -30 80t-78 30t-78 -29.5t-30 -80.5v-3q0 -51 29.5 -81t78.5 -30q48 0 78 30t30 81zM184 18l452 676q10 12 24 12h51
q7 0 10 -6t-1 -12l-452 -676q-10 -12 -24 -12h-51q-7 0 -10 6t1 12zM847 170v-3q0 -77 -51 -124q-50 -47 -125 -47q-74 0 -126 47q-50 47 -50 124v3q0 76 51 122q52 47 125 47t125 -47q51 -46 51 -122zM779 167v3q0 50 -30 79.5t-78 29.5q-49 0 -78.5 -29.5t-29.5 -79.5v-3
q0 -51 29.5 -81t78.5 -30t78.5 30t29.5 81z" />
    <glyph glyph-name="ampersand" unicode="&#x26;" horiz-adv-x="702" 
d="M142 523v10q0 83 57 133q59 50 144 50h10q85 0 143 -50q57 -50 57 -133v-10q0 -75 -54 -125t-129 -51l-43 -3q-65 -4 -106.5 -40.5t-41.5 -91.5v-9q0 -62 46 -99t118 -37h13q60 0 106 30.5t64 85.5q6 10 -3 16l-92 53q-12 8 -2 18l30 33q6 7 16 3l271 -157q5 -2 6 -7.5
t-3 -9.5l-31 -34q-7 -7 -16 -1l-93 53q-11 6 -16 -6q-29 -70 -95 -112t-147 -42h-14q-105 0 -176 56q-71 57 -71 148v13q0 57 31.5 101t87.5 68q6 3 6 8t-6 9q-67 46 -67 130zM226 527v-9q0 -48 33 -79t82 -31h14q49 0 81.5 31t32.5 79v9q0 53 -32.5 84t-83.5 31h-10
q-51 0 -84 -31t-33 -84z" />
    <glyph glyph-name="quotesingle" unicode="'" horiz-adv-x="156" 
d="M81 535h-6q-9 0 -12 9l-26 85q-7 27 -7 34q-2 29 23 41t50 0t23 -41q0 -4 -8 -34l-25 -85q-3 -9 -12 -9z" />
    <glyph glyph-name="parenleft" unicode="(" horiz-adv-x="299" 
d="M192 863q5 9 15 5l48 -19q12 -5 6 -15q-50 -100 -78 -211q-27 -111 -27 -270t27 -271q29 -112 78 -210q6 -12 -6 -16l-48 -19q-9 -5 -14 5q-123 217 -123 511q0 292 122 510z" />
    <glyph glyph-name="parenright" unicode=")" horiz-adv-x="299" 
d="M43 834q-6 10 6 15l48 19q9 3 15 -5q122 -218 122 -510q0 -294 -123 -511q-5 -8 -15 -5l-48 19q-10 3 -6 16q50 98 78 210q28 111 28 271q0 161 -28 270q-26 110 -77 211z" />
    <glyph glyph-name="asterisk" unicode="*" horiz-adv-x="414" 
d="M254 633l96 58q10 6 16 -4l18 -30q6 -12 -5 -17l-97 -55q-11 -6 -1 -12l99 -55q8 -5 3 -16l-17 -30q-4 -10 -16 -5l-96 58q-11 5 -11 -6l2 -112q0 -12 -12 -12h-35q-12 0 -12 12l2 111q0 6 -4 8t-8 -1l-94 -57q-4 -3 -10 -2t-8 5l-17 31q-7 10 4 16l98 55q11 7 0 12
l-98 55q-11 8 -4 16l18 31q6 10 16 4l96 -58q11 -6 11 6l-2 113q0 12 12 12h35q12 0 12 -12l-2 -113q0 -5 3.5 -6.5t7.5 0.5z" />
    <glyph glyph-name="plus" unicode="+" horiz-adv-x="573" 
d="M319 312v-183q0 -12 -12 -12h-40q-12 0 -12 12v183q0 9 -10 9h-183q-12 0 -12 12v40q0 12 12 12h183q10 0 10 9v184q0 4 3.5 8t8.5 4h40q5 0 8.5 -4t3.5 -8v-184q0 -9 10 -9h182q12 0 12 -12v-40q0 -12 -12 -12h-182q-10 0 -10 -9z" />
    <glyph glyph-name="comma" unicode="," horiz-adv-x="214" 
d="M55 51q0 22 15 37.5t38 15.5t38 -15.5t15 -37.5q0 -63 -73 -136q-10 -7 -21 -6l-8 3q-12 5 -4 17q23 37 23 52q0 21 -11 35q-12 17 -12 35z" />
    <glyph glyph-name="hyphen" unicode="-" horiz-adv-x="330" 
d="M46 283h238q12 0 12 -12v-43q0 -11 -12 -11h-238q-12 0 -12 11v43q0 5 4 8.5t8 3.5z" />
    <glyph glyph-name="period" unicode="." horiz-adv-x="214" 
d="M54 49q0 22 15 37t38 15t38 -15t15 -37q0 -23 -15 -38t-38 -15t-38 15t-15 38z" />
    <glyph glyph-name="slash" unicode="/" horiz-adv-x="457" 
d="M11 -141l357 991q4 12 17 12h54q6 0 9.5 -5t1.5 -11l-357 -990q-5 -12 -17 -12h-54q-6 0 -9.5 4.5t-1.5 10.5z" />
    <glyph glyph-name="zero" unicode="0" horiz-adv-x="544" 
d="M48 225v256q0 107 61 171t163 64q101 0 162 -64q62 -65 62 -171v-256q0 -106 -62 -171q-61 -64 -162 -64q-102 0 -163 64t-61 171zM134 481v-255q0 -75 36.5 -119.5t101.5 -44.5q66 0 102 44.5t36 120.5v253q0 74 -36.5 119t-101.5 45t-101.5 -44.5t-36.5 -118.5z" />
    <glyph glyph-name="one" unicode="1" horiz-adv-x="243" 
d="M83 11v591q0 9 -9 9h-19q-6 0 -9.5 5.5t0.5 12.5l44 70q4 7 13 7h55q12 0 12 -12v-683q0 -11 -11 -11h-65q-4 0 -7.5 3.5t-3.5 7.5z" />
    <glyph glyph-name="two" unicode="2" horiz-adv-x="484" 
d="M218 716q99 0 157 -53.5t58 -143.5v-19q0 -80 -84 -177l-207 -239q-2 -3 -1 -6t5 -3h261q11 0 11 -12v-52q0 -11 -11 -11h-375q-11 0 -11 12v34q0 9 4 13l261 306q61 71 61 133v16q0 57 -37 92.5t-98 35.5q-68 0 -120 -33q-12 -6 -17 5l-19 44q-4 10 5 15q70 43 157 43z
" />
    <glyph glyph-name="three" unicode="3" horiz-adv-x="470" 
d="M188 -10q-77 0 -142 38q-9 5 -5 15l20 45q1 4 6.5 5t9.5 -1q43 -28 106 -28q69 0 116 44q46 43 46 110v15q0 66 -39 105t-106 39q-41 0 -83 -14q-9 -5 -14 5l-7 13q-5 8 1 14l194 224q3 4 1.5 8t-6.5 4h-219q-12 0 -12 12v51q0 12 12 12h332q12 0 12 -12v-36q0 -8 -7 -16
l-173 -193q-5 -11 5 -11q90 -1 143 -56.5t53 -146.5v-19q0 -98 -70 -162q-68 -64 -174 -64z" />
    <glyph glyph-name="four" unicode="4" horiz-adv-x="517" 
d="M30 265l293 432q6 9 16 9h57q11 0 11 -12v-413q0 -9 10 -9h64q12 0 12 -12v-43q0 -12 -12 -12h-64q-10 0 -10 -9v-185q0 -11 -11 -11h-64q-11 0 -11 11v185q0 9 -9 9h-274q-12 0 -12 12v35q0 9 4 13zM311 551l-187 -271q-2 -2 -0.5 -5t5.5 -3h183q9 0 9 9v267q0 4 -4 5
t-6 -2z" />
    <glyph glyph-name="five" unicode="5" horiz-adv-x="475" 
d="M67 352v342q0 12 12 12h322q12 0 12 -12v-51q0 -12 -12 -12h-242q-9 0 -9 -9v-188q0 -9 8 -7q33 16 73 16q96 0 152.5 -56t56.5 -153v-19q0 -97 -70 -161q-68 -64 -173 -64q-80 0 -142 37q-7 6 -4 16l19 44q5 11 17 5q44 -28 105 -28q69 0 116 44q46 43 46 110v14
q0 67 -40 106t-111 39q-66 0 -118 -35q-5 -4 -11.5 -0.5t-6.5 10.5z" />
    <glyph glyph-name="six" unicode="6" horiz-adv-x="520" 
d="M286 434q89 0 144 -58q57 -57 57 -150v-22q0 -94 -64 -154q-65 -60 -158 -60t-155 59q-62 60 -62 155v284q0 99 67 163q68 65 169 65q74 0 142 -39q10 -4 5 -14l-19 -45q-5 -10 -16 -5q-49 29 -107 29q-67 0 -111 -45q-44 -44 -44 -111v-112q0 -4 3.5 -5.5t6.5 1.5
q52 64 142 64zM132 224v-18q0 -65 37 -104.5t96 -39.5t97 40t38 104v18q0 65 -36.5 103.5t-94.5 38.5q-59 0 -98 -39t-39 -103z" />
    <glyph glyph-name="seven" unicode="7" horiz-adv-x="433" 
d="M32 706h382q11 0 11 -12v-28q0 -15 -4 -24l-232 -632q-4 -10 -15 -10h-70q-5 0 -7.5 4.5t-0.5 9.5l229 605q5 12 -8 12h-285q-12 0 -12 12v51q0 12 12 12z" />
    <glyph glyph-name="eight" unicode="8" horiz-adv-x="524" 
d="M262 716q84 0 140 -51t56 -132v-11q0 -87 -76 -138q-9 -7 0 -12q48 -25 75 -67.5t27 -95.5v-16q0 -90 -64 -147q-63 -57 -158 -57q-96 0 -159 57t-63 147v16q0 109 102 163q9 5 0 12q-76 51 -76 138v11q0 83 55 132q55 51 141 51zM262 644q-50 0 -81.5 -31.5t-31.5 -84.5
v-9q0 -50 32.5 -82t80.5 -32t80 32t32 82v9q0 53 -31.5 84.5t-80.5 31.5zM262 343q-61 0 -97.5 -35t-36.5 -94v-16q0 -62 38 -99.5t96 -37.5t95.5 37.5t37.5 99.5v16q0 59 -36.5 94t-96.5 35z" />
    <glyph glyph-name="nine" unicode="9" horiz-adv-x="521" 
d="M234 272q-87 0 -144 57q-56 59 -56 151v22q0 94 64 154t158 60t155 -60q62 -59 62 -154v-284q0 -99 -67 -163q-68 -65 -170 -65q-74 0 -142 39q-9 5 -5 14l20 45q4 9 16 5q49 -29 106 -29q68 0 112 44q43 43 43 112v112q0 4 -3 5.5t-7 -1.5q-52 -64 -142 -64zM251 340
q60 0 98.5 39t38.5 103v18q0 65 -37 104.5t-95 39.5q-59 0 -97 -40t-38 -104v-18q0 -65 36 -103.5t94 -38.5z" />
    <glyph glyph-name="colon" unicode=":" horiz-adv-x="214" 
d="M54 117q0 22 15 37t38 15t38 -15t15 -37q0 -23 -15 -38t-38 -15t-38 15t-15 38zM69 346q-15 16 -15 38t15 37q15 16 38 16t38 -16q15 -15 15 -37t-15 -38q-15 -15 -38 -15t-38 15z" />
    <glyph glyph-name="semicolon" unicode=";" horiz-adv-x="214" 
d="M71 346q-15 16 -15 38t15 37q15 16 38 16t38 -16q15 -15 15 -37t-15 -38q-15 -15 -38 -15t-38 15zM56 117q0 22 15 37t38 15t38 -15t15 -37q0 -65 -74 -136q-10 -10 -20 -6l-8 3q-5 1 -7 6.5t2 10.5q24 31 24 52q0 18 -11 35q-12 16 -12 35z" />
    <glyph glyph-name="less" unicode="&#x3c;" horiz-adv-x="582" 
d="M58 376l461 192q4 2 8.5 -1t4.5 -8v-43q0 -12 -10 -13l-349 -145q-4 -1 -4 -5t4 -5l349 -144q10 -1 10 -13v-43q0 -5 -4.5 -8.5t-8.5 -1.5l-461 192q-8 5 -8 12v22q0 7 8 12z" />
    <glyph glyph-name="equal" unicode="=" horiz-adv-x="573" 
d="M511 410h-449q-12 0 -12 12v40q0 12 12 12h449q5 0 8.5 -4t3.5 -8v-41q0 -11 -12 -11zM511 232h-449q-12 0 -12 12v41q0 11 12 11h449q12 0 12 -11v-41q0 -4 -3.5 -8t-8.5 -4z" />
    <glyph glyph-name="greater" unicode="&#x3e;" horiz-adv-x="582" 
d="M63 568l460 -192q9 -4 9 -12v-22q0 -8 -9 -12l-460 -192q-5 -2 -9 1.5t-4 8.5v43q0 11 9 13l349 144q3 0 4.5 2.5t0 5t-4.5 2.5l-349 145q-9 1 -9 13v43q0 5 4.5 8t8.5 1z" />
    <glyph glyph-name="question" unicode="?" horiz-adv-x="451" 
d="M216 716q102 0 162.5 -52.5t60.5 -140.5v-4q0 -60 -27.5 -99.5t-87.5 -74.5q-43 -27 -61 -55t-18 -72v-7q0 -11 -12 -11h-59q-11 0 -11 12v7q0 47 13 77q12 31 30 50t56 44q50 32 70 59t20 67v4q0 51 -35 83t-101 32q-72 0 -124 -40q-10 -7 -17 2l-34 45q-8 11 2 16
q77 58 173 58zM148 51q0 22 16 38t39 16t39 -16t16 -38q0 -23 -16 -39t-39 -16t-39 16t-16 39z" />
    <glyph glyph-name="at" unicode="@" horiz-adv-x="1112" 
d="M393 270v-45q0 -73 39 -117t104 -44q74 0 122 50q11 14 11 26v214q0 15 -11 26q-47 50 -122 50q-64 0 -103.5 -44t-39.5 -116zM309 222v50q0 102 59 166q60 64 149 64q90 0 147 -62q2 -2 5 -1.5t4 3.5l5 44q2 9 12 9h54q11 0 11 -11v-397q0 -18 10.5 -27t27.5 -7
q76 11 143 103q69 93 69 210q0 126 -88 201q-88 76 -246 76q-105 0 -207 -43q-102 -41 -182 -111q-77 -66 -128 -161q-49 -91 -49 -187q0 -125 90 -203t244 -78q92 0 176 33q13 4 16 -7l7 -20q3 -11 -5 -16q-99 -37 -193 -37q-177 0 -283 88q-105 88 -105 236q0 138 90 265
q92 129 234 207q144 78 294 78q179 0 283 -86q105 -86 105 -233q0 -75 -30.5 -146.5t-79.5 -121.5q-46 -47 -99 -75t-97 -28q-65 0 -77 60q-4 9 -11 2q-58 -66 -149 -66t-149 64q-57 65 -57 165z" />
    <glyph glyph-name="A" unicode="A" horiz-adv-x="677" 
d="M31 15l293 682q3 9 12 9h11q9 0 12 -9l294 -682q2 -5 -1 -10t-9 -5h-64q-13 0 -16 10l-53 123q-4 13 -19 13h-300q-14 0 -18 -13l-53 -123q-4 -10 -16 -10h-63q-6 0 -9.5 4.5t-0.5 10.5zM335 522l-126 -301q-5 -9 5 -9h255q8 0 6 9l-127 301q-2 5 -7 5q-4 0 -6 -5z" />
    <glyph glyph-name="B" unicode="B" horiz-adv-x="615" 
d="M80 11v683q0 12 12 12h226q80 0 133 -46q54 -45 54 -124v-8q0 -74 -66 -121q-9 -9 3 -15q63 -17 100.5 -65t37.5 -111v-7q0 -85 -57 -147q-56 -60 -151 -62h-281q-11 0 -11 11zM349 338h-174q-9 0 -9 -9v-244q0 -8 9 -8h170q64 0 103 35t39 93v8q0 57 -36.5 91t-101.5 34
zM294 629h-119q-7 0 -9 -8v-207q0 -10 9 -10h124q52 2 85.5 32t33.5 79v7q0 50 -33 78.5t-91 28.5z" />
    <glyph glyph-name="C" unicode="C" horiz-adv-x="600" 
d="M52 323v59q0 149 92 241q92 93 240 93q91 0 167 -46q9 -6 3 -16l-35 -47q-7 -9 -17 -3q-52 33 -118 33q-110 0 -178 -71q-66 -71 -66 -184v-59q0 -113 66 -184q67 -70 178 -70q64 0 117 32q10 7 17 -2l36 -48q7 -10 -3 -16q-77 -45 -167 -45q-149 0 -241 92
q-91 91 -91 241z" />
    <glyph glyph-name="D" unicode="D" horiz-adv-x="697" 
d="M92 706h233q146 0 233 -87t87 -234v-66q0 -149 -90 -235q-89 -84 -230 -84h-234q-11 0 -11 11v684q0 11 12 11zM325 629h-150q-9 0 -9 -8v-536q0 -9 9 -9h150q108 0 170 65t62 178v66q0 113 -61.5 178.5t-170.5 65.5z" />
    <glyph glyph-name="E" unicode="E" horiz-adv-x="576" 
d="M80 11v684q0 11 12 11h432q12 0 12 -11v-54q0 -12 -12 -12h-349q-9 0 -9 -8v-225q0 -9 9 -9h247q12 0 12 -12v-48q0 -11 -12 -11h-247q-9 0 -9 -9v-222q0 -9 9 -9h349q12 0 12 -11v-53q0 -12 -12 -12h-433q-11 0 -11 11z" />
    <glyph glyph-name="F" unicode="F" horiz-adv-x="558" 
d="M80 11v684q0 11 11 11h434q11 0 11 -11v-54q0 -12 -11 -12h-350q-9 0 -9 -8v-258q0 -9 9 -9h247q4 0 8 -4t4 -8v-48q0 -11 -12 -11h-247q-9 0 -9 -9v-263q0 -11 -11 -11h-64q-11 0 -11 11z" />
    <glyph glyph-name="G" unicode="G" horiz-adv-x="681" 
d="M52 323v59q0 147 92 241q93 93 240 93q104 0 177 -51q10 -7 3 -16l-36 -47q-7 -9 -17 -2q-55 37 -127 37q-109 0 -177 -71q-67 -70 -67 -184v-59q0 -115 66 -185q68 -69 176 -69q82 0 135 35q8 5 8 16v156q0 9 -8 9h-132q-12 0 -12 12v42q0 12 12 12h215q12 0 12 -12
v-327q0 -12 -11 -12h-8q-7 0 -14 7l-26 32q-4 5 -11 1q-68 -50 -169 -50q-143 0 -232 92t-89 241z" />
    <glyph glyph-name="H" unicode="H" horiz-adv-x="705" 
d="M80 11v684q0 11 12 11h63q11 0 11 -11v-299q0 -9 10 -9h354q9 0 9 9v299q0 11 11 11h64q11 0 11 -11v-684q0 -11 -11 -11h-64q-11 0 -11 11v296q0 9 -9 9h-354q-10 0 -10 -9v-296q0 -11 -11 -11h-64q-11 0 -11 11z" />
    <glyph glyph-name="I" unicode="I" horiz-adv-x="246" 
d="M80 11v684q0 11 11 11h64q11 0 11 -11v-684q0 -11 -11 -11h-64q-11 0 -11 11z" />
    <glyph glyph-name="J" unicode="J" horiz-adv-x="375" 
d="M218 150v545q0 11 11 11h64q11 0 11 -11v-547q0 -70 -40.5 -112.5t-111.5 -42.5q-59 0 -111 31q-9 4 -4 17l25 43q6 9 15 4q26 -19 60 -19q39 0 60 21t21 60z" />
    <glyph glyph-name="K" unicode="K" horiz-adv-x="643" 
d="M80 11v684q0 11 11 11h64q11 0 11 -11v-320q0 -8 9 -8h6q69 0 126.5 26.5t95 72t61 98.5t33.5 113l2 18q2 11 12 11h66q5 0 9 -4t3 -9l-3 -19q-16 -101 -64.5 -182.5t-123.5 -132.5q-8 -5 -3 -12l211 -330q3 -5 0 -11t-10 -6h-71q-9 0 -12 7l-192 306q-5 8 -15 5
q-57 -22 -125 -22h-6q-9 0 -9 -9v-276q0 -11 -11 -11h-64q-11 0 -11 11z" />
    <glyph glyph-name="L" unicode="L" horiz-adv-x="543" 
d="M80 12v683q0 11 11 11h64q11 0 11 -11v-610q0 -9 10 -9h333q12 0 12 -11v-53q0 -12 -12 -12h-417q-12 0 -12 12z" />
    <glyph glyph-name="M" unicode="M" horiz-adv-x="825" 
d="M50 13l106 683q1 10 11 10h7q8 0 11 -6l224 -401q1 -3 5 -3t5 3l225 401q3 6 10 6h7q10 0 11 -10l107 -683q1 -5 -3 -9t-9 -4h-62q-10 0 -11 10l-73 471q-1 5 -5.5 5.5t-7.5 -3.5l-184 -328q-4 -7 -10 -7t-10 7l-184 328q-3 4 -7 3.5t-5 -5.5l-74 -471q-1 -10 -11 -10
h-62q-12 0 -11 13z" />
    <glyph glyph-name="N" unicode="N" horiz-adv-x="742" 
d="M80 11v684q0 11 11 11h7q7 0 11 -4l456 -504q2 -2 4.5 -2.5t4.5 1t2 4.5v494q0 11 11 11h64q11 0 11 -11v-683q0 -12 -12 -12h-7q-7 0 -12 6l-453 505q-3 3 -7.5 1.5t-4.5 -5.5v-496q0 -11 -11 -11h-64q-11 0 -11 11z" />
    <glyph glyph-name="O" unicode="O" horiz-adv-x="743" 
d="M52 323v60q0 151 87 242t233 91q145 0 232 -91t87 -242v-60q0 -151 -87 -242t-232 -91q-146 0 -233 91t-87 242zM140 383v-60q0 -118 62 -186q63 -68 170 -68t169 68t62 186v60q0 118 -62 186t-169 68t-170 -68q-62 -68 -62 -186z" />
    <glyph glyph-name="P" unicode="P" horiz-adv-x="620" 
d="M80 11v683q0 12 12 12h284q91 0 149 -58t58 -149v-7q0 -94 -63 -152q-63 -57 -142 -57h-203q-9 0 -9 -9v-263q0 -11 -11 -11h-64q-11 0 -11 11zM341 629h-166q-9 0 -9 -9v-257q0 -10 9 -10h175q63 0 100.5 36.5t37.5 97.5v7q0 64 -39 99.5t-108 35.5z" />
    <glyph glyph-name="Q" unicode="Q" horiz-adv-x="743" 
d="M52 323v60q0 151 87 242t233 91q145 0 232 -91t87 -242v-60q0 -131 -68 -219q-68 -87 -184 -106q-10 -3 -7 -14q18 -64 63 -103.5t114 -43.5q12 0 12 -12v-54q0 -12 -12 -12q-99 2 -169 61.5t-93 158.5q-4 13 -17 14q-128 12 -203 101t-75 229zM140 383v-60
q0 -118 62 -186q63 -68 170 -68t169 68t62 186v60q0 118 -62 186t-169 68t-170 -68q-62 -68 -62 -186z" />
    <glyph glyph-name="R" unicode="R" horiz-adv-x="637" 
d="M80 11v683q0 4 4 8t8 4h280q91 0 149 -58q59 -59 59 -149v-7q0 -81 -50 -134q-48 -51 -117 -65q-10 -1 -8 -11q19 -98 75 -153t141 -59q10 -1 10 -12v-52q0 -12 -11 -12q-118 2 -197 76t-102 206q-1 9 -10 9h-135q-10 0 -10 -9v-265q0 -11 -11 -11h-64q-11 0 -11 11z
M166 620v-258q0 -9 10 -9h172q64 0 101.5 36.5t37.5 97.5v7q0 64 -39 99.5t-108 35.5h-164q-10 0 -10 -9z" />
    <glyph glyph-name="S" unicode="S" horiz-adv-x="550" 
d="M286 715q94 0 168 -54q9 -7 2 -17l-36 -47q-8 -9 -16 -2q-52 40 -118 40q-58 0 -92 -29t-34 -72v-4q0 -48 33 -74q35 -26 123 -48q107 -29 156 -73q50 -44 50 -131v-4q0 -87 -65 -149q-64 -61 -182 -61q-62 0 -121.5 21t-100.5 51q-10 7 -2 17l36 49q7 7 17 1
q31 -24 77.5 -41.5t93.5 -17.5q76 0 117 33.5t41 93.5v4q0 61 -39 87q-42 27 -138 52q-92 26 -138 64q-45 40 -45 124v4q0 82 59 132q59 51 154 51z" />
    <glyph glyph-name="T" unicode="T" horiz-adv-x="559" 
d="M18 641v53q0 12 12 12h500q11 0 11 -12v-53q0 -11 -11 -11h-198q-9 0 -9 -10v-609q0 -11 -12 -11h-63q-11 0 -11 11v609q0 10 -10 10h-197q-12 0 -12 11z" />
    <glyph glyph-name="U" unicode="U" horiz-adv-x="696" 
d="M74 277v418q0 11 12 11h64q11 0 11 -11v-418q0 -208 187 -208t187 208v418q0 11 11 11h64q11 0 11 -11v-418q0 -137 -72 -212t-201 -75t-201.5 75t-72.5 212z" />
    <glyph glyph-name="V" unicode="V" horiz-adv-x="659" 
d="M302 9l-282 682q-2 5 1.5 10t9.5 5h63q12 0 17 -11l215 -534q1 -4 6 -4t6 4l215 534q3 11 16 11h64q5 0 8.5 -4.5t1.5 -10.5l-281 -682q-4 -9 -13 -9h-34q-9 0 -13 9z" />
    <glyph glyph-name="W" unicode="W" horiz-adv-x="936" 
d="M249 10l-224 681q-2 6 1 10.5t8 4.5h65q13 0 16 -12l167 -529q2 -5 6.5 -5t6.5 5l165 381q3 7 9 7h2q7 0 10 -7l164 -381q2 -5 6.5 -5t6.5 5l167 529q3 12 16 12h64q5 0 8.5 -4.5t1.5 -10.5l-224 -681q-1 -10 -13 -10h-32q-10 0 -13 8l-157 362q-1 4 -6 4t-6 -4
l-157 -362q-3 -8 -13 -8h-32q-12 0 -13 10z" />
    <glyph glyph-name="X" unicode="X" horiz-adv-x="662" 
d="M279 383l-213 306q-4 5 -1 11t10 6h73q9 0 14 -8l165 -240q3 -4 7 -4q5 0 8 4l165 240q5 8 14 8h73q7 0 10 -6t-1 -11l-213 -306q-6 -9 0 -19l241 -347q4 -6 0.5 -11.5t-9.5 -5.5h-74q-9 0 -14 8l-192 281q-4 4 -8 4q-3 0 -7 -4l-192 -281q-5 -8 -14 -8h-74q-7 0 -10 5.5
t1 11.5l241 347q6 10 0 19z" />
    <glyph glyph-name="Y" unicode="Y" horiz-adv-x="633" 
d="M277 13v208q0 12 -6 22l-246 447q-3 5 0 10.5t10 5.5h69q10 0 15 -9l195 -367q1 -4 5 -4h1q3 0 6 4l194 367q4 9 16 9h68q7 0 10 -5.5t0 -10.5l-246 -447q-5 -10 -5 -22v-208q0 -13 -14 -13h-59q-13 0 -13 13z" />
    <glyph glyph-name="Z" unicode="Z" horiz-adv-x="600" 
d="M82 641v53q0 12 11 12h457q12 0 12 -12v-3q0 -7 -4 -11l-388 -589q-2 -5 0.5 -9.5t7.5 -4.5h362q12 0 12 -12v-53q0 -12 -12 -12h-495q-11 0 -11 12v5q0 6 3 11l386 588q3 4 0.5 9t-7.5 5h-323q-11 0 -11 11z" />
    <glyph glyph-name="bracketleft" unicode="[" horiz-adv-x="315" 
d="M101 -145v995q0 12 12 12h150q12 0 12 -12v-51q0 -12 -12 -12h-69q-10 0 -10 -9v-850q0 -9 10 -9h69q12 0 12 -12v-52q0 -11 -12 -11h-150q-12 0 -12 11z" />
    <glyph glyph-name="backslash" unicode="\" horiz-adv-x="476" 
d="M32 862h55q11 0 15 -10l357 -992q2 -6 -1 -11t-10 -5h-56q-11 0 -14 10l-357 993q-2 5 1 10t10 5z" />
    <glyph glyph-name="bracketright" unicode="]" horiz-adv-x="315" 
d="M40 799v51q0 4 4 8t8 4h150q12 0 12 -12v-995q0 -11 -12 -11h-150q-12 0 -12 11v52q0 12 12 12h69q10 0 10 9v850q0 9 -10 9h-69q-12 0 -12 12z" />
    <glyph glyph-name="asciicircum" unicode="^" horiz-adv-x="474" 
d="M33 90l183 400q5 8 12 8h21q7 0 12 -8l184 -400q2 -5 -1 -9.5t-9 -4.5h-43q-10 0 -13 10l-135 302q-1 4 -5 4t-6 -4l-134 -302q-3 -10 -13 -10h-43q-5 0 -8.5 4.5t-1.5 9.5z" />
    <glyph glyph-name="underscore" unicode="_" horiz-adv-x="600" 
d="M0 -146h600q12 0 12 -11v-43q0 -12 -12 -12h-600q-4 0 -8 4t-4 8v43q0 11 12 11z" />
    <glyph glyph-name="grave" unicode="`" horiz-adv-x="200" 
d="M3 675l38 24q9 6 19 -1l138 -107q5 -3 4.5 -9t-5.5 -9l-28 -18q-9 -7 -18 0l-148 101q-5 4 -5 10t5 9z" />
    <glyph glyph-name="a" unicode="a" 
d="M39 222v50q0 101 59 166q58 64 148 64q89 0 148 -62q2 -2 5 -1.5t4 3.5l4 44q3 9 12 9h54q11 0 11 -11v-473q0 -11 -11 -11h-63q-11 0 -11 11v42q0 3 -3.5 4.5t-5.5 -1.5q-60 -63 -145 -63q-91 0 -149 64q-57 65 -57 165zM123 270v-45q0 -73 39 -117t104 -44q76 0 121 50
q12 12 12 26v214q0 14 -12 26q-45 50 -121 50q-65 0 -104 -44t-39 -116z" />
    <glyph glyph-name="b" unicode="b" 
d="M61 11v684q0 11 12 11h63q11 0 11 -11v-248q0 -4 3 -5t5 2q52 58 141 58t149 -65q61 -64 61 -165v-50q0 -106 -60 -167q-59 -62 -149 -62q-86 0 -146 63q-6 6 -8 -3l-5 -45q-2 -8 -11 -8h-54q-12 0 -12 11zM280 430q-78 0 -122 -50q-11 -11 -11 -26v-214q0 -16 11 -25
q46 -51 122 -51q64 0 103.5 44t39.5 117v45q0 72 -39.5 116t-103.5 44z" />
    <glyph glyph-name="c" unicode="c" horiz-adv-x="449" 
d="M39 221v53q0 99 67 165q68 66 170 66q80 0 138 -40q8 -5 4 -15l-26 -43q-6 -11 -15 -3q-46 29 -101 29q-68 0 -111 -45q-42 -45 -42 -115v-51q0 -70 42 -115q43 -45 111 -45q56 0 99 29q12 5 16 -5l25 -42q6 -10 -4 -16q-59 -38 -136 -38q-102 0 -170 66q-67 66 -67 165z
" />
    <glyph glyph-name="d" unicode="d" 
d="M39 222v50q0 101 59 166q58 64 148 64q88 0 143 -58q2 -3 6 -2t4 5v248q0 11 11 11h63q11 0 11 -11v-684q0 -11 -11 -11h-55q-8 0 -11 8l-5 47q-1 4 -4 4.5t-5 -2.5q-52 -64 -148 -64q-91 0 -149 64q-57 65 -57 165zM123 270v-45q0 -73 39 -117t104 -44q76 0 121 50
q12 12 12 26v214q0 14 -12 26q-44 50 -121 50q-65 0 -104 -44t-39 -116z" />
    <glyph glyph-name="e" unicode="e" horiz-adv-x="524" 
d="M39 221v53q0 103 62 167q61 64 163 64q100 0 160 -63q61 -62 61 -168v-36q0 -12 -12 -12h-341q-9 0 -9 -8q1 -73 44 -115t115 -42q59 0 102 34q8 8 15 -1l41 -35q9 -9 0 -17q-64 -52 -158 -52q-108 0 -175 64q-68 65 -68 167zM265 434q-62 0 -99.5 -37t-41.5 -104
q0 -9 9 -9h258q9 0 9 9q-5 67 -40 104t-95 37z" />
    <glyph glyph-name="f" unicode="f" horiz-adv-x="302" 
d="M91 505v80q0 60 35 92.5t100 32.5q57 0 112 -31q10 -4 5 -16l-23 -40q-6 -11 -15 -4q-33 21 -64 21q-30 0 -47.5 -16.5t-17.5 -46.5v-72q0 -10 9 -10h109q11 0 11 -11v-36q0 -11 -11 -11h-109q-9 0 -9 -9v-417q0 -11 -11 -11h-63q-11 0 -11 11v417q0 9 -10 9h-57
q-11 0 -11 11v36q0 11 11 11h57q10 0 10 10z" />
    <glyph glyph-name="g" unicode="g" 
d="M39 222v50q0 101 59 166q58 64 148 64q89 0 148 -62q6 -8 9 2l4 44q3 9 12 9h54q11 0 11 -11v-502q0 -102 -61.5 -161t-169.5 -59q-85 0 -146 40q-9 5 -3 17l23 37q2 5 7 6t9 -2q41 -28 106 -28q73 0 111.5 39.5t38.5 112.5v72q0 3 -3.5 4t-5.5 -1q-57 -66 -145 -66
q-91 0 -149 64q-57 65 -57 165zM123 270v-45q0 -73 39 -117t104 -44q76 0 121 50q12 12 12 26v214q0 14 -12 26q-44 50 -121 50q-65 0 -104 -44t-39 -116z" />
    <glyph glyph-name="h" unicode="h" horiz-adv-x="535" 
d="M61 11v684q0 11 12 11h63q11 0 11 -11v-253q0 -4 3.5 -5t5.5 2q52 63 151 63q83 0 127.5 -50t44.5 -144v-297q0 -11 -11 -11h-63q-11 0 -11 11v294q0 123 -111 123q-75 0 -124 -52q-12 -10 -12 -27v-338q0 -11 -11 -11h-63q-12 0 -12 11z" />
    <glyph glyph-name="i" unicode="i" horiz-adv-x="208" 
d="M61 11v473q0 11 11 11h63q12 0 12 -11v-473q0 -11 -12 -11h-63q-11 0 -11 11zM70 595q-14 14 -14 34t14 34t34 14t34 -14t14 -34t-14 -34q-14 -13 -34 -13t-34 13z" />
    <glyph glyph-name="j" unicode="j" horiz-adv-x="208" 
d="M68 -58v542q0 11 11 11h64q11 0 11 -11v-542q0 -71 -41 -113.5t-111 -42.5q-68 0 -111 30q-11 5 -4 16l23 41q7 8 15 4q29 -19 62 -19q39 0 60 22t21 62zM77 595q-14 14 -14 34t14 34t34 14t34 -14t14 -34t-14 -34q-14 -13 -34 -13t-34 13z" />
    <glyph glyph-name="k" unicode="k" horiz-adv-x="493" 
d="M61 11v684q0 11 11 11h63q12 0 12 -11v-411q0 -11 10 -8q84 8 138.5 60.5t64.5 133.5l2 15q1 10 11 10h66q13 0 11 -12l-3 -17q-20 -131 -126 -203q-7 -4 -2 -11l153 -234q4 -6 1 -12t-10 -6h-71q-6 0 -11 6l-133 214q-4 7 -12 4q-38 -14 -81 -15q-8 0 -8 -9v-189
q0 -11 -12 -11h-63q-11 0 -11 11z" />
    <glyph glyph-name="l" unicode="l" horiz-adv-x="208" 
d="M61 11v684q0 11 12 11h63q11 0 11 -11v-684q0 -11 -11 -11h-63q-12 0 -12 11z" />
    <glyph glyph-name="m" unicode="m" horiz-adv-x="847" 
d="M61 11v473q0 11 11 11h55q9 0 11 -8l5 -44q1 -3 4 -4t5 2q52 61 143 61q109 0 150 -90q6 -10 12 0q52 90 164 90q83 0 126.5 -50.5t43.5 -143.5v-297q0 -11 -11 -11h-63q-11 0 -11 11v294q0 123 -108 123q-89 0 -124 -74q-10 -10 -10 -26v-317q0 -11 -11 -11h-63
q-11 0 -11 11v294q0 123 -107 123q-69 0 -113 -47q-12 -11 -12 -27v-343q0 -11 -12 -11h-63q-11 0 -11 11z" />
    <glyph glyph-name="n" unicode="n" horiz-adv-x="535" 
d="M61 11v473q0 11 12 11h54q9 0 11 -8l5 -50q1 -3 4 -3.5t5 1.5q58 67 156 67q83 0 127 -50t44 -144v-297q0 -11 -11 -11h-63q-11 0 -11 11v294q0 123 -111 123q-75 0 -124 -52q-12 -10 -12 -27v-338q0 -11 -11 -11h-63q-12 0 -12 11z" />
    <glyph glyph-name="o" unicode="o" horiz-adv-x="553" 
d="M39 221v53q0 102 67 166q68 65 171 65q102 0 170 -65q67 -64 67 -166v-53q0 -100 -67 -166q-68 -65 -170 -65q-103 0 -171 65q-67 66 -67 166zM123 274v-53q0 -72 42.5 -116t111.5 -44q68 0 110.5 44t42.5 116v53q0 72 -42.5 116t-110.5 44q-69 0 -111.5 -44t-42.5 -116z
" />
    <glyph glyph-name="p" unicode="p" 
d="M61 -201v685q0 11 11 11h55q8 0 11 -8l4 -44q2 -11 9 -3q53 62 145 62q89 0 149 -65q61 -64 61 -165v-50q0 -106 -60 -167q-59 -62 -149 -62t-142 58q-2 2 -5 1t-3 -5v-248q0 -11 -12 -11h-63q-11 0 -11 11zM280 430q-78 0 -122 -50q-11 -11 -11 -26v-214q0 -16 11 -25
q46 -51 122 -51q64 0 103.5 44t39.5 117v45q0 72 -39.5 116t-103.5 44z" />
    <glyph glyph-name="q" unicode="q" 
d="M39 222v50q0 101 59 166q58 64 148 64q95 0 148 -62q2 -2 5 -1.5t4 3.5l4 44q3 9 12 9h54q11 0 11 -11v-685q0 -11 -11 -11h-63q-11 0 -11 11v254q0 3 -3.5 4.5t-5.5 -1.5q-54 -63 -145 -63t-149 64q-57 65 -57 165zM123 270v-45q0 -73 39 -117t104 -44q76 0 121 50
q12 12 12 26v214q0 14 -12 26q-44 50 -121 50q-65 0 -104 -44t-39 -116z" />
    <glyph glyph-name="r" unicode="r" horiz-adv-x="380" 
d="M61 11v473q0 11 12 11h54q9 0 11 -8l4 -40q1 -3 4.5 -4t5.5 2q46 57 126 57q53 0 92 -27q11 -8 3 -16l-28 -44q-6 -7 -17 -2q-28 17 -60 17q-66 0 -110 -50q-11 -11 -11 -26v-343q0 -11 -11 -11h-63q-12 0 -12 11z" />
    <glyph glyph-name="s" unicode="s" horiz-adv-x="411" 
d="M216 504q71 0 125 -42q10 -7 3 -16l-30 -39q-6 -10 -17 -2q-38 26 -78 26q-35 0 -56 -18t-21 -43v-4q0 -30 20.5 -45t77.5 -31q76 -18 114 -48q38 -29 38 -96v-4q0 -66 -47.5 -109t-130.5 -43q-94 0 -165 54q-10 5 -2 16l30 40q7 10 17 2q53 -40 117 -40q47 0 72 22
t25 56v4q0 35 -23 51.5t-86 33.5q-75 18 -108 48.5t-33 88.5v4q0 58 45 96q46 38 113 38z" />
    <glyph glyph-name="t" unicode="t" horiz-adv-x="333" 
d="M82 504v116q0 12 11 12h63q11 0 11 -12v-116q0 -9 10 -9h108q12 0 12 -12v-35q0 -11 -12 -11h-108q-10 0 -10 -9v-303q0 -29 18 -45t46 -16q31 0 63 20q12 7 16 -4l24 -40q7 -11 -4 -16q-55 -31 -113 -31q-65 0 -100 31.5t-35 90.5v313q0 9 -10 9h-57q-11 0 -11 11v36
q0 11 11 11h57q10 0 10 9z" />
    <glyph glyph-name="u" unicode="u" horiz-adv-x="526" 
d="M56 188v295q0 12 11 12h63q12 0 12 -12v-293q0 -124 107 -124q68 0 119 53q12 12 12 26v339q0 11 11 11h63q11 0 11 -11v-473q0 -11 -11 -11h-55q-8 0 -11 8l-5 50q-1 3 -4 3.5t-4 -1.5q-57 -68 -150 -68q-82 0 -125.5 50.5t-43.5 145.5z" />
    <glyph glyph-name="v" unicode="v" horiz-adv-x="506" 
d="M216 7l-203 475q-2 5 1.5 9t8.5 4h64q9 0 13 -9l150 -368q0 -3 2.5 -4.5t5 0t2.5 4.5l150 368q2 9 13 9h64q5 0 8 -4t1 -9l-203 -475q-2 -8 -12 -8h-53q-9 0 -12 8z" />
    <glyph glyph-name="w" unicode="w" horiz-adv-x="741" 
d="M176 8l-153 475q-3 12 9 12h65q12 0 13 -10l112 -364q6 -8 11 0l126 311q2 8 12 8h5q7 0 12 -8l126 -311q2 -4 5.5 -3.5t4.5 3.5l113 364q1 10 13 10h65q12 0 9 -12l-153 -475q-5 -9 -13 -9h-58q-9 0 -12 8l-109 265q-1 4 -6 4q-4 0 -5 -4l-109 -265q-3 -8 -12 -8h-58
q-9 0 -13 9z" />
    <glyph glyph-name="x" unicode="x" horiz-adv-x="498" 
d="M201 266l-166 215q-4 5 -1.5 9.5t8.5 4.5h69q11 0 15 -7l119 -157q1 -3 6 -3t6 3l120 157q4 7 15 7h69q6 0 8 -4.5t-1 -9.5l-167 -215q-5 -6 0 -11l184 -241q4 -4 1.5 -9t-8.5 -5h-69q-10 0 -14 7l-137 181q-7 9 -14 0l-137 -181q-4 -7 -14 -7h-69q-6 0 -8.5 5t1.5 9
l184 241q5 5 0 11z" />
    <glyph glyph-name="y" unicode="y" horiz-adv-x="507" 
d="M210 38l-197 443q-2 5 1 9.5t8 4.5h64q10 0 14 -9l149 -354q1 -3 5 -3t5 3l155 354q4 9 14 9h61q5 0 8 -4t1 -9l-304 -685q-4 -9 -15 -9h-56q-5 0 -8 4.5t-1 9.5l96 220q4 7 0 16z" />
    <glyph glyph-name="z" unicode="z" horiz-adv-x="462" 
d="M59 442v41q0 12 11 12h356q12 0 12 -12v-2q0 -6 -4 -11l-280 -391q-4 -5 -1.5 -10t8.5 -5h257q12 0 12 -11v-41q0 -12 -12 -12h-382q-11 0 -11 11v3q0 7 4 11l278 391q3 4 0.5 9.5t-8.5 5.5h-229q-11 0 -11 11z" />
    <glyph glyph-name="braceleft" unicode="{" horiz-adv-x="300" 
d="M125 474v256q0 93 80 137q6 3 12 -1l40 -23q11 -10 1 -17q-50 -36 -50 -107v-245q0 -68 -49 -114q-6 -8 1 -14q48 -48 48 -115v-244q0 -71 50 -107q4 -3 4 -8.5t-5 -8.5l-38 -22q-7 -7 -14 -1q-80 44 -80 137v254q0 64 -53 114q-8 8 0 16q53 50 53 113z" />
    <glyph glyph-name="bar" unicode="|" horiz-adv-x="277" 
d="M113 -145v995q0 12 11 12h29q5 0 8.5 -4t3.5 -8v-995q0 -11 -12 -11h-29q-11 0 -11 11z" />
    <glyph glyph-name="braceright" unicode="}" horiz-adv-x="299" 
d="M109 474v245q0 71 -50 107q-10 7 1 17l39 22q6 5 13 1q80 -44 80 -137v-255q0 -60 53 -113q9 -9 0 -17q-53 -50 -53 -113v-255q0 -94 -79 -137q-8 -3 -13 1l-40 23q-11 10 -1 17q50 36 50 107v244q0 66 49 115q3 2 3 6.5t-3 6.5q-49 49 -49 115z" />
    <glyph glyph-name="asciitilde" unicode="~" horiz-adv-x="516" 
d="M167 332q25 0 48 -6q24 -6 34 -12l33 -19q46 -29 84 -29q48 0 87 39q5 5 13.5 4t12.5 -7l11 -16q8 -11 -2 -23q-54 -57 -128 -57q-39 0 -69 13l-16 7q-3 2 -15.5 9.5t-14.5 8.5q-43 28 -84 28q-47 0 -84 -37q-11 -11 -25 2l-12 16q-7 12 2 23q50 56 125 56z" />
    <glyph glyph-name="exclamdown" unicode="&#xa1;" horiz-adv-x="259" 
d="M172 284v-484q0 -11 -11 -11h-63q-11 0 -11 11v484q0 11 12 11h62q11 0 11 -11zM130 391q-23 0 -39 15.5t-16 38.5t16 39t39 16t38.5 -16t15.5 -39t-16 -38.5t-38 -15.5z" />
    <glyph glyph-name="cent" unicode="&#xa2;" horiz-adv-x="455" 
d="M39 221v53q0 91 59 156q61 65 153 74v79q0 12 11 12h28q12 0 12 -12v-79q62 -6 112 -39q8 -5 4 -15l-26 -43q-6 -11 -15 -3q-46 29 -101 29q-68 0 -111 -45q-42 -45 -42 -115v-51q0 -70 42 -115q43 -45 111 -45q56 0 99 29q12 5 16 -5l25 -42q6 -10 -4 -16
q-46 -31 -110 -37v-89q0 -11 -12 -11h-28q-11 0 -11 11v89q-92 7 -153 73q-59 65 -59 157z" />
    <glyph glyph-name="sterling" unicode="&#xa3;" horiz-adv-x="543" 
d="M301 714q88 0 150 -37q10 -3 5 -14l-19 -45q-6 -12 -16 -5q-46 28 -109 28q-66 0 -106 -43q-39 -43 -33 -110l8 -97q0 -8 9 -8h82q11 0 11 -12v-38q0 -12 -11 -12h-75q-10 0 -10 -10l9 -96q6 -72 -36 -126q-3 -4 -1 -8.5t7 -4.5h317q12 0 12 -11v-53q0 -12 -12 -12h-421
q-12 0 -12 12v37q0 9 7 15q63 56 54 142l-9 107q0 8 -9 8h-64q-12 0 -12 12v38q0 12 12 12h57q9 0 9 10l-9 97q-7 96 51 160q60 64 164 64z" />
    <glyph glyph-name="yen" unicode="&#xa5;" horiz-adv-x="621" 
d="M271 13v104h-170q-12 0 -12 12v24q0 12 12 12h170v56q0 12 -6 22l-4 6h-160q-12 0 -12 12v25q0 11 12 11h134l-216 393q-3 5 0 10.5t10 5.5h69q10 0 15 -9l195 -367q1 -4 5 -4h1q3 0 6 4l194 367q4 9 16 9h68q7 0 10 -5.5t0 -10.5l-216 -393h134q12 0 12 -11v-25
q0 -12 -12 -12h-161l-3 -6q-5 -10 -5 -22v-56h169q12 0 12 -12v-25q0 -11 -12 -11h-169v-104q0 -13 -14 -13h-59q-13 0 -13 13z" />
    <glyph glyph-name="brokenbar" unicode="&#xa6;" horiz-adv-x="277" 
d="M124 862h29q5 0 8.5 -4t3.5 -8v-435q0 -11 -12 -11h-29q-11 0 -11 11v435q0 12 11 12zM124 302h29q5 0 8.5 -4t3.5 -8v-435q0 -11 -12 -11h-29q-11 0 -11 11v435q0 12 11 12z" />
    <glyph glyph-name="section" unicode="&#xa7;" horiz-adv-x="567" 
d="M300 716q86 0 163 -53q9 -8 2 -16l-34 -45q-8 -9 -16 -2q-53 39 -115 39q-58 0 -91.5 -24t-33.5 -64v-4q0 -42 32 -63q31 -19 121 -45q97 -25 140 -62q42 -35 42 -104v-4q0 -77 -76 -117q-7 -5 0 -10q37 -21 54 -49.5t17 -72.5v-4q0 -84 -60 -135.5t-164 -51.5
q-113 0 -208 71q-9 8 -2 16l35 46q7 9 15 1q79 -57 160 -57q68 0 104 27.5t36 79.5v4q0 50 -49 72q-27 12 -123 38q-101 27 -141 61t-40 107v4q0 83 79 122q8 3 0 9q-55 39 -55 115v4q0 77 57 122t151 45zM213 399q-12 4 -21 -5q-40 -33 -40 -82v-3q0 -50 28 -72t109 -45
l33 -10l42 -12q13 -5 23 4q39 34 39 81v4q0 49 -28 70q-28 22 -105 44q-40 11 -80 26z" />
    <glyph glyph-name="dieresis" unicode="&#xa8;" horiz-adv-x="200" 
d="M7 668q18 0 30.5 -12.5t12.5 -29.5t-12.5 -29.5t-30.5 -12.5q-17 0 -29.5 12.5t-12.5 29.5t12.5 29.5t29.5 12.5zM192 668q18 0 30 -12.5t12 -29.5t-12 -29.5t-30 -12.5q-17 0 -29.5 12.5t-12.5 29.5t12.5 29.5t29.5 12.5z" />
    <glyph glyph-name="copyright" unicode="&#xa9;" horiz-adv-x="756" 
d="M379 673q137 0 227 -90t90 -229t-90 -229q-91 -89 -227 -89q-137 0 -229 89q-90 90 -90 229q0 141 90 229q91 90 229 90zM379 641q-123 0 -206 -81q-81 -80 -81 -206t81 -206q82 -80 206 -80q122 0 204 80q81 80 81 206t-81 206q-81 81 -204 81zM166 334v41q0 96 61 156
q62 60 157 60q77 0 132 -40q6 -5 2 -12l-24 -33q-7 -8 -14 -1q-39 30 -96 30q-70 0 -112 -43.5t-42 -116.5v-41q0 -73 42 -117t112 -44q57 0 95 31q10 5 14 -2l24 -33q5 -8 -2 -12q-55 -39 -131 -39q-96 0 -158 59q-60 60 -60 157z" />
    <glyph glyph-name="ordfeminine" unicode="&#xaa;" horiz-adv-x="467" 
d="M52 488v40q0 82 47 134q48 52 120 52q70 0 118 -50q4 -4 6 1l4 34q2 8 10 8h43q10 0 10 -9v-379q0 -10 -10 -10h-50q-4 0 -7.5 3t-3.5 7v31q0 9 -6 3q-48 -50 -115 -50q-74 0 -120 51q-46 52 -46 134zM121 526v-36q0 -57 31 -92t83 -35q59 0 95 39q9 9 9 20v172
q0 12 -9 20q-36 39 -95 39q-52 0 -83 -34.5t-31 -92.5z" />
    <glyph glyph-name="guillemotleft" unicode="&#xab;" horiz-adv-x="406" 
d="M40 250q0 5 3 10l111 155q5 8 14 8h32q6 0 8 -4.5t-1 -8.5l-98 -153q-5 -7 0 -14l98 -153q3 -4 1 -8.5t-8 -4.5h-32q-9 0 -14 8l-111 155q-3 4 -3 10zM197 250q0 5 3 10l111 155q5 8 14 8h32q6 0 8 -4.5t-1 -8.5l-98 -153q-5 -7 0 -14l98 -153q3 -4 1 -8.5t-8 -4.5h-32
q-9 0 -14 8l-111 155q-3 4 -3 10z" />
    <glyph glyph-name="logicalnot" unicode="&#xac;" horiz-adv-x="573" 
d="M50 421v41q0 12 12 12h449q12 0 12 -12v-219q0 -11 -11 -11h-46q-11 0 -11 11v158q0 9 -10 9h-383q-12 0 -12 11z" />
    <glyph glyph-name="registered" unicode="&#xae;" horiz-adv-x="509" 
d="M255 723q92 0 153 -61q61 -60 61 -154t-61 -155q-62 -60 -153 -60q-93 0 -154 60q-61 61 -61 155t61 154q61 61 154 61zM255 693q-81 0 -133 -52t-52 -133t52 -133t133 -52q79 0 131 52q53 53 53 133t-53 133q-52 52 -131 52zM157 384v255q0 9 10 9h104q36 0 59.5 -23
t23.5 -60v-2q0 -27 -15.5 -47.5t-40.5 -29.5q-10 -2 -5 -10q17 -63 72 -64q10 0 10 -10v-20q0 -10 -10 -10q-45 0 -75 26.5t-40 73.5q-2 9 -9 9h-32q-8 0 -8 -9v-88q0 -9 -10 -9h-24q-10 0 -10 9zM201 600v-74q0 -8 8 -8h53q21 0 33.5 11.5t12.5 32.5v2q0 44 -49 44h-50
q-8 0 -8 -8z" />
    <glyph glyph-name="overscore" unicode="&#xaf;" horiz-adv-x="400" 
d="M77 648h247q11 0 11 -12v-33q0 -12 -11 -12h-247q-12 0 -12 12v33q0 4 3.5 8t8.5 4z" />
    <glyph glyph-name="degree" unicode="&#xb0;" horiz-adv-x="247" 
d="M45 684q32 29 78 29t78 -29q31 -28 31 -77t-31 -77q-32 -29 -78 -29t-78 29q-30 28 -30 77t30 77zM78 560q17 -17 45 -17t45 17t17 47t-17 47t-45 17t-45 -17t-17 -47t17 -47z" />
    <glyph glyph-name="plusminus" unicode="&#xb1;" horiz-adv-x="573" 
d="M255 478v154q0 12 12 12h40q12 0 12 -12v-154q0 -10 10 -10h182q12 0 12 -11v-41q0 -4 -3.5 -8t-8.5 -4h-182q-10 0 -10 -9v-154q0 -12 -12 -12h-40q-12 0 -12 12v154q0 9 -10 9h-183q-12 0 -12 12v41q0 11 12 11h183q10 0 10 10zM50 129v41q0 11 12 11h449q12 0 12 -11
v-41q0 -12 -12 -12h-449q-12 0 -12 12z" />
    <glyph glyph-name="twosuperior" unicode="&#xb2;" horiz-adv-x="351" 
d="M169 862q67 0 107 -36.5t40 -97.5v-12q0 -54 -57 -119l-119 -137q-3 -4 -1 -9t8 -5h147q12 0 12 -12v-39q0 -11 -12 -11h-248q-11 0 -11 11v25q0 8 6 14l167 198q39 46 39 82v11q0 34 -22.5 54.5t-59.5 20.5q-45 0 -76 -21q-13 -8 -17 5l-15 32q-5 11 5 15q47 31 107 31z
" />
    <glyph glyph-name="threesuperior" unicode="&#xb3;" horiz-adv-x="339" 
d="M143 378q-53 0 -97 26q-9 5 -5 15l15 34q5 12 16 6q32 -19 69 -19q43 0 70.5 26t27.5 66v9q0 41 -23 64t-64 23q-28 0 -54 -9q-8 -3 -14 5l-8 12q-5 8 1 14l115 129q4 5 1.5 10t-9.5 5h-122q-11 0 -11 12v38q0 12 11 12h221q12 0 12 -12v-27q0 -8 -7 -15l-111 -121
q58 -1 94.5 -38.5t36.5 -99.5v-12q0 -66 -47 -110q-46 -43 -118 -43z" />
    <glyph glyph-name="acute" unicode="&#xb4;" horiz-adv-x="400" 
d="M103 591l138 107q11 8 18 1l39 -24q5 -3 5 -9t-6 -10l-147 -101q-10 -7 -18 0l-29 18q-5 3 -5 9t5 9z" />
    <glyph glyph-name="mu" unicode="&#xb5;" horiz-adv-x="526" 
d="M58 -201v685q0 11 11 11h63q11 0 11 -11v-350q0 -15 11 -26q38 -42 96 -42q67 0 118 53q12 12 12 26v339q0 11 11 11h63q11 0 11 -11v-473q0 -11 -11 -11h-55q-8 0 -11 8l-5 50q-1 3 -4 3.5t-4 -1.5q-57 -63 -131 -63q-55 0 -93 38q-8 3 -8 -6v-230q0 -11 -11 -11h-63
q-11 0 -11 11z" />
    <glyph glyph-name="paragraph" unicode="&#xb6;" horiz-adv-x="778" 
d="M32 470v11q0 101 67 162q67 63 171 63h459q5 0 8.5 -4t3.5 -8v-53q0 -11 -12 -11h-71q-10 0 -10 -10v-609q0 -11 -11 -11h-64q-11 0 -11 11v609q0 10 -9 10h-183q-10 0 -10 -10v-609q0 -11 -11 -11h-64q-11 0 -11 11v228q0 10 -9 10q-101 1 -168 62q-65 62 -65 159z
M116 480v-9q0 -71 40 -110.5t109 -39.5q9 0 9 10v289q0 10 -9 10q-69 0 -109 -39.5t-40 -110.5z" />
    <glyph glyph-name="middot" unicode="&#xb7;" horiz-adv-x="214" 
d="M54 355q0 22 15 37t38 15t38 -15t15 -37q0 -23 -15 -38t-38 -15t-38 15t-15 38z" />
    <glyph glyph-name="cedilla" unicode="&#xb8;" horiz-adv-x="400" 
d="M261 -154v5q0 25 -19 39t-54 14q-28 0 -58 -15q-8 -3 -13 3l-5 7q-4 6 -1 11l56 90h49l-28 -45q-2 -2 -0.5 -5.5t5.5 -3.5h9q50 0 81 -25t31 -67v-10q0 -45 -35 -73.5t-92 -28.5q-43 0 -83 21q-10 6 -4 16l11 18q6 8 16 4q27 -13 55 -13q79 0 79 58z" />
    <glyph glyph-name="onesuperior" unicode="&#xb9;" horiz-adv-x="212" 
d="M94 856h39q12 0 12 -11v-450q0 -11 -12 -11h-45q-11 0 -11 11v377q0 9 -9 9h-8q-6 0 -9.5 6t-0.5 11l32 51q4 7 12 7z" />
    <glyph glyph-name="ordmasculine" unicode="&#xba;" horiz-adv-x="487" 
d="M52 489v38q0 81 54 133q55 53 137 53t137 -53q55 -52 55 -133v-38q0 -81 -55 -133q-55 -53 -137 -53q-81 0 -137 53q-54 52 -54 133zM122 526v-36q0 -57 33 -92t88 -35t88.5 35t33.5 92v36q0 57 -33.5 92t-88.5 35t-88 -35t-33 -92z" />
    <glyph glyph-name="guillemotright" unicode="&#xbb;" horiz-adv-x="406" 
d="M368 250q0 -6 -3 -10l-111 -155q-5 -8 -14 -8h-31q-6 0 -8 4.5t1 8.5l97 153q5 7 0 14l-97 153q-3 4 -1 8.5t8 4.5h31q9 0 14 -8l111 -155q3 -5 3 -10zM211 250q0 -6 -3 -10l-111 -155q-5 -8 -14 -8h-31q-6 0 -8 4.5t1 8.5l97 153q5 7 0 14l-97 153q-3 4 -1 8.5t8 4.5h31
q9 0 14 -8l111 -155q3 -5 3 -10z" />
    <glyph glyph-name="onequarter" unicode="&#xbc;" horiz-adv-x="689" 
d="M125 15l305 679q4 12 17 12h37q6 0 9.5 -5t1.5 -11l-305 -678q-4 -12 -17 -12h-37q-6 0 -9.5 4.5t-1.5 10.5zM97 706h39q12 0 12 -11v-450q0 -11 -12 -11h-45q-11 0 -11 11v377q0 9 -9 9h-8q-6 0 -9.5 6t-0.5 11l32 51q4 7 12 7zM346 181l192 285q4 6 13 6h38
q11 0 11 -11v-262q0 -9 9 -9h35q12 0 12 -11v-34q0 -12 -12 -12h-35q-9 0 -9 -9v-113q0 -11 -11 -11h-45q-11 0 -11 11v113q0 9 -10 9h-171q-12 0 -12 12v20q0 9 6 16zM518 332l-91 -129q-7 -13 7 -13h89q10 0 10 9v129q0 5 -5.5 7t-9.5 -3z" />
    <glyph glyph-name="onehalf" unicode="&#xbd;" horiz-adv-x="741" 
d="M125 15l305 679q4 12 17 12h37q6 0 9.5 -5t1.5 -11l-305 -678q-4 -12 -17 -12h-37q-6 0 -9.5 4.5t-1.5 10.5zM97 706h39q12 0 12 -11v-450q0 -11 -12 -11h-45q-11 0 -11 11v377q0 9 -9 9h-8q-6 0 -9.5 6t-0.5 11l32 51q4 7 12 7zM550 478q67 0 106.5 -36.5t39.5 -97.5
v-12q0 -54 -56 -119l-119 -137q-3 -4 -1.5 -9t7.5 -5h148q11 0 11 -12v-39q0 -11 -11 -11h-248q-11 0 -11 11v25q0 9 5 14l168 199q39 45 39 81v11q0 35 -22.5 55.5t-59.5 20.5q-43 0 -77 -22q-12 -6 -17 5l-15 33q-3 7 5 15q50 30 108 30z" />
    <glyph glyph-name="threequarters" unicode="&#xbe;" horiz-adv-x="809" 
d="M468 181l193 285q5 6 12 6h38q11 0 11 -11v-262q0 -9 10 -9h34q12 0 12 -11v-34q0 -12 -12 -12h-34q-10 0 -10 -9v-113q0 -11 -11 -11h-44q-12 0 -12 11v113q0 9 -10 9h-170q-12 0 -12 12v20q0 8 5 16zM158 228q-54 0 -98 27q-9 4 -4 14l14 34q5 11 17 6q29 -19 68 -19
q43 0 71 26t28 66v9q0 41 -23 64t-64 23q-31 0 -55 -9q-8 -3 -13 5l-8 12q-5 8 1 14l114 129q4 5 1.5 10t-8.5 5h-122q-11 0 -11 12v38q0 12 11 12h221q12 0 12 -12v-27q0 -8 -7 -15l-111 -121q58 -1 94.5 -38.5t36.5 -99.5v-12q0 -66 -47 -110q-46 -43 -118 -43zM252 15
l305 679q5 12 17 12h36q7 0 10 -5t1 -11l-304 -678q-5 -12 -17 -12h-37q-6 0 -9.5 4.5t-1.5 10.5zM641 332l-92 -129q-6 -13 7 -13h89q10 0 10 9v129q0 5 -5 7t-9 -3z" />
    <glyph glyph-name="questiondown" unicode="&#xbf;" horiz-adv-x="463" 
d="M250 -219q-102 0 -163 52.5t-61 140.5v4q0 59 27 98t88 76q43 27 61 55t18 72v7q0 11 12 11h59q11 0 11 -12v-7q0 -65 -24 -101q-22 -35 -75 -70q-49 -32 -69 -59t-20 -67v-4q0 -51 35 -83t101 -32q69 0 124 40q11 8 16 -2l35 -45q6 -10 -3 -16q-77 -58 -172 -58z
M301 484q16 -15 16 -38t-16 -39q-16 -15 -39 -15t-39 15q-16 16 -16 39t16 38q16 16 39 16t39 -16z" />
    <glyph glyph-name="Agrave" unicode="&#xc0;" horiz-adv-x="677" 
d="M31 15l293 682q3 9 12 9h11q9 0 12 -9l294 -682q2 -5 -1 -10t-9 -5h-64q-13 0 -16 10l-53 123q-4 13 -19 13h-300q-14 0 -18 -13l-53 -123q-4 -10 -16 -10h-63q-6 0 -9.5 4.5t-0.5 10.5zM335 522l-126 -301q-5 -9 5 -9h255q8 0 6 9l-127 301q-2 5 -7 5q-4 0 -6 -5z
M244 886l38 24q9 6 19 -1l138 -107q5 -3 4.5 -9t-5.5 -9l-28 -18q-9 -7 -18 0l-148 101q-5 4 -5 10t5 9z" />
    <glyph glyph-name="Aacute" unicode="&#xc1;" horiz-adv-x="677" 
d="M31 15l293 682q3 9 12 9h11q9 0 12 -9l294 -682q2 -5 -1 -10t-9 -5h-64q-13 0 -16 10l-53 123q-4 13 -19 13h-300q-14 0 -18 -13l-53 -123q-4 -10 -16 -10h-63q-6 0 -9.5 4.5t-0.5 10.5zM335 522l-126 -301q-5 -9 5 -9h255q8 0 6 9l-127 301q-2 5 -7 5q-4 0 -6 -5z
M243 802l138 107q11 8 18 1l39 -24q5 -3 5 -9t-6 -10l-147 -101q-10 -8 -18 0l-29 18q-5 3 -5 9t5 9z" />
    <glyph glyph-name="Acircumflex" unicode="&#xc2;" horiz-adv-x="677" 
d="M31 15l293 682q3 9 12 9h11q9 0 12 -9l294 -682q2 -5 -1 -10t-9 -5h-64q-13 0 -16 10l-53 123q-4 13 -19 13h-300q-14 0 -18 -13l-53 -123q-4 -10 -16 -10h-63q-6 0 -9.5 4.5t-0.5 10.5zM335 522l-126 -301q-5 -9 5 -9h255q8 0 6 9l-127 301q-2 5 -7 5q-4 0 -6 -5z
M349 901l132 -94q4 -3 4 -8.5t-4 -8.5l-24 -17q-9 -5 -15 0l-94 62q-7 2 -14 0l-94 -62q-6 -5 -15 0l-24 17q-4 3 -4 8.5t4 8.5l132 94q8 6 16 0z" />
    <glyph glyph-name="Atilde" unicode="&#xc3;" horiz-adv-x="677" 
d="M31 15l293 682q3 9 12 9h11q9 0 12 -9l294 -682q2 -5 -1 -10t-9 -5h-64q-13 0 -16 10l-53 123q-4 13 -19 13h-300q-14 0 -18 -13l-53 -123q-4 -10 -16 -10h-63q-6 0 -9.5 4.5t-0.5 10.5zM335 522l-126 -301q-5 -9 5 -9h255q8 0 6 9l-127 301q-2 5 -7 5q-4 0 -6 -5z
M350 859q32 -18 54 -18q29 0 55 22q11 8 16 -3l16 -24q5 -10 -1 -14q-33 -39 -86 -39q-34 0 -75 24q-31 18 -54 18q-26 0 -54 -22q-9 -9 -15 4l-16 24q-7 8 1 13q36 39 84 39q36 0 75 -24z" />
    <glyph glyph-name="Adieresis" unicode="&#xc4;" horiz-adv-x="677" 
d="M31 15l293 682q3 9 12 9h11q9 0 12 -9l294 -682q2 -5 -1 -10t-9 -5h-64q-13 0 -16 10l-53 123q-4 13 -19 13h-300q-14 0 -18 -13l-53 -123q-4 -10 -16 -10h-63q-6 0 -9.5 4.5t-0.5 10.5zM335 522l-126 -301q-5 -9 5 -9h255q8 0 6 9l-127 301q-2 5 -7 5q-4 0 -6 -5z
M248 879q18 0 30.5 -12.5t12.5 -29.5t-12.5 -29.5t-30.5 -12.5q-17 0 -29.5 12.5t-12.5 29.5t12.5 29.5t29.5 12.5zM433 879q18 0 30 -12.5t12 -29.5t-12 -29.5t-30 -12.5q-17 0 -29.5 12.5t-12.5 29.5t12.5 29.5t29.5 12.5z" />
    <glyph glyph-name="Aring" unicode="&#xc5;" horiz-adv-x="677" 
d="M31 15l293 682q3 9 12 9h11q9 0 12 -9l294 -682q2 -5 -1 -10t-9 -5h-64q-13 0 -16 10l-53 123q-4 13 -19 13h-300q-14 0 -18 -13l-53 -123q-4 -10 -16 -10h-63q-6 0 -9.5 4.5t-0.5 10.5zM335 522l-126 -301q-5 -9 5 -9h255q8 0 6 9l-127 301q-2 5 -7 5q-4 0 -6 -5z
M340 918q37 0 60.5 -22.5t23.5 -58.5t-24 -58t-60 -22t-59 22t-23 58t23 58.5t59 22.5zM340 794q43 0 43 43q0 44 -43 44q-19 0 -30 -11.5t-11 -32.5q0 -20 11 -31.5t30 -11.5z" />
    <glyph glyph-name="AE" unicode="&#xc6;" horiz-adv-x="875" 
d="M31 15l293 682q4 9 12 9h490q12 0 12 -11v-54q0 -12 -12 -12h-427q-10 0 -6 -10l97 -223q4 -9 13 -9h238q12 0 12 -12v-48q0 -11 -12 -11h-207q-11 0 -6 -11l95 -220q5 -9 13 -9h190q12 0 12 -11v-53q0 -12 -12 -12h-246q-13 0 -17 10l-52 123q-6 13 -20 13h-299
q-15 0 -19 -13l-52 -123q-4 -10 -16 -10h-64q-6 0 -9.5 4.5t-0.5 10.5zM335 522l-126 -301q-5 -9 6 -9h254q4 0 6 3t0 6l-127 301q-2 5 -6 5q-5 0 -7 -5z" />
    <glyph glyph-name="Ccedilla" unicode="&#xc7;" horiz-adv-x="600" 
d="M437 -154v5q0 25 -19 39t-54 14q-28 0 -58 -15q-8 -3 -13 3l-5 7q-4 6 -1 11l51 83q-129 13 -208 103q-78 90 -78 227v59q0 149 92 241q92 93 240 93q91 0 167 -46q9 -6 3 -16l-35 -47q-7 -9 -17 -3q-52 33 -118 33q-110 0 -178 -71q-66 -71 -66 -184v-59q0 -113 66 -184
q67 -70 178 -70q64 0 117 32q10 7 17 -2l36 -48q7 -10 -3 -16q-73 -43 -165 -45l-22 -35q-2 -2 -0.5 -5.5t5.5 -3.5h9q50 0 81 -25t31 -67v-10q0 -45 -35 -73.5t-92 -28.5q-43 0 -83 21q-10 6 -4 16l11 18q6 8 16 4q27 -13 55 -13q79 0 79 58z" />
    <glyph glyph-name="Egrave" unicode="&#xc8;" horiz-adv-x="576" 
d="M80 11v684q0 11 12 11h432q12 0 12 -11v-54q0 -12 -12 -12h-349q-9 0 -9 -8v-225q0 -9 9 -9h247q12 0 12 -12v-48q0 -11 -12 -11h-247q-9 0 -9 -9v-222q0 -9 9 -9h349q12 0 12 -11v-53q0 -12 -12 -12h-433q-11 0 -11 11zM210 886l38 24q9 6 19 -1l138 -107q5 -3 4.5 -9
t-5.5 -9l-28 -18q-9 -7 -18 0l-148 101q-5 4 -5 10t5 9z" />
    <glyph glyph-name="Eacute" unicode="&#xc9;" horiz-adv-x="576" 
d="M80 11v684q0 11 12 11h432q12 0 12 -11v-54q0 -12 -12 -12h-349q-9 0 -9 -8v-225q0 -9 9 -9h247q12 0 12 -12v-48q0 -11 -12 -11h-247q-9 0 -9 -9v-222q0 -9 9 -9h349q12 0 12 -11v-53q0 -12 -12 -12h-433q-11 0 -11 11zM199 802l138 107q11 8 18 1l39 -24q5 -3 5 -9
t-6 -10l-147 -101q-10 -8 -18 0l-29 18q-5 3 -5 9t5 9z" />
    <glyph glyph-name="Ecircumflex" unicode="&#xca;" horiz-adv-x="576" 
d="M80 11v684q0 11 12 11h432q12 0 12 -11v-54q0 -12 -12 -12h-349q-9 0 -9 -8v-225q0 -9 9 -9h247q12 0 12 -12v-48q0 -11 -12 -11h-247q-9 0 -9 -9v-222q0 -9 9 -9h349q12 0 12 -11v-53q0 -12 -12 -12h-433q-11 0 -11 11zM319 901l132 -94q5 -3 5 -8.5t-5 -8.5l-24 -17
q-9 -5 -15 0l-94 62q-7 2 -14 0l-94 -62q-6 -5 -15 0l-24 17q-5 3 -5 8.5t5 8.5l132 94q8 6 16 0z" />
    <glyph glyph-name="Edieresis" unicode="&#xcb;" horiz-adv-x="576" 
d="M80 11v684q0 11 12 11h432q12 0 12 -11v-54q0 -12 -12 -12h-349q-9 0 -9 -8v-225q0 -9 9 -9h247q12 0 12 -12v-48q0 -11 -12 -11h-247q-9 0 -9 -9v-222q0 -9 9 -9h349q12 0 12 -11v-53q0 -12 -12 -12h-433q-11 0 -11 11zM216 879q18 0 30.5 -12.5t12.5 -29.5t-12.5 -29.5
t-30.5 -12.5q-17 0 -29.5 12.5t-12.5 29.5t12.5 29.5t29.5 12.5zM401 879q18 0 30 -12.5t12 -29.5t-12 -29.5t-30 -12.5q-17 0 -29.5 12.5t-12.5 29.5t12.5 29.5t29.5 12.5z" />
    <glyph glyph-name="Igrave" unicode="&#xcc;" horiz-adv-x="246" 
d="M26 886l38 24q9 6 19 -1l138 -107q5 -3 4.5 -9t-5.5 -9l-28 -18q-9 -8 -18 0l-148 101q-5 4 -5 10t5 9zM80 11v684q0 11 11 11h64q11 0 11 -11v-684q0 -11 -11 -11h-64q-11 0 -11 11z" />
    <glyph glyph-name="Iacute" unicode="&#xcd;" horiz-adv-x="246" 
d="M25 802l138 107q11 8 18 1l39 -24q5 -3 5 -9t-6 -10l-147 -101q-10 -8 -18 0l-29 18q-5 3 -5 9t5 9zM80 11v684q0 11 11 11h64q11 0 11 -11v-684q0 -11 -11 -11h-64q-11 0 -11 11z" />
    <glyph glyph-name="Icircumflex" unicode="&#xce;" horiz-adv-x="246" 
d="M80 11v684q0 11 11 11h64q11 0 11 -11v-684q0 -11 -11 -11h-64q-11 0 -11 11zM131 901l132 -94q5 -3 5 -8.5t-5 -8.5l-24 -17q-9 -5 -15 0l-94 62q-7 2 -14 0l-94 -62q-6 -5 -15 0l-24 17q-5 3 -5 8.5t5 8.5l132 94q8 6 16 0z" />
    <glyph glyph-name="Idieresis" unicode="&#xcf;" horiz-adv-x="246" 
d="M30 879q18 0 30.5 -12.5t12.5 -29.5t-12.5 -29.5t-30.5 -12.5q-17 0 -29.5 12.5t-12.5 29.5t12.5 29.5t29.5 12.5zM215 879q18 0 30 -12.5t12 -29.5t-12 -29.5t-30 -12.5q-17 0 -29.5 12.5t-12.5 29.5t12.5 29.5t29.5 12.5zM80 11v684q0 11 11 11h64q11 0 11 -11v-684
q0 -11 -11 -11h-64q-11 0 -11 11z" />
    <glyph glyph-name="Eth" unicode="&#xd0;" horiz-adv-x="697" 
d="M92 706h233q146 0 233 -87t87 -234v-66q0 -149 -90 -235q-89 -84 -230 -84h-233q-12 0 -12 12v302q0 9 -9 9h-53q-4 0 -8 3.5t-4 8.5v30q0 12 12 12h53q9 0 9 9v309q0 11 12 11zM325 629h-150q-9 0 -9 -8v-235q0 -3 3 -6t6 -3h54q11 0 11 -12v-30q0 -12 -11 -12h-54
q-9 0 -9 -9v-229q0 -9 9 -9h150q108 0 170 65t62 178v66q0 113 -61.5 178.5t-170.5 65.5z" />
    <glyph glyph-name="Ntilde" unicode="&#xd1;" horiz-adv-x="742" 
d="M80 11v684q0 11 11 11h7q7 0 11 -4l456 -504q2 -2 4.5 -2.5t4.5 1t2 4.5v494q0 11 11 11h64q11 0 11 -11v-683q0 -12 -12 -12h-7q-7 0 -12 6l-453 505q-3 3 -7.5 1.5t-4.5 -5.5v-496q0 -11 -11 -11h-64q-11 0 -11 11zM383 859q31 -18 54 -18q29 0 55 22q11 8 16 -3
l16 -24q5 -10 -1 -14q-33 -39 -86 -39q-35 0 -75 24q-32 18 -54 18q-26 0 -54 -22q-9 -9 -15 4l-16 24q-7 8 1 13q36 39 84 39q36 0 75 -24z" />
    <glyph glyph-name="Ograve" unicode="&#xd2;" horiz-adv-x="743" 
d="M52 323v60q0 151 87 242t233 91q145 0 232 -91t87 -242v-60q0 -151 -87 -242t-232 -91q-146 0 -233 91t-87 242zM140 383v-60q0 -118 62 -186q63 -68 170 -68t169 68t62 186v60q0 118 -62 186t-169 68t-170 -68q-62 -68 -62 -186zM275 886l38 24q9 6 19 -1l138 -107
q5 -3 4.5 -9t-5.5 -9l-28 -18q-9 -7 -18 0l-148 101q-5 4 -5 10t5 9z" />
    <glyph glyph-name="Oacute" unicode="&#xd3;" horiz-adv-x="743" 
d="M52 323v60q0 151 87 242t233 91q145 0 232 -91t87 -242v-60q0 -151 -87 -242t-232 -91q-146 0 -233 91t-87 242zM140 383v-60q0 -118 62 -186q63 -68 170 -68t169 68t62 186v60q0 118 -62 186t-169 68t-170 -68q-62 -68 -62 -186zM274 802l138 107q11 8 18 1l39 -24
q5 -3 5 -9t-6 -10l-147 -101q-11 -8 -18 0l-29 18q-5 3 -5 9t5 9z" />
    <glyph glyph-name="Ocircumflex" unicode="&#xd4;" horiz-adv-x="743" 
d="M52 323v60q0 151 87 242t233 91q145 0 232 -91t87 -242v-60q0 -151 -87 -242t-232 -91q-146 0 -233 91t-87 242zM140 383v-60q0 -118 62 -186q63 -68 170 -68t169 68t62 186v60q0 118 -62 186t-169 68t-170 -68q-62 -68 -62 -186zM380 901l132 -94q4 -3 4 -8.5t-4 -8.5
l-24 -17q-9 -5 -15 0l-94 62q-7 2 -14 0l-94 -62q-6 -5 -15 0l-24 17q-4 3 -4 8.5t4 8.5l132 94q8 6 16 0z" />
    <glyph glyph-name="Otilde" unicode="&#xd5;" horiz-adv-x="743" 
d="M52 323v60q0 151 87 242t233 91q145 0 232 -91t87 -242v-60q0 -151 -87 -242t-232 -91q-146 0 -233 91t-87 242zM140 383v-60q0 -118 62 -186q63 -68 170 -68t169 68t62 186v60q0 118 -62 186t-169 68t-170 -68q-62 -68 -62 -186zM381 859q31 -18 54 -18q29 0 55 22
q11 8 16 -3l16 -24q5 -10 -1 -14q-33 -39 -86 -39q-35 0 -75 24q-32 18 -54 18q-26 0 -54 -22q-9 -9 -15 4l-16 24q-7 8 1 13q36 39 84 39q36 0 75 -24z" />
    <glyph glyph-name="Odieresis" unicode="&#xd6;" horiz-adv-x="743" 
d="M52 323v60q0 151 87 242t233 91q145 0 232 -91t87 -242v-60q0 -151 -87 -242t-232 -91q-146 0 -233 91t-87 242zM140 383v-60q0 -118 62 -186q63 -68 170 -68t169 68t62 186v60q0 118 -62 186t-169 68t-170 -68q-62 -68 -62 -186zM279 879q18 0 30.5 -12.5t12.5 -29.5
t-12.5 -29.5t-30.5 -12.5q-17 0 -29.5 12.5t-12.5 29.5t12.5 29.5t29.5 12.5zM464 879q18 0 30 -12.5t12 -29.5t-12 -29.5t-30 -12.5q-17 0 -29.5 12.5t-12.5 29.5t12.5 29.5t29.5 12.5z" />
    <glyph glyph-name="multiply" unicode="&#xd7;" horiz-adv-x="472" 
d="M192 359l-155 156q-8 9 0 17l29 28q7 7 17 0l155 -155q5 -7 13 0l155 155q8 8 16 0l29 -29q11 -8 0 -16l-155 -155q-6 -6 0 -13l155 -155q8 -8 0 -16l-29 -30q-8 -8 -17 0l-154 156q-7 4 -13 -1l-155 -155q-9 -8 -17 0l-29 29q-8 8 1 17l154 154q7 7 0 13z" />
    <glyph glyph-name="Oslash" unicode="&#xd8;" horiz-adv-x="743" 
d="M52 323v60q0 151 87 242t233 91q63 0 117 -18l21 46q4 12 16 12h40q6 0 9.5 -5t1.5 -11l-31 -69q69 -42 107 -116t38 -172v-60q0 -151 -87 -242t-232 -91q-65 0 -123 20l-21 -48q-6 -12 -17 -12h-40q-6 0 -9.5 4.5t-1.5 10.5l32 72q-67 43 -103.5 117t-36.5 169zM603 323
v60q0 145 -91 212l-230 -512q44 -14 90 -14q107 0 169 68t62 186zM140 383v-60q0 -141 87 -209l229 510q-40 13 -84 13q-107 0 -170 -68q-62 -68 -62 -186z" />
    <glyph glyph-name="Ugrave" unicode="&#xd9;" horiz-adv-x="696" 
d="M74 277v418q0 11 12 11h64q11 0 11 -11v-418q0 -208 187 -208t187 208v418q0 11 11 11h64q11 0 11 -11v-418q0 -137 -72 -212t-201 -75t-201.5 75t-72.5 212zM251 886l38 24q9 6 19 -1l138 -107q5 -3 4.5 -9t-5.5 -9l-28 -18q-9 -7 -18 0l-148 101q-5 4 -5 10t5 9z" />
    <glyph glyph-name="Uacute" unicode="&#xda;" horiz-adv-x="696" 
d="M74 277v418q0 11 12 11h64q11 0 11 -11v-418q0 -208 187 -208t187 208v418q0 11 11 11h64q11 0 11 -11v-418q0 -137 -72 -212t-201 -75t-201.5 75t-72.5 212zM250 802l138 107q11 8 18 1l39 -24q5 -3 5 -9t-6 -10l-147 -101q-11 -8 -18 0l-29 18q-5 3 -5 9t5 9z" />
    <glyph glyph-name="Ucircumflex" unicode="&#xdb;" horiz-adv-x="696" 
d="M74 277v418q0 11 12 11h64q11 0 11 -11v-418q0 -208 187 -208t187 208v418q0 11 11 11h64q11 0 11 -11v-418q0 -137 -72 -212t-201 -75t-201.5 75t-72.5 212zM356 901l132 -94q4 -3 4 -8.5t-4 -8.5l-24 -17q-9 -5 -15 0l-94 62q-7 2 -14 0l-94 -62q-6 -5 -15 0l-24 17
q-4 3 -4 8.5t4 8.5l132 94q8 6 16 0z" />
    <glyph glyph-name="Udieresis" unicode="&#xdc;" horiz-adv-x="696" 
d="M74 277v418q0 11 12 11h64q11 0 11 -11v-418q0 -208 187 -208t187 208v418q0 11 11 11h64q11 0 11 -11v-418q0 -137 -72 -212t-201 -75t-201.5 75t-72.5 212zM255 879q18 0 30.5 -12.5t12.5 -29.5t-12.5 -29.5t-30.5 -12.5q-17 0 -29.5 12.5t-12.5 29.5t12.5 29.5
t29.5 12.5zM440 879q18 0 30 -12.5t12 -29.5t-12 -29.5t-30 -12.5q-17 0 -29.5 12.5t-12.5 29.5t12.5 29.5t29.5 12.5z" />
    <glyph glyph-name="Yacute" unicode="&#xdd;" horiz-adv-x="633" 
d="M277 13v208q0 12 -6 22l-246 447q-3 5 0 10.5t10 5.5h69q10 0 15 -9l195 -367q1 -4 5 -4h1q3 0 6 4l194 367q4 9 16 9h68q7 0 10 -5.5t0 -10.5l-246 -447q-5 -10 -5 -22v-208q0 -13 -14 -13h-59q-13 0 -13 13zM222 802l138 107q11 8 18 1l39 -24q5 -3 5 -9t-6 -10
l-147 -101q-10 -7 -18 0l-29 18q-5 3 -5 9t5 9z" />
    <glyph glyph-name="Thorn" unicode="&#xde;" horiz-adv-x="616" 
d="M80 11v684q0 11 11 11h64q11 0 11 -11v-107q0 -9 9 -9h201q90 0 149 -59t59 -149v-7q0 -94 -64 -152q-63 -57 -142 -57h-203q-9 0 -9 -9v-135q0 -11 -11 -11h-64q-11 0 -11 11zM341 502h-166q-9 0 -9 -10v-257q0 -10 9 -10h175q63 0 100.5 36.5t37.5 97.5v7q0 64 -39 100
t-108 36z" />
    <glyph glyph-name="germandbls" unicode="&#xdf;" horiz-adv-x="554" 
d="M61 11v514q0 74 54 125q55 51 143 51h18q86 0 140 -48q54 -47 54 -123v-7q0 -83 -75 -129q-9 -6 1 -12q55 -21 87 -67t32 -104v-8q0 -84 -61 -144q-62 -59 -157 -59h-55q-11 0 -11 11v47q0 11 11 11h38q65 0 104 37t39 95v8q0 57 -36.5 92t-101.5 35h-43q-11 0 -11 11v42
q0 11 11 11h20q52 1 86.5 31.5t34.5 79.5v7q0 50 -29.5 79.5t-81.5 29.5h-12q-53 0 -83 -31t-30 -80v-505q0 -11 -11 -11h-64q-11 0 -11 11z" />
    <glyph glyph-name="agrave" unicode="&#xe0;" 
d="M39 222v50q0 101 59 166q58 64 148 64q89 0 148 -62q2 -2 5 -1.5t4 3.5l4 44q3 9 12 9h54q11 0 11 -11v-473q0 -11 -11 -11h-63q-11 0 -11 11v42q0 3 -3.5 4.5t-5.5 -1.5q-60 -63 -145 -63q-91 0 -149 64q-57 65 -57 165zM123 270v-45q0 -73 39 -117t104 -44q76 0 121 50
q12 12 12 26v214q0 14 -12 26q-45 50 -121 50q-65 0 -104 -44t-39 -116zM186 675l38 24q9 6 19 -1l138 -107q5 -3 4.5 -9t-5.5 -9l-28 -18q-9 -7 -18 0l-148 101q-5 4 -5 10t5 9z" />
    <glyph glyph-name="aacute" unicode="&#xe1;" 
d="M39 222v50q0 101 59 166q58 64 148 64q89 0 148 -62q2 -2 5 -1.5t4 3.5l4 44q3 9 12 9h54q11 0 11 -11v-473q0 -11 -11 -11h-63q-11 0 -11 11v42q0 3 -3.5 4.5t-5.5 -1.5q-60 -63 -145 -63q-91 0 -149 64q-57 65 -57 165zM123 270v-45q0 -73 39 -117t104 -44q76 0 121 50
q12 12 12 26v214q0 14 -12 26q-45 50 -121 50q-65 0 -104 -44t-39 -116zM190 591l138 107q11 8 18 1l39 -24q5 -3 5 -9t-6 -10l-147 -101q-11 -7 -18 0l-29 18q-5 3 -5 9t5 9z" />
    <glyph glyph-name="acircumflex" unicode="&#xe2;" 
d="M39 222v50q0 101 59 166q58 64 148 64q89 0 148 -62q2 -2 5 -1.5t4 3.5l4 44q3 9 12 9h54q11 0 11 -11v-473q0 -11 -11 -11h-63q-11 0 -11 11v42q0 3 -3.5 4.5t-5.5 -1.5q-60 -63 -145 -63q-91 0 -149 64q-57 65 -57 165zM123 270v-45q0 -73 39 -117t104 -44q76 0 121 50
q12 12 12 26v214q0 14 -12 26q-45 50 -121 50q-65 0 -104 -44t-39 -116zM294 690l132 -94q4 -3 4 -8.5t-4 -8.5l-24 -17q-9 -4 -15 0l-94 62q-7 2 -14 0l-94 -62q-6 -4 -15 0l-24 17q-4 3 -4 8.5t4 8.5l132 94q8 6 16 0z" />
    <glyph glyph-name="atilde" unicode="&#xe3;" 
d="M39 222v50q0 101 59 166q58 64 148 64q89 0 148 -62q2 -2 5 -1.5t4 3.5l4 44q3 9 12 9h54q11 0 11 -11v-473q0 -11 -11 -11h-63q-11 0 -11 11v42q0 3 -3.5 4.5t-5.5 -1.5q-60 -63 -145 -63q-91 0 -149 64q-57 65 -57 165zM123 270v-45q0 -73 39 -117t104 -44q76 0 121 50
q12 12 12 26v214q0 14 -12 26q-45 50 -121 50q-65 0 -104 -44t-39 -116zM299 648q31 -18 54 -18q29 0 55 22q11 8 16 -3l16 -24q5 -10 -1 -14q-33 -39 -86 -39q-35 0 -75 24q-32 18 -54 18q-26 0 -54 -22q-9 -9 -15 4l-16 24q-7 8 1 13q36 39 84 39q36 0 75 -24z" />
    <glyph glyph-name="adieresis" unicode="&#xe4;" 
d="M39 222v50q0 101 59 166q58 64 148 64q89 0 148 -62q2 -2 5 -1.5t4 3.5l4 44q3 9 12 9h54q11 0 11 -11v-473q0 -11 -11 -11h-63q-11 0 -11 11v42q0 3 -3.5 4.5t-5.5 -1.5q-60 -63 -145 -63q-91 0 -149 64q-57 65 -57 165zM123 270v-45q0 -73 39 -117t104 -44q76 0 121 50
q12 12 12 26v214q0 14 -12 26q-45 50 -121 50q-65 0 -104 -44t-39 -116zM200 668q18 0 30.5 -12.5t12.5 -29.5t-12.5 -29.5t-30.5 -12.5q-17 0 -29.5 12.5t-12.5 29.5t12.5 29.5t29.5 12.5zM385 668q18 0 30 -12.5t12 -29.5t-12 -29.5t-30 -12.5q-17 0 -29.5 12.5
t-12.5 29.5t12.5 29.5t29.5 12.5z" />
    <glyph glyph-name="aring" unicode="&#xe5;" 
d="M39 222v50q0 101 59 166q58 64 148 64q89 0 148 -62q2 -2 5 -1.5t4 3.5l4 44q3 9 12 9h54q11 0 11 -11v-473q0 -11 -11 -11h-63q-11 0 -11 11v42q0 3 -3.5 4.5t-5.5 -1.5q-60 -63 -145 -63q-91 0 -149 64q-57 65 -57 165zM123 270v-45q0 -73 39 -117t104 -44q76 0 121 50
q12 12 12 26v214q0 14 -12 26q-45 50 -121 50q-65 0 -104 -44t-39 -116zM294 707q37 0 60.5 -22.5t23.5 -58.5t-24 -58t-60 -22t-59 22t-23 58t23 58.5t59 22.5zM294 583q43 0 43 43q0 44 -43 44q-19 0 -30 -11.5t-11 -32.5q0 -20 11 -31.5t30 -11.5z" />
    <glyph glyph-name="ae" unicode="&#xe6;" horiz-adv-x="843" 
d="M34 141v4q0 68 48 103.5t131 35.5h134q9 0 9 9v51q0 41 -30.5 64t-83.5 23q-66 0 -115 -36q-3 -3 -8.5 -2t-7.5 5l-29 40q-7 8 2 16q65 49 164 49q117 0 168 -66q62 68 167 68q100 0 160 -63q61 -62 61 -168v-36q0 -12 -12 -12h-341q-9 0 -9 -8v-8q3 -69 46 -109t113 -40
q59 0 102 34q8 8 15 -1l41 -35q9 -9 0 -17q-64 -52 -158 -52q-96 0 -159 51v-30q0 -11 -11 -11h-55q-10 0 -11 9l-5 45q0 4 -3 4.5t-6 -1.5q-57 -64 -151 -64q-79 0 -122.5 41t-43.5 107zM584 434q-62 0 -99 -37t-42 -104q0 -9 9 -9h258q9 0 9 9q-5 67 -40 104t-95 37z
M118 149v-3q0 -37 26.5 -59.5t76.5 -22.5q76 0 124 50q11 11 11 26v76q0 10 -9 10h-119q-110 0 -110 -77z" />
    <glyph glyph-name="ccedilla" unicode="&#xe7;" horiz-adv-x="449" 
d="M334 -154v5q0 25 -19 39t-54 14q-28 0 -58 -15q-8 -3 -13 3l-5 7q-4 6 -1 11l51 83q-87 13 -142 76q-54 65 -54 152v53q0 99 67 165q68 66 170 66q80 0 138 -40q8 -5 4 -15l-26 -43q-6 -11 -15 -3q-46 29 -101 29q-68 0 -111 -45q-42 -45 -42 -115v-51q0 -70 42 -115
q43 -45 111 -45q56 0 99 29q12 5 16 -5l25 -42q6 -10 -4 -16q-56 -37 -129 -38l-22 -35q-2 -2 -0.5 -5.5t5.5 -3.5h9q50 0 81 -25t31 -67v-10q0 -45 -35 -73.5t-92 -28.5q-42 0 -83 21q-10 6 -4 16l11 18q6 8 16 4q27 -13 55 -13q79 0 79 58z" />
    <glyph glyph-name="egrave" unicode="&#xe8;" horiz-adv-x="524" 
d="M39 221v53q0 103 62 167q61 64 163 64q100 0 160 -63q61 -62 61 -168v-36q0 -12 -12 -12h-341q-9 0 -9 -8q1 -73 44 -115t115 -42q59 0 102 34q8 8 15 -1l41 -35q9 -9 0 -17q-64 -52 -158 -52q-108 0 -175 64q-68 65 -68 167zM265 434q-62 0 -99.5 -37t-41.5 -104
q0 -9 9 -9h258q9 0 9 9q-5 67 -40 104t-95 37zM185 675l38 24q9 6 19 -1l138 -107q5 -3 4.5 -9t-5.5 -9l-28 -18q-9 -7 -18 0l-148 101q-5 4 -5 10t5 9z" />
    <glyph glyph-name="eacute" unicode="&#xe9;" horiz-adv-x="524" 
d="M39 221v53q0 103 62 167q61 64 163 64q100 0 160 -63q61 -62 61 -168v-36q0 -12 -12 -12h-341q-9 0 -9 -8q1 -73 44 -115t115 -42q59 0 102 34q8 8 15 -1l41 -35q9 -9 0 -17q-64 -52 -158 -52q-108 0 -175 64q-68 65 -68 167zM265 434q-62 0 -99.5 -37t-41.5 -104
q0 -9 9 -9h258q9 0 9 9q-5 67 -40 104t-95 37zM172 591l138 107q11 8 18 1l39 -24q5 -3 5 -9t-6 -10l-147 -101q-11 -7 -18 0l-29 18q-5 3 -5 9t5 9z" />
    <glyph glyph-name="ecircumflex" unicode="&#xea;" horiz-adv-x="524" 
d="M39 221v53q0 103 62 167q61 64 163 64q100 0 160 -63q61 -62 61 -168v-36q0 -12 -12 -12h-341q-9 0 -9 -8q1 -73 44 -115t115 -42q59 0 102 34q8 8 15 -1l41 -35q9 -9 0 -17q-64 -52 -158 -52q-108 0 -175 64q-68 65 -68 167zM265 434q-62 0 -99.5 -37t-41.5 -104
q0 -9 9 -9h258q9 0 9 9q-5 67 -40 104t-95 37zM281 690l132 -94q5 -3 5 -8.5t-5 -8.5l-24 -17q-9 -4 -15 0l-94 62q-7 2 -14 0l-94 -62q-6 -4 -15 0l-24 17q-5 3 -5 8.5t5 8.5l132 94q8 6 16 0z" />
    <glyph glyph-name="edieresis" unicode="&#xeb;" horiz-adv-x="524" 
d="M39 221v53q0 103 62 167q61 64 163 64q100 0 160 -63q61 -62 61 -168v-36q0 -12 -12 -12h-341q-9 0 -9 -8q1 -73 44 -115t115 -42q59 0 102 34q8 8 15 -1l41 -35q9 -9 0 -17q-64 -52 -158 -52q-108 0 -175 64q-68 65 -68 167zM265 434q-62 0 -99.5 -37t-41.5 -104
q0 -9 9 -9h258q9 0 9 9q-5 67 -40 104t-95 37zM179 668q18 0 30.5 -12.5t12.5 -29.5t-12.5 -29.5t-30.5 -12.5q-17 0 -29.5 12.5t-12.5 29.5t12.5 29.5t29.5 12.5zM364 668q18 0 30 -12.5t12 -29.5t-12 -29.5t-30 -12.5q-17 0 -29.5 12.5t-12.5 29.5t12.5 29.5t29.5 12.5z
" />
    <glyph glyph-name="igrave" unicode="&#xec;" horiz-adv-x="208" 
d="M7 675l38 24q9 6 19 -1l138 -107q5 -3 4.5 -9t-5.5 -9l-28 -18q-9 -7 -18 0l-148 101q-5 4 -5 10t5 9zM61 12v472q0 11 11 11h63q11 0 11 -11v-472q0 -12 -12 -12h-62q-11 0 -11 12z" />
    <glyph glyph-name="iacute" unicode="&#xed;" horiz-adv-x="208" 
d="M6 591l138 107q11 8 18 1l39 -24q5 -3 5 -9t-6 -10l-147 -101q-11 -7 -18 0l-29 18q-5 3 -5 9t5 9zM61 12v472q0 11 11 11h63q11 0 11 -11v-472q0 -12 -12 -12h-62q-11 0 -11 12z" />
    <glyph glyph-name="icircumflex" unicode="&#xee;" horiz-adv-x="208" 
d="M61 12v472q0 11 11 11h63q11 0 11 -11v-472q0 -12 -12 -12h-62q-11 0 -11 12zM111 690l132 -94q5 -3 5 -8.5t-5 -8.5l-24 -17q-9 -4 -15 0l-94 62q-7 2 -14 0l-94 -62q-6 -4 -15 0l-24 17q-5 3 -5 8.5t5 8.5l132 94q8 6 16 0z" />
    <glyph glyph-name="idieresis" unicode="&#xef;" horiz-adv-x="208" 
d="M10 668q18 0 30.5 -12.5t12.5 -29.5t-12.5 -29.5t-30.5 -12.5q-17 0 -29.5 12.5t-12.5 29.5t12.5 29.5t29.5 12.5zM195 668q18 0 30 -12.5t12 -29.5t-12 -29.5t-30 -12.5q-17 0 -29.5 12.5t-12.5 29.5t12.5 29.5t29.5 12.5zM61 12v472q0 11 11 11h63q11 0 11 -11v-472
q0 -12 -12 -12h-62q-11 0 -11 12z" />
    <glyph glyph-name="eth" unicode="&#xf0;" horiz-adv-x="550" 
d="M37 222v51q0 103 63 167q64 64 158 64q91 0 147 -62q2 -2 4.5 -2t3 1.5t-0.5 4.5q-20 78 -77 132q-8 8 -20 3l-64 -30q-10 -4 -15 5l-14 29q-4 10 6 16l43 20q10 4 0 10q-22 15 -66 40q-13 7 -4 18l30 38q7 9 18 3q73 -42 97 -62q9 -7 20 -2l63 29q11 6 15 -6l13 -28
q5 -12 -5 -16l-46 -21q-10 -4 -2 -12q108 -122 108 -337v-53q0 -100 -67 -166q-68 -65 -170 -65q-103 0 -171 65q-67 66 -67 166zM121 273v-50q0 -72 42.5 -116.5t111.5 -44.5t111 44.5t42 116.5v50q0 72 -42 116t-111 44t-111.5 -44t-42.5 -116z" />
    <glyph glyph-name="ntilde" unicode="&#xf1;" horiz-adv-x="535" 
d="M61 11v473q0 11 12 11h54q9 0 11 -8l5 -50q1 -3 4 -3.5t5 1.5q58 67 156 67q83 0 127 -50t44 -144v-297q0 -11 -11 -11h-63q-11 0 -11 11v294q0 123 -111 123q-75 0 -124 -52q-12 -10 -12 -27v-338q0 -11 -11 -11h-63q-12 0 -12 11zM291 648q32 -18 54 -18q29 0 55 22
q11 8 16 -3l16 -24q5 -10 -1 -14q-33 -39 -86 -39q-34 0 -75 24q-31 18 -54 18q-28 0 -54 -22q-9 -9 -15 4l-16 24q-7 8 1 13q36 39 84 39q36 0 75 -24z" />
    <glyph glyph-name="ograve" unicode="&#xf2;" horiz-adv-x="553" 
d="M39 221v53q0 102 67 166q68 65 171 65q102 0 170 -65q67 -64 67 -166v-53q0 -100 -67 -166q-68 -65 -170 -65q-103 0 -171 65q-67 66 -67 166zM123 274v-53q0 -72 42.5 -116t111.5 -44q68 0 110.5 44t42.5 116v53q0 72 -42.5 116t-110.5 44q-69 0 -111.5 -44t-42.5 -116z
M179 675l38 24q9 6 19 -1l138 -107q5 -3 4.5 -9t-5.5 -9l-28 -18q-9 -7 -18 0l-148 101q-5 4 -5 10t5 9z" />
    <glyph glyph-name="oacute" unicode="&#xf3;" horiz-adv-x="553" 
d="M39 221v53q0 102 67 166q68 65 171 65q102 0 170 -65q67 -64 67 -166v-53q0 -100 -67 -166q-68 -65 -170 -65q-103 0 -171 65q-67 66 -67 166zM123 274v-53q0 -72 42.5 -116t111.5 -44q68 0 110.5 44t42.5 116v53q0 72 -42.5 116t-110.5 44q-69 0 -111.5 -44t-42.5 -116z
M179 591l138 107q11 8 18 1l39 -24q5 -3 5 -9t-6 -10l-147 -101q-10 -7 -18 0l-29 18q-5 3 -5 9t5 9z" />
    <glyph glyph-name="ocircumflex" unicode="&#xf4;" horiz-adv-x="553" 
d="M39 221v53q0 102 67 166q68 65 171 65q102 0 170 -65q67 -64 67 -166v-53q0 -100 -67 -166q-68 -65 -170 -65q-103 0 -171 65q-67 66 -67 166zM123 274v-53q0 -72 42.5 -116t111.5 -44q68 0 110.5 44t42.5 116v53q0 72 -42.5 116t-110.5 44q-69 0 -111.5 -44t-42.5 -116z
M285 690l132 -94q5 -3 5 -8.5t-5 -8.5l-24 -17q-9 -4 -15 0l-94 62q-7 2 -14 0l-94 -62q-6 -4 -15 0l-24 17q-5 3 -5 8.5t5 8.5l132 94q8 6 16 0z" />
    <glyph glyph-name="otilde" unicode="&#xf5;" horiz-adv-x="553" 
d="M39 221v53q0 102 67 166q68 65 171 65q102 0 170 -65q67 -64 67 -166v-53q0 -100 -67 -166q-68 -65 -170 -65q-103 0 -171 65q-67 66 -67 166zM123 274v-53q0 -72 42.5 -116t111.5 -44q68 0 110.5 44t42.5 116v53q0 72 -42.5 116t-110.5 44q-69 0 -111.5 -44t-42.5 -116z
M286 648q32 -18 54 -18q29 0 55 22q11 8 16 -3l16 -24q5 -10 -1 -14q-33 -39 -86 -39q-34 0 -75 24q-31 18 -54 18q-26 0 -54 -22q-9 -9 -15 4l-16 24q-7 8 1 13q36 39 84 39q36 0 75 -24z" />
    <glyph glyph-name="odieresis" unicode="&#xf6;" horiz-adv-x="553" 
d="M39 221v53q0 102 67 166q68 65 171 65q102 0 170 -65q67 -64 67 -166v-53q0 -100 -67 -166q-68 -65 -170 -65q-103 0 -171 65q-67 66 -67 166zM123 274v-53q0 -72 42.5 -116t111.5 -44q68 0 110.5 44t42.5 116v53q0 72 -42.5 116t-110.5 44q-69 0 -111.5 -44t-42.5 -116z
M184 668q18 0 30.5 -12.5t12.5 -29.5t-12.5 -29.5t-30.5 -12.5q-17 0 -29.5 12.5t-12.5 29.5t12.5 29.5t29.5 12.5zM369 668q18 0 30 -12.5t12 -29.5t-12 -29.5t-30 -12.5q-17 0 -29.5 12.5t-12.5 29.5t12.5 29.5t29.5 12.5z" />
    <glyph glyph-name="divide" unicode="&#xf7;" horiz-adv-x="573" 
d="M511 321h-449q-12 0 -12 12v40q0 12 12 12h449q12 0 12 -12v-40q0 -12 -12 -12zM255 496q-13 13 -13 32t13 32t32 13t32 -13t13 -32t-13 -32t-32 -13t-32 13zM255 145q-13 13 -13 32t13 32t32 13t32 -13t13 -32t-13 -32t-32 -13t-32 13z" />
    <glyph glyph-name="oslash" unicode="&#xf8;" horiz-adv-x="553" 
d="M39 221v53q0 102 67 166q68 65 171 65q37 0 75 -11l18 39q4 12 16 12h40q7 0 10 -5t1 -11l-27 -61q104 -66 104 -194v-53q0 -100 -67 -166q-68 -65 -170 -65q-39 0 -78 11l-17 -39q-5 -12 -16 -12h-40q-6 0 -9.5 4.5t-1.5 10.5l27 61q-49 30 -76 81t-27 114zM430 221v53
q0 81 -52 124l-149 -331q23 -6 48 -6q68 0 110.5 44t42.5 116zM123 274v-53q0 -79 51 -124l149 331q-23 6 -46 6q-69 0 -111.5 -44t-42.5 -116z" />
    <glyph glyph-name="ugrave" unicode="&#xf9;" horiz-adv-x="526" 
d="M56 188v295q0 12 11 12h63q12 0 12 -12v-293q0 -124 107 -124q68 0 119 53q12 12 12 26v339q0 11 11 11h63q11 0 11 -11v-473q0 -11 -11 -11h-55q-8 0 -11 8l-5 50q-1 3 -4 3.5t-4 -1.5q-57 -68 -150 -68q-82 0 -125.5 50.5t-43.5 145.5zM167 675l38 24q9 6 19 -1
l138 -107q5 -3 4.5 -9t-5.5 -9l-28 -18q-9 -7 -18 0l-148 101q-5 4 -5 10t5 9z" />
    <glyph glyph-name="uacute" unicode="&#xfa;" horiz-adv-x="526" 
d="M56 188v295q0 12 11 12h63q12 0 12 -12v-293q0 -124 107 -124q68 0 119 53q12 12 12 26v339q0 11 11 11h63q11 0 11 -11v-473q0 -11 -11 -11h-55q-8 0 -11 8l-5 50q-1 3 -4 3.5t-4 -1.5q-57 -68 -150 -68q-82 0 -125.5 50.5t-43.5 145.5zM166 591l138 107q11 8 18 1
l39 -24q5 -3 5 -9t-6 -10l-147 -101q-11 -7 -18 0l-29 18q-5 3 -5 9t5 9z" />
    <glyph glyph-name="ucircumflex" unicode="&#xfb;" horiz-adv-x="526" 
d="M56 188v295q0 12 11 12h63q12 0 12 -12v-293q0 -124 107 -124q68 0 119 53q12 12 12 26v339q0 11 11 11h63q11 0 11 -11v-473q0 -11 -11 -11h-55q-8 0 -11 8l-5 50q-1 3 -4 3.5t-4 -1.5q-57 -68 -150 -68q-82 0 -125.5 50.5t-43.5 145.5zM272 690l132 -94q4 -3 4 -8.5
t-4 -8.5l-24 -17q-9 -4 -15 0l-94 62q-7 2 -14 0l-94 -62q-6 -4 -15 0l-24 17q-4 3 -4 8.5t4 8.5l132 94q8 6 16 0z" />
    <glyph glyph-name="udieresis" unicode="&#xfc;" horiz-adv-x="526" 
d="M56 188v295q0 12 11 12h63q12 0 12 -12v-293q0 -124 107 -124q68 0 119 53q12 12 12 26v339q0 11 11 11h63q11 0 11 -11v-473q0 -11 -11 -11h-55q-8 0 -11 8l-5 50q-1 3 -4 3.5t-4 -1.5q-57 -68 -150 -68q-82 0 -125.5 50.5t-43.5 145.5zM171 668q18 0 30.5 -12.5
t12.5 -29.5t-12.5 -29.5t-30.5 -12.5q-17 0 -29.5 12.5t-12.5 29.5t12.5 29.5t29.5 12.5zM356 668q18 0 30 -12.5t12 -29.5t-12 -29.5t-30 -12.5q-17 0 -29.5 12.5t-12.5 29.5t12.5 29.5t29.5 12.5z" />
    <glyph glyph-name="yacute" unicode="&#xfd;" horiz-adv-x="507" 
d="M210 38l-197 443q-2 5 1 9.5t8 4.5h64q10 0 14 -9l149 -354q1 -3 5 -3t5 3l155 354q4 9 14 9h61q5 0 8 -4t1 -9l-304 -685q-4 -9 -15 -9h-56q-5 0 -8 4.5t-1 9.5l96 220q4 7 0 16zM156 591l138 107q11 8 18 1l39 -24q5 -3 5 -9t-6 -10l-147 -101q-10 -7 -18 0l-29 18
q-5 3 -5 9t5 9z" />
    <glyph glyph-name="thorn" unicode="&#xfe;" 
d="M61 -201v896q0 11 12 11h63q11 0 11 -11v-248q0 -4 3 -5t5 2q58 58 141 58q89 0 149 -65q61 -64 61 -165v-50q0 -106 -60 -167q-59 -62 -149 -62t-142 58q-2 2 -5 1t-3 -5v-248q0 -11 -12 -11h-63q-11 0 -11 11zM280 430q-75 0 -122 -50q-11 -11 -11 -26v-214
q0 -16 11 -25q46 -51 122 -51q64 0 103.5 44t39.5 117v45q0 72 -39.5 116t-103.5 44z" />
    <glyph glyph-name="ydieresis" unicode="&#xff;" horiz-adv-x="507" 
d="M210 38l-197 443q-2 5 1 9.5t8 4.5h64q10 0 14 -9l149 -354q1 -3 5 -3t5 3l155 354q4 9 14 9h61q5 0 8 -4t1 -9l-304 -685q-4 -9 -15 -9h-56q-5 0 -8 4.5t-1 9.5l96 220q4 7 0 16zM161 668q18 0 30.5 -12.5t12.5 -29.5t-12.5 -29.5t-30.5 -12.5q-17 0 -29.5 12.5
t-12.5 29.5t12.5 29.5t29.5 12.5zM346 668q18 0 30 -12.5t12 -29.5t-12 -29.5t-30 -12.5q-17 0 -29.5 12.5t-12.5 29.5t12.5 29.5t29.5 12.5z" />
    <glyph glyph-name="Amacron" unicode="&#x100;" horiz-adv-x="677" 
d="M31 15l293 682q3 9 12 9h11q9 0 12 -9l294 -682q2 -5 -1 -10t-9 -5h-64q-13 0 -16 10l-53 123q-4 13 -19 13h-300q-14 0 -18 -13l-53 -123q-4 -10 -16 -10h-63q-6 0 -9.5 4.5t-0.5 10.5zM335 522l-126 -301q-5 -9 5 -9h255q8 0 6 9l-127 301q-2 5 -7 5q-4 0 -6 -5z
M218 859h247q11 0 11 -12v-33q0 -12 -11 -12h-247q-5 0 -8.5 4t-3.5 8v33q0 12 12 12z" />
    <glyph glyph-name="amacron" unicode="&#x101;" 
d="M39 222v50q0 101 59 166q58 64 148 64q89 0 148 -62q2 -2 5 -1.5t4 3.5l4 44q3 9 12 9h54q11 0 11 -11v-473q0 -11 -11 -11h-63q-11 0 -11 11v42q0 3 -3.5 4.5t-5.5 -1.5q-60 -63 -145 -63q-91 0 -149 64q-57 65 -57 165zM123 270v-45q0 -73 39 -117t104 -44q76 0 121 50
q12 12 12 26v214q0 14 -12 26q-45 50 -121 50q-65 0 -104 -44t-39 -116zM164 648h247q11 0 11 -12v-33q0 -12 -11 -12h-247q-4 0 -8 3.5t-4 8.5v33q0 4 4 8t8 4z" />
    <glyph glyph-name="Abreve" unicode="&#x102;" horiz-adv-x="677" 
d="M31 15l293 682q3 9 12 9h11q9 0 12 -9l294 -682q2 -5 -1 -10t-9 -5h-64q-13 0 -16 10l-53 123q-4 13 -19 13h-300q-14 0 -18 -13l-53 -123q-4 -10 -16 -10h-63q-6 0 -9.5 4.5t-0.5 10.5zM335 522l-126 -301q-5 -9 5 -9h255q8 0 6 9l-127 301q-2 5 -7 5q-4 0 -6 -5z
M439 889q8 10 15 3l28 -16q10 -6 3 -16q-9 -15 -25 -31q-18 -18 -51.5 -33t-67.5 -15q-53 0 -91 26q-35 25 -53 53q-7 10 3 16l28 16q7 7 15 -3q38 -53 98 -53t98 53z" />
    <glyph glyph-name="abreve" unicode="&#x103;" 
d="M39 222v50q0 101 59 166q58 64 148 64q89 0 148 -62q2 -2 5 -1.5t4 3.5l4 44q3 9 12 9h54q11 0 11 -11v-473q0 -11 -11 -11h-63q-11 0 -11 11v42q0 3 -3.5 4.5t-5.5 -1.5q-60 -63 -145 -63q-91 0 -149 64q-57 65 -57 165zM123 270v-45q0 -73 39 -117t104 -44q76 0 121 50
q12 12 12 26v214q0 14 -12 26q-45 50 -121 50q-65 0 -104 -44t-39 -116zM391 678q7 10 15 3l28 -16q10 -6 3 -16q-9 -15 -25 -31q-18 -18 -51.5 -33t-67.5 -15q-53 0 -91 26q-35 25 -53 53q-7 10 3 16l28 16q8 7 15 -3q38 -53 98 -53t98 53z" />
    <glyph glyph-name="Aogonek" unicode="&#x104;" horiz-adv-x="677" 
d="M481 -89v9q0 65 77 101l-48 112q-4 13 -19 13h-300q-14 0 -18 -13l-53 -123q-4 -10 -16 -10h-63q-6 0 -9.5 4.5t-0.5 10.5l293 682q3 9 12 9h11q9 0 12 -9l294 -682q2 -5 -1 -10t-9 -5h-31q-79 -25 -79 -79v-4q0 -58 73 -58q30 0 55 13q11 5 16 -5l9 -18q8 -11 -5 -16
q-37 -19 -79 -19q-55 0 -88 26t-33 71zM335 522l-126 -301q-5 -9 5 -9h255q8 0 6 9l-127 301q-2 5 -7 5q-4 0 -6 -5z" />
    <glyph glyph-name="aogonek" unicode="&#x105;" 
d="M315 -89v9q0 67 84 104v29q0 3 -3.5 4.5t-5.5 -1.5q-60 -63 -145 -63q-91 0 -149 64q-57 65 -57 165v50q0 101 59 166q58 64 148 64q89 0 148 -62q2 -2 5 -1.5t4 3.5l4 44q3 9 12 9h54q11 0 11 -11v-473q0 -11 -11 -11h-27q-79 -25 -79 -79v-4q0 -58 73 -58q30 0 55 13
q11 5 16 -5l9 -18q8 -11 -5 -16q-37 -19 -79 -19q-55 0 -88 26t-33 71zM123 270v-45q0 -73 39 -117t104 -44q76 0 121 50q12 12 12 26v214q0 14 -12 26q-45 50 -121 50q-65 0 -104 -44t-39 -116z" />
    <glyph glyph-name="Cacute" unicode="&#x106;" horiz-adv-x="600" 
d="M52 323v59q0 149 92 241q92 93 240 93q91 0 167 -46q9 -6 3 -16l-35 -47q-7 -9 -17 -3q-52 33 -118 33q-110 0 -178 -71q-66 -71 -66 -184v-59q0 -113 66 -184q67 -70 178 -70q64 0 117 32q10 7 17 -2l36 -48q7 -10 -3 -16q-77 -45 -167 -45q-149 0 -241 92
q-91 91 -91 241zM275 802l138 107q11 8 18 1l39 -24q5 -3 5 -9t-6 -10l-147 -101q-10 -7 -18 0l-29 18q-5 3 -5 9t5 9z" />
    <glyph glyph-name="cacute" unicode="&#x107;" horiz-adv-x="449" 
d="M39 221v53q0 99 67 165q68 66 170 66q80 0 138 -40q8 -5 4 -15l-26 -43q-6 -11 -15 -3q-46 29 -101 29q-68 0 -111 -45q-42 -45 -42 -115v-51q0 -70 42 -115q43 -45 111 -45q56 0 99 29q12 5 16 -5l25 -42q6 -10 -4 -16q-59 -38 -136 -38q-102 0 -170 66q-67 66 -67 165z
M171 591l138 107q11 8 18 1l39 -24q5 -3 5 -9t-6 -10l-147 -101q-10 -7 -18 0l-29 18q-5 3 -5 9t5 9z" />
    <glyph glyph-name="Ccircumflex" unicode="&#x108;" horiz-adv-x="600" 
d="M52 323v59q0 149 92 241q92 93 240 93q91 0 167 -46q9 -6 3 -16l-35 -47q-7 -9 -17 -3q-52 33 -118 33q-110 0 -178 -71q-66 -71 -66 -184v-59q0 -113 66 -184q67 -70 178 -70q64 0 117 32q10 7 17 -2l36 -48q7 -10 -3 -16q-77 -45 -167 -45q-149 0 -241 92
q-91 91 -91 241zM381 901l132 -94q5 -3 5 -8.5t-5 -8.5l-24 -17q-9 -5 -15 0l-94 62q-7 2 -14 0l-94 -62q-6 -5 -15 0l-24 17q-5 3 -5 8.5t5 8.5l132 94q8 6 16 0z" />
    <glyph glyph-name="ccircumflex" unicode="&#x109;" horiz-adv-x="449" 
d="M278 690l132 -94q4 -3 4 -8.5t-4 -8.5l-24 -17q-9 -4 -15 0l-94 62q-7 2 -14 0l-94 -62q-6 -4 -15 0l-24 17q-4 3 -4 8.5t4 8.5l132 94q8 6 16 0zM39 221v53q0 99 67 165q68 66 170 66q80 0 138 -40q8 -5 4 -15l-26 -43q-6 -11 -15 -3q-46 29 -101 29q-68 0 -111 -45
q-42 -45 -42 -115v-51q0 -70 42 -115q43 -45 111 -45q56 0 99 29q12 5 16 -5l25 -42q6 -10 -4 -16q-59 -38 -136 -38q-102 0 -170 66q-67 66 -67 165z" />
    <glyph glyph-name="Cdotaccent" unicode="&#x10a;" horiz-adv-x="600" 
d="M52 323v59q0 149 92 241q92 93 240 93q91 0 167 -46q9 -6 3 -16l-35 -47q-7 -9 -17 -3q-52 33 -118 33q-110 0 -178 -71q-66 -71 -66 -184v-59q0 -113 66 -184q67 -70 178 -70q64 0 117 32q10 7 17 -2l36 -48q7 -10 -3 -16q-77 -45 -167 -45q-149 0 -241 92
q-91 91 -91 241zM345 806q-13 13 -13 32t13 32q14 13 33 13t32 -13q14 -13 14 -32t-14 -32q-13 -13 -32 -13t-33 13z" />
    <glyph glyph-name="cdotaccent" unicode="&#x10b;" horiz-adv-x="449" 
d="M39 221v53q0 99 67 165q68 66 170 66q80 0 138 -40q8 -5 4 -15l-26 -43q-6 -11 -15 -3q-46 29 -101 29q-68 0 -111 -45q-42 -45 -42 -115v-51q0 -70 42 -115q43 -45 111 -45q56 0 99 29q12 5 16 -5l25 -42q6 -10 -4 -16q-59 -38 -136 -38q-102 0 -170 66q-67 66 -67 165z
M244 595q-13 13 -13 32t13 32q14 13 33 13t32 -13q14 -13 14 -32t-14 -32q-13 -13 -32 -13t-33 13z" />
    <glyph glyph-name="Ccaron" unicode="&#x10c;" horiz-adv-x="600" 
d="M52 323v59q0 149 92 241q92 93 240 93q91 0 167 -46q9 -6 3 -16l-35 -47q-7 -9 -17 -3q-52 33 -118 33q-110 0 -178 -71q-66 -71 -66 -184v-59q0 -113 66 -184q67 -70 178 -70q64 0 117 32q10 7 17 -2l36 -48q7 -10 -3 -16q-77 -45 -167 -45q-149 0 -241 92
q-91 91 -91 241zM387 830l94 62q6 4 15 0l24 -17q4 -3 4 -8.5t-4 -8.5l-132 -94q-8 -6 -16 0l-132 94q-4 3 -4 8.5t4 8.5l24 17q9 4 15 0l94 -62q7 -2 14 0z" />
    <glyph glyph-name="ccaron" unicode="&#x10d;" horiz-adv-x="449" 
d="M283 619l94 62q6 5 15 0l24 -17q4 -3 4 -8.5t-4 -8.5l-132 -94q-8 -6 -16 0l-132 94q-4 3 -4 8.5t4 8.5l24 17q9 5 15 0l94 -62q7 -2 14 0zM39 221v53q0 99 67 165q68 66 170 66q80 0 138 -40q8 -5 4 -15l-26 -43q-6 -11 -15 -3q-46 29 -101 29q-68 0 -111 -45
q-42 -45 -42 -115v-51q0 -70 42 -115q43 -45 111 -45q56 0 99 29q12 5 16 -5l25 -42q6 -10 -4 -16q-59 -38 -136 -38q-102 0 -170 66q-67 66 -67 165z" />
    <glyph glyph-name="Dcaron" unicode="&#x10e;" horiz-adv-x="697" 
d="M92 706h233q146 0 233 -87t87 -234v-66q0 -149 -90 -235q-89 -84 -230 -84h-234q-11 0 -11 11v684q0 11 12 11zM325 629h-150q-9 0 -9 -8v-536q0 -9 9 -9h150q108 0 170 65t62 178v66q0 113 -61.5 178.5t-170.5 65.5zM343 830l94 62q6 4 15 0l24 -17q4 -3 4 -8.5t-4 -8.5
l-132 -94q-8 -6 -16 0l-132 94q-4 3 -4 8.5t4 8.5l24 17q9 4 15 0l94 -62q7 -2 14 0z" />
    <glyph glyph-name="dcaron" unicode="&#x10f;" 
d="M575 720q18 0 29 -11.5t11 -28.5q0 -52 -57 -107q-7 -7 -15 -5l-7 2q-11 6 -3 14q18 27 18 40q0 17 -9 28q-15 18 -5.5 43t38.5 25zM39 222v50q0 101 59 166q58 64 148 64q88 0 143 -58q2 -3 6 -2t4 5v248q0 11 11 11h63q11 0 11 -11v-684q0 -11 -11 -11h-55q-8 0 -11 8
l-5 47q-1 4 -4 4.5t-5 -2.5q-52 -64 -148 -64q-91 0 -149 64q-57 65 -57 165zM123 270v-45q0 -73 39 -117t104 -44q76 0 121 50q12 12 12 26v214q0 14 -12 26q-44 50 -121 50q-65 0 -104 -44t-39 -116z" />
    <glyph glyph-name="Dcroat" unicode="&#x110;" horiz-adv-x="697" 
d="M92 706h233q146 0 233 -87t87 -234v-66q0 -149 -90 -235q-89 -84 -230 -84h-233q-12 0 -12 12v302q0 9 -9 9h-53q-4 0 -8 3.5t-4 8.5v30q0 12 12 12h53q9 0 9 9v309q0 11 12 11zM325 629h-150q-9 0 -9 -8v-235q0 -3 3 -6t6 -3h54q11 0 11 -12v-30q0 -12 -11 -12h-54
q-9 0 -9 -9v-229q0 -9 9 -9h150q108 0 170 65t62 178v66q0 113 -61.5 178.5t-170.5 65.5z" />
    <glyph glyph-name="dslash" unicode="&#x111;" 
d="M39 222v50q0 101 59 166q58 64 148 64q88 0 143 -58q2 -3 6 -2t4 5v91q0 10 -10 10h-75q-12 0 -12 11v31q0 12 12 12h75q10 0 10 10v83q0 11 11 11h63q11 0 11 -11v-83q0 -10 9 -10h43q11 0 11 -12v-31q0 -11 -11 -11h-43q-9 0 -9 -10v-527q0 -11 -11 -11h-55q-8 0 -11 8
l-5 47q-1 4 -4 4.5t-5 -2.5q-58 -64 -148 -64q-91 0 -149 64q-57 65 -57 165zM123 270v-45q0 -73 39 -117t104 -44q74 0 121 50q12 12 12 26v214q0 14 -12 26q-45 50 -121 50q-65 0 -104 -44t-39 -116z" />
    <glyph glyph-name="Emacron" unicode="&#x112;" horiz-adv-x="576" 
d="M80 11v684q0 11 12 11h432q12 0 12 -11v-54q0 -12 -12 -12h-349q-9 0 -9 -8v-225q0 -9 9 -9h247q12 0 12 -12v-48q0 -11 -12 -11h-247q-9 0 -9 -9v-222q0 -9 9 -9h349q12 0 12 -11v-53q0 -12 -12 -12h-433q-11 0 -11 11zM180 859h247q11 0 11 -12v-33q0 -12 -11 -12h-247
q-4 0 -8 4t-4 8v33q0 5 4 8.5t8 3.5z" />
    <glyph glyph-name="emacron" unicode="&#x113;" horiz-adv-x="524" 
d="M39 221v53q0 103 62 167q61 64 163 64q100 0 160 -63q61 -62 61 -168v-36q0 -12 -12 -12h-341q-9 0 -9 -8q1 -73 44 -115t115 -42q59 0 102 34q8 8 15 -1l41 -35q9 -9 0 -17q-64 -52 -158 -52q-108 0 -175 64q-68 65 -68 167zM265 434q-62 0 -99.5 -37t-41.5 -104
q0 -9 9 -9h258q9 0 9 9q-5 67 -40 104t-95 37zM145 648h247q11 0 11 -12v-33q0 -12 -11 -12h-247q-12 0 -12 12v33q0 4 3.5 8t8.5 4z" />
    <glyph glyph-name="Edotaccent" unicode="&#x116;" horiz-adv-x="576" 
d="M80 11v684q0 11 12 11h432q12 0 12 -11v-54q0 -12 -12 -12h-349q-9 0 -9 -8v-225q0 -9 9 -9h247q12 0 12 -12v-48q0 -11 -12 -11h-247q-9 0 -9 -9v-222q0 -9 9 -9h349q12 0 12 -11v-53q0 -12 -12 -12h-433q-11 0 -11 11zM276 806q-13 13 -13 32t13 32q14 13 33 13t32 -13
q14 -13 14 -32t-14 -32q-13 -13 -32 -13t-33 13z" />
    <glyph glyph-name="edotaccent" unicode="&#x117;" horiz-adv-x="524" 
d="M39 221v53q0 103 62 167q61 64 163 64q100 0 160 -63q61 -62 61 -168v-36q0 -12 -12 -12h-341q-9 0 -9 -8q1 -73 44 -115t115 -42q59 0 102 34q8 8 15 -1l41 -35q9 -9 0 -17q-64 -52 -158 -52q-108 0 -175 64q-68 65 -68 167zM265 434q-62 0 -99.5 -37t-41.5 -104
q0 -9 9 -9h258q9 0 9 9q-5 67 -40 104t-95 37zM240 595q-13 13 -13 32t13 32q14 13 33 13t32 -13q14 -13 14 -32t-14 -32q-13 -13 -32 -13t-33 13z" />
    <glyph glyph-name="Eogonek" unicode="&#x118;" horiz-adv-x="576" 
d="M387 -89v9q0 46 43 80h-339q-11 0 -11 11v684q0 11 12 11h432q12 0 12 -11v-54q0 -12 -12 -12h-349q-9 0 -9 -8v-225q0 -9 9 -9h247q12 0 12 -12v-48q0 -11 -12 -11h-247q-9 0 -9 -9v-222q0 -9 9 -9h349q12 0 12 -11v-53q0 -12 -12 -12h-6q-79 -25 -79 -79v-4
q0 -58 73 -58q30 0 55 13q11 5 16 -5l9 -18q8 -11 -5 -16q-37 -19 -79 -19q-55 0 -88 26t-33 71z" />
    <glyph glyph-name="eogonek" unicode="&#x119;" horiz-adv-x="524" 
d="M220 -89v9q0 39 33 72q-95 8 -155 71q-59 64 -59 158v53q0 103 62 167q61 64 163 64q100 0 160 -63q61 -62 61 -168v-36q0 -12 -12 -12h-341q-9 0 -9 -8q1 -73 44 -115t115 -42q59 0 102 34q8 8 15 -1l41 -35q9 -9 0 -17q-44 -36 -103 -47q-65 -26 -65 -74v-4
q0 -58 73 -58q30 0 55 13q11 5 16 -5l9 -18q8 -11 -5 -16q-37 -19 -79 -19q-55 0 -88 26t-33 71zM265 434q-62 0 -99.5 -37t-41.5 -104q0 -9 9 -9h258q9 0 9 9q-5 67 -40 104t-95 37z" />
    <glyph glyph-name="Ecaron" unicode="&#x11a;" horiz-adv-x="576" 
d="M80 11v684q0 11 12 11h432q12 0 12 -11v-54q0 -12 -12 -12h-349q-9 0 -9 -8v-225q0 -9 9 -9h247q12 0 12 -12v-48q0 -11 -12 -11h-247q-9 0 -9 -9v-222q0 -9 9 -9h349q12 0 12 -11v-53q0 -12 -12 -12h-433q-11 0 -11 11zM315 830l94 62q6 4 15 0l24 -17q4 -3 4 -8.5
t-4 -8.5l-132 -94q-8 -6 -16 0l-132 94q-4 3 -4 8.5t4 8.5l24 17q9 4 15 0l94 -62q7 -2 14 0z" />
    <glyph glyph-name="ecaron" unicode="&#x11b;" horiz-adv-x="524" 
d="M39 221v53q0 103 62 167q61 64 163 64q100 0 160 -63q61 -62 61 -168v-36q0 -12 -12 -12h-341q-9 0 -9 -8q1 -73 44 -115t115 -42q59 0 102 34q8 8 15 -1l41 -35q9 -9 0 -17q-64 -52 -158 -52q-108 0 -175 64q-68 65 -68 167zM265 434q-62 0 -99.5 -37t-41.5 -104
q0 -9 9 -9h258q9 0 9 9q-5 67 -40 104t-95 37zM278 619l94 62q6 5 15 0l24 -17q5 -3 5 -8.5t-5 -8.5l-132 -94q-8 -6 -16 0l-132 94q-5 3 -5 8.5t5 8.5l24 17q9 5 15 0l94 -62q7 -2 14 0z" />
    <glyph glyph-name="Gcircumflex" unicode="&#x11c;" horiz-adv-x="681" 
d="M52 323v59q0 147 92 241q93 93 240 93q104 0 177 -51q10 -7 3 -16l-36 -47q-7 -9 -17 -2q-55 37 -127 37q-109 0 -177 -71q-67 -70 -67 -184v-59q0 -115 66 -185q68 -69 176 -69q82 0 135 35q8 5 8 16v156q0 9 -8 9h-132q-12 0 -12 12v42q0 12 12 12h215q12 0 12 -12
v-327q0 -12 -11 -12h-8q-7 0 -14 7l-26 32q-4 5 -11 1q-68 -50 -169 -50q-143 0 -232 92t-89 241zM385 901l132 -94q5 -3 5 -8.5t-5 -8.5l-24 -17q-9 -5 -15 0l-94 62q-7 2 -14 0l-94 -62q-6 -5 -15 0l-24 17q-5 3 -5 8.5t5 8.5l132 94q8 6 16 0z" />
    <glyph glyph-name="gcircumflex" unicode="&#x11d;" 
d="M39 222v50q0 101 59 166q58 64 148 64q89 0 148 -62q6 -8 9 2l4 44q3 9 12 9h54q11 0 11 -11v-502q0 -102 -61.5 -161t-169.5 -59q-85 0 -146 40q-9 5 -3 17l23 37q2 5 7 6t9 -2q41 -28 106 -28q73 0 111.5 39.5t38.5 112.5v72q0 3 -3.5 4t-5.5 -1q-57 -66 -145 -66
q-91 0 -149 64q-57 65 -57 165zM123 270v-45q0 -73 39 -117t104 -44q76 0 121 50q12 12 12 26v214q0 14 -12 26q-44 50 -121 50q-65 0 -104 -44t-39 -116zM296 690l132 -94q4 -3 4 -8.5t-4 -8.5l-24 -17q-9 -4 -15 0l-94 62q-7 2 -14 0l-94 -62q-6 -4 -15 0l-24 17
q-4 3 -4 8.5t4 8.5l132 94q8 6 16 0z" />
    <glyph glyph-name="Gbreve" unicode="&#x11e;" horiz-adv-x="681" 
d="M52 323v59q0 147 92 241q93 93 240 93q104 0 177 -51q10 -7 3 -16l-36 -47q-7 -9 -17 -2q-55 37 -127 37q-109 0 -177 -71q-67 -70 -67 -184v-59q0 -115 66 -185q68 -69 176 -69q82 0 135 35q8 5 8 16v156q0 9 -8 9h-132q-12 0 -12 12v42q0 12 12 12h215q12 0 12 -12
v-327q0 -12 -11 -12h-8q-7 0 -14 7l-26 32q-4 5 -11 1q-68 -50 -169 -50q-143 0 -232 92t-89 241zM479 889q8 10 15 3l28 -16q10 -6 3 -16q-9 -15 -25 -31q-18 -18 -51.5 -33t-67.5 -15q-53 0 -91 26q-35 25 -53 53q-7 10 3 16l28 16q7 7 15 -3q38 -53 98 -53t98 53z" />
    <glyph glyph-name="gbreve" unicode="&#x11f;" 
d="M39 222v50q0 101 59 166q58 64 148 64q89 0 148 -62q6 -8 9 2l4 44q3 9 12 9h54q11 0 11 -11v-502q0 -102 -61.5 -161t-169.5 -59q-85 0 -146 40q-9 5 -3 17l23 37q2 5 7 6t9 -2q41 -28 106 -28q73 0 111.5 39.5t38.5 112.5v72q0 3 -3.5 4t-5.5 -1q-57 -66 -145 -66
q-91 0 -149 64q-57 65 -57 165zM123 270v-45q0 -73 39 -117t104 -44q76 0 121 50q12 12 12 26v214q0 14 -12 26q-44 50 -121 50q-65 0 -104 -44t-39 -116zM392 678q8 10 15 3l28 -16q10 -6 3 -16q-9 -15 -25 -31q-18 -18 -51.5 -33t-67.5 -15q-53 0 -91 26q-35 25 -53 53
q-7 10 3 16l28 16q7 7 15 -3q38 -53 98 -53t98 53z" />
    <glyph glyph-name="Gdotaccent" unicode="&#x120;" horiz-adv-x="681" 
d="M52 323v59q0 147 92 241q93 93 240 93q104 0 177 -51q10 -7 3 -16l-36 -47q-7 -9 -17 -2q-55 37 -127 37q-109 0 -177 -71q-67 -70 -67 -184v-59q0 -115 66 -185q68 -69 176 -69q82 0 135 35q8 5 8 16v156q0 9 -8 9h-132q-12 0 -12 12v42q0 12 12 12h215q12 0 12 -12
v-327q0 -12 -11 -12h-8q-7 0 -14 7l-26 32q-4 5 -11 1q-68 -50 -169 -50q-143 0 -232 92t-89 241zM354 806q-13 13 -13 32t13 32q14 13 33 13t32 -13q14 -13 14 -32t-14 -32q-13 -13 -32 -13t-33 13z" />
    <glyph glyph-name="gdotaccent" unicode="&#x121;" 
d="M39 222v50q0 101 59 166q58 64 148 64q89 0 148 -62q6 -8 9 2l4 44q3 9 12 9h54q11 0 11 -11v-502q0 -102 -61.5 -161t-169.5 -59q-85 0 -146 40q-9 5 -3 17l23 37q2 5 7 6t9 -2q41 -28 106 -28q73 0 111.5 39.5t38.5 112.5v72q0 3 -3.5 4t-5.5 -1q-57 -66 -145 -66
q-91 0 -149 64q-57 65 -57 165zM123 270v-45q0 -73 39 -117t104 -44q76 0 121 50q12 12 12 26v214q0 14 -12 26q-44 50 -121 50q-65 0 -104 -44t-39 -116zM258 595q-13 13 -13 32t13 32q14 13 33 13t32 -13q14 -13 14 -32t-14 -32q-13 -13 -32 -13t-33 13z" />
    <glyph glyph-name="uni0122" unicode="&#x122;" horiz-adv-x="681" 
d="M52 323v59q0 147 92 241q93 93 240 93q104 0 177 -51q10 -7 3 -16l-36 -47q-7 -9 -17 -2q-55 37 -127 37q-109 0 -177 -71q-67 -70 -67 -184v-59q0 -115 66 -185q68 -69 176 -69q82 0 135 35q8 5 8 16v156q0 9 -8 9h-132q-12 0 -12 12v42q0 12 12 12h215q12 0 12 -12
v-327q0 -12 -11 -12h-8q-7 0 -14 7l-26 32q-4 5 -11 1q-68 -50 -169 -50q-143 0 -232 92t-89 241zM419 -100q0 -50 -57 -107q-7 -7 -16 -5l-6 2q-10 6 -4 14q30 40 10 68q-22 30 2 56q20 20 45.5 9t25.5 -37z" />
    <glyph glyph-name="uni0123" unicode="&#x123;" 
d="M318 620q0 -17 -12 -29t-30 -12t-29.5 12t-11.5 29q0 49 57 106q8 8 16 5l7 -2q3 -1 4.5 -5t-1.5 -8q-18 -28 -18 -41q0 -17 9 -28q9 -12 9 -27zM39 222v50q0 101 59 166q58 64 148 64q89 0 148 -62q6 -8 9 2l4 44q3 9 12 9h54q11 0 11 -11v-502q0 -102 -61.5 -161
t-169.5 -59q-85 0 -146 40q-9 5 -3 17l23 37q2 5 7 6t9 -2q41 -28 106 -28q73 0 111.5 39.5t38.5 112.5v72q0 3 -3.5 4t-5.5 -1q-57 -66 -145 -66q-91 0 -149 64q-57 65 -57 165zM123 270v-45q0 -73 39 -117t104 -44q76 0 121 50q12 12 12 26v214q0 14 -12 26
q-44 50 -121 50q-65 0 -104 -44t-39 -116z" />
    <glyph glyph-name="Hcircumflex" unicode="&#x124;" horiz-adv-x="705" 
d="M80 11v684q0 11 12 11h63q11 0 11 -11v-299q0 -9 10 -9h354q9 0 9 9v299q0 11 11 11h64q11 0 11 -11v-684q0 -11 -11 -11h-64q-11 0 -11 11v296q0 9 -9 9h-354q-10 0 -10 -9v-296q0 -11 -11 -11h-64q-11 0 -11 11zM360 901l132 -94q4 -3 4 -8.5t-4 -8.5l-24 -17
q-9 -5 -15 0l-94 62q-7 2 -14 0l-94 -62q-6 -5 -15 0l-24 17q-4 3 -4 8.5t4 8.5l132 94q8 6 16 0z" />
    <glyph glyph-name="hcircumflex" unicode="&#x125;" horiz-adv-x="535" 
d="M61 11v684q0 11 12 11h63q11 0 11 -11v-253q0 -4 3.5 -5t5.5 2q52 63 151 63q83 0 127.5 -50t44.5 -144v-297q0 -11 -11 -11h-63q-11 0 -11 11v294q0 123 -111 123q-75 0 -124 -52q-12 -10 -12 -27v-338q0 -11 -11 -11h-63q-12 0 -12 11zM113 901l132 -94q5 -3 5 -8.5
t-5 -8.5l-24 -17q-9 -5 -15 0l-94 62q-7 2 -14 0l-94 -62q-6 -5 -15 0l-24 17q-5 3 -5 8.5t5 8.5l132 94q8 6 16 0z" />
    <glyph glyph-name="Hbar" unicode="&#x126;" horiz-adv-x="705" 
d="M80 583v112q0 11 12 11h63q11 0 11 -11v-112q0 -3 3 -6t6 -3h355q3 0 6 3t3 6v112q0 11 11 11h64q11 0 11 -11v-112q0 -9 9 -9h34q12 0 12 -12v-30q0 -4 -4 -8t-8 -4h-34q-9 0 -9 -9v-500q0 -11 -11 -11h-64q-11 0 -11 11v296q0 9 -9 9h-354q-10 0 -10 -9v-296
q0 -11 -11 -11h-64q-11 0 -11 11v500q0 9 -9 9h-34q-5 0 -8.5 4t-3.5 8v30q0 12 12 12h34q9 0 9 9zM166 511v-115q0 -9 10 -9h354q9 0 9 9v115q0 9 -9 9h-355q-9 0 -9 -9z" />
    <glyph glyph-name="hbar" unicode="&#x127;" horiz-adv-x="535" 
d="M61 612v83q0 11 12 11h63q11 0 11 -11v-83q0 -10 9 -10h76q12 0 12 -12v-31q0 -11 -12 -11h-76q-9 0 -9 -10v-96q0 -4 3.5 -5t5.5 2q58 63 151 63q83 0 127.5 -50t44.5 -144v-297q0 -11 -11 -11h-63q-11 0 -11 11v294q0 123 -111 123q-75 0 -124 -52q-12 -10 -12 -27
v-338q0 -11 -11 -11h-63q-12 0 -12 11v527q0 10 -9 10h-42q-12 0 -12 11v31q0 12 12 12h42q9 0 9 10z" />
    <glyph glyph-name="Imacron" unicode="&#x12a;" horiz-adv-x="246" 
d="M80 11v684q0 11 11 11h64q11 0 11 -11v-684q0 -11 -11 -11h-64q-11 0 -11 11zM0 859h247q11 0 11 -12v-33q0 -12 -11 -12h-247q-4 0 -8 4t-4 8v33q0 5 4 8.5t8 3.5z" />
    <glyph glyph-name="imacron" unicode="&#x12b;" horiz-adv-x="208" 
d="M-20 648h247q11 0 11 -12v-33q0 -12 -11 -12h-247q-4 0 -8 3.5t-4 8.5v33q0 4 4 8t8 4zM61 12v472q0 11 11 11h63q11 0 11 -11v-472q0 -12 -12 -12h-62q-11 0 -11 12z" />
    <glyph glyph-name="Iogonek" unicode="&#x12e;" horiz-adv-x="246" 
d="M-3 -89v9q0 67 83 103v672q0 11 11 11h64q11 0 11 -11v-684q0 -11 -11 -11h-27q-79 -25 -79 -79v-4q0 -58 73 -58q30 0 55 13q11 5 16 -5l9 -18q8 -11 -5 -16q-37 -19 -79 -19q-55 0 -88 26t-33 71z" />
    <glyph glyph-name="iogonek" unicode="&#x12f;" horiz-adv-x="208" 
d="M-23 -89v9q0 67 83 103v461q0 11 11 11h63q12 0 12 -11v-473q0 -11 -12 -11h-26q-79 -25 -79 -79v-4q0 -58 73 -58q30 0 55 13q11 5 16 -5l9 -18q8 -11 -5 -16q-37 -19 -79 -19q-55 0 -88 26t-33 71zM69 595q-14 14 -14 34t14 34t34 14t34 -14t14 -34t-14 -34
q-14 -13 -34 -13t-34 13z" />
    <glyph glyph-name="Idot" unicode="&#x130;" horiz-adv-x="246" 
d="M80 11v684q0 11 11 11h64q11 0 11 -11v-684q0 -11 -11 -11h-64q-11 0 -11 11zM90 806q-13 13 -13 32t13 32q14 13 33 13t32 -13q14 -13 14 -32t-14 -32q-13 -13 -32 -13t-33 13z" />
    <glyph glyph-name="dotlessi" unicode="&#x131;" horiz-adv-x="207" 
d="M61 12v472q0 11 11 11h63q11 0 11 -11v-472q0 -12 -12 -12h-62q-11 0 -11 12z" />
    <glyph glyph-name="Jcircumflex" unicode="&#x134;" horiz-adv-x="375" 
d="M218 150v545q0 11 11 11h64q11 0 11 -11v-547q0 -70 -40.5 -112.5t-111.5 -42.5q-59 0 -111 31q-9 4 -4 17l25 43q6 9 15 4q26 -19 60 -19q39 0 60 21t21 60zM270 901l132 -94q5 -3 5 -8.5t-5 -8.5l-24 -17q-9 -5 -15 0l-94 62q-7 2 -14 0l-94 -62q-6 -5 -15 0l-24 17
q-5 3 -5 8.5t5 8.5l132 94q8 6 16 0z" />
    <glyph glyph-name="jcircumflex" unicode="&#x135;" horiz-adv-x="215" 
d="M73 -58v542q0 11 11 11h64q11 0 11 -11v-542q0 -71 -41 -113.5t-111 -42.5q-67 0 -111 30q-9 3 -5 16l24 41q6 9 14 4q29 -19 63 -19q39 0 60 22t21 62zM123 690l132 -94q4 -3 4 -8.5t-4 -8.5l-24 -17q-9 -4 -15 0l-94 62q-7 2 -14 0l-94 -62q-6 -4 -15 0l-24 17
q-4 3 -4 8.5t4 8.5l132 94q8 6 16 0z" />
    <glyph glyph-name="uni0136" unicode="&#x136;" horiz-adv-x="643" 
d="M80 11v684q0 11 11 11h64q11 0 11 -11v-320q0 -8 9 -8h6q69 0 126.5 26.5t95 72t61 98.5t33.5 113l2 18q2 11 12 11h66q5 0 9 -4t3 -9l-3 -19q-16 -101 -64.5 -182.5t-123.5 -132.5q-8 -5 -3 -12l211 -330q3 -5 0 -11t-10 -6h-71q-9 0 -12 7l-192 306q-5 8 -15 5
q-57 -22 -125 -22h-6q-9 0 -9 -9v-276q0 -11 -11 -11h-64q-11 0 -11 11zM368 -100q0 -50 -57 -107q-7 -7 -16 -5l-6 2q-10 6 -4 14q30 40 10 68q-22 30 2 56q20 20 45.5 9t25.5 -37z" />
    <glyph glyph-name="uni0137" unicode="&#x137;" horiz-adv-x="493" 
d="M61 11v684q0 11 11 11h63q12 0 12 -11v-411q0 -11 10 -8q84 8 138.5 60.5t64.5 133.5l2 15q1 10 11 10h66q13 0 11 -12l-3 -17q-20 -131 -126 -203q-7 -4 -2 -11l153 -234q4 -6 1 -12t-10 -6h-71q-6 0 -11 6l-133 214q-4 7 -12 4q-38 -14 -81 -15q-8 0 -8 -9v-189
q0 -11 -12 -11h-63q-11 0 -11 11zM296 -100q0 -50 -57 -107q-7 -7 -16 -5l-6 2q-10 6 -4 14q30 40 10 68q-22 30 2 56q20 20 45.5 9t25.5 -37z" />
    <glyph glyph-name="Lacute" unicode="&#x139;" horiz-adv-x="543" 
d="M80 12v683q0 11 11 11h64q11 0 11 -11v-610q0 -9 10 -9h333q12 0 12 -11v-53q0 -12 -12 -12h-417q-12 0 -12 12zM178 802l138 107q11 8 18 1l39 -24q5 -3 5 -9t-6 -10l-147 -101q-10 -7 -18 0l-29 18q-5 3 -5 9t5 9z" />
    <glyph glyph-name="lacute" unicode="&#x13a;" horiz-adv-x="208" 
d="M7 802l138 107q11 8 18 1l39 -24q5 -3 5 -9t-6 -10l-147 -101q-10 -8 -18 0l-29 18q-5 3 -5 9t5 9zM61 11v684q0 11 12 11h63q11 0 11 -11v-684q0 -11 -11 -11h-63q-12 0 -12 11z" />
    <glyph glyph-name="uni013B" unicode="&#x13b;" horiz-adv-x="543" 
d="M330 -100q0 -50 -57 -107q-7 -7 -16 -5l-6 2q-10 6 -4 14q30 40 10 68q-22 30 2 56q20 20 45.5 9t25.5 -37zM80 12v683q0 11 11 11h64q11 0 11 -11v-610q0 -9 10 -9h333q12 0 12 -11v-53q0 -12 -12 -12h-417q-12 0 -12 12z" />
    <glyph glyph-name="uni013C" unicode="&#x13c;" horiz-adv-x="208" 
d="M147 -100q0 -50 -57 -107q-7 -7 -16 -5l-6 2q-10 6 -4 14q30 40 10 68q-22 30 2 56q20 20 45.5 9t25.5 -37zM61 11v684q0 11 12 11h63q11 0 11 -11v-684q0 -11 -11 -11h-63q-12 0 -12 11z" />
    <glyph glyph-name="Lcaron" unicode="&#x13d;" horiz-adv-x="543" 
d="M352 843q0 -50 -57 -107q-7 -7 -16 -5l-6 2q-10 6 -4 14q30 40 10 68q-22 30 2 56q20 20 45.5 9t25.5 -37zM80 12v683q0 11 11 11h64q11 0 11 -11v-610q0 -9 10 -9h333q12 0 12 -11v-53q0 -12 -12 -12h-417q-12 0 -12 12z" />
    <glyph glyph-name="lcaron" unicode="&#x13e;" horiz-adv-x="208" 
d="M278 680q0 -50 -57 -107q-7 -7 -16 -5l-7 2q-11 5 -3 14q18 27 18 40q0 17 -9 28q-9 12 -9 28t12 28q20 20 45.5 9t25.5 -37zM61 11v684q0 11 12 11h63q11 0 11 -11v-684q0 -11 -11 -11h-63q-12 0 -12 11z" />
    <glyph glyph-name="Lslash" unicode="&#x141;" horiz-adv-x="543" 
d="M85 362v333q0 11 11 11h64q11 0 11 -11v-295q0 -4 3.5 -6t6.5 0l43 19q11 5 15 -5l13 -29q6 -10 -5 -15l-64 -30q-12 -8 -12 -19v-230q0 -9 9 -9h334q12 0 12 -11v-53q0 -12 -12 -12h-418q-11 0 -11 11v266q0 4 -3.5 6t-6.5 0l-42 -19q-10 -6 -16 5l-13 29q-4 10 6 16
l63 29q12 7 12 19z" />
    <glyph glyph-name="lslash" unicode="&#x142;" horiz-adv-x="208" 
d="M66 362v334q0 11 12 11h63q11 0 11 -11v-296q0 -4 3 -6t7 0l42 19q11 5 15 -5l14 -29q6 -11 -6 -15l-63 -30q-12 -6 -12 -19v-304q0 -11 -11 -11h-63q-12 0 -12 11v266q0 4 -3.5 6t-6.5 0l-42 -19q-10 -6 -15 5l-14 29q-4 10 6 16l63 29q12 6 12 19z" />
    <glyph glyph-name="Nacute" unicode="&#x143;" horiz-adv-x="742" 
d="M80 11v684q0 11 11 11h7q7 0 11 -4l456 -504q2 -2 4.5 -2.5t4.5 1t2 4.5v494q0 11 11 11h64q11 0 11 -11v-683q0 -12 -12 -12h-7q-7 0 -12 6l-453 505q-3 3 -7.5 1.5t-4.5 -5.5v-496q0 -11 -11 -11h-64q-11 0 -11 11zM273 802l138 107q11 8 18 1l39 -24q5 -3 5 -9t-6 -10
l-147 -101q-10 -8 -18 0l-29 18q-5 3 -5 9t5 9z" />
    <glyph glyph-name="nacute" unicode="&#x144;" horiz-adv-x="535" 
d="M61 11v473q0 11 12 11h54q9 0 11 -8l5 -50q1 -3 4 -3.5t5 1.5q58 67 156 67q83 0 127 -50t44 -144v-297q0 -11 -11 -11h-63q-11 0 -11 11v294q0 123 -111 123q-75 0 -124 -52q-12 -10 -12 -27v-338q0 -11 -11 -11h-63q-12 0 -12 11zM180 591l138 107q11 8 18 1l39 -24
q5 -3 5 -9t-6 -10l-147 -101q-10 -7 -18 0l-29 18q-5 3 -5 9t5 9z" />
    <glyph glyph-name="uni0145" unicode="&#x145;" horiz-adv-x="742" 
d="M80 11v684q0 11 11 11h7q7 0 11 -4l456 -504q2 -2 4.5 -2.5t4.5 1t2 4.5v494q0 11 11 11h64q11 0 11 -11v-683q0 -12 -12 -12h-7q-7 0 -12 6l-453 505q-3 3 -7.5 1.5t-4.5 -5.5v-496q0 -11 -11 -11h-64q-11 0 -11 11zM414 -100q0 -50 -57 -107q-7 -7 -16 -5l-6 2
q-10 6 -4 14q30 40 10 68q-22 30 2 56q20 20 45.5 9t25.5 -37z" />
    <glyph glyph-name="uni0146" unicode="&#x146;" horiz-adv-x="535" 
d="M61 11v473q0 11 12 11h54q9 0 11 -8l5 -50q1 -3 4 -3.5t5 1.5q58 67 156 67q83 0 127 -50t44 -144v-297q0 -11 -11 -11h-63q-11 0 -11 11v294q0 123 -111 123q-75 0 -124 -52q-12 -10 -12 -27v-338q0 -11 -11 -11h-63q-12 0 -12 11zM310 -100q0 -50 -57 -107
q-7 -7 -16 -5l-6 2q-10 6 -4 14q30 40 10 68q-22 30 2 56q20 20 45.5 9t25.5 -37z" />
    <glyph glyph-name="Ncaron" unicode="&#x147;" horiz-adv-x="742" 
d="M80 11v684q0 11 11 11h7q7 0 11 -4l456 -504q2 -2 4.5 -2.5t4.5 1t2 4.5v494q0 11 11 11h64q11 0 11 -11v-683q0 -12 -12 -12h-7q-7 0 -12 6l-453 505q-3 3 -7.5 1.5t-4.5 -5.5v-496q0 -11 -11 -11h-64q-11 0 -11 11zM387 830l94 62q6 4 15 0l24 -17q4 -3 4 -8.5t-4 -8.5
l-132 -94q-8 -6 -16 0l-132 94q-4 3 -4 8.5t4 8.5l24 17q9 4 15 0l94 -62q7 -2 14 0z" />
    <glyph glyph-name="ncaron" unicode="&#x148;" horiz-adv-x="535" 
d="M61 11v473q0 11 12 11h54q9 0 11 -8l5 -50q1 -3 4 -3.5t5 1.5q58 67 156 67q83 0 127 -50t44 -144v-297q0 -11 -11 -11h-63q-11 0 -11 11v294q0 123 -111 123q-75 0 -124 -52q-12 -10 -12 -27v-338q0 -11 -11 -11h-63q-12 0 -12 11zM292 619l94 62q6 5 15 0l24 -17
q5 -3 5 -8.5t-5 -8.5l-132 -94q-8 -6 -16 0l-132 94q-5 3 -5 8.5t5 8.5l24 17q9 5 15 0l94 -62q7 -2 14 0z" />
    <glyph glyph-name="Omacron" unicode="&#x14c;" horiz-adv-x="743" 
d="M52 323v60q0 151 87 242t233 91q145 0 232 -91t87 -242v-60q0 -151 -87 -242t-232 -91q-146 0 -233 91t-87 242zM140 383v-60q0 -118 62 -186q63 -68 170 -68t169 68t62 186v60q0 118 -62 186t-169 68t-170 -68q-62 -68 -62 -186zM248 859h247q11 0 11 -12v-33
q0 -12 -11 -12h-247q-4 0 -8 4t-4 8v33q0 5 4 8.5t8 3.5z" />
    <glyph glyph-name="omacron" unicode="&#x14d;" horiz-adv-x="553" 
d="M39 221v53q0 102 67 166q68 65 171 65q102 0 170 -65q67 -64 67 -166v-53q0 -100 -67 -166q-68 -65 -170 -65q-103 0 -171 65q-67 66 -67 166zM123 274v-53q0 -72 42.5 -116t111.5 -44q68 0 110.5 44t42.5 116v53q0 72 -42.5 116t-110.5 44q-69 0 -111.5 -44t-42.5 -116z
M153 648h247q11 0 11 -12v-33q0 -12 -11 -12h-247q-12 0 -12 12v33q0 4 3.5 8t8.5 4z" />
    <glyph glyph-name="Ohungarumlaut" unicode="&#x150;" horiz-adv-x="743" 
d="M52 323v60q0 151 87 242t233 91q145 0 232 -91t87 -242v-60q0 -151 -87 -242t-232 -91q-146 0 -233 91t-87 242zM140 383v-60q0 -118 62 -186q63 -68 170 -68t169 68t62 186v60q0 118 -62 186t-169 68t-170 -68q-62 -68 -62 -186zM383 795l139 107q7 7 14 1l33 -20
q5 -3 5 -9t-6 -10l-149 -102q-8 -5 -14 0l-22 14q-5 3 -5 9t5 10zM183 795l139 107q7 7 14 1l33 -20q5 -3 5 -9t-6 -10l-149 -102q-8 -5 -14 0l-22 14q-5 3 -5 9t5 10z" />
    <glyph glyph-name="ohungarumlaut" unicode="&#x151;" horiz-adv-x="553" 
d="M39 221v53q0 102 67 166q68 65 171 65q102 0 170 -65q67 -64 67 -166v-53q0 -100 -67 -166q-68 -65 -170 -65q-103 0 -171 65q-67 66 -67 166zM123 274v-53q0 -72 42.5 -116t111.5 -44q68 0 110.5 44t42.5 116v53q0 72 -42.5 116t-110.5 44q-69 0 -111.5 -44t-42.5 -116z
M289 584l139 107q7 7 14 1l33 -20q5 -3 5 -9t-6 -10l-149 -102q-8 -5 -14 0l-22 14q-5 3 -5 9t5 10zM89 584l139 107q7 7 14 1l33 -20q5 -3 5 -9t-6 -10l-149 -102q-8 -5 -14 0l-22 14q-5 3 -5 9t5 10z" />
    <glyph glyph-name="OE" unicode="&#x152;" horiz-adv-x="1099" 
d="M52 323v60q0 151 87 242t233 91t219 -102q4 -3 8 -1.5t4 5.5v77q0 11 12 11h432q12 0 12 -11v-54q0 -12 -12 -12h-349q-9 0 -9 -8v-225q0 -9 9 -9h247q12 0 12 -12v-48q0 -11 -12 -11h-247q-9 0 -9 -9v-222q0 -9 9 -9h349q12 0 12 -11v-53q0 -12 -12 -12h-433
q-11 0 -11 11v77q0 5 -4 6.5t-8 -1.5q-73 -103 -219 -103t-233 91t-87 242zM140 383v-60q0 -118 62 -186q63 -68 170 -68t169 68t62 186v60q0 118 -62 186t-169 68t-170 -68q-62 -68 -62 -186z" />
    <glyph glyph-name="oe" unicode="&#x153;" horiz-adv-x="916" 
d="M39 221v53q0 102 67 166q68 65 171 65q125 0 193 -92q62 92 186 92q100 0 160 -63q61 -62 61 -168v-36q0 -12 -12 -12h-341q-9 0 -9 -8q1 -73 44 -115t115 -42q59 0 102 34q8 8 15 -1l41 -35q9 -9 0 -17q-64 -52 -158 -52q-133 0 -202 95q-66 -95 -195 -95
q-103 0 -171 65q-67 66 -67 166zM123 274v-53q0 -72 42.5 -116t111.5 -44q68 0 110.5 44t42.5 116v53q0 72 -42.5 116t-110.5 44q-69 0 -111.5 -44t-42.5 -116zM657 434q-62 0 -99.5 -37t-41.5 -104q0 -9 9 -9h258q9 0 9 9q-5 67 -40 104t-95 37z" />
    <glyph glyph-name="Racute" unicode="&#x154;" horiz-adv-x="637" 
d="M80 11v683q0 4 4 8t8 4h280q91 0 149 -58q59 -59 59 -149v-7q0 -81 -50 -134q-48 -51 -117 -65q-10 -1 -8 -11q19 -98 75 -153t141 -59q10 -1 10 -12v-52q0 -12 -11 -12q-118 2 -197 76t-102 206q-1 9 -10 9h-135q-10 0 -10 -9v-265q0 -11 -11 -11h-64q-11 0 -11 11z
M166 620v-258q0 -9 10 -9h172q64 0 101.5 36.5t37.5 97.5v7q0 64 -39 99.5t-108 35.5h-164q-10 0 -10 -9zM230 802l138 107q11 8 18 1l39 -24q5 -3 5 -9t-6 -10l-147 -101q-10 -7 -18 0l-29 18q-5 3 -5 9t5 9z" />
    <glyph glyph-name="racute" unicode="&#x155;" horiz-adv-x="380" 
d="M61 11v473q0 11 12 11h54q9 0 11 -8l4 -40q1 -3 4.5 -4t5.5 2q46 57 126 57q53 0 92 -27q11 -8 3 -16l-28 -44q-6 -7 -17 -2q-28 17 -60 17q-66 0 -110 -50q-11 -11 -11 -26v-343q0 -11 -11 -11h-63q-12 0 -12 11zM126 591l138 107q11 8 18 1l39 -24q5 -3 5 -9t-6 -10
l-147 -101q-11 -7 -18 0l-29 18q-5 3 -5 9t5 9z" />
    <glyph glyph-name="uni0156" unicode="&#x156;" horiz-adv-x="637" 
d="M80 11v683q0 4 4 8t8 4h280q91 0 149 -58q59 -59 59 -149v-7q0 -81 -50 -134q-48 -51 -117 -65q-10 -1 -8 -11q19 -98 75 -153t141 -59q10 -1 10 -12v-52q0 -12 -11 -12q-118 2 -197 76t-102 206q-1 9 -10 9h-135q-10 0 -10 -9v-265q0 -11 -11 -11h-64q-11 0 -11 11z
M166 620v-258q0 -9 10 -9h172q64 0 101.5 36.5t37.5 97.5v7q0 64 -39 99.5t-108 35.5h-164q-10 0 -10 -9zM363 -100q0 -50 -57 -107q-7 -7 -16 -5l-6 2q-10 6 -4 14q30 40 10 68q-22 30 2 56q20 20 45.5 9t25.5 -37z" />
    <glyph glyph-name="uni0157" unicode="&#x157;" horiz-adv-x="380" 
d="M61 11v473q0 11 12 11h54q9 0 11 -8l4 -40q1 -3 4.5 -4t5.5 2q46 57 126 57q53 0 92 -27q11 -8 3 -16l-28 -44q-6 -7 -17 -2q-28 17 -60 17q-66 0 -110 -50q-11 -11 -11 -26v-343q0 -11 -11 -11h-63q-12 0 -12 11zM248 -100q0 -50 -57 -107q-7 -7 -16 -5l-6 2
q-10 6 -4 14q30 40 10 68q-22 30 2 56q20 20 45.5 9t25.5 -37z" />
    <glyph glyph-name="Rcaron" unicode="&#x158;" horiz-adv-x="637" 
d="M80 11v683q0 4 4 8t8 4h280q91 0 149 -58q59 -59 59 -149v-7q0 -81 -50 -134q-48 -51 -117 -65q-10 -1 -8 -11q19 -98 75 -153t141 -59q10 -1 10 -12v-52q0 -12 -11 -12q-118 2 -197 76t-102 206q-1 9 -10 9h-135q-10 0 -10 -9v-265q0 -11 -11 -11h-64q-11 0 -11 11z
M166 620v-258q0 -9 10 -9h172q64 0 101.5 36.5t37.5 97.5v7q0 64 -39 99.5t-108 35.5h-164q-10 0 -10 -9zM326 830l94 62q6 4 15 0l24 -17q5 -3 5 -8.5t-5 -8.5l-132 -94q-8 -6 -16 0l-132 94q-5 3 -5 8.5t5 8.5l24 17q9 4 15 0l94 -62q7 -2 14 0z" />
    <glyph glyph-name="rcaron" unicode="&#x159;" horiz-adv-x="380" 
d="M61 11v473q0 11 12 11h54q9 0 11 -8l4 -40q1 -3 4.5 -4t5.5 2q46 57 126 57q53 0 92 -27q11 -8 3 -16l-28 -44q-6 -7 -17 -2q-28 17 -60 17q-66 0 -110 -50q-11 -11 -11 -26v-343q0 -11 -11 -11h-63q-12 0 -12 11zM226 619l94 62q6 5 15 0l24 -17q5 -3 5 -8.5t-5 -8.5
l-132 -94q-8 -6 -16 0l-132 94q-5 3 -5 8.5t5 8.5l24 17q9 5 15 0l94 -62q7 -2 14 0z" />
    <glyph glyph-name="Sacute" unicode="&#x15a;" horiz-adv-x="550" 
d="M286 715q94 0 168 -54q9 -7 2 -17l-36 -47q-8 -9 -16 -2q-52 40 -118 40q-58 0 -92 -29t-34 -72v-4q0 -48 33 -74q35 -26 123 -48q107 -29 156 -73q50 -44 50 -131v-4q0 -87 -65 -149q-64 -61 -182 -61q-62 0 -121.5 21t-100.5 51q-10 7 -2 17l36 49q7 7 17 1
q31 -24 77.5 -41.5t93.5 -17.5q76 0 117 33.5t41 93.5v4q0 61 -39 87q-42 27 -138 52q-92 26 -138 64q-45 40 -45 124v4q0 82 59 132q59 51 154 51zM185 802l138 107q11 8 18 1l39 -24q5 -3 5 -9t-6 -10l-147 -101q-10 -7 -18 0l-29 18q-5 3 -5 9t5 9z" />
    <glyph glyph-name="sacute" unicode="&#x15b;" horiz-adv-x="411" 
d="M216 504q71 0 125 -42q10 -7 3 -16l-30 -39q-6 -10 -17 -2q-38 26 -78 26q-35 0 -56 -18t-21 -43v-4q0 -30 20.5 -45t77.5 -31q76 -18 114 -48q38 -29 38 -96v-4q0 -66 -47.5 -109t-130.5 -43q-94 0 -165 54q-10 5 -2 16l30 40q7 10 17 2q53 -40 117 -40q47 0 72 22
t25 56v4q0 35 -23 51.5t-86 33.5q-75 18 -108 48.5t-33 88.5v4q0 58 45 96q46 38 113 38zM120 591l138 107q11 8 18 1l39 -24q5 -3 5 -9t-6 -10l-147 -101q-11 -7 -18 0l-29 18q-5 3 -5 9t5 9z" />
    <glyph glyph-name="Scircumflex" unicode="&#x15c;" horiz-adv-x="550" 
d="M286 715q94 0 168 -54q9 -7 2 -17l-36 -47q-8 -9 -16 -2q-52 40 -118 40q-58 0 -92 -29t-34 -72v-4q0 -48 33 -74q35 -26 123 -48q107 -29 156 -73q50 -44 50 -131v-4q0 -87 -65 -149q-64 -61 -182 -61q-62 0 -121.5 21t-100.5 51q-10 7 -2 17l36 49q7 7 17 1
q31 -24 77.5 -41.5t93.5 -17.5q76 0 117 33.5t41 93.5v4q0 61 -39 87q-42 27 -138 52q-92 26 -138 64q-45 40 -45 124v4q0 82 59 132q59 51 154 51zM293 901l132 -94q5 -3 5 -8.5t-5 -8.5l-24 -17q-9 -5 -15 0l-94 62q-7 2 -14 0l-94 -62q-6 -5 -15 0l-24 17q-5 3 -5 8.5
t5 8.5l132 94q8 6 16 0z" />
    <glyph glyph-name="scircumflex" unicode="&#x15d;" horiz-adv-x="411" 
d="M216 504q71 0 125 -42q10 -7 3 -16l-30 -39q-6 -10 -17 -2q-38 26 -78 26q-35 0 -56 -18t-21 -43v-4q0 -30 20.5 -45t77.5 -31q76 -18 114 -48q38 -29 38 -96v-4q0 -66 -47.5 -109t-130.5 -43q-94 0 -165 54q-10 5 -2 16l30 40q7 10 17 2q53 -40 117 -40q47 0 72 22
t25 56v4q0 35 -23 51.5t-86 33.5q-75 18 -108 48.5t-33 88.5v4q0 58 45 96q46 38 113 38zM225 690l132 -94q5 -3 5 -8.5t-5 -8.5l-24 -17q-9 -4 -15 0l-94 62q-7 2 -14 0l-94 -62q-6 -4 -15 0l-24 17q-5 3 -5 8.5t5 8.5l132 94q8 6 16 0z" />
    <glyph glyph-name="Scedilla" unicode="&#x15e;" horiz-adv-x="550" 
d="M338 -154v5q0 25 -19 39t-54 14q-28 0 -58 -15q-8 -3 -13 3l-5 7q-4 6 -1 11l51 82q-107 11 -186 70q-10 7 -2 17l36 49q7 7 17 1q31 -24 77.5 -41.5t93.5 -17.5q76 0 117 33.5t41 93.5v4q0 61 -39 87q-42 27 -138 52q-92 26 -138 64q-45 40 -45 124v4q0 82 59 132
q59 51 154 51q94 0 168 -54q9 -7 2 -17l-36 -47q-8 -9 -16 -2q-52 40 -118 40q-58 0 -92 -29t-34 -72v-4q0 -48 33 -74q35 -26 123 -48q107 -29 156 -73q50 -44 50 -131v-4q0 -86 -61 -146q-61 -59 -174 -64l-22 -35q-2 -2 -0.5 -5.5t5.5 -3.5h9q50 0 81 -25t31 -67v-10
q0 -45 -35 -73.5t-92 -28.5q-42 0 -83 21q-10 6 -4 16l11 18q6 8 16 4q27 -13 55 -13q79 0 79 58z" />
    <glyph glyph-name="scedilla" unicode="&#x15f;" horiz-adv-x="411" 
d="M268 -154v5q0 25 -19 39t-54 14q-28 0 -58 -15q-8 -3 -13 3l-5 7q-4 6 -1 11l52 84q-71 11 -121 50q-10 5 -2 16l30 40q7 10 17 2q53 -40 117 -40q47 0 72 22t25 56v4q0 35 -23 51.5t-86 33.5q-75 18 -108 48.5t-33 88.5v4q0 58 45 96q46 38 113 38q71 0 125 -42
q10 -7 3 -16l-30 -39q-6 -10 -17 -2q-38 26 -78 26q-35 0 -56 -18t-21 -43v-4q0 -30 20.5 -45t77.5 -31q76 -18 114 -48q38 -29 38 -96v-4q0 -65 -46.5 -108t-128.5 -44l-22 -35q-2 -2 -0.5 -5.5t5.5 -3.5h9q50 0 81 -25t31 -67v-10q0 -45 -35 -73.5t-92 -28.5q-43 0 -83 21
q-10 6 -4 16l11 18q6 8 16 4q27 -13 55 -13q79 0 79 58z" />
    <glyph glyph-name="Scaron" unicode="&#x160;" horiz-adv-x="550" 
d="M286 715q94 0 168 -54q9 -7 2 -17l-36 -47q-8 -9 -16 -2q-52 40 -118 40q-58 0 -92 -29t-34 -72v-4q0 -48 33 -74q35 -26 123 -48q107 -29 156 -73q50 -44 50 -131v-4q0 -87 -65 -149q-64 -61 -182 -61q-62 0 -121.5 21t-100.5 51q-10 7 -2 17l36 49q7 7 17 1
q31 -24 77.5 -41.5t93.5 -17.5q76 0 117 33.5t41 93.5v4q0 61 -39 87q-42 27 -138 52q-92 26 -138 64q-45 40 -45 124v4q0 82 59 132q59 51 154 51zM294 830l94 62q6 4 15 0l24 -17q5 -3 5 -8.5t-5 -8.5l-132 -94q-8 -6 -16 0l-132 94q-5 3 -5 8.5t5 8.5l24 17q9 4 15 0
l94 -62q7 -2 14 0z" />
    <glyph glyph-name="scaron" unicode="&#x161;" horiz-adv-x="411" 
d="M216 504q71 0 125 -42q10 -7 3 -16l-30 -39q-6 -10 -17 -2q-38 26 -78 26q-35 0 -56 -18t-21 -43v-4q0 -30 20.5 -45t77.5 -31q76 -18 114 -48q38 -29 38 -96v-4q0 -66 -47.5 -109t-130.5 -43q-94 0 -165 54q-10 5 -2 16l30 40q7 10 17 2q53 -40 117 -40q47 0 72 22
t25 56v4q0 35 -23 51.5t-86 33.5q-75 18 -108 48.5t-33 88.5v4q0 58 45 96q46 38 113 38zM225 619l94 62q6 5 15 0l24 -17q4 -3 4 -8.5t-4 -8.5l-132 -94q-8 -6 -16 0l-132 94q-4 3 -4 8.5t4 8.5l24 17q9 5 15 0l94 -62q7 -2 14 0z" />
    <glyph glyph-name="uni0162" unicode="&#x162;" horiz-adv-x="559" 
d="M18 641v53q0 12 12 12h500q11 0 11 -12v-53q0 -11 -11 -11h-198q-9 0 -9 -10v-609q0 -11 -12 -11h-63q-11 0 -11 11v609q0 10 -10 10h-197q-12 0 -12 11zM320 -100q0 -50 -57 -107q-7 -7 -16 -5l-6 2q-10 6 -4 14q30 40 10 68q-22 30 2 56q20 20 45.5 9t25.5 -37z" />
    <glyph glyph-name="uni0163" unicode="&#x163;" horiz-adv-x="333" 
d="M82 504v116q0 12 11 12h63q11 0 11 -12v-116q0 -9 10 -9h108q12 0 12 -12v-35q0 -11 -12 -11h-108q-10 0 -10 -9v-303q0 -29 18 -45t46 -16q31 0 63 20q12 7 16 -4l24 -40q7 -11 -4 -16q-55 -31 -113 -31q-65 0 -100 31.5t-35 90.5v313q0 9 -10 9h-57q-11 0 -11 11v36
q0 11 11 11h57q10 0 10 9zM218 -100q0 -50 -57 -107q-7 -7 -16 -5l-6 2q-10 6 -4 14q30 40 10 68q-22 30 2 56q20 20 45.5 9t25.5 -37z" />
    <glyph glyph-name="Tcaron" unicode="&#x164;" horiz-adv-x="559" 
d="M18 641v53q0 12 12 12h500q11 0 11 -12v-53q0 -11 -11 -11h-198q-9 0 -9 -10v-609q0 -11 -12 -11h-63q-11 0 -11 11v609q0 10 -10 10h-197q-12 0 -12 11zM286 830l94 62q6 4 15 0l24 -17q5 -3 5 -8.5t-5 -8.5l-132 -94q-8 -6 -16 0l-132 94q-5 3 -5 8.5t5 8.5l24 17
q9 4 15 0l94 -62q7 -2 14 0z" />
    <glyph glyph-name="tcaron" unicode="&#x165;" horiz-adv-x="333" 
d="M345 680q0 -52 -57 -107q-7 -7 -16 -5l-6 2q-12 5 -4 14q19 25 19 40q0 17 -9 28q-22 30 2 56q20 20 45.5 9t25.5 -37zM82 504v116q0 12 11 12h63q11 0 11 -12v-116q0 -9 10 -9h108q12 0 12 -12v-35q0 -11 -12 -11h-108q-10 0 -10 -9v-303q0 -29 18 -45t46 -16
q31 0 63 20q12 7 16 -4l24 -40q7 -11 -4 -16q-55 -31 -113 -31q-65 0 -100 31.5t-35 90.5v313q0 9 -10 9h-57q-11 0 -11 11v36q0 11 11 11h57q10 0 10 9z" />
    <glyph glyph-name="Umacron" unicode="&#x16a;" horiz-adv-x="696" 
d="M74 277v418q0 11 12 11h64q11 0 11 -11v-418q0 -208 187 -208t187 208v418q0 11 11 11h64q11 0 11 -11v-418q0 -137 -72 -212t-201 -75t-201.5 75t-72.5 212zM225 859h247q11 0 11 -12v-33q0 -12 -11 -12h-247q-5 0 -8.5 4t-3.5 8v33q0 12 12 12z" />
    <glyph glyph-name="umacron" unicode="&#x16b;" horiz-adv-x="526" 
d="M56 188v295q0 12 11 12h63q12 0 12 -12v-293q0 -124 107 -124q68 0 119 53q12 12 12 26v339q0 11 11 11h63q11 0 11 -11v-473q0 -11 -11 -11h-55q-8 0 -11 8l-5 50q-1 3 -4 3.5t-4 -1.5q-57 -68 -150 -68q-82 0 -125.5 50.5t-43.5 145.5zM140 648h247q11 0 11 -12v-33
q0 -12 -11 -12h-247q-4 0 -8 3.5t-4 8.5v33q0 4 4 8t8 4z" />
    <glyph glyph-name="Ubreve" unicode="&#x16c;" horiz-adv-x="696" 
d="M74 277v418q0 11 12 11h64q11 0 11 -11v-418q0 -208 187 -208t187 208v418q0 11 11 11h64q11 0 11 -11v-418q0 -137 -72 -212t-201 -75t-201.5 75t-72.5 212zM446 889q8 10 15 3l28 -16q10 -6 3 -16q-9 -15 -25 -31q-18 -18 -51.5 -33t-67.5 -15q-53 0 -91 26
q-35 25 -53 53q-7 10 3 16l28 16q7 7 15 -3q38 -53 98 -53t98 53z" />
    <glyph glyph-name="ubreve" unicode="&#x16d;" horiz-adv-x="526" 
d="M56 188v295q0 12 11 12h63q12 0 12 -12v-293q0 -124 107 -124q68 0 119 53q12 12 12 26v339q0 11 11 11h63q11 0 11 -11v-473q0 -11 -11 -11h-55q-8 0 -11 8l-5 50q-1 3 -4 3.5t-4 -1.5q-57 -68 -150 -68q-82 0 -125.5 50.5t-43.5 145.5zM361 678q7 10 15 3l28 -16
q10 -6 3 -16q-9 -15 -25 -31q-18 -18 -51.5 -33t-67.5 -15q-53 0 -91 26q-35 25 -53 53q-7 10 3 16l28 16q8 7 15 -3q38 -53 98 -53t98 53z" />
    <glyph glyph-name="Uring" unicode="&#x16e;" horiz-adv-x="696" 
d="M347 918q37 0 60.5 -22.5t23.5 -58.5t-24 -58t-60 -22t-59 22t-23 58t23 58.5t59 22.5zM347 794q43 0 43 43q0 44 -43 44q-19 0 -30 -11.5t-11 -32.5q0 -20 11 -31.5t30 -11.5zM74 277v418q0 11 12 11h64q11 0 11 -11v-418q0 -208 187 -208t187 208v418q0 11 11 11h64
q11 0 11 -11v-418q0 -137 -72 -212t-201 -75t-201.5 75t-72.5 212z" />
    <glyph glyph-name="uring" unicode="&#x16f;" horiz-adv-x="526" 
d="M56 188v295q0 12 11 12h63q12 0 12 -12v-293q0 -124 107 -124q68 0 119 53q12 12 12 26v339q0 11 11 11h63q11 0 11 -11v-473q0 -11 -11 -11h-55q-8 0 -11 8l-5 50q-1 3 -4 3.5t-4 -1.5q-57 -68 -150 -68q-82 0 -125.5 50.5t-43.5 145.5zM262 707q37 0 60.5 -22.5
t23.5 -58.5t-24 -58t-60 -22t-59 22t-23 58t23 58.5t59 22.5zM262 583q43 0 43 43q0 44 -43 44q-19 0 -30 -11.5t-11 -32.5q0 -20 11 -31.5t30 -11.5z" />
    <glyph glyph-name="Uhungarumlaut" unicode="&#x170;" horiz-adv-x="696" 
d="M357 795l139 107q7 7 14 1l33 -20q5 -3 5 -9t-6 -10l-149 -102q-8 -5 -14 0l-22 14q-5 3 -5 9t5 10zM157 795l139 107q7 7 14 1l33 -20q5 -3 5 -9t-6 -10l-149 -102q-8 -5 -14 0l-22 14q-5 3 -5 9t5 10zM74 277v418q0 11 12 11h64q11 0 11 -11v-418q0 -208 187 -208
t187 208v418q0 11 11 11h64q11 0 11 -11v-418q0 -137 -72 -212t-201 -75t-201.5 75t-72.5 212z" />
    <glyph glyph-name="uhungarumlaut" unicode="&#x171;" horiz-adv-x="526" 
d="M56 188v295q0 12 11 12h63q12 0 12 -12v-293q0 -124 107 -124q68 0 119 53q12 12 12 26v339q0 11 11 11h63q11 0 11 -11v-473q0 -11 -11 -11h-55q-8 0 -11 8l-5 50q-1 3 -4 3.5t-4 -1.5q-57 -68 -150 -68q-82 0 -125.5 50.5t-43.5 145.5zM282 584l139 107q7 7 14 1
l33 -20q5 -3 5 -9t-6 -10l-149 -102q-8 -5 -14 0l-22 14q-5 3 -5 9t5 10zM82 584l139 107q7 7 14 1l33 -20q5 -3 5 -9t-6 -10l-149 -102q-8 -5 -14 0l-22 14q-5 3 -5 9t5 10z" />
    <glyph glyph-name="Uogonek" unicode="&#x172;" horiz-adv-x="696" 
d="M303 -89v9q0 40 32 70q-124 4 -192.5 78.5t-68.5 208.5v418q0 11 12 11h64q11 0 11 -11v-418q0 -208 187 -208t187 208v418q0 11 11 11h64q11 0 11 -11v-418q0 -111 -48 -182.5t-138 -94.5h-1q-79 -25 -79 -79v-4q0 -58 73 -58q30 0 55 13q11 5 16 -5l9 -18q8 -11 -5 -16
q-37 -19 -79 -19q-55 0 -88 26t-33 71z" />
    <glyph glyph-name="uogonek" unicode="&#x173;" horiz-adv-x="526" 
d="M305 -89v9q0 66 81 103l-3 35q-1 3 -4 3.5t-4 -1.5q-57 -68 -150 -68q-82 0 -125.5 50.5t-43.5 145.5v295q0 12 11 12h63q12 0 12 -12v-293q0 -124 107 -124q68 0 119 53q12 12 12 26v339q0 11 11 11h63q11 0 11 -11v-473q0 -11 -11 -11h-18q-79 -25 -79 -79v-4
q0 -58 73 -58q30 0 55 13q11 5 16 -5l9 -18q8 -11 -5 -16q-37 -19 -79 -19q-55 0 -88 26t-33 71z" />
    <glyph glyph-name="Ydieresis" unicode="&#x178;" horiz-adv-x="633" 
d="M277 13v208q0 12 -6 22l-246 447q-3 5 0 10.5t10 5.5h69q10 0 15 -9l195 -367q1 -4 5 -4h1q3 0 6 4l194 367q4 9 16 9h68q7 0 10 -5.5t0 -10.5l-246 -447q-5 -10 -5 -22v-208q0 -13 -14 -13h-59q-13 0 -13 13zM227 879q18 0 30.5 -12.5t12.5 -29.5t-12.5 -29.5
t-30.5 -12.5q-17 0 -29.5 12.5t-12.5 29.5t12.5 29.5t29.5 12.5zM412 879q18 0 30 -12.5t12 -29.5t-12 -29.5t-30 -12.5q-17 0 -29.5 12.5t-12.5 29.5t12.5 29.5t29.5 12.5z" />
    <glyph glyph-name="Zacute" unicode="&#x179;" horiz-adv-x="600" 
d="M82 641v53q0 12 11 12h457q12 0 12 -12v-3q0 -7 -4 -11l-388 -589q-2 -5 0.5 -9.5t7.5 -4.5h362q12 0 12 -12v-53q0 -12 -12 -12h-495q-11 0 -11 12v5q0 6 3 11l386 588q3 4 0.5 9t-7.5 5h-323q-11 0 -11 11zM226 802l138 107q11 8 18 1l39 -24q5 -3 5 -9t-6 -10
l-147 -101q-10 -7 -18 0l-29 18q-5 3 -5 9t5 9z" />
    <glyph glyph-name="zacute" unicode="&#x17a;" horiz-adv-x="462" 
d="M59 442v41q0 12 11 12h356q12 0 12 -12v-2q0 -6 -4 -11l-280 -391q-4 -5 -1.5 -10t8.5 -5h257q12 0 12 -11v-41q0 -12 -12 -12h-382q-11 0 -11 11v3q0 7 4 11l278 391q3 4 0.5 9.5t-8.5 5.5h-229q-11 0 -11 11zM160 591l138 107q11 8 18 1l39 -24q5 -3 5 -9t-6 -10
l-147 -101q-11 -7 -18 0l-29 18q-5 3 -5 9t5 9z" />
    <glyph glyph-name="Zdotaccent" unicode="&#x17b;" horiz-adv-x="600" 
d="M82 641v53q0 12 11 12h457q12 0 12 -12v-3q0 -7 -4 -11l-388 -589q-2 -5 0.5 -9.5t7.5 -4.5h362q12 0 12 -12v-53q0 -12 -12 -12h-495q-11 0 -11 12v5q0 6 3 11l386 588q3 4 0.5 9t-7.5 5h-323q-11 0 -11 11zM292 806q-13 13 -13 32t13 32q14 13 33 13t32 -13
q14 -13 14 -32t-14 -32q-13 -13 -32 -13t-33 13z" />
    <glyph glyph-name="zdotaccent" unicode="&#x17c;" horiz-adv-x="462" 
d="M59 442v41q0 12 11 12h356q12 0 12 -12v-2q0 -6 -4 -11l-280 -391q-4 -5 -1.5 -10t8.5 -5h257q12 0 12 -11v-41q0 -12 -12 -12h-382q-11 0 -11 11v3q0 7 4 11l278 391q3 4 0.5 9.5t-8.5 5.5h-229q-11 0 -11 11zM220 595q-13 13 -13 32t13 32q14 13 33 13t32 -13
q14 -13 14 -32t-14 -32q-13 -13 -32 -13t-33 13z" />
    <glyph glyph-name="Zcaron" unicode="&#x17d;" horiz-adv-x="600" 
d="M82 641v53q0 12 11 12h457q12 0 12 -12v-3q0 -7 -4 -11l-388 -589q-2 -5 0.5 -9.5t7.5 -4.5h362q12 0 12 -12v-53q0 -12 -12 -12h-495q-11 0 -11 12v5q0 6 3 11l386 588q3 4 0.5 9t-7.5 5h-323q-11 0 -11 11zM334 830l94 62q6 4 15 0l24 -17q5 -3 5 -8.5t-5 -8.5
l-132 -94q-8 -6 -16 0l-132 94q-5 3 -5 8.5t5 8.5l24 17q9 4 15 0l94 -62q7 -2 14 0z" />
    <glyph glyph-name="zcaron" unicode="&#x17e;" horiz-adv-x="462" 
d="M259 619l94 62q6 5 15 0l24 -17q4 -3 4 -8.5t-4 -8.5l-132 -94q-8 -6 -16 0l-132 94q-4 3 -4 8.5t4 8.5l24 17q9 5 15 0l94 -62q7 -2 14 0zM59 442v41q0 12 11 12h356q12 0 12 -12v-2q0 -6 -4 -11l-280 -391q-4 -5 -1.5 -10t8.5 -5h257q12 0 12 -11v-41q0 -12 -12 -12
h-382q-11 0 -11 11v3q0 7 4 11l278 391q3 4 0.5 9.5t-8.5 5.5h-229q-11 0 -11 11z" />
    <glyph glyph-name="florin" unicode="&#x192;" horiz-adv-x="365" 
d="M150 505l14 80q11 60 51.5 92.5t105.5 32.5q51 0 100 -31q10 -6 4 -16l-27 -40q-6 -11 -15 -4q-29 21 -60 21q-28 0 -48.5 -16.5t-26.5 -46.5l-13 -72q-1 -10 7 -10h100q9 0 11 -11l-1 -36q1 -4 -2.5 -7.5t-8.5 -3.5h-109q-10 0 -11 -9l-95 -541q-11 -59 -52 -92
t-104 -33q-50 0 -102 31q-8 6 -3 16l27 40q5 11 15 4q29 -21 60 -21q28 0 48.5 16.5t26.5 46.5l94 533q1 3 -1.5 6t-6.5 3h-57q-11 0 -11 11v36q0 11 12 11h66q11 0 12 10z" />
    <glyph glyph-name="circumflex" unicode="&#x2c6;" horiz-adv-x="400" 
d="M208 690l132 -94q4 -3 4 -8.5t-4 -8.5l-24 -17q-9 -4 -15 0l-94 62q-7 2 -14 0l-94 -62q-6 -4 -15 0l-24 17q-4 3 -4 8.5t4 8.5l132 94q8 6 16 0z" />
    <glyph glyph-name="caron" unicode="&#x2c7;" horiz-adv-x="200" 
d="M107 619l94 62q6 5 15 0l24 -17q4 -3 4 -8.5t-4 -8.5l-132 -94q-8 -6 -16 0l-132 94q-4 3 -4 8.5t4 8.5l24 17q9 5 15 0l94 -62q7 -2 14 0z" />
    <glyph glyph-name="breve" unicode="&#x2d8;" horiz-adv-x="400" 
d="M306 678q8 10 15 3l28 -16q10 -6 3 -16q-9 -15 -25 -31q-18 -18 -51.5 -33t-67.5 -15q-53 0 -91 26q-35 25 -53 53q-7 10 3 16l28 16q7 7 15 -3q38 -53 98 -53t98 53z" />
    <glyph glyph-name="dotaccent" unicode="&#x2d9;" horiz-adv-x="280" 
d="M107 595q-13 13 -13 32t13 32q14 13 33 13t32 -13q14 -13 14 -32t-14 -32q-13 -13 -32 -13t-33 13z" />
    <glyph glyph-name="ring" unicode="&#x2da;" horiz-adv-x="400" 
d="M199 707q37 0 60.5 -22.5t23.5 -58.5t-24 -58t-60 -22t-59 22t-23 58t23 58.5t59 22.5zM199 583q43 0 43 43q0 44 -43 44q-19 0 -30 -11.5t-11 -32.5q0 -20 11 -31.5t30 -11.5z" />
    <glyph glyph-name="ogonek" unicode="&#x2db;" horiz-adv-x="400" 
d="M97 -89v9q0 40 33 71t91 47q15 3 15 -10v-17q0 -8 -8 -11q-79 -25 -79 -79v-4q0 -58 73 -58q30 0 55 13q11 5 16 -5l9 -18q8 -11 -5 -16q-37 -19 -79 -19q-55 0 -88 26t-33 71z" />
    <glyph glyph-name="tilde" unicode="&#x2dc;" horiz-adv-x="400" 
d="M216 648q32 -18 54 -18q29 0 55 22q11 8 16 -3l16 -24q5 -10 -1 -14q-33 -39 -86 -39q-34 0 -75 24q-31 18 -54 18q-28 0 -54 -22q-9 -9 -15 4l-16 24q-7 8 1 13q36 39 84 39q36 0 75 -24z" />
    <glyph glyph-name="hungarumlaut" unicode="&#x2dd;" horiz-adv-x="400" 
d="M210 584l139 107q7 7 14 1l33 -20q5 -3 5 -9t-6 -10l-149 -102q-8 -5 -14 0l-22 14q-5 3 -5 9t5 10zM10 584l139 107q7 7 14 1l33 -20q5 -3 5 -9t-6 -10l-149 -102q-8 -5 -14 0l-22 14q-5 3 -5 9t5 10z" />
    <glyph glyph-name="pi" unicode="&#x3c0;" horiz-adv-x="539" 
d="M32 495h475q12 0 12 -12v-35q0 -11 -12 -11h-54q-9 0 -9 -10v-416q0 -11 -11 -11h-64q-11 0 -11 11v416q0 10 -9 10h-159q-9 0 -9 -10v-416q0 -11 -12 -11h-63q-11 0 -11 11v416q0 10 -10 10h-53q-12 0 -12 11v35q0 5 4 8.5t8 3.5z" />
    <glyph glyph-name="endash" unicode="&#x2013;" horiz-adv-x="430" 
d="M46 283h338q12 0 12 -12v-43q0 -11 -12 -11h-338q-12 0 -12 11v43q0 5 4 8.5t8 3.5z" />
    <glyph glyph-name="emdash" unicode="&#x2014;" horiz-adv-x="802" 
d="M32 283h738q12 0 12 -12v-43q0 -11 -12 -11h-738q-12 0 -12 11v43q0 5 4 8.5t8 3.5z" />
    <glyph glyph-name="quoteleft" unicode="&#x2018;" horiz-adv-x="177" 
d="M136 590q0 -20 -13.5 -34t-34.5 -14t-34.5 14t-13.5 34q0 58 66 124q8 7 19 5l7 -2q12 -5 4 -16q-21 -31 -21 -47q0 -19 10 -32q11 -17 11 -32z" />
    <glyph glyph-name="quoteright" unicode="&#x2019;" horiz-adv-x="177" 
d="M50 663q0 20 13.5 34t34.5 14t34.5 -14t13.5 -34q0 -57 -66 -123q-8 -8 -19 -6l-7 3q-13 2 -4 15q21 32 21 48q0 18 -10 32q-11 14 -11 31z" />
    <glyph glyph-name="quotesinglbase" unicode="&#x201a;" horiz-adv-x="192" 
d="M46 46q0 20 13.5 33.5t34.5 13.5t34 -13.5t13 -33.5q0 -58 -66 -124q-9 -9 -18 -5l-8 2q-10 6 -4 16q22 29 22 47t-11 32q-10 13 -10 32z" />
    <glyph glyph-name="quotedblleft" unicode="&#x201c;" horiz-adv-x="314" 
d="M136 590q0 -20 -13.5 -34t-34.5 -14t-34.5 14t-13.5 34q0 58 66 124q8 7 19 5l7 -2q12 -5 4 -16q-21 -31 -21 -47q0 -19 10 -32q11 -17 11 -32zM273 590q0 -20 -13.5 -34t-34.5 -14t-34.5 14t-13.5 34q0 57 67 124q7 7 18 5l7 -2q12 -5 4 -16q-21 -31 -21 -47
q0 -19 10 -32q11 -14 11 -32z" />
    <glyph glyph-name="quotedblright" unicode="&#x201d;" horiz-adv-x="314" 
d="M50 663q0 20 13.5 34t34.5 14t34.5 -14t13.5 -34q0 -57 -66 -123q-8 -8 -19 -6l-7 3q-13 2 -4 15q21 32 21 48q0 18 -10 32q-11 17 -11 31zM188 663q0 21 13 34.5t34 13.5t34.5 -13.5t13.5 -34.5q0 -59 -66 -123q-7 -9 -18 -6l-8 3q-11 2 -4 15q35 49 11 80
q-10 13 -10 31z" />
    <glyph glyph-name="quotedblbase" unicode="&#x201e;" horiz-adv-x="330" 
d="M46 46q0 20 13.5 33.5t34.5 13.5t34 -13.5t13 -33.5q0 -58 -66 -124q-9 -9 -18 -5l-8 2q-10 6 -4 16q22 29 22 47t-11 32q-10 13 -10 32zM183 46q0 20 13.5 33.5t34.5 13.5t34.5 -13.5t13.5 -33.5q0 -56 -66 -124q-11 -9 -19 -5l-7 2q-10 6 -4 16q21 32 21 47
q0 22 -10 32q-11 17 -11 32z" />
    <glyph glyph-name="dagger" unicode="&#x2020;" horiz-adv-x="439" 
d="M176 535v129q0 12 12 12h63q11 0 11 -12v-129q0 -9 9 -9h116q12 0 12 -11v-35q0 -12 -12 -12h-116q-9 0 -9 -9v-416q0 -12 -11 -12h-63q-12 0 -12 12v416q0 9 -9 9h-115q-12 0 -12 12v35q0 11 12 11h115q9 0 9 9z" />
    <glyph glyph-name="daggerdbl" unicode="&#x2021;" horiz-adv-x="439" 
d="M176 535v129q0 12 12 12h63q11 0 11 -12v-129q0 -9 9 -9h116q12 0 12 -11v-35q0 -12 -12 -12h-116q-9 0 -9 -9v-211q2 -8 10 -8h115q11 0 11 -12v-36q0 -11 -11 -11h-115q-10 0 -10 -9v-129q0 -12 -11 -12h-63q-12 0 -12 12v129q0 9 -9 9h-115q-4 0 -8 3.5t-4 8.5v35
q0 12 12 12h115q9 0 9 9v210q0 9 -9 9h-115q-12 0 -12 12v35q0 11 12 11h115q9 0 9 9z" />
    <glyph glyph-name="bullet" unicode="&#x2022;" horiz-adv-x="338" 
d="M88 274q-32 34 -32 81q0 48 32 80t81 32t81 -32t32 -80q0 -47 -32 -81q-32 -32 -81 -32t-81 32z" />
    <glyph glyph-name="ellipsis" unicode="&#x2026;" horiz-adv-x="642" 
d="M54 49q0 22 15 37t38 15t38 -15t15 -37q0 -23 -15 -38t-38 -15t-38 15t-15 38zM268 49q0 22 15 37t38 15t38 -15t15 -37q0 -23 -15 -38t-38 -15t-38 15t-15 38zM482 49q0 22 15 37t38 15t38 -15t15 -37q0 -23 -15 -38t-38 -15t-38 15t-15 38z" />
    <glyph glyph-name="perthousand" unicode="&#x2030;" horiz-adv-x="1298" 
d="M184 18l452 676q10 12 24 12h51q7 0 10 -6t-1 -12l-452 -676q-10 -12 -24 -12h-51q-7 0 -10 6t1 12zM409 543v-3q0 -77 -50 -124t-125 -47q-74 0 -126 47q-50 47 -50 124v3q0 77 51 123q52 47 125 47q74 0 124 -47q51 -46 51 -123zM342 540v3q0 50 -30 80t-78 30
t-78 -29.5t-30 -80.5v-3q0 -51 29.5 -81t78.5 -30q48 0 78 30t30 81zM847 170v-3q0 -77 -51 -124q-50 -47 -125 -47q-74 0 -126 47q-50 47 -50 124v3q0 76 51 122q52 47 125 47t125 -47q51 -46 51 -122zM779 167v3q0 50 -30 79.5t-78 29.5q-49 0 -78.5 -29.5t-29.5 -79.5v-3
q0 -51 29.5 -81t78.5 -30t78.5 30t29.5 81zM1240 170v-3q0 -77 -51 -124q-50 -47 -125 -47t-125 47t-50 124v3q0 75 50 122q52 47 125 47t125 -47q51 -46 51 -122zM1172 167v3q0 50 -30 79.5t-78 29.5q-49 0 -78.5 -29.5t-29.5 -79.5v-3q0 -51 29.5 -81t78.5 -30t78.5 30
t29.5 81z" />
    <glyph glyph-name="guilsinglleft" unicode="&#x2039;" horiz-adv-x="249" 
d="M40 250q0 5 3 10l111 155q5 8 14 8h32q6 0 8 -4.5t-1 -8.5l-98 -153q-5 -7 0 -14l98 -153q3 -4 1 -8.5t-8 -4.5h-32q-9 0 -14 8l-111 155q-3 4 -3 10z" />
    <glyph glyph-name="guilsinglright" unicode="&#x203a;" horiz-adv-x="249" 
d="M211 250q0 -6 -3 -10l-111 -155q-5 -8 -14 -8h-31q-6 0 -8 4.5t1 8.5l97 153q5 7 0 14l-97 153q-3 4 -1 8.5t8 4.5h31q9 0 14 -8l111 -155q3 -5 3 -10z" />
    <glyph glyph-name="fraction" unicode="&#x2044;" horiz-adv-x="403" 
d="M19 15l305 679q3 12 16 12h41q7 0 10 -5t1 -11l-305 -678q-5 -12 -16 -12h-41q-6 0 -9.5 4.5t-1.5 10.5z" />
    <glyph glyph-name="zerosuperior" unicode="&#x2070;" horiz-adv-x="373" 
d="M35 536v168q0 70 42 114t109 44q68 0 110 -44t42 -114v-168q0 -70 -42 -114t-110 -44q-67 0 -109 44t-42 114zM101 703v-166q0 -47 22.5 -73t62.5 -26q41 0 63.5 26t22.5 74v166q0 47 -22.5 72.5t-63.5 25.5q-40 0 -62.5 -26t-22.5 -73z" />
    <glyph glyph-name="foursuperior" unicode="&#x2074;" horiz-adv-x="368" 
d="M23 565l193 284q4 7 12 7h38q12 0 12 -11v-262q0 -9 9 -9h35q11 0 11 -12v-33q0 -12 -11 -12h-35q-9 0 -9 -9v-113q0 -11 -12 -11h-44q-12 0 -12 11v113q0 9 -9 9h-171q-12 0 -12 12v20q0 8 5 16zM196 715l-92 -129q-3 -4 -0.5 -8t8.5 -4h89q9 0 9 9v128q0 6 -5 8t-9 -4z
" />
    <glyph glyph-name="fivesuperior" unicode="&#x2075;" horiz-adv-x="338" 
d="M53 615v229q0 12 12 12h213q12 0 12 -12v-38q0 -12 -12 -12h-153q-9 0 -9 -9v-97q0 -3 3.5 -6t7.5 -2q18 6 38 6q65 0 103.5 -39t38.5 -104v-13q0 -65 -47 -109q-46 -43 -118 -43q-55 0 -97 27q-8 5 -4 15l15 33q5 11 16 5q27 -18 67 -18q44 0 71.5 26t27.5 66v9
q0 40 -24.5 63.5t-66.5 23.5q-44 0 -76 -23q-5 -3 -11.5 0t-6.5 10z" />
    <glyph glyph-name="sixsuperior" unicode="&#x2076;" horiz-adv-x="366" 
d="M195 679q59 0 97.5 -40t38.5 -102v-14q0 -64 -44 -105q-43 -40 -106 -40q-62 0 -104 39q-42 41 -42 107v185q0 65 45 109q44 43 114 43q54 0 98 -27q9 -4 5 -14l-15 -34q-6 -11 -18 -5q-29 19 -67 19q-41 0 -68.5 -26.5t-27.5 -66.5v-55q0 -4 3 -5.5t6 0.5q35 32 85 32z
M100 535v-11q0 -39 23.5 -62.5t57.5 -23.5q36 0 59.5 23.5t23.5 62.5v11q0 40 -22 63.5t-58 23.5q-37 0 -60.5 -23.5t-23.5 -63.5z" />
    <glyph glyph-name="sevensuperior" unicode="&#x2077;" horiz-adv-x="296" 
d="M10 806v38q0 12 12 12h253q11 0 11 -12v-22q0 -2 -3 -17l-153 -412q-3 -9 -12 -9h-48q-6 0 -9.5 4.5t-0.5 10.5l147 383q3 4 0.5 8t-8.5 4h-177q-12 0 -12 12z" />
    <glyph glyph-name="eightsuperior" unicode="&#x2078;" horiz-adv-x="362" 
d="M181 862q58 0 95.5 -35t37.5 -90v-7q0 -53 -44 -88q-5 -5 0 -10q61 -36 61 -106v-10q0 -61 -43 -100q-42 -39 -107 -39t-108 39q-42 39 -42 100v10q0 70 60 106q8 5 0 10q-44 35 -44 88v7q0 55 37.5 90t96.5 35zM114 734v-6q0 -28 19 -48t48 -20t48 20t19 48v6
q2 42 -32.5 60t-69 0t-32.5 -60zM100 529v-11q-3 -50 39 -71t83.5 -0.5t38.5 71.5v11q0 35 -21.5 57t-58.5 22t-59 -22t-22 -57z" />
    <glyph glyph-name="ninesuperior" unicode="&#x2079;" horiz-adv-x="366" 
d="M170 560q-58 0 -97 40q-38 41 -38 102v14q0 65 43 105t106 40t104 -40q43 -39 43 -106v-185q0 -66 -45 -109q-44 -43 -114 -43q-56 0 -98 27q-9 4 -6 14l16 34q5 11 17 5q31 -19 68 -19q41 0 68 26.5t27 66.5v55q0 11 -8 5q-35 -32 -86 -32zM266 704v11q3 53 -39.5 75
t-85 0t-39.5 -75v-11q0 -40 21.5 -63.5t57.5 -23.5q37 0 61 23.5t24 63.5z" />
    <glyph glyph-name="zeroinferior" unicode="&#x2080;" horiz-adv-x="373" 
d="M35 2v168q0 70 42 114t109 44q68 0 110 -44t42 -114v-168q0 -70 -42 -114t-110 -44q-67 0 -109 44t-42 114zM101 169v-166q0 -47 22.5 -73t62.5 -26q41 0 63.5 26t22.5 74v166q0 47 -22.5 72.5t-63.5 25.5q-40 0 -62.5 -26t-22.5 -73z" />
    <glyph glyph-name="oneinferior" unicode="&#x2081;" horiz-adv-x="212" 
d="M94 322h39q12 0 12 -11v-450q0 -11 -12 -11h-45q-11 0 -11 11v377q0 9 -9 9h-8q-6 0 -9.5 6t-0.5 11l32 51q4 7 12 7z" />
    <glyph glyph-name="twoinferior" unicode="&#x2082;" horiz-adv-x="351" 
d="M169 328q67 0 107 -36.5t40 -97.5v-12q0 -54 -57 -119l-119 -137q-3 -4 -1 -9t8 -5h147q12 0 12 -12v-39q0 -11 -12 -11h-248q-11 0 -11 11v25q0 8 6 14l167 198q39 46 39 82v11q0 34 -22.5 54.5t-59.5 20.5q-45 0 -76 -21q-13 -8 -17 5l-15 32q-5 11 5 15q47 31 107 31z
" />
    <glyph glyph-name="threeinferior" unicode="&#x2083;" horiz-adv-x="339" 
d="M143 -156q-53 0 -97 26q-9 5 -5 15l15 34q5 12 16 6q32 -19 69 -19q43 0 70.5 26t27.5 66v9q0 41 -23 64t-64 23q-28 0 -54 -9q-8 -3 -14 5l-8 12q-5 8 1 14l115 129q4 5 1.5 10t-9.5 5h-122q-11 0 -11 12v38q0 12 11 12h221q12 0 12 -12v-27q0 -8 -7 -15l-111 -121
q58 -1 94.5 -38.5t36.5 -99.5v-12q0 -65 -47 -109t-118 -44z" />
    <glyph glyph-name="fourinferior" unicode="&#x2084;" horiz-adv-x="368" 
d="M23 31l193 284q4 7 12 7h38q12 0 12 -11v-262q0 -9 9 -9h35q11 0 11 -12v-33q0 -12 -11 -12h-35q-9 0 -9 -9v-113q0 -11 -12 -11h-44q-12 0 -12 11v113q0 9 -9 9h-171q-12 0 -12 12v20q0 8 5 16zM196 181l-92 -129q-3 -4 -0.5 -8t8.5 -4h89q9 0 9 9v128q0 6 -5 8t-9 -4z
" />
    <glyph glyph-name="fiveinferior" unicode="&#x2085;" horiz-adv-x="338" 
d="M53 81v229q0 12 12 12h213q12 0 12 -12v-38q0 -12 -12 -12h-153q-9 0 -9 -9v-97q0 -3 3.5 -6t7.5 -2q18 6 38 6q65 0 103.5 -39t38.5 -104v-13q0 -64 -47 -108t-118 -44q-55 0 -97 27q-8 5 -4 15l15 33q5 11 16 5q27 -18 67 -18q44 0 71.5 26t27.5 66v9q0 40 -24.5 63.5
t-66.5 23.5q-44 0 -76 -23q-5 -3 -11.5 0t-6.5 10z" />
    <glyph glyph-name="sixinferior" unicode="&#x2086;" horiz-adv-x="366" 
d="M195 145q59 0 97.5 -40t38.5 -102v-14q0 -64 -44 -105q-43 -40 -106 -40t-104 40q-42 39 -42 106v185q0 65 45 109q44 43 114 43q54 0 98 -27q9 -4 5 -14l-15 -34q-6 -11 -18 -5q-29 19 -67 19q-41 0 -68.5 -26.5t-27.5 -66.5v-55q0 -4 3 -5.5t6 0.5q35 32 85 32zM100 1
v-11q0 -39 23.5 -62.5t57.5 -23.5q36 0 59.5 23.5t23.5 62.5v11q0 40 -22 63.5t-58 23.5q-37 0 -60.5 -23.5t-23.5 -63.5z" />
    <glyph glyph-name="seveninferior" unicode="&#x2087;" horiz-adv-x="296" 
d="M10 272v38q0 12 12 12h253q11 0 11 -12v-22q0 -2 -3 -17l-153 -412q-3 -9 -12 -9h-48q-6 0 -9.5 4.5t-0.5 10.5l147 383q3 4 0.5 8t-8.5 4h-177q-12 0 -12 12z" />
    <glyph glyph-name="eightinferior" unicode="&#x2088;" horiz-adv-x="362" 
d="M181 328q58 0 95.5 -35t37.5 -90v-7q0 -53 -44 -88q-5 -5 0 -10q61 -36 61 -106v-10q0 -61 -43 -100q-42 -39 -107 -39t-108 39q-42 39 -42 100v10q0 70 60 106q8 5 0 10q-44 35 -44 88v7q0 55 37.5 90t96.5 35zM114 200v-6q0 -28 19 -48t48 -20t48 20t19 48v6
q2 42 -32.5 60t-69 0t-32.5 -60zM100 -5v-11q-3 -50 39 -71t83.5 -0.5t38.5 71.5v11q0 35 -21.5 57t-58.5 22t-59 -22t-22 -57z" />
    <glyph glyph-name="nineinferior" unicode="&#x2089;" horiz-adv-x="366" 
d="M170 26q-58 0 -97 40q-38 41 -38 102v14q0 65 43 105t106 40t104 -40q43 -39 43 -106v-185q0 -66 -45 -109q-44 -43 -114 -43q-56 0 -98 27q-9 4 -6 14l16 34q5 11 17 5q31 -19 68 -19q41 0 68 26.5t27 66.5v55q0 11 -8 5q-35 -32 -86 -32zM266 170v11q3 53 -39.5 75
t-85 0t-39.5 -75v-11q0 -40 21.5 -63.5t57.5 -23.5q37 0 61 23.5t24 63.5z" />
    <glyph glyph-name="Euro" unicode="&#x20ac;" horiz-adv-x="604" 
d="M52 310v13v59v13h-28q-12 0 -12 12v24q0 12 12 12h32q20 125 108 198q89 75 220 75q91 0 167 -46q9 -6 3 -16l-35 -47q-7 -9 -17 -3q-52 33 -118 33q-93 0 -158 -53q-64 -52 -81 -141h304q12 0 12 -12v-25q0 -11 -12 -11h-309v-13v-59v-13h309q12 0 12 -11v-25
q0 -4 -3.5 -8t-8.5 -4h-304q17 -90 80.5 -141.5t158.5 -51.5q64 0 117 32q10 7 17 -2l36 -48q7 -10 -3 -16q-77 -45 -167 -45q-132 0 -221 74q-87 73 -107 198h-32q-12 0 -12 12v25q0 11 12 11h28z" />
    <glyph glyph-name="trademark" unicode="&#x2122;" horiz-adv-x="832" 
d="M40 654v41q0 11 11 11h276q10 0 10 -11v-41q0 -9 -10 -9h-96q-8 0 -8 -8v-317q0 -10 -10 -10h-50q-9 0 -9 10v317q0 8 -8 8h-95q-11 0 -11 9zM360 321l57 377q2 8 10 8h18q5 0 9 -6l108 -196q2 -3 3 -3q3 0 4 3l108 196q3 6 10 6h17q8 0 10 -8l59 -377q2 -11 -10 -11h-47
q-8 0 -10 8l-37 232q-2 9 -8 1l-87 -156q-3 -5 -9 -5q-5 0 -8 5l-86 156q-6 8 -8 -1l-36 -232q-2 -8 -10 -8h-47q-12 0 -10 11z" />
    <glyph glyph-name="Omega" unicode="&#x2126;" horiz-adv-x="740" 
d="M370 716q145 0 232 -91t87 -242v-28q0 -174 -153 -265q-3 -2 -3.5 -5t2 -5.5t5.5 -2.5h109q12 0 12 -12v-53q0 -12 -12 -12h-226q-11 0 -11 12v50q0 14 10 18q96 47 137.5 114t41.5 161v28q0 118 -62 186t-169 68t-170 -68q-62 -68 -62 -186v-28q0 -94 41.5 -161
t137.5 -114q10 -4 10 -18v-50q0 -12 -11 -12h-225q-12 0 -12 12v53q0 12 12 12h108q5 0 6.5 5t-2.5 8q-153 91 -153 265v28q0 151 87 242t233 91z" />
    <glyph glyph-name="partialdiff" unicode="&#x2202;" horiz-adv-x="550" 
d="M37 222v51q0 103 63 167q64 64 158 64q91 0 147 -62q2 -2 4.5 -2t3 1.5t-0.5 4.5q-16 60 -61 114q-43 53 -146 111q-13 7 -4 18l30 38q7 9 18 3q95 -59 125 -85q120 -106 136 -304q2 -42 2 -66v-53q0 -100 -67 -166q-68 -65 -170 -65q-103 0 -171 65q-67 66 -67 166z
M121 273v-50q0 -72 42.5 -116.5t111.5 -44.5t111 44.5t42 116.5v50q0 72 -42 116t-111 44t-111.5 -44t-42.5 -116z" />
    <glyph glyph-name="increment" unicode="&#x2206;" horiz-adv-x="689" 
d="M330 706h34q8 0 13 -9l302 -682q2 -4 -1.5 -9.5t-8.5 -5.5h-643q-6 0 -9.5 5t-1.5 10l302 682q5 9 13 9zM341 550l-205 -459q-2 -5 0.5 -9.5t7.5 -4.5h406q5 0 7.5 4.5t0.5 9.5l-205 459q-1 4 -6 4t-6 -4z" />
    <glyph glyph-name="product" unicode="&#x220f;" horiz-adv-x="684" 
d="M32 706h620q4 0 8 -4t4 -8v-53q0 -11 -12 -11h-80q-9 0 -9 -10v-609q0 -11 -11 -11h-64q-11 0 -11 11v609q0 10 -10 10h-251q-9 0 -9 -10v-609q0 -11 -11 -11h-64q-11 0 -11 11v609q0 10 -10 10h-79q-12 0 -12 11v53q0 4 4 8t8 4z" />
    <glyph glyph-name="summation" unicode="&#x2211;" horiz-adv-x="615" 
d="M45 706h496q11 0 11 -12v-53q0 -11 -11 -11h-370q-5 0 -7.5 -5t0.5 -9l179 -252q8 -8 0 -17l-181 -256q-2 -5 0.5 -9.5t7.5 -4.5h370q12 0 12 -12v-53q0 -12 -12 -12h-495q-11 0 -11 12v25q0 9 4 13l217 298q8 8 0 17l-217 293q-5 7 -5 13v23q0 12 12 12z" />
    <glyph glyph-name="minus" unicode="&#x2212;" horiz-adv-x="573" 
d="M511 321h-449q-12 0 -12 12v40q0 12 12 12h449q12 0 12 -12v-40q0 -12 -12 -12z" />
    <glyph glyph-name="radical" unicode="&#x221a;" horiz-adv-x="612" 
d="M10 326v41q0 11 12 11h163q10 0 13 -9l93 -223q1 -4 5 -4t5 4l225 551q4 9 13 9h56q5 0 8 -4.5t1 -8.5l-287 -686q-3 -8 -12 -8h-19q-9 0 -12 8l-128 298q-3 9 -13 9h-111q-4 0 -8 4t-4 8z" />
    <glyph glyph-name="infinity" unicode="&#x221e;" horiz-adv-x="762" 
d="M203 501q42 0 80 -23t87 -71q11 -11 22 0q52 50 89 72t83 22q64 0 105 -42q42 -41 42 -106q0 -60 -44 -106q-44 -44 -108 -44q-41 0 -78 22t-89 72q-11 11 -22 0q-49 -49 -87.5 -71.5t-84.5 -22.5q-64 0 -105.5 42t-41.5 106q0 63 43 106q44 44 109 44zM203 438
q-36 0 -61 -25.5t-25 -61.5t23.5 -60.5t59.5 -24.5q23 0 46 13q32 16 81 64q10 9 0 19q-21 21 -41 37q-44 39 -83 39zM562 438q-29 0 -58 -18.5t-69 -57.5q-10 -10 0 -19l41 -38q46 -39 83 -39q36 0 61 25.5t25 61.5q0 37 -23.5 61t-59.5 24z" />
    <glyph glyph-name="integral" unicode="&#x222b;" horiz-adv-x="261" 
d="M91 -10v735q0 60 35 92.5t100 32.5q39 0 72 -12q10 -4 9 -16l-13 -42q-3 -12 -15 -8q-21 8 -38 8q-29 0 -46.5 -16.5t-17.5 -46.5v-736q0 -59 -35.5 -91.5t-99.5 -32.5q-39 0 -72 12q-14 5 -9 15l13 43q5 11 14 8q21 -8 39 -8q29 0 46.5 16.5t17.5 46.5z" />
    <glyph glyph-name="approxequal" unicode="&#x2248;" horiz-adv-x="573" 
d="M177 498q51 0 117 -25t114 -25q42 0 93 24q12 5 18 -8l9 -27q3 -13 -7 -17q-58 -34 -120 -34q-51 0 -117 25t-114 25q-42 0 -93 -24q-13 -6 -18 8l-9 27q-3 13 7 17q58 34 120 34zM177 320q51 0 117 -25t114 -25q42 0 93 24q13 6 18 -8l9 -27q3 -13 -7 -17
q-58 -34 -120 -34q-51 0 -117 25t-114 25q-42 0 -93 -24q-12 -5 -18 8l-9 27q-3 13 7 17q58 34 120 34z" />
    <glyph glyph-name="notequal" unicode="&#x2260;" horiz-adv-x="573" 
d="M96 48l92 184h-126q-12 0 -12 12v41q0 11 12 11h158l57 114h-215q-12 0 -12 12v40q0 12 12 12h247l96 190q6 12 24 12h38q7 0 10 -6t0 -12l-93 -184h127q5 0 8.5 -4t3.5 -8v-41q0 -11 -12 -11h-159l-57 -114h216q12 0 12 -11v-41q0 -4 -3.5 -8t-8.5 -4h-248l-95 -190
q-9 -12 -23 -12h-39q-6 0 -9 6t-1 12z" />
    <glyph glyph-name="lessequal" unicode="&#x2264;" horiz-adv-x="573" 
d="M58 461l452 190q5 2 9 -1.5t4 -8.5v-43q0 -8 -9 -13l-341 -141q-4 -1 -4 -6q0 -4 4 -5l341 -140q9 -1 9 -13v-43q0 -5 -4 -8.5t-9 -1.5l-452 189q-8 5 -8 12v21q0 7 8 12zM511 117h-449q-12 0 -12 12v41q0 11 12 11h449q12 0 12 -11v-41q0 -12 -12 -12z" />
    <glyph glyph-name="greaterequal" unicode="&#x2265;" horiz-adv-x="573" 
d="M63 651l452 -190q8 -5 8 -12v-21q0 -7 -8 -12l-452 -189q-5 -2 -9 1.5t-4 8.5v43q0 12 9 13l341 140q4 1 4 5q0 5 -4 6l-341 141q-9 5 -9 13v43q0 5 4 8.5t9 1.5zM511 117h-449q-4 0 -8 3.5t-4 8.5v41q0 11 12 11h449q12 0 12 -11v-41q0 -12 -12 -12z" />
    <glyph glyph-name="lozenge" unicode="&#x25ca;" horiz-adv-x="506" 
d="M17 361l201 338q4 9 12 9h53q7 0 12 -9l202 -338q3 -8 0 -13l-202 -341q-5 -8 -12 -8h-53q-6 0 -12 8l-201 341q-4 6 0 13zM252 606l-147 -246q-3 -5 0 -10l147 -249q1 -4 5 -4t5 4l147 249q2 5 0 10l-147 246q-1 4 -5 4t-5 -4z" />
    <glyph glyph-name="commaaccent" unicode="&#xf6c3;" horiz-adv-x="400" 
d="M247 -100q0 -50 -57 -107q-7 -7 -16 -5l-6 2q-10 6 -4 14q30 40 10 68q-22 30 2 56q20 20 45.5 9t25.5 -37z" />
    <glyph glyph-name="NULL" horiz-adv-x="0" 
 />
    <glyph glyph-name="CR" horiz-adv-x="333" 
 />
    <glyph glyph-name="R.alt" horiz-adv-x="634" 
d="M80 12v682q0 12 12 12h276q91 0 152 -59q60 -58 60 -149v-5q0 -69 -37 -120t-96 -73q-8 -5 -4 -12l137 -271q2 -5 -1 -11t-10 -6h-69q-7 0 -11 7l-132 269q-5 9 -16 9h-165q-10 0 -10 -9v-264q0 -12 -11 -12h-63q-12 0 -12 12zM166 620v-258q0 -9 10 -9h173q61 0 99 35.5
t38 99.5v5q0 64 -39 100t-108 36h-163q-10 0 -10 -9z" />
    <glyph glyph-name="Racute.alt" horiz-adv-x="634" 
d="M80 12v682q0 12 12 12h276q91 0 152 -59q60 -58 60 -149v-5q0 -69 -37 -120t-96 -73q-8 -5 -4 -12l137 -271q2 -5 -1 -11t-10 -6h-69q-7 0 -11 7l-132 269q-5 9 -16 9h-165q-10 0 -10 -9v-264q0 -12 -11 -12h-63q-12 0 -12 12zM166 620v-258q0 -9 10 -9h173q61 0 99 35.5
t38 99.5v5q0 64 -39 100t-108 36h-163q-10 0 -10 -9zM218 802l138 107q11 8 18 1l39 -24q5 -3 5 -9t-6 -10l-147 -101q-11 -8 -18 0l-29 18q-5 3 -5 9t5 9z" />
    <glyph glyph-name="Rcaron.alt" horiz-adv-x="634" 
d="M80 12v682q0 12 12 12h276q91 0 152 -59q60 -58 60 -149v-5q0 -69 -37 -120t-96 -73q-8 -5 -4 -12l137 -271q2 -5 -1 -11t-10 -6h-69q-7 0 -11 7l-132 269q-5 9 -16 9h-165q-10 0 -10 -9v-264q0 -12 -11 -12h-63q-12 0 -12 12zM166 620v-258q0 -9 10 -9h173q61 0 99 35.5
t38 99.5v5q0 64 -39 100t-108 36h-163q-10 0 -10 -9zM324 830l94 62q6 4 15 0l24 -17q5 -3 5 -8.5t-5 -8.5l-132 -94q-8 -6 -16 0l-132 94q-5 3 -5 8.5t5 8.5l24 17q9 4 15 0l94 -62q7 -2 14 0z" />
    <glyph glyph-name="Rcommaaccent.alt" horiz-adv-x="634" 
d="M80 12v682q0 12 12 12h276q91 0 152 -59q60 -58 60 -149v-5q0 -69 -37 -120t-96 -73q-8 -5 -4 -12l137 -271q2 -5 -1 -11t-10 -6h-69q-7 0 -11 7l-132 269q-5 9 -16 9h-165q-10 0 -10 -9v-264q0 -12 -11 -12h-63q-12 0 -12 12zM166 620v-258q0 -9 10 -9h173q61 0 99 35.5
t38 99.5v5q0 64 -39 100t-108 36h-163q-10 0 -10 -9zM357 -100q0 -50 -57 -107q-7 -7 -16 -5l-6 2q-10 6 -4 14q30 40 10 68q-22 30 2 56q20 20 45.5 9t25.5 -37z" />
    <glyph glyph-name="Y.alt" horiz-adv-x="627" 
d="M264 260l-233 430q-3 5 0.5 10.5t9.5 5.5h66q11 0 15 -9l189 -358q3 -6 8 -6t8 6l204 358q5 9 15 9h64q7 0 10 -5.5t0 -10.5l-385 -681q-5 -9 -15 -9h-64q-7 0 -10 5.5t0 10.5l118 208q9 16 0 36z" />
    <glyph glyph-name="Yacute.alt" horiz-adv-x="627" 
d="M264 260l-233 430q-3 5 0.5 10.5t9.5 5.5h66q11 0 15 -9l189 -358q3 -6 8 -6t8 6l204 358q5 9 15 9h64q7 0 10 -5.5t0 -10.5l-385 -681q-5 -9 -15 -9h-64q-7 0 -10 5.5t0 10.5l118 208q9 16 0 36zM221 802l138 107q11 8 18 1l39 -24q5 -3 5 -9t-6 -10l-147 -101
q-10 -8 -18 0l-29 18q-5 3 -5 9t5 9z" />
    <glyph glyph-name="Ydieresis.alt" horiz-adv-x="627" 
d="M264 260l-233 430q-3 5 0.5 10.5t9.5 5.5h66q11 0 15 -9l189 -358q3 -6 8 -6t8 6l204 358q5 9 15 9h64q7 0 10 -5.5t0 -10.5l-385 -681q-5 -9 -15 -9h-64q-7 0 -10 5.5t0 10.5l118 208q9 16 0 36zM225 879q18 0 30.5 -12.5t12.5 -29.5t-12.5 -29.5t-30.5 -12.5
q-17 0 -29.5 12.5t-12.5 29.5t12.5 29.5t29.5 12.5zM410 879q18 0 30 -12.5t12 -29.5t-12 -29.5t-30 -12.5q-17 0 -29.5 12.5t-12.5 29.5t12.5 29.5t29.5 12.5z" />
    <glyph glyph-name="a.alt" horiz-adv-x="500" 
d="M34 141v4q0 68 48 103.5t131 35.5h134q9 0 9 9v51q0 41 -30.5 64t-83.5 23q-66 0 -115 -36q-3 -3 -8.5 -2t-7.5 5l-29 40q-7 8 2 16q65 49 164 49q89 0 141.5 -39.5t52.5 -110.5v-342q0 -11 -11 -11h-55q-10 0 -11 9l-5 45q0 4 -3 4.5t-6 -1.5q-57 -64 -151 -64
q-79 0 -122.5 41t-43.5 107zM118 149v-3q0 -37 26.5 -59.5t76.5 -22.5q76 0 124 50q11 11 11 26v76q0 10 -9 10h-119q-110 0 -110 -77z" />
    <glyph glyph-name="aacute.alt" horiz-adv-x="500" 
d="M34 141v4q0 68 48 103.5t131 35.5h134q9 0 9 9v51q0 41 -30.5 64t-83.5 23q-66 0 -115 -36q-3 -3 -8.5 -2t-7.5 5l-29 40q-7 8 2 16q65 49 164 49q89 0 141.5 -39.5t52.5 -110.5v-342q0 -11 -11 -11h-55q-10 0 -11 9l-5 45q0 4 -3 4.5t-6 -1.5q-57 -64 -151 -64
q-79 0 -122.5 41t-43.5 107zM118 149v-3q0 -37 26.5 -59.5t76.5 -22.5q76 0 124 50q11 11 11 26v76q0 10 -9 10h-119q-110 0 -110 -77zM173 591l138 107q11 8 18 1l39 -24q5 -3 5 -9t-6 -10l-147 -101q-10 -7 -18 0l-29 18q-5 3 -5 9t5 9z" />
    <glyph glyph-name="agrave.alt" horiz-adv-x="500" 
d="M34 141v4q0 68 48 103.5t131 35.5h134q9 0 9 9v51q0 41 -30.5 64t-83.5 23q-66 0 -115 -36q-3 -3 -8.5 -2t-7.5 5l-29 40q-7 8 2 16q65 49 164 49q89 0 141.5 -39.5t52.5 -110.5v-342q0 -11 -11 -11h-55q-10 0 -11 9l-5 45q0 4 -3 4.5t-6 -1.5q-57 -64 -151 -64
q-79 0 -122.5 41t-43.5 107zM118 149v-3q0 -37 26.5 -59.5t76.5 -22.5q76 0 124 50q11 11 11 26v76q0 10 -9 10h-119q-110 0 -110 -77zM183 675l38 24q9 6 19 -1l138 -107q5 -3 4.5 -9t-5.5 -9l-28 -18q-9 -7 -18 0l-148 101q-5 4 -5 10t5 9z" />
    <glyph glyph-name="acircumflex.alt" horiz-adv-x="500" 
d="M34 141v4q0 68 48 103.5t131 35.5h134q9 0 9 9v51q0 41 -30.5 64t-83.5 23q-66 0 -115 -36q-3 -3 -8.5 -2t-7.5 5l-29 40q-7 8 2 16q65 49 164 49q89 0 141.5 -39.5t52.5 -110.5v-342q0 -11 -11 -11h-55q-10 0 -11 9l-5 45q0 4 -3 4.5t-6 -1.5q-57 -64 -151 -64
q-79 0 -122.5 41t-43.5 107zM118 149v-3q0 -37 26.5 -59.5t76.5 -22.5q76 0 124 50q11 11 11 26v76q0 10 -9 10h-119q-110 0 -110 -77zM271 690l132 -94q5 -3 5 -8.5t-5 -8.5l-24 -17q-9 -4 -15 0l-94 62q-7 2 -14 0l-94 -62q-6 -4 -15 0l-24 17q-5 3 -5 8.5t5 8.5l132 94
q8 6 16 0z" />
    <glyph glyph-name="atilde.alt" horiz-adv-x="500" 
d="M34 141v4q0 68 48 103.5t131 35.5h134q9 0 9 9v51q0 41 -30.5 64t-83.5 23q-66 0 -115 -36q-3 -3 -8.5 -2t-7.5 5l-29 40q-7 8 2 16q65 49 164 49q89 0 141.5 -39.5t52.5 -110.5v-342q0 -11 -11 -11h-55q-10 0 -11 9l-5 45q0 4 -3 4.5t-6 -1.5q-57 -64 -151 -64
q-79 0 -122.5 41t-43.5 107zM118 149v-3q0 -37 26.5 -59.5t76.5 -22.5q76 0 124 50q11 11 11 26v76q0 10 -9 10h-119q-110 0 -110 -77zM280 648q32 -18 54 -18q29 0 55 22q11 8 16 -3l16 -24q5 -10 -1 -14q-33 -39 -86 -39q-34 0 -75 24q-31 18 -54 18q-28 0 -54 -22
q-9 -9 -15 4l-16 24q-7 8 1 13q36 39 84 39q36 0 75 -24z" />
    <glyph glyph-name="adieresis.alt" horiz-adv-x="500" 
d="M34 141v4q0 68 48 103.5t131 35.5h134q9 0 9 9v51q0 41 -30.5 64t-83.5 23q-66 0 -115 -36q-3 -3 -8.5 -2t-7.5 5l-29 40q-7 8 2 16q65 49 164 49q89 0 141.5 -39.5t52.5 -110.5v-342q0 -11 -11 -11h-55q-10 0 -11 9l-5 45q0 4 -3 4.5t-6 -1.5q-57 -64 -151 -64
q-79 0 -122.5 41t-43.5 107zM118 149v-3q0 -37 26.5 -59.5t76.5 -22.5q76 0 124 50q11 11 11 26v76q0 10 -9 10h-119q-110 0 -110 -77zM175 668q18 0 30.5 -12.5t12.5 -29.5t-12.5 -29.5t-30.5 -12.5q-17 0 -29.5 12.5t-12.5 29.5t12.5 29.5t29.5 12.5zM360 668
q18 0 30 -12.5t12 -29.5t-12 -29.5t-30 -12.5q-17 0 -29.5 12.5t-12.5 29.5t12.5 29.5t29.5 12.5z" />
    <glyph glyph-name="amacron.alt" horiz-adv-x="500" 
d="M34 141v4q0 68 48 103.5t131 35.5h134q9 0 9 9v51q0 41 -30.5 64t-83.5 23q-66 0 -115 -36q-3 -3 -8.5 -2t-7.5 5l-29 40q-7 8 2 16q65 49 164 49q89 0 141.5 -39.5t52.5 -110.5v-342q0 -11 -11 -11h-55q-10 0 -11 9l-5 45q0 4 -3 4.5t-6 -1.5q-57 -64 -151 -64
q-79 0 -122.5 41t-43.5 107zM118 149v-3q0 -37 26.5 -59.5t76.5 -22.5q76 0 124 50q11 11 11 26v76q0 10 -9 10h-119q-110 0 -110 -77zM144 648h247q11 0 11 -12v-33q0 -12 -11 -12h-247q-4 0 -8 3.5t-4 8.5v33q0 4 4 8t8 4z" />
    <glyph glyph-name="aring.alt" horiz-adv-x="500" 
d="M34 141v4q0 68 48 103.5t131 35.5h134q9 0 9 9v51q0 41 -30.5 64t-83.5 23q-66 0 -115 -36q-3 -3 -8.5 -2t-7.5 5l-29 40q-7 8 2 16q65 49 164 49q89 0 141.5 -39.5t52.5 -110.5v-342q0 -11 -11 -11h-55q-10 0 -11 9l-5 45q0 4 -3 4.5t-6 -1.5q-57 -64 -151 -64
q-79 0 -122.5 41t-43.5 107zM118 149v-3q0 -37 26.5 -59.5t76.5 -22.5q76 0 124 50q11 11 11 26v76q0 10 -9 10h-119q-110 0 -110 -77zM264 707q37 0 60.5 -22.5t23.5 -58.5t-24 -58t-60 -22t-59 22t-23 58t23 58.5t59 22.5zM264 583q43 0 43 43q0 44 -43 44
q-19 0 -30 -11.5t-11 -32.5q0 -20 11 -31.5t30 -11.5z" />
    <glyph glyph-name="aogonek.alt" horiz-adv-x="500" 
d="M271 -89v9q0 69 92 107l-3 27q0 4 -3 4.5t-6 -1.5q-57 -64 -151 -64q-79 0 -122.5 41t-43.5 107v4q0 68 48 103.5t131 35.5h134q9 0 9 9v51q0 41 -30.5 64t-83.5 23q-66 0 -115 -36q-3 -3 -8.5 -2t-7.5 5l-29 40q-7 8 2 16q65 49 164 49q89 0 141.5 -39.5t52.5 -110.5
v-342q0 -11 -11 -11h-29q-79 -25 -79 -79v-4q0 -58 73 -58q30 0 55 13q11 5 16 -5l9 -18q8 -11 -5 -16q-37 -19 -79 -19q-55 0 -88 26t-33 71zM118 149v-3q0 -37 26.5 -59.5t76.5 -22.5q76 0 124 50q11 11 11 26v76q0 10 -9 10h-119q-110 0 -110 -77z" />
    <glyph glyph-name="abreve.alt" horiz-adv-x="500" 
d="M34 141v4q0 68 48 103.5t131 35.5h134q9 0 9 9v51q0 41 -30.5 64t-83.5 23q-66 0 -115 -36q-3 -3 -8.5 -2t-7.5 5l-29 40q-7 8 2 16q65 49 164 49q89 0 141.5 -39.5t52.5 -110.5v-342q0 -11 -11 -11h-55q-10 0 -11 9l-5 45q0 4 -3 4.5t-6 -1.5q-57 -64 -151 -64
q-79 0 -122.5 41t-43.5 107zM118 149v-3q0 -37 26.5 -59.5t76.5 -22.5q76 0 124 50q11 11 11 26v76q0 10 -9 10h-119q-110 0 -110 -77zM372 678q8 10 15 3l28 -16q10 -6 3 -16q-9 -15 -25 -31q-18 -18 -51.5 -33t-67.5 -15q-53 0 -91 26q-35 25 -53 53q-7 10 3 16l28 16
q7 7 15 -3q38 -53 98 -53t98 53z" />
    <glyph glyph-name="g.alt" horiz-adv-x="522" 
d="M260 6q98 0 156 -48q59 -48 59 -125v-14q0 -86 -67 -140t-178 -54q-92 0 -165 42q-9 5 -5 15l20 42q5 11 16 5q56 -32 130 -32q75 0 120 34t45 89v10q0 52 -41 83t-112 31q-67 0 -122 -23q-8 -3 -14 4l-9 15q-5 8 0 12l78 126q5 8 -4 12q-61 25 -95.5 72.5t-34.5 111.5
v26q0 90 65 146q67 56 157 56q78 0 136 -40q8 -6 14 2l13 22q4 9 17 9h43q7 0 10.5 -5.5t-0.5 -12.5l-36 -58q-7 -12 -1 -20q26 -44 26 -99v-26q0 -90 -65 -146q-64 -55 -156 -55h-9q-10 0 -16 -10l-37 -59q-2 -2 -0.5 -4.5t5.5 -1.5q32 8 57 8zM119 298v-22q0 -59 40.5 -95
t99.5 -36q61 0 100.5 35.5t39.5 95.5v22q0 59 -40.5 95.5t-99.5 36.5t-99.5 -36.5t-40.5 -95.5z" />
    <glyph glyph-name="gcircumflex.alt" horiz-adv-x="522" 
d="M260 6q98 0 156 -48q59 -48 59 -125v-14q0 -86 -67 -140t-178 -54q-92 0 -165 42q-9 5 -5 15l20 42q5 11 16 5q56 -32 130 -32q75 0 120 34t45 89v10q0 52 -41 83t-112 31q-67 0 -122 -23q-8 -3 -14 4l-9 15q-5 8 0 12l78 126q5 8 -4 12q-61 25 -95.5 72.5t-34.5 111.5
v26q0 90 65 146q67 56 157 56q78 0 136 -40q8 -6 14 2l13 22q4 9 17 9h43q7 0 10.5 -5.5t-0.5 -12.5l-36 -58q-7 -12 -1 -20q26 -44 26 -99v-26q0 -90 -65 -146q-64 -55 -156 -55h-9q-10 0 -16 -10l-37 -59q-2 -2 -0.5 -4.5t5.5 -1.5q32 8 57 8zM119 298v-22q0 -59 40.5 -95
t99.5 -36q61 0 100.5 35.5t39.5 95.5v22q0 59 -40.5 95.5t-99.5 36.5t-99.5 -36.5t-40.5 -95.5zM271 690l132 -94q5 -3 5 -8.5t-5 -8.5l-24 -17q-9 -4 -15 0l-94 62q-7 2 -14 0l-94 -62q-6 -4 -15 0l-24 17q-5 3 -5 8.5t5 8.5l132 94q8 6 16 0z" />
    <glyph glyph-name="gbreve.alt" horiz-adv-x="522" 
d="M260 6q98 0 156 -48q59 -48 59 -125v-14q0 -86 -67 -140t-178 -54q-92 0 -165 42q-9 5 -5 15l20 42q5 11 16 5q56 -32 130 -32q75 0 120 34t45 89v10q0 52 -41 83t-112 31q-67 0 -122 -23q-8 -3 -14 4l-9 15q-5 8 0 12l78 126q5 8 -4 12q-61 25 -95.5 72.5t-34.5 111.5
v26q0 90 65 146q67 56 157 56q78 0 136 -40q8 -6 14 2l13 22q4 9 17 9h43q7 0 10.5 -5.5t-0.5 -12.5l-36 -58q-7 -12 -1 -20q26 -44 26 -99v-26q0 -90 -65 -146q-64 -55 -156 -55h-9q-10 0 -16 -10l-37 -59q-2 -2 -0.5 -4.5t5.5 -1.5q32 8 57 8zM119 298v-22q0 -59 40.5 -95
t99.5 -36q61 0 100.5 35.5t39.5 95.5v22q0 59 -40.5 95.5t-99.5 36.5t-99.5 -36.5t-40.5 -95.5zM361 678q7 10 15 3l28 -16q10 -6 3 -16q-9 -15 -25 -31q-18 -18 -51.5 -33t-67.5 -15q-53 0 -91 26q-35 25 -53 53q-7 10 3 16l28 16q8 7 15 -3q38 -53 98 -53t98 53z" />
    <glyph glyph-name="gdotaccent.alt" horiz-adv-x="522" 
d="M260 6q98 0 156 -48q59 -48 59 -125v-14q0 -86 -67 -140t-178 -54q-92 0 -165 42q-9 5 -5 15l20 42q5 11 16 5q56 -32 130 -32q75 0 120 34t45 89v10q0 52 -41 83t-112 31q-67 0 -122 -23q-8 -3 -14 4l-9 15q-5 8 0 12l78 126q5 8 -4 12q-61 25 -95.5 72.5t-34.5 111.5
v26q0 90 65 146q67 56 157 56q78 0 136 -40q8 -6 14 2l13 22q4 9 17 9h43q7 0 10.5 -5.5t-0.5 -12.5l-36 -58q-7 -12 -1 -20q26 -44 26 -99v-26q0 -90 -65 -146q-64 -55 -156 -55h-9q-10 0 -16 -10l-37 -59q-2 -2 -0.5 -4.5t5.5 -1.5q32 8 57 8zM119 298v-22q0 -59 40.5 -95
t99.5 -36q61 0 100.5 35.5t39.5 95.5v22q0 59 -40.5 95.5t-99.5 36.5t-99.5 -36.5t-40.5 -95.5zM229 595q-13 13 -13 32t13 32q14 13 33 13t32 -13q14 -13 14 -32t-14 -32q-13 -13 -32 -13t-33 13z" />
    <glyph glyph-name="gcommaaccent.alt" horiz-adv-x="522" 
d="M314 620q0 -17 -12 -29t-30 -12t-29.5 12t-11.5 29q0 49 57 106q8 8 16 5l6 -2q4 -1 5.5 -5t-1.5 -8q-18 -26 -18 -41q0 -17 8 -28q10 -13 10 -27zM260 6q98 0 156 -48q59 -48 59 -125v-14q0 -86 -67 -140t-178 -54q-92 0 -165 42q-9 5 -5 15l20 42q5 11 16 5
q56 -32 130 -32q75 0 120 34t45 89v10q0 52 -41 83t-112 31q-67 0 -122 -23q-8 -3 -14 4l-9 15q-5 8 0 12l78 126q5 8 -4 12q-61 25 -95.5 72.5t-34.5 111.5v26q0 90 65 146q67 56 157 56q78 0 136 -40q8 -6 14 2l13 22q4 9 17 9h43q7 0 10.5 -5.5t-0.5 -12.5l-36 -58
q-7 -12 -1 -20q26 -44 26 -99v-26q0 -90 -65 -146q-64 -55 -156 -55h-9q-10 0 -16 -10l-37 -59q-2 -2 -0.5 -4.5t5.5 -1.5q32 8 57 8zM119 298v-22q0 -59 40.5 -95t99.5 -36q61 0 100.5 35.5t39.5 95.5v22q0 59 -40.5 95.5t-99.5 36.5t-99.5 -36.5t-40.5 -95.5z" />
    <glyph glyph-name="g.salt" horiz-adv-x="531" 
d="M125 298v-22q0 -59 40.5 -95t99.5 -36t99 36t40 95v22q0 59 -40 95.5t-99 36.5t-99.5 -36.5t-40.5 -95.5zM452 431q-12 -2 -5 -12q40 -50 40 -119v-26q0 -90 -66 -146q-65 -56 -156 -56q-41 0 -76 12q-9 4 -17 -4q-22 -19 -22 -49v-2q0 -24 21 -45q7 -7 17 -4
q33 11 77 11q93 0 158 -51q67 -53 71 -140q2 -12 -11 -12h-61q-11 0 -11 11q-3 54 -42.5 87.5t-103.5 33.5t-103.5 -33.5t-42.5 -87.5q0 -11 -11 -11h-60q-12 0 -12 12q4 90 72 141q9 6 1 14q-31 31 -31 73v3q0 47 33 80q8 8 0 14q-68 56 -68 149v26q0 90 65 146
q67 56 157 56q34 0 59 -7h151q12 0 12 -11v-4q0 -6 -5 -14l-17 -26q-4 -7 -13 -9z" />
    <glyph glyph-name="gcircumflex.salt" horiz-adv-x="531" 
d="M125 298v-22q0 -59 40.5 -95t99.5 -36t99 36t40 95v22q0 59 -40 95.5t-99 36.5t-99.5 -36.5t-40.5 -95.5zM452 431q-12 -2 -5 -12q40 -50 40 -119v-26q0 -90 -66 -146q-65 -56 -156 -56q-41 0 -76 12q-9 4 -17 -4q-22 -19 -22 -49v-2q0 -24 21 -45q7 -7 17 -4
q33 11 77 11q93 0 158 -51q67 -53 71 -140q2 -12 -11 -12h-61q-11 0 -11 11q-3 54 -42.5 87.5t-103.5 33.5t-103.5 -33.5t-42.5 -87.5q0 -11 -11 -11h-60q-12 0 -12 12q4 90 72 141q9 6 1 14q-31 31 -31 73v3q0 47 33 80q8 8 0 14q-68 56 -68 149v26q0 90 65 146
q67 56 157 56q34 0 59 -7h151q12 0 12 -11v-4q0 -6 -5 -14l-17 -26q-4 -7 -13 -9zM275 690l132 -94q5 -3 5 -8.5t-5 -8.5l-24 -17q-9 -4 -15 0l-94 62q-7 2 -14 0l-94 -62q-6 -4 -15 0l-24 17q-5 3 -5 8.5t5 8.5l132 94q8 6 16 0z" />
    <glyph glyph-name="gbreve.salt" horiz-adv-x="531" 
d="M125 298v-22q0 -59 40.5 -95t99.5 -36t99 36t40 95v22q0 59 -40 95.5t-99 36.5t-99.5 -36.5t-40.5 -95.5zM452 431q-12 -2 -5 -12q40 -50 40 -119v-26q0 -90 -66 -146q-65 -56 -156 -56q-41 0 -76 12q-9 4 -17 -4q-22 -19 -22 -49v-2q0 -24 21 -45q7 -7 17 -4
q33 11 77 11q93 0 158 -51q67 -53 71 -140q2 -12 -11 -12h-61q-11 0 -11 11q-3 54 -42.5 87.5t-103.5 33.5t-103.5 -33.5t-42.5 -87.5q0 -11 -11 -11h-60q-12 0 -12 12q4 90 72 141q9 6 1 14q-31 31 -31 73v3q0 47 33 80q8 8 0 14q-68 56 -68 149v26q0 90 65 146
q67 56 157 56q34 0 59 -7h151q12 0 12 -11v-4q0 -6 -5 -14l-17 -26q-4 -7 -13 -9zM365 678q7 10 15 3l28 -16q10 -6 3 -16q-9 -15 -25 -31q-18 -18 -51.5 -33t-67.5 -15q-53 0 -91 26q-35 25 -53 53q-7 10 3 16l28 16q8 7 15 -3q38 -53 98 -53t98 53z" />
    <glyph glyph-name="gdotaccent.salt" horiz-adv-x="531" 
d="M125 298v-22q0 -59 40.5 -95t99.5 -36t99 36t40 95v22q0 59 -40 95.5t-99 36.5t-99.5 -36.5t-40.5 -95.5zM452 431q-12 -2 -5 -12q40 -50 40 -119v-26q0 -90 -66 -146q-65 -56 -156 -56q-41 0 -76 12q-9 4 -17 -4q-22 -19 -22 -49v-2q0 -24 21 -45q7 -7 17 -4
q33 11 77 11q93 0 158 -51q67 -53 71 -140q2 -12 -11 -12h-61q-11 0 -11 11q-3 54 -42.5 87.5t-103.5 33.5t-103.5 -33.5t-42.5 -87.5q0 -11 -11 -11h-60q-12 0 -12 12q4 90 72 141q9 6 1 14q-31 31 -31 73v3q0 47 33 80q8 8 0 14q-68 56 -68 149v26q0 90 65 146
q67 56 157 56q34 0 59 -7h151q12 0 12 -11v-4q0 -6 -5 -14l-17 -26q-4 -7 -13 -9zM233 595q-13 13 -13 32t13 32q14 13 33 13t32 -13q14 -13 14 -32t-14 -32q-13 -13 -32 -13t-33 13z" />
    <glyph glyph-name="gcommaaccent.salt" horiz-adv-x="531" 
d="M314 620q0 -17 -12 -29t-30 -12t-29.5 12t-11.5 29q0 49 57 106q8 8 16 5l6 -2q4 -1 5.5 -5t-1.5 -8q-18 -26 -18 -41q0 -17 8 -28q10 -13 10 -27zM125 298v-22q0 -59 40.5 -95t99.5 -36t99 36t40 95v22q0 59 -40 95.5t-99 36.5t-99.5 -36.5t-40.5 -95.5zM452 431
q-12 -2 -5 -12q40 -50 40 -119v-26q0 -90 -66 -146q-65 -56 -156 -56q-41 0 -76 12q-9 4 -17 -4q-22 -19 -22 -49v-2q0 -24 21 -45q7 -7 17 -4q33 11 77 11q93 0 158 -51q67 -53 71 -140q2 -12 -11 -12h-61q-11 0 -11 11q-3 54 -42.5 87.5t-103.5 33.5t-103.5 -33.5
t-42.5 -87.5q0 -11 -11 -11h-60q-12 0 -12 12q4 90 72 141q9 6 1 14q-31 31 -31 73v3q0 47 33 80q8 8 0 14q-68 56 -68 149v26q0 90 65 146q67 56 157 56q34 0 59 -7h151q12 0 12 -11v-4q0 -6 -5 -14l-17 -26q-4 -7 -13 -9z" />
    <glyph glyph-name="zero.salt" 
d="M49 225v413q0 107 61 171t163 64q101 0 162 -64t61 -171v-413q0 -107 -61 -171t-162 -64q-102 0 -163 64t-61 171zM135 637v-411q0 -76 36 -119.5t102 -43.5t102 43.5t36 119.5v411q0 75 -36 119.5t-102 44.5q-67 0 -102.5 -44t-35.5 -120z" />
    <glyph glyph-name="one.salt" horiz-adv-x="223" 
d="M70 12v766q0 9 -9 9h-53q-10 0 -10 10v56q0 9 10 9h137q11 0 11 -11v-839q0 -12 -11 -12h-63q-4 0 -8 4t-4 8z" />
    <glyph glyph-name="two.salt" horiz-adv-x="489" 
d="M239 872q98 0 156 -53t58 -144v-19q0 -71 -77 -199l-226 -371q-6 -11 7 -11h269q12 0 12 -11v-52q0 -12 -12 -12h-374q-11 0 -11 12v35q0 7 4 14l259 434q62 101 62 158v16q0 59 -36.5 93.5t-98.5 34.5q-68 0 -121 -32q-4 -3 -9 -1.5t-6 6.5l-19 43q-5 11 5 15
q73 44 158 44z" />
    <glyph glyph-name="three.salt" horiz-adv-x="481" 
d="M228 476h9q94 0 149 -56t55 -150v-53q0 -98 -69 -163q-67 -64 -174 -64q-78 0 -143 38q-10 5 -5 16l19 44q5 11 17 5q44 -29 106 -29q69 0 116 44t47 111v48q0 67 -39 106t-107 39q-34 0 -85 -13q-11 -3 -15 4l-8 12q-4 6 0 13l217 346q3 4 0.5 8.5t-7.5 4.5h-235
q-12 0 -12 11v52q0 4 4 8t8 4h333q11 0 11 -11v-40q0 -16 -7 -23l-190 -302q-5 -8 5 -10z" />
    <glyph glyph-name="four.salt" horiz-adv-x="504" 
d="M31 270l296 584q5 8 13 8h58q11 0 11 -11v-566q0 -10 9 -10h50q12 0 12 -12v-43q0 -11 -12 -11h-50q-9 0 -9 -10v-187q0 -12 -11 -12h-64q-11 0 -11 12v187q0 10 -9 10h-275q-11 0 -11 11v36q0 6 3 14zM310 661l-191 -377q-2 -9 6 -9h189q9 0 9 10v373q0 5 -5 6.5
t-8 -3.5z" />
    <glyph glyph-name="five.salt" horiz-adv-x="463" 
d="M57 386v465q0 11 12 11h323q12 0 12 -11v-52q0 -5 -4 -8.5t-8 -3.5h-242q-10 0 -10 -9v-308q0 -9 10 -8q28 15 71 15q97 0 153.5 -56.5t56.5 -151.5v-53q0 -98 -70 -162t-174 -64q-76 0 -141 38q-9 5 -5 15l20 44q1 4 6.5 6t9.5 0q44 -29 105 -29q73 0 117 43
q46 43 46 111v49q0 67 -41 106t-110 39q-66 0 -120 -36q-4 -3 -10.5 0.5t-6.5 9.5z" />
    <glyph glyph-name="six.salt" horiz-adv-x="521" 
d="M287 478q88 0 143 -58q57 -57 57 -151v-65q0 -94 -64 -154q-65 -60 -158 -60t-155 59q-62 60 -62 155v440q0 99 67 163q68 65 170 65q72 0 142 -38q9 -5 5 -15l-20 -44q-4 -10 -16 -6q-49 29 -106 29q-68 0 -112 -44q-43 -43 -43 -112v-225q0 -10 10 -3q52 64 142 64z
M270 410q-60 0 -98.5 -39t-38.5 -104v-61q0 -65 37 -104.5t95 -39.5q59 0 97 40t38 104v61q0 65 -36 104t-94 39z" />
    <glyph glyph-name="seven.salt" horiz-adv-x="433" 
d="M32 862h382q11 0 11 -11v-32q0 -9 -3 -20l-232 -791q-5 -8 -11 -8h-73q-6 0 -9.5 4.5t-1.5 10.5l233 762q1 10 -7 10h-289q-12 0 -12 11v53q0 11 12 11z" />
    <glyph glyph-name="eight.salt" horiz-adv-x="525" 
d="M263 873q83 0 139 -51t56 -132v-51q0 -89 -75 -138q-4 -2 -4 -6.5t4 -5.5q101 -53 101 -163v-133q0 -90 -63 -147t-158 -57q-96 0 -159 57t-63 147v133q0 110 102 163q9 5 0 12q-76 51 -76 138v51q0 83 55 132q56 51 141 51zM263 801q-50 0 -81.5 -31.5t-31.5 -84.5v-49
q0 -50 32.5 -82t80.5 -32t80 32t32 82v49q0 53 -31.5 84.5t-80.5 31.5zM263 460q-61 0 -97.5 -35t-36.5 -94v-133q0 -62 37.5 -99.5t96.5 -37.5q58 0 95.5 37.5t37.5 99.5v133q0 58 -37 93.5t-96 35.5z" />
    <glyph glyph-name="nine.salt" horiz-adv-x="521" 
d="M235 388q-88 0 -145 57q-56 59 -56 152v61q0 95 64 153q65 59 158 59t155 -59t62 -153v-440q0 -98 -67 -162q-65 -64 -169 -64q-74 0 -142 38q-9 5 -5 15l20 44q4 12 15 6q50 -29 107 -29q69 0 112 43t43 111v229q0 3 -1.5 4.5t-4 1t-4.5 -2.5q-52 -64 -142 -64zM252 456
q59 0 98 39.5t39 103.5v56q0 65 -36.5 104t-96.5 39q-59 0 -97 -39.5t-38 -103.5v-56q0 -65 36.5 -104t94.5 -39z" />
    <glyph glyph-name="comma.alt" horiz-adv-x="214" 
d="M54 -78v129q0 23 15 38t38 15t38 -15t15 -38q0 -19 -12 -36l-67 -98q-4 -7 -13 -7h-3q-11 0 -11 12z" />
    <glyph glyph-name="semicolon.alt" horiz-adv-x="214" 
d="M69 346q-15 16 -15 38t15 37q15 16 38 16t38 -16q15 -15 15 -37t-15 -38q-15 -15 -38 -15t-38 15zM54 -13v130q1 23 15.5 37.5t37.5 14.5t38 -15t15 -37q0 -17 -12 -37l-67 -98q-5 -6 -13 -6h-3q-11 0 -11 11z" />
    <glyph glyph-name="g.salt_j" horiz-adv-x="745" 
d="M452 431q-12 -2 -5 -12q40 -50 40 -119v-26q0 -90 -66 -146q-65 -56 -156 -56q-41 0 -76 12q-9 4 -17 -4q-22 -19 -22 -49v-2q0 -24 21 -45q7 -7 17 -4q33 11 77 11q70 0 125.5 -29.5t82.5 -82.5q4 -9 14 -10q3 -1 14 -1q98 0 98 97v519q0 11 11 11h63q11 0 11 -11v-520
q0 -73 -40 -115.5t-111 -42.5q-6 0 -28 2q-11 2 -11 -9q0 -4 -3.5 -7.5t-7.5 -3.5h-61q-11 0 -11 11q-3 54 -42.5 87.5t-103.5 33.5t-103.5 -33.5t-42.5 -87.5q0 -11 -11 -11h-60q-12 0 -12 12q4 90 72 141q9 6 1 14q-31 31 -31 73v3q0 47 33 80q8 8 0 14q-68 56 -68 149v26
q0 90 65 146q67 56 157 56q34 0 59 -7h151q12 0 12 -11v-4q0 -6 -5 -14l-17 -26q-4 -7 -13 -9zM125 298v-22q0 -59 40.5 -95t99.5 -36t99 36t40 95v22q0 59 -40 95.5t-99 36.5t-99.5 -36.5t-40.5 -95.5zM607 595q-14 14 -14 34t14 34t34 14t34 -14q15 -14 15 -34t-15 -34
q-14 -13 -34 -13t-34 13z" />
    <glyph glyph-name="g.alt_j" horiz-adv-x="737" 
d="M260 6q87 0 144.5 -40t68.5 -106q2 -8 11 -9q3 -1 16 -1q42 0 66 24.5t24 67.5v542q0 11 11 11h64q11 0 11 -11v-542q0 -70 -43.5 -114.5t-115.5 -44.5q-17 0 -35 3q-11 2 -12 -8q-15 -70 -79.5 -111.5t-160.5 -41.5q-92 0 -165 42q-9 5 -5 15l20 42q5 11 16 5
q56 -32 130 -32q75 0 120 34t45 89v10q0 52 -41 83t-112 31q-67 0 -122 -23q-8 -3 -14 4l-9 15q-5 8 0 12l78 126q5 8 -4 12q-61 25 -95.5 72.5t-34.5 111.5v26q0 90 65 146q67 56 157 56q78 0 136 -40q8 -6 14 2l13 22q4 9 17 9h43q7 0 10.5 -5.5t-0.5 -12.5l-36 -58
q-7 -12 -1 -20q26 -44 26 -99v-26q0 -90 -65 -146q-64 -55 -156 -55h-9q-10 0 -16 -10l-37 -59q-2 -2 -0.5 -4.5t5.5 -1.5q32 8 57 8zM119 298v-22q0 -59 40.5 -95t99.5 -36q61 0 100.5 35.5t39.5 95.5v22q0 59 -40.5 95.5t-99.5 36.5t-99.5 -36.5t-40.5 -95.5zM599 595
q-14 14 -14 34t14 34t34 14t34 -14t14 -34t-14 -34q-14 -13 -34 -13t-34 13z" />
    <glyph glyph-name="zero.onum" horiz-adv-x="542" 
d="M47 225v110q0 107 61 171t163 64q101 0 162 -64q62 -65 62 -171v-110q0 -106 -62 -171q-61 -64 -162 -64q-102 0 -163 64t-61 171zM133 335v-109q0 -75 36.5 -119.5t101.5 -44.5t101.5 44.5t36.5 120.5v107q0 74 -36.5 119t-101.5 45t-101.5 -44.5t-36.5 -118.5z" />
    <glyph glyph-name="one.onum" horiz-adv-x="241" 
d="M83 11v445q0 9 -9 9h-19q-6 0 -10 6t0 12l45 70q4 7 12 7h55q12 0 12 -12v-537q0 -11 -11 -11h-64q-11 0 -11 11z" />
    <glyph glyph-name="two.onum" horiz-adv-x="468" 
d="M211 570q100 0 158.5 -48.5t58.5 -132.5v-12q0 -109 -117 -192l-146 -102q-5 -3 -3.5 -8t6.5 -5h242q11 0 11 -11v-48q0 -11 -11 -11h-373q-11 0 -11 12v50q0 11 11 17l203 139q100 67 100 152v10q0 52 -36.5 84t-98.5 32q-67 0 -120 -33q-12 -6 -17 5l-19 44q-4 10 5 15
q70 43 157 43z" />
    <glyph glyph-name="three.onum" horiz-adv-x="444" 
d="M35 501v47q0 12 12 12h332q12 0 12 -12v-36q0 -8 -7 -16l-173 -193q-2 -3 -0.5 -7t5.5 -4q90 -1 143 -56.5t53 -146.5v-19q0 -97 -70 -161q-70 -65 -174 -65q-77 0 -142 38q-9 5 -5 15l20 45q1 4 6.5 5t9.5 -1q43 -28 106 -28q69 0 116 44q46 43 46 110v15q0 66 -39 105
t-106 39q-41 0 -83 -14q-9 -5 -14 5l-7 13q-5 8 1 14l196 228q3 4 1.5 8t-6.5 4h-221q-12 0 -12 12z" />
    <glyph glyph-name="four.onum" horiz-adv-x="508" 
d="M31 132l304 419q6 9 16 9h47q11 0 11 -12v-401q0 -9 10 -9h64q12 0 12 -12v-43q0 -12 -12 -12h-64q-10 0 -10 -9v-197q0 -11 -11 -11h-64q-11 0 -11 11v197q0 9 -9 9h-275q-11 0 -11 12v36q0 7 3 13zM313 405l-187 -258q-2 -2 -1 -5.5t5 -3.5h184q9 0 9 9v255q0 4 -4 5
t-6 -2z" />
    <glyph glyph-name="five.onum" horiz-adv-x="461" 
d="M63 206v342q0 12 12 12h322q12 0 12 -12v-47q0 -12 -12 -12h-242q-9 0 -9 -9v-192q0 -9 8 -7q33 16 73 16q96 0 152.5 -56t56.5 -153v-19q0 -96 -70 -160q-70 -65 -173 -65q-80 0 -142 37q-7 6 -4 16l19 44q5 11 17 5q44 -28 105 -28q69 0 116 44q46 43 46 110v14
q0 67 -40 106t-111 39q-66 0 -118 -35q-5 -4 -11.5 -0.5t-6.5 10.5z" />
    <glyph glyph-name="six.onum" horiz-adv-x="519" 
d="M290 434q88 0 143 -58q57 -57 57 -150v-22q0 -94 -64 -154t-158 -60q-93 0 -155 59q-62 60 -62 155v284q0 99 67 163q68 65 170 65q74 0 142 -39q9 -5 5 -14l-20 -45q-4 -9 -16 -5q-49 29 -106 29q-67 0 -111 -44t-44 -112v-112q0 -4 3 -5.5t7 1.5q52 64 142 64zM273 366
q-60 0 -98.5 -39t-38.5 -103v-18q0 -65 37 -104.5t95 -39.5q59 0 97 40t38 104v18q0 65 -36 103.5t-94 38.5z" />
    <glyph glyph-name="seven.onum" horiz-adv-x="425" 
d="M20 560h382q11 0 11 -12v-28q0 -15 -4 -24l-232 -633q-4 -10 -15 -10h-70q-5 0 -7.5 4.5t-0.5 9.5l231 610q5 12 -8 12h-287q-12 0 -12 12v47q0 12 12 12z" />
    <glyph glyph-name="eight.onum" horiz-adv-x="525" 
d="M263 716q83 0 139 -51t56 -132v-11q0 -88 -75 -138q-10 -6 0 -12q101 -53 101 -163v-16q0 -90 -63 -147t-158 -57q-96 0 -159 57t-63 147v16q0 111 102 163q9 5 0 12q-76 51 -76 138v11q0 83 55 132q56 51 141 51zM263 644q-50 0 -81.5 -31.5t-31.5 -84.5v-9
q0 -50 32.5 -82t80.5 -32t80 32t32 82v9q0 53 -31.5 84.5t-80.5 31.5zM263 343q-61 0 -97.5 -35t-36.5 -94v-16q0 -62 37.5 -99.5t96.5 -37.5q58 0 95.5 37.5t37.5 99.5v16q0 58 -37 93.5t-96 35.5z" />
    <glyph glyph-name="nine.onum" horiz-adv-x="519" 
d="M229 126q-87 0 -144 57q-57 58 -57 151v22q0 94 64 154t158 60t155 -60q62 -59 62 -154v-284q0 -99 -67 -163q-67 -65 -169 -65q-75 0 -142 39q-10 3 -5 14l20 45q4 10 15 5q50 -29 107 -29q68 0 112 44q43 43 43 112v112q0 4 -3.5 5.5t-6.5 -1.5q-52 -64 -142 -64z
M246 194q59 0 98 39t39 103v18q0 65 -37 104.5t-96 39.5t-97 -40t-38 -104v-18q0 -64 36.5 -103t94.5 -39z" />
    <glyph glyph-name="zero.tnum" horiz-adv-x="520" 
d="M36 225v110q0 107 61 171t163 64q101 0 162 -64q62 -65 62 -171v-110q0 -106 -62 -171q-61 -64 -162 -64q-102 0 -163 64t-61 171zM122 335v-109q0 -75 36.5 -119.5t101.5 -44.5t101.5 44.5t36.5 120.5v107q0 74 -36.5 119t-101.5 45t-101.5 -44.5t-36.5 -118.5z" />
    <glyph glyph-name="one.tnum" horiz-adv-x="520" 
d="M153 560h139q11 0 11 -12v-466q0 -10 10 -10h129q12 0 12 -11v-49q0 -12 -12 -12h-364q-11 0 -11 12v49q0 11 11 11h130q9 0 9 10v398q0 10 -9 10h-87q-6 0 -10 5.5t0 11.5l29 46q4 7 13 7z" />
    <glyph glyph-name="two.tnum" horiz-adv-x="520" 
d="M250 570q100 0 158.5 -48.5t58.5 -132.5v-12q0 -109 -117 -192l-146 -102q-5 -3 -3.5 -8t6.5 -5h242q11 0 11 -11v-48q0 -11 -11 -11h-373q-11 0 -11 12v50q0 11 11 17l203 139q100 67 100 152v10q0 52 -36.5 84t-98.5 32q-68 0 -120 -33q-12 -6 -17 5l-19 44q-4 10 5 15
q70 43 157 43z" />
    <glyph glyph-name="three.tnum" horiz-adv-x="520" 
d="M81 501v47q0 12 12 12h332q12 0 12 -12v-36q0 -8 -7 -16l-173 -193q-2 -3 -0.5 -7t5.5 -4q90 -1 143 -56.5t53 -146.5v-19q0 -97 -70 -161q-70 -65 -174 -65q-77 0 -142 38q-9 5 -5 15l20 45q1 4 6.5 5t9.5 -1q43 -28 106 -28q69 0 116 44q46 43 46 110v15q0 66 -39 105
t-106 39q-41 0 -83 -14q-9 -5 -14 5l-7 13q-5 8 1 14l196 228q3 4 1.5 8t-6.5 4h-221q-12 0 -12 12z" />
    <glyph glyph-name="four.tnum" horiz-adv-x="520" 
d="M37 132l304 419q6 9 16 9h47q11 0 11 -12v-401q0 -9 10 -9h64q12 0 12 -12v-43q0 -12 -12 -12h-64q-10 0 -10 -9v-197q0 -11 -11 -11h-64q-11 0 -11 11v197q0 9 -9 9h-275q-11 0 -11 12v36q0 7 3 13zM319 405l-187 -258q-2 -2 -1 -5.5t5 -3.5h184q9 0 9 9v255q0 4 -4 5
t-6 -2z" />
    <glyph glyph-name="five.tnum" horiz-adv-x="520" 
d="M89 206v342q0 12 12 12h322q12 0 12 -12v-47q0 -12 -12 -12h-242q-9 0 -9 -9v-192q0 -9 8 -7q33 16 73 16q96 0 152.5 -56t56.5 -153v-19q0 -96 -70 -160q-70 -65 -173 -65q-80 0 -142 37q-7 6 -4 16l19 44q5 11 17 5q44 -28 105 -28q69 0 116 44q46 43 46 110v14
q0 67 -40 106t-111 39q-66 0 -118 -35q-5 -4 -11.5 -0.5t-6.5 10.5z" />
    <glyph glyph-name="six.tnum" horiz-adv-x="520" 
d="M287 434q88 0 143 -58q57 -57 57 -150v-22q0 -94 -64 -154q-65 -60 -158 -60t-155 59q-62 60 -62 155v284q0 99 67 163q68 65 170 65q75 0 142 -39q9 -5 5 -14l-20 -45q-4 -9 -16 -5q-49 29 -106 29q-67 0 -111 -44t-44 -112v-112q0 -4 3 -5.5t7 1.5q52 64 142 64z
M270 366q-60 0 -98.5 -39t-38.5 -103v-18q0 -65 37 -104.5t95 -39.5q59 0 97 40t38 104v18q0 65 -36 103.5t-94 38.5z" />
    <glyph glyph-name="seven.tnum" horiz-adv-x="520" 
d="M79 560h382q11 0 11 -12v-28q0 -15 -4 -24l-232 -633q-4 -10 -15 -10h-70q-5 0 -7.5 4.5t-0.5 9.5l231 610q5 12 -8 12h-287q-12 0 -12 12v47q0 12 12 12z" />
    <glyph glyph-name="eight.tnum" horiz-adv-x="520" 
d="M260 716q84 0 139 -51q56 -51 56 -132v-11q0 -88 -75 -138q-10 -6 0 -12q101 -53 101 -163v-16q0 -90 -63 -147t-158 -57q-96 0 -159 57t-63 147v16q0 111 102 163q9 5 0 12q-76 51 -76 138v11q0 83 55 132q55 51 141 51zM260 644q-50 0 -81.5 -31.5t-31.5 -84.5v-9
q0 -50 32.5 -82t80.5 -32t80 32t32 82v9q0 53 -31.5 84.5t-80.5 31.5zM260 343q-61 0 -97.5 -35t-36.5 -94v-16q0 -62 37.5 -99.5t96.5 -37.5q58 0 95.5 37.5t37.5 99.5v16q0 58 -37 93.5t-96 35.5z" />
    <glyph glyph-name="nine.tnum" horiz-adv-x="520" 
d="M233 126q-87 0 -144 57q-57 58 -57 151v22q0 94 64 154t158 60t155 -60q62 -59 62 -154v-284q0 -99 -67 -163q-67 -65 -169 -65q-75 0 -142 39q-10 3 -5 14l20 45q4 10 15 5q50 -29 107 -29q68 0 112 44q43 43 43 112v112q0 4 -3.5 5.5t-6.5 -1.5q-52 -64 -142 -64z
M250 194q59 0 98 39t39 103v18q0 65 -37 104.5t-96 39.5t-97 -40t-38 -104v-18q0 -64 36.5 -103t94.5 -39z" />
    <glyph glyph-name="zero.lnum" horiz-adv-x="520" 
d="M36 225v256q0 107 61 171t163 64q101 0 162 -64q62 -65 62 -171v-256q0 -106 -62 -171q-61 -64 -162 -64q-102 0 -163 64t-61 171zM122 481v-255q0 -75 36.5 -119.5t101.5 -44.5q66 0 102 44.5t36 120.5v253q0 74 -36.5 119t-101.5 45t-101.5 -44.5t-36.5 -118.5z" />
    <glyph glyph-name="one.lnum" horiz-adv-x="520" 
d="M147 706h144q11 0 11 -12v-608q0 -10 10 -10h129q12 0 12 -11v-53q0 -12 -12 -12h-364q-11 0 -11 12v53q0 11 11 11h130q9 0 9 10v536q0 10 -9 10h-93q-6 0 -10 5.5t0 11.5l31 50q4 7 12 7z" />
    <glyph glyph-name="two.lnum" horiz-adv-x="520" 
d="M254 716q99 0 157 -53.5t58 -143.5v-19q0 -80 -84 -177l-207 -239q-2 -3 -1 -6t5 -3h261q11 0 11 -12v-52q0 -11 -11 -11h-375q-11 0 -11 12v34q0 9 4 13l261 306q61 71 61 133v16q0 57 -37 92.5t-98 35.5q-68 0 -120 -33q-12 -6 -17 5l-19 44q-4 10 5 15q70 43 157 43z
" />
    <glyph glyph-name="three.lnum" horiz-adv-x="520" 
d="M217 -10q-77 0 -142 38q-9 5 -5 15l20 45q1 4 6.5 5t9.5 -1q43 -28 106 -28q69 0 116 44q46 43 46 110v15q0 66 -39 105t-106 39q-41 0 -83 -14q-9 -5 -14 5l-7 13q-5 8 1 14l194 224q3 4 1.5 8t-6.5 4h-219q-12 0 -12 12v51q0 12 12 12h332q12 0 12 -12v-36q0 -8 -7 -16
l-173 -193q-2 -3 -0.5 -7t5.5 -4q90 -1 143 -56.5t53 -146.5v-19q0 -98 -70 -162q-68 -64 -174 -64z" />
    <glyph glyph-name="four.lnum" horiz-adv-x="520" 
d="M41 265l293 432q6 9 16 9h57q11 0 11 -12v-413q0 -9 10 -9h64q12 0 12 -12v-43q0 -12 -12 -12h-64q-10 0 -10 -9v-185q0 -11 -11 -11h-64q-11 0 -11 11v185q0 9 -9 9h-274q-12 0 -12 12v35q0 9 4 13zM322 551l-187 -271q-2 -2 -0.5 -5t5.5 -3h183q9 0 9 9v267q0 4 -4 5
t-6 -2z" />
    <glyph glyph-name="five.lnum" horiz-adv-x="520" 
d="M94 352v342q0 12 12 12h322q12 0 12 -12v-51q0 -12 -12 -12h-242q-9 0 -9 -9v-188q0 -9 8 -7q33 16 73 16q96 0 152.5 -56t56.5 -153v-19q0 -97 -70 -161q-68 -64 -173 -64q-80 0 -142 37q-7 6 -4 16l19 44q5 11 17 5q44 -28 105 -28q69 0 116 44q46 43 46 110v14
q0 67 -40 106t-111 39q-66 0 -118 -35q-5 -4 -11.5 -0.5t-6.5 10.5z" />
    <glyph glyph-name="six.lnum" horiz-adv-x="520" 
d="M286 434q89 0 144 -58q57 -57 57 -150v-22q0 -94 -64 -154q-65 -60 -158 -60t-155 59q-62 60 -62 155v284q0 99 67 163q68 65 169 65q74 0 142 -39q10 -4 5 -14l-19 -45q-5 -10 -16 -5q-49 29 -107 29q-67 0 -111 -45q-44 -44 -44 -111v-112q0 -4 3.5 -5.5t6.5 1.5
q52 64 142 64zM132 224v-18q0 -65 37 -104.5t96 -39.5t97 40t38 104v18q0 65 -36.5 103.5t-94.5 38.5q-59 0 -98 -39t-39 -103z" />
    <glyph glyph-name="seven.lnum" horiz-adv-x="520" 
d="M76 706h382q11 0 11 -12v-28q0 -15 -4 -24l-232 -632q-4 -10 -15 -10h-70q-5 0 -7.5 4.5t-0.5 9.5l229 605q5 12 -8 12h-285q-12 0 -12 12v51q0 12 12 12z" />
    <glyph glyph-name="eight.lnum" horiz-adv-x="520" 
d="M260 716q84 0 140 -51t56 -132v-11q0 -87 -76 -138q-9 -7 0 -12q48 -25 75 -67.5t27 -95.5v-16q0 -90 -64 -147q-63 -57 -158 -57q-96 0 -159 57t-63 147v16q0 109 102 163q9 5 0 12q-76 51 -76 138v11q0 83 55 132q55 51 141 51zM260 644q-50 0 -81.5 -31.5t-31.5 -84.5
v-9q0 -50 32.5 -82t80.5 -32t80 32t32 82v9q0 53 -31.5 84.5t-80.5 31.5zM260 343q-61 0 -97.5 -35t-36.5 -94v-16q0 -62 38 -99.5t96 -37.5t95.5 37.5t37.5 99.5v16q0 59 -36.5 94t-96.5 35z" />
    <glyph glyph-name="nine.lnum" horiz-adv-x="520" 
d="M233 272q-87 0 -144 57q-56 59 -56 151v22q0 94 64 154t158 60q93 0 155 -60q62 -59 62 -154v-284q0 -99 -67 -163q-68 -65 -170 -65q-75 0 -142 39q-9 5 -5 14l20 45q4 9 16 5q49 -29 106 -29q68 0 112 44q43 43 43 112v112q0 4 -3 5.5t-7 -1.5q-52 -64 -142 -64z
M250 340q60 0 98.5 39t38.5 103v18q0 65 -37 104.5t-95 39.5q-59 0 -97 -40t-38 -104v-18q0 -65 36 -103.5t94 -38.5z" />
    </font>
</defs>
</svg>
