<?xml version="1.0" standalone="no"?>
<!DOCTYPE svg PUBLIC "-//W3C//DTD SVG 1.1//EN" "http://www.w3.org/Graphics/SVG/1.1/DTD/svg11.dtd" >
<svg xmlns="http://www.w3.org/2000/svg" xmlns:xlink="http://www.w3.org/1999/xlink" version="1.1">
<metadata>
Created by FontForge 20170731 at Wed Feb 19 22:37:30 2014
 By Aleksey,,,
Copyright (c) 2013 by Hans Samuelson / Samuelstype. All rights reserved.
</metadata>
<defs>
<font id="BrooklynSamuelsFive-Medium" horiz-adv-x="553" >
  <font-face 
    font-family="Brooklyn Samuels Five"
    font-weight="500"
    font-stretch="normal"
    units-per-em="1000"
    panose-1="2 0 6 3 0 0 0 2 0 4"
    ascent="800"
    descent="-200"
    x-height="495"
    cap-height="706"
    bbox="-127.522 -393 1263 923"
    underline-thickness="50"
    underline-position="-200"
    unicode-range="U+0020-FB04"
  />
<missing-glyph horiz-adv-x="186" 
 />
    <glyph glyph-name="f_f" unicode="ff" horiz-adv-x="621" 
d="M87 506v72q0 135 152 135q61 0 108 -24q14 -8 7 -19l-30 -60q-5 -12 -18 -7q-21 10 -43 10q-24 0 -38.5 -12.5t-14.5 -35.5v-59q0 -11 10 -11h137q11 0 11 11v72q0 66 38.5 100.5t112.5 34.5q65 0 123 -31q13 -7 6 -20l-33 -59q-6 -11 -18 -6q-29 16 -54 16
q-52 0 -52 -48v-59q0 -11 9 -11h107q14 0 14 -14v-50q0 -15 -14 -15h-107q-9 0 -9 -10v-392q0 -14 -15 -14h-94q-14 0 -14 14v392q0 10 -11 10h-137q-10 0 -10 -10v-392q0 -14 -15 -14h-94q-5 0 -9.5 4t-4.5 10v392q0 10 -11 10h-51q-6 0 -10.5 4.5t-4.5 10.5v50q0 14 15 14
h51q11 0 11 11z" />
    <glyph glyph-name="fi" unicode="fi" horiz-adv-x="527" 
d="M87 506v44q0 74 52 120.5t145 46.5q78 0 155 -45q12 -7 6 -20l-33 -58q-7 -13 -19 -6q-55 29 -100 29q-39 0 -61 -19t-22 -54v-38q0 -11 10 -11h237q15 0 15 -14v-467q0 -14 -15 -14h-94q-5 0 -9.5 4t-4.5 10v393q0 9 -10 9h-119q-10 0 -10 -10v-392q0 -14 -15 -14h-94
q-5 0 -9.5 4t-4.5 10v392q0 10 -11 10h-51q-6 0 -10.5 4.5t-4.5 10.5v50q0 14 15 14h51q11 0 11 11z" />
    <glyph glyph-name="fl" unicode="fl" horiz-adv-x="535" 
d="M87 506v48q0 65 41 101.5t114 36.5q52 0 102 -27q4 -2 9 0t5 7v20q0 14 14 14h94q14 0 14 -14v-678q0 -14 -14 -14h-94q-14 0 -14 14v551q0 11 -9 16q-25 16 -66 16q-30 0 -51.5 -16.5t-21.5 -40.5v-34q0 -11 10 -11h79q14 0 14 -14v-50q0 -15 -14 -15h-79q-10 0 -10 -10
v-392q0 -14 -15 -14h-94q-5 0 -9.5 4t-4.5 10v392q0 10 -11 10h-51q-6 0 -10.5 4.5t-4.5 10.5v50q0 14 15 14h51q11 0 11 11z" />
    <glyph glyph-name="f_f_i" unicode="ffi" horiz-adv-x="807" 
d="M87 506v72q0 135 152 135q61 0 108 -24q14 -8 7 -19l-30 -60q-5 -12 -18 -7q-21 10 -43 10q-24 0 -38.5 -12.5t-14.5 -35.5v-59q0 -11 10 -11h137q11 0 11 11v44q0 74 52 120.5t145 46.5q81 0 154 -45q14 -6 7 -20l-34 -58q-6 -14 -18 -6q-56 29 -101 29q-39 0 -60.5 -19
t-21.5 -54v-38q0 -11 9 -11h238q15 0 15 -14v-467q0 -14 -15 -14h-94q-14 0 -14 14v393q0 9 -11 9h-119q-9 0 -9 -10v-392q0 -14 -15 -14h-94q-14 0 -14 14v392q0 10 -11 10h-137q-10 0 -10 -10v-392q0 -14 -15 -14h-94q-5 0 -9.5 4t-4.5 10v392q0 10 -11 10h-51
q-6 0 -10.5 4.5t-4.5 10.5v50q0 14 15 14h51q11 0 11 11z" />
    <glyph glyph-name="f_f_l" unicode="ffl" horiz-adv-x="816" 
d="M87 506v72q0 135 152 135q65 0 114 -28q14 -6 7 -19l-30 -60q-6 -12 -18 -7q-38 21 -70 11t-32 -45v-59q0 -11 10 -11h137q11 0 11 11v48q0 65 40.5 101.5t114.5 36.5q53 0 102 -27q4 -2 8.5 0t4.5 7v20q0 14 15 14h94q5 0 9.5 -4t4.5 -10v-678q0 -6 -4.5 -10t-9.5 -4
h-94q-15 0 -15 14v551q0 11 -8 16q-26 16 -66 16q-31 0 -52 -15.5t-21 -41.5v-34q0 -11 9 -11h80q5 0 9.5 -4t4.5 -10v-50q0 -6 -4.5 -10.5t-9.5 -4.5h-80q-9 0 -9 -10v-392q0 -14 -15 -14h-94q-14 0 -14 14v392q0 10 -11 10h-137q-10 0 -10 -10v-392q0 -14 -15 -14h-94
q-5 0 -9.5 4t-4.5 10v392q0 10 -11 10h-51q-6 0 -10.5 4.5t-4.5 10.5v50q0 14 15 14h51q11 0 11 11z" />
    <glyph glyph-name="f_b" unicode="fb" horiz-adv-x="856" 
d="M87 506v48q0 65 41 101.5t114 36.5q52 0 102 -27q4 -2 9 0t5 7v20q0 14 14 14h94q14 0 14 -14v-232q0 -4 4 -5.5t7 0.5q53 48 124 48q83 0 145 -65t62 -166v-50q0 -108 -60 -169t-146 -61q-76 0 -132 56q-8 6 -11 -3l-8 -36q-5 -9 -13 -9h-80q-14 0 -14 14v551
q0 11 -9 16q-25 16 -66 16q-30 0 -51.5 -16.5t-21.5 -40.5v-34q0 -11 10 -11h79q14 0 14 -14v-50q0 -15 -14 -15h-79q-10 0 -10 -10v-392q0 -14 -15 -14h-94q-5 0 -9.5 4t-4.5 10v392q0 10 -11 10h-51q-6 0 -10.5 4.5t-4.5 10.5v50q0 14 15 14h51q11 0 11 11zM493 365
q-13 -10 -13 -27v-182q0 -17 13 -27q38 -35 92 -35t85.5 35.5t31.5 95.5v44q0 60 -32 95q-31 36 -85 36t-92 -35z" />
    <glyph glyph-name="f_h" unicode="fh" horiz-adv-x="845" 
d="M87 506v48q0 65 41 101.5t114 36.5q52 0 102 -27q4 -2 9 0t5 7v20q0 14 14 14h94q14 0 14 -14v-236q0 -5 4.5 -6.5t7.5 2.5q51 51 130 51q82 0 127.5 -51t45.5 -143v-295q0 -14 -14 -14h-94q-15 0 -15 14v289q0 93 -88 93q-53 0 -90 -34q-14 -11 -14 -27v-321
q0 -14 -14 -14h-94q-14 0 -14 14v551q0 11 -9 16q-25 16 -66 16q-30 0 -51.5 -16.5t-21.5 -40.5v-34q0 -11 10 -11h79q14 0 14 -14v-50q0 -15 -14 -15h-79q-10 0 -10 -10v-392q0 -14 -15 -14h-94q-5 0 -9.5 4t-4.5 10v392q0 10 -11 10h-51q-6 0 -10.5 4.5t-4.5 10.5v50
q0 14 15 14h51q11 0 11 11z" />
    <glyph glyph-name="f_k" unicode="fk" horiz-adv-x="816" 
d="M87 506v48q0 65 41 101.5t114 36.5q52 0 102 -27q4 -2 9 0t5 7v20q0 14 14 14h94q14 0 14 -14v-390q0 -6 3.5 -9t8.5 -1q66 11 107.5 58t48.5 116l1 16q1 13 14 13h98q6 0 10.5 -4t3.5 -11l-3 -20q-18 -128 -115 -200q-8 -6 -2 -13l145 -225q5 -7 0.5 -14.5t-13.5 -7.5
h-105q-10 0 -13 8l-114 193q-5 8 -14 6q-24 -7 -51 -9q-10 0 -10 -10v-174q0 -14 -14 -14h-94q-14 0 -14 14v551q0 11 -9 16q-25 16 -66 16q-30 0 -51.5 -16.5t-21.5 -40.5v-34q0 -11 10 -11h79q14 0 14 -14v-50q0 -15 -14 -15h-79q-10 0 -10 -10v-392q0 -14 -15 -14h-94
q-5 0 -9.5 4t-4.5 10v392q0 10 -11 10h-51q-6 0 -10.5 4.5t-4.5 10.5v50q0 14 15 14h51q11 0 11 11z" />
    <glyph glyph-name="f_t" unicode="ft" horiz-adv-x="650" 
d="M87 506v72q0 135 152 135q67 0 122 -31q13 -8 7 -20l-33 -59q-6 -12 -19 -6q-26 16 -53 16q-24 0 -38.5 -12.5t-14.5 -35.5v-59q0 -11 10 -11h138q10 0 10 10v94q0 6 4.5 10.5t9.5 4.5h95q5 0 9.5 -4.5t4.5 -10.5v-94q0 -10 11 -10h105q15 0 15 -14v-50q0 -15 -15 -15
h-105q-11 0 -11 -10v-266q0 -21 14.5 -33.5t36.5 -12.5q28 0 52 15q15 6 20 -6l35 -59q7 -14 -6 -21q-58 -31 -123 -31q-74 0 -113 34t-39 99v281q0 10 -10 10h-138q-10 0 -10 -10v-392q0 -14 -15 -14h-94q-5 0 -9.5 4t-4.5 10v392q0 10 -11 10h-51q-6 0 -10.5 4.5
t-4.5 10.5v50q0 14 15 14h51q11 0 11 11z" />
    <glyph glyph-name="f_j" unicode="fj" horiz-adv-x="537" 
d="M87 506v44q0 74 52 120.5t145 46.5q78 0 155 -45q12 -7 6 -20l-33 -58q-7 -13 -19 -6q-55 29 -100 29q-39 0 -61 -19t-22 -54v-38q0 -11 10 -11h247q15 0 15 -14v-540q0 -73 -45 -121q-43 -49 -121 -49q-68 0 -119 27q-15 5 -7 20l34 61q6 11 17 6q24 -12 52 -12
q32 0 49 18.5t17 49.5v466q0 9 -10 9h-129q-10 0 -10 -10v-392q0 -14 -15 -14h-94q-5 0 -9.5 4t-4.5 10v392q0 10 -11 10h-51q-6 0 -10.5 4.5t-4.5 10.5v50q0 14 15 14h51q11 0 11 11z" />
    <glyph glyph-name="f_f_b" unicode="ffb" horiz-adv-x="1137" 
d="M87 506v72q0 135 152 135q65 0 114 -28q14 -6 7 -19l-30 -60q-6 -12 -18 -7q-38 21 -70 11t-32 -45v-59q0 -11 10 -11h137q11 0 11 11v48q0 65 40.5 101.5t114.5 36.5q53 0 102 -27q4 -2 8.5 0t4.5 7v20q0 14 15 14h94q5 0 9.5 -4t4.5 -10v-232q0 -4 3.5 -5.5t6.5 0.5
q54 48 124 48q83 0 145 -65t62 -166v-50q0 -108 -60 -169q-58 -61 -145 -61q-74 0 -133 56q-2 2 -5.5 1.5t-4.5 -4.5l-8 -36q-4 -9 -14 -9h-79q-15 0 -15 14v551q0 11 -8 16q-26 16 -66 16q-31 0 -52 -15.5t-21 -41.5v-34q0 -11 9 -11h80q5 0 9.5 -4t4.5 -10v-50
q0 -6 -4.5 -10.5t-9.5 -4.5h-80q-9 0 -9 -10v-392q0 -14 -15 -14h-94q-14 0 -14 14v392q0 10 -11 10h-137q-10 0 -10 -10v-392q0 -14 -15 -14h-94q-5 0 -9.5 4t-4.5 10v392q0 10 -11 10h-51q-6 0 -10.5 4.5t-4.5 10.5v50q0 14 15 14h51q11 0 11 11zM866 400q-54 0 -92 -35
q-13 -10 -13 -27v-182q0 -18 13 -27q38 -35 92 -35q53 0 85 35.5t32 95.5v44q0 60 -32 95.5t-85 35.5z" />
    <glyph glyph-name="f_f_h" unicode="ffh" horiz-adv-x="1126" 
d="M87 506v72q0 135 152 135q65 0 114 -28q14 -6 7 -19l-30 -60q-6 -12 -18 -7q-38 21 -70 11t-32 -45v-59q0 -11 10 -11h137q11 0 11 11v48q0 65 40.5 101.5t114.5 36.5q53 0 102 -27q4 -2 8.5 0t4.5 7v20q0 14 15 14h94q14 0 14 -14v-236q0 -5 4 -6.5t7 2.5q52 51 131 51
q81 0 127 -51t46 -143v-295q0 -6 -4.5 -10t-9.5 -4h-94q-15 0 -15 14v289q0 93 -88 93q-55 0 -90 -34q-14 -9 -14 -27v-321q0 -14 -14 -14h-94q-15 0 -15 14v551q0 11 -8 16q-26 16 -66 16q-31 0 -52 -15.5t-21 -41.5v-34q0 -11 9 -11h80q5 0 9.5 -4t4.5 -10v-50
q0 -6 -4.5 -10.5t-9.5 -4.5h-80q-9 0 -9 -10v-392q0 -14 -15 -14h-94q-14 0 -14 14v392q0 10 -11 10h-137q-10 0 -10 -10v-392q0 -14 -15 -14h-94q-5 0 -9.5 4t-4.5 10v392q0 10 -11 10h-51q-6 0 -10.5 4.5t-4.5 10.5v50q0 14 15 14h51q11 0 11 11z" />
    <glyph glyph-name="f_f_k" unicode="ffk" horiz-adv-x="1097" 
d="M87 506v72q0 135 152 135q65 0 114 -28q14 -6 7 -19l-30 -60q-6 -12 -18 -7q-38 21 -70 11t-32 -45v-59q0 -11 10 -11h137q11 0 11 11v48q0 65 40.5 101.5t114.5 36.5q53 0 102 -27q4 -2 8.5 0t4.5 7v20q0 14 14 14h94q15 0 15 -14v-390q0 -13 12 -10q66 11 107 57.5
t48 116.5l1 16q1 13 15 13h97q15 0 14 -15l-2 -20q-20 -128 -116 -200q-7 -4 -2 -13l145 -225q5 -7 1 -14.5t-13 -7.5h-106q-8 0 -13 8l-114 193q-3 8 -14 6q-23 -7 -51 -9q-9 0 -9 -10v-174q0 -14 -15 -14h-94q-14 0 -14 14v551q0 11 -8 16q-26 16 -66 16q-31 0 -52 -15.5
t-21 -41.5v-34q0 -11 9 -11h80q5 0 9.5 -4t4.5 -10v-50q0 -6 -4.5 -10.5t-9.5 -4.5h-80q-9 0 -9 -10v-392q0 -14 -15 -14h-94q-14 0 -14 14v392q0 10 -11 10h-137q-10 0 -10 -10v-392q0 -14 -15 -14h-94q-5 0 -9.5 4t-4.5 10v392q0 10 -11 10h-51q-6 0 -10.5 4.5t-4.5 10.5
v50q0 14 15 14h51q11 0 11 11z" />
    <glyph glyph-name="f_f_t" unicode="fft" horiz-adv-x="930" 
d="M87 506v72q0 135 152 135q61 0 108 -24q14 -8 7 -19l-30 -60q-5 -12 -18 -7q-21 10 -43 10q-24 0 -38.5 -12.5t-14.5 -35.5v-59q0 -11 10 -11h137q11 0 11 11v72q0 66 38.5 100.5t112.5 34.5q65 0 123 -31q13 -7 6 -20l-33 -59q-6 -11 -18 -6q-29 16 -54 16
q-52 0 -52 -48v-59q0 -11 9 -11h138q11 0 11 10v94q0 15 14 15h94q14 0 14 -15v-94q0 -10 11 -10h106q14 0 14 -14v-50q0 -15 -14 -15h-106q-11 0 -11 -10v-266q0 -21 15 -33.5t37 -12.5q20 0 41 10l12 5q14 5 18 -6l36 -59q7 -13 -6 -19q-56 -33 -124 -33q-151 0 -151 133
v281q0 10 -11 10h-138q-9 0 -9 -10v-392q0 -14 -15 -14h-94q-14 0 -14 14v392q0 10 -11 10h-137q-10 0 -10 -10v-392q0 -14 -15 -14h-94q-5 0 -9.5 4t-4.5 10v392q0 10 -11 10h-51q-6 0 -10.5 4.5t-4.5 10.5v50q0 14 15 14h51q11 0 11 11z" />
    <glyph glyph-name="f_f_j" unicode="ffj" horiz-adv-x="817" 
d="M87 506v72q0 135 152 135q61 0 108 -24q14 -8 7 -19l-30 -60q-5 -12 -18 -7q-21 10 -43 10q-24 0 -38.5 -12.5t-14.5 -35.5v-59q0 -11 10 -11h137q11 0 11 11v44q0 74 52 120.5t145 46.5q81 0 154 -45q14 -6 7 -20l-34 -58q-6 -14 -18 -6q-56 29 -101 29q-39 0 -60.5 -19
t-21.5 -54v-38q0 -11 9 -11h248q15 0 15 -14v-540q0 -73 -45 -121q-45 -49 -122 -49q-68 0 -119 27q-15 5 -7 20l35 61q5 11 17 6q22 -12 51 -12q32 0 49.5 18.5t17.5 49.5v466q0 9 -11 9h-129q-9 0 -9 -10v-392q0 -14 -15 -14h-94q-14 0 -14 14v392q0 10 -11 10h-137
q-10 0 -10 -10v-392q0 -14 -15 -14h-94q-5 0 -9.5 4t-4.5 10v392q0 10 -11 10h-51q-6 0 -10.5 4.5t-4.5 10.5v50q0 14 15 14h51q11 0 11 11z" />
    <glyph glyph-name="g_j" unicode="gj" horiz-adv-x="790" 
d="M612 -52v533q0 6 4.5 10t9.5 4h95q5 0 9.5 -4t4.5 -10v-533q0 -73 -45 -121q-43 -49 -121 -49q-44 0 -83 14q-15 7 -10 21l25 64q5 12 16 8q12 -5 29 -5q32 0 49 18.5t17 49.5zM674 692q26 0 45 -18.5t19 -45.5t-18.5 -45t-45.5 -18t-46 18t-19 45t19 45.5t46 18.5z
M34 222v50q0 103 59 167q58 64 144 64q77 0 136 -56q3 -3 6 -2t4 4l8 35q3 11 16 11h78q5 0 9.5 -4t4.5 -10v-497q0 -102 -68 -162q-67 -61 -178 -61q-87 0 -145 39q-13 5 -5 20l34 56q7 13 20 5q35 -21 88 -21q63 0 97 33.5t34 93.5v60q0 4 -3.5 5.5t-7.5 -1.5
q-56 -59 -131 -59q-90 0 -145 64t-55 166zM154 269v-44q0 -60 31.5 -95.5t85.5 -35.5q51 0 92 35q13 10 13 27v182q0 18 -13 28q-37 34 -92 34q-54 0 -85.5 -35.5t-31.5 -95.5z" />
    <glyph glyph-name="c_o" unicode="c&#x2f;o" horiz-adv-x="982" 
d="M543 182v37q0 79 56 132q57 54 141 54t140 -53t56 -133v-37q0 -80 -56 -133t-140 -53q-83 0 -141 53q-56 54 -56 133zM641 218v-35q0 -46 27.5 -75t71.5 -29t71.5 29t27.5 75v35q0 46 -27.5 75t-71.5 29t-71.5 -29t-27.5 -75zM46 488v43q0 74 54 128t136 54q62 0 120 -36
q11 -8 5 -20l-26 -44q-7 -10 -19 -5q-38 23 -73 23q-43 0 -71.5 -28t-28.5 -73v-40q0 -46 28 -74t72 -28q34 0 71 23q13 4 20 -6l25 -45q8 -12 -5 -20q-59 -35 -121 -35q-70 0 -129 50q-58 49 -58 133zM275 19l303 673q5 14 20 14h53q8 0 12 -6t2 -13l-303 -673
q-5 -14 -20 -14h-53q-8 0 -12.5 6t-1.5 13z" />
    <glyph glyph-name=".notdef" horiz-adv-x="186" 
 />
    <glyph glyph-name=".null" horiz-adv-x="0" 
 />
    <glyph glyph-name="nonmarkingreturn" horiz-adv-x="333" 
 />
    <glyph glyph-name="space" unicode=" " horiz-adv-x="200" 
 />
    <glyph glyph-name="exclam" unicode="!" horiz-adv-x="283" 
d="M81 228l-1 464q0 5 4 9.5t10 4.5h94q14 0 14 -14v-464q0 -6 -4.5 -10.5t-10.5 -4.5h-92q-14 0 -14 15zM71 65q0 30 20.5 50t49.5 20q30 0 50.5 -20t20.5 -50q0 -29 -21 -49t-50 -20t-49.5 20t-20.5 49z" />
    <glyph glyph-name="quotedbl" unicode="&#x22;" horiz-adv-x="343" 
d="M94 495h-6q-10 0 -15 11l-33 105q-10 27 -10 40q0 26 17.5 43t43.5 17t43 -17t17 -43q0 -11 -9 -40l-34 -105q-3 -11 -14 -11zM256 495h-6q-11 0 -14 11l-34 105q-9 25 -9 40q0 26 17 43t43 17t43 -17t17 -43q0 -11 -9 -40l-33 -105q-5 -11 -15 -11z" />
    <glyph glyph-name="numbersign" unicode="#" horiz-adv-x="613" 
d="M150 267v173q0 9 -11 9h-74q-15 0 -15 15v59q0 14 15 14h74q11 0 11 10v114q0 6 4.5 10.5t9.5 4.5h60q5 0 9.5 -4.5t4.5 -10.5v-114q0 -10 9 -10h120q9 0 9 10v114q0 6 4.5 10.5t10.5 4.5h59q14 0 14 -15v-114q0 -10 11 -10h74q6 0 10 -4.5t4 -9.5v-60q0 -5 -4 -9.5
t-10 -4.5h-74q-11 0 -11 -9v-173q0 -10 11 -10h74q6 0 10 -4.5t4 -9.5v-59q0 -15 -14 -15h-74q-11 0 -11 -10v-114q0 -14 -14 -14h-59q-15 0 -15 14v114q0 10 -9 10h-120q-9 0 -9 -10v-114q0 -6 -4.5 -10t-9.5 -4h-60q-5 0 -9.5 4t-4.5 10v114q0 10 -11 10h-74
q-6 0 -10.5 4.5t-4.5 10.5v59q0 14 15 14h74q11 0 11 10zM238 439v-172q0 -10 9 -10h120q9 0 9 10v172q0 10 -9 10h-120q-9 0 -9 -10z" />
    <glyph glyph-name="dollar" unicode="$" horiz-adv-x="571" 
d="M267 714v134q0 5 4 9.5t10 4.5h33q6 0 10.5 -4.5t4.5 -9.5v-133q83 -8 154 -62q11 -9 3 -20l-55 -72q-11 -14 -21 -2q-50 39 -108 39q-49 0 -77.5 -22t-28.5 -58v-3q0 -40 32 -61q33 -21 115 -40q105 -24 154 -71t49 -130v-4q0 -87 -58 -146t-159 -70v-134q0 -15 -15 -15
h-33q-14 0 -14 15v132q-121 6 -212 76q-13 9 -3 21l56 74q8 10 20 1q29 -23 72.5 -40t83.5 -17q65 0 99.5 26t34.5 72v4q0 37 -25 62q-10 10 -34 19q-25 11 -43 15l-57 15q-65 16 -104 36q-79 41 -84 158v4q0 81 53 134t143 63z" />
    <glyph glyph-name="percent" unicode="%" horiz-adv-x="910" 
d="M230 712q77 0 129 -49q53 -48 53 -124v-3q0 -77 -52 -126t-130 -49q-77 0 -129 49t-52 126v3q0 76 52 124q52 49 129 49zM323 536v3q0 44 -25.5 69t-67.5 25t-67.5 -25t-25.5 -69v-3q0 -45 25 -70t68 -25t68 25t25 70zM173 23l446 667q10 16 31 16h75q9 0 13.5 -8
t-0.5 -15l-447 -667q-10 -16 -31 -16h-75q-9 0 -13 8t1 15zM680 346q76 0 128 -49q53 -50 53 -125v-3q0 -77 -52 -126q-53 -48 -129 -48q-78 0 -130 48q-51 49 -51 126v3q0 76 52 125t129 49zM773 169v3q0 44 -25.5 69t-67.5 25q-43 0 -68 -25t-25 -69v-3q0 -45 25.5 -70
t67.5 -25t67.5 25t25.5 70z" />
    <glyph glyph-name="ampersand" unicode="&#x26;" horiz-adv-x="705" 
d="M139 515v10q0 85 60 137q60 54 153 54h10q93 0 153 -54q60 -53 60 -137v-10q0 -77 -56 -127q-57 -51 -131 -55l-52 -5q-52 -4 -85.5 -34.5t-33.5 -73.5v-10q0 -48 38 -78t97 -30h16q44 0 80.5 20.5t54.5 55.5q7 10 -3 18l-67 39q-6 4 -7 11t4 11l43 49q8 8 19 3l255 -147
q6 -3 7.5 -10.5t-3.5 -11.5l-44 -50q-9 -9 -20 -1l-71 40q-13 7 -20 -5q-33 -61 -97.5 -97.5t-140.5 -36.5h-15q-108 0 -181 58q-72 59 -72 148v16q0 108 103 162q13 8 1 20q-55 46 -55 121zM258 515v-9q0 -39 27 -64.5t67 -25.5h10q40 0 67 25.5t27 64.5v9q0 42 -26.5 67.5
t-68.5 25.5h-8q-42 0 -68.5 -25.5t-26.5 -67.5z" />
    <glyph glyph-name="quotesingle" unicode="'" horiz-adv-x="181" 
d="M94 495h-6q-12 0 -15 11l-34 105q-9 25 -9 40q0 26 17.5 43t42.5 17q26 0 43.5 -17t17.5 -43q0 -11 -9 -40l-34 -105q-5 -11 -14 -11z" />
    <glyph glyph-name="parenleft" unicode="(" horiz-adv-x="334" 
d="M70 353q0 290 134 511q5 11 17 6l70 -26q16 -4 7 -20q-56 -108 -81 -213q-26 -106 -26 -258q0 -153 26 -260q28 -107 82 -211q7 -15 -7 -21l-69 -26q-12 -4 -19 6q-134 224 -134 512z" />
    <glyph glyph-name="parenright" unicode=")" horiz-adv-x="334" 
d="M42 824q-8 15 8 20l70 26q11 6 17 -6q134 -221 134 -511q0 -288 -134 -512q-8 -11 -19 -6l-69 26q-14 6 -7 21q55 106 81 211q27 105 27 260t-27 259q-26 104 -81 212z" />
    <glyph glyph-name="asterisk" unicode="*" horiz-adv-x="435" 
d="M272 648l87 55q4 3 11 1.5t10 -6.5l25 -42q7 -14 -6 -21l-90 -49q-12 -7 -1 -13l92 -49q11 -8 4 -21l-25 -43q-7 -12 -20 -5l-87 54q-4 3 -8 1t-4 -8l3 -102q1 -6 -4 -10.5t-10 -4.5h-50q-6 0 -10.5 4.5t-4.5 10.5l4 102q0 6 -4.5 8t-8.5 -1l-86 -54q-13 -7 -21 5l-25 43
q-8 14 5 21l91 49q4 2 4 6.5t-4 6.5l-91 49q-13 6 -5 20l25 43q8 14 20 6l88 -56q4 -2 8 0t4 7l-4 104q0 6 4.5 10.5t10.5 4.5h50q5 0 9.5 -4.5t4.5 -10.5l-3 -104q0 -5 4 -7t8 0z" />
    <glyph glyph-name="plus" unicode="+" horiz-adv-x="573" 
d="M331 299v-168q0 -6 -4.5 -10t-9.5 -4h-60q-5 0 -9.5 4t-4.5 10v168q0 10 -11 10h-167q-15 0 -15 15v59q0 14 15 14h167q11 0 11 10v168q0 6 4.5 10.5t9.5 4.5h60q5 0 9.5 -4.5t4.5 -10.5v-168q0 -10 11 -10h167q5 0 9.5 -4.5t4.5 -9.5v-60q0 -5 -4.5 -9.5t-9.5 -4.5h-167
q-11 0 -11 -10z" />
    <glyph glyph-name="comma" unicode="," horiz-adv-x="238" 
d="M50 69q0 28 20 48t50 20t49.5 -20t19.5 -48q0 -42 -26.5 -88t-69.5 -83q-14 -12 -26 -6l-11 3q-15 6 -5 23q30 39 30 63t-15 43q-16 20 -16 45z" />
    <glyph glyph-name="hyphen" unicode="-" horiz-adv-x="351" 
d="M51 295h248q6 0 10.5 -4.5t4.5 -9.5v-64q0 -5 -4.5 -9.5t-10.5 -4.5h-248q-5 0 -9.5 4.5t-4.5 9.5v64q0 5 4.5 9.5t9.5 4.5z" />
    <glyph glyph-name="period" unicode="." horiz-adv-x="238" 
d="M69 15q-20 20 -20 49t20 49q21 20 50 20t49 -20t20 -49t-20 -49q-20 -19 -49 -19t-50 19z" />
    <glyph glyph-name="slash" unicode="/" horiz-adv-x="470" 
d="M4 -137l354 985q5 14 21 14h79q9 0 13 -6t1 -13l-354 -985q-5 -14 -21 -14h-79q-8 0 -12.5 6t-1.5 13z" />
    <glyph glyph-name="zero" unicode="0" horiz-adv-x="549" 
d="M46 226v254q0 108 63 172t166 64q102 0 165 -64q63 -65 63 -172v-254q0 -108 -63 -172t-165 -64q-103 0 -166 64t-63 172zM170 479v-250q0 -136 105 -136t105 136v249q0 62 -26 98.5t-79 36.5q-105 0 -105 -134z" />
    <glyph glyph-name="one" unicode="1" horiz-adv-x="277" 
d="M85 14v564q0 11 -10 11h-23q-7 0 -11.5 7t-0.5 15l54 88q4 7 13 7h86q15 0 15 -14v-678q0 -6 -4.5 -10t-9.5 -4h-95q-14 0 -14 14z" />
    <glyph glyph-name="two" unicode="2" horiz-adv-x="490" 
d="M216 716q106 0 168 -57q63 -55 63 -151v-18q0 -79 -92 -186l-162 -186q-2 -3 -0.5 -7t5.5 -4h220q5 0 9.5 -4t4.5 -10v-79q0 -6 -4.5 -10t-9.5 -4h-379q-5 0 -9.5 4t-4.5 10v54q0 12 7 19l231 275q60 72 60 124v13q0 50 -32.5 80t-86.5 30q-62 0 -105 -25q-16 -6 -20 7
l-27 65q-6 13 6 19q74 41 158 41z" />
    <glyph glyph-name="three" unicode="3" horiz-adv-x="473" 
d="M190 -10q-76 0 -141 36q-14 6 -8 20l27 66q6 14 21 7q41 -23 93 -23q60 0 99 36.5t39 91.5v11q0 56 -35.5 90t-93.5 34q-36 0 -72 -11q-13 -2 -18 8l-8 15q-5 11 2 18l160 195q5 4 2.5 9.5t-8.5 5.5h-176q-6 0 -10.5 4.5t-4.5 9.5v79q0 14 15 14h337q5 0 9.5 -4t4.5 -10
v-55q0 -11 -10 -22l-138 -159q-4 -4 -2.5 -9.5t7.5 -6.5q75 -11 118.5 -65.5t43.5 -136.5v-18q0 -98 -72 -164t-181 -66z" />
    <glyph glyph-name="four" unicode="4" horiz-adv-x="524" 
d="M27 268l275 427q6 11 20 11h88q14 0 14 -14v-410q0 -4 3.5 -7t7.5 -3h50q15 0 15 -15v-63q0 -15 -15 -15h-50q-11 0 -11 -10v-155q0 -14 -14 -14h-95q-14 0 -14 14v155q0 10 -10 10h-254q-14 0 -14 15v58q0 9 4 16zM289 490l-135 -208q-2 -3 -0.5 -6.5t5.5 -3.5h132
q10 0 10 10v205q0 5 -4.5 6t-7.5 -3z" />
    <glyph glyph-name="five" unicode="5" horiz-adv-x="484" 
d="M69 341v351q0 14 15 14h327q14 0 14 -14v-79q0 -5 -4 -9.5t-10 -4.5h-213q-11 0 -11 -11v-135q0 -10 11 -10q18 8 43 8q98 0 155 -57t57 -155v-18q0 -98 -73 -165q-74 -66 -180 -66q-78 0 -143 37q-12 5 -6 18l27 67q6 15 20 7q41 -23 94 -23q59 0 98 36q39 38 39 92v12
q0 56 -36 89q-34 34 -95 34q-60 0 -106 -30q-7 -4 -15 0t-8 12z" />
    <glyph glyph-name="six" unicode="6" horiz-adv-x="532" 
d="M301 438q89 0 144 -58t55 -152v-20q0 -94 -66 -156q-67 -62 -165 -62t-161 60q-62 62 -62 158v277q0 101 70 165q71 66 178 66q75 0 143 -37q13 -6 7 -18l-27 -66q-6 -14 -20 -8q-41 22 -95 22q-58 0 -95 -36t-37 -92v-83q0 -5 3.5 -6.5t7.5 2.5q47 44 120 44zM274 343
q-48 0 -78 -32t-30 -86v-13q0 -54 28 -86.5t75 -32.5q48 0 77.5 32.5t29.5 86.5v13q0 53 -28 85.5t-74 32.5z" />
    <glyph glyph-name="seven" unicode="7" horiz-adv-x="437" 
d="M35 706h381q15 0 15 -14v-48q0 -16 -6 -31l-219 -600q-3 -13 -17 -13h-108q-5 0 -8.5 5t-1.5 11l219 569q2 5 -1 9.5t-9 4.5h-245q-6 0 -10.5 4.5t-4.5 9.5v79q0 14 15 14z" />
    <glyph glyph-name="eight" unicode="8" horiz-adv-x="540" 
d="M478 524v-10q0 -81 -65 -134q-8 -8 0 -13q87 -57 87 -155v-16q0 -89 -65 -148t-165 -59q-101 0 -166 59q-64 58 -64 148v16q0 100 87 155q9 6 0 13q-66 53 -66 134v10q0 83 58 137q58 55 151 55q92 0 150 -55q58 -54 58 -137zM180 515v-9q0 -40 25.5 -67t64.5 -27
q38 0 63.5 27t25.5 67v9q0 45 -24.5 71.5t-64.5 26.5t-65 -26.5t-25 -71.5zM167 222v-19q0 -50 28.5 -80.5t74.5 -30.5q45 0 73.5 30t28.5 81v19q0 47 -28 76t-74 29t-74.5 -29t-28.5 -76z" />
    <glyph glyph-name="nine" unicode="9" horiz-adv-x="532" 
d="M232 268q-90 0 -145 58t-55 152v19q0 95 66 157q67 62 165 62q99 0 160 -61q63 -60 63 -158v-276q0 -100 -70 -166q-71 -65 -177 -65q-76 0 -144 37q-13 6 -7 18l27 66q6 16 20 8q41 -22 95 -22q58 0 95.5 36t37.5 91v84q0 5 -4 6.5t-8 -2.5q-47 -44 -119 -44zM258 363
q48 0 78 32t30 86v13q0 54 -28 86.5t-75 32.5t-77 -33t-30 -86v-13q0 -53 28 -85.5t74 -32.5z" />
    <glyph glyph-name="colon" unicode=":" horiz-adv-x="238" 
d="M69 65q-20 20 -20 49t20 49q21 20 50 20t49 -20t20 -49t-20 -49q-20 -19 -49 -19t-50 19zM69 335q-20 20 -20 49t20 49q21 20 50 20t49 -20t20 -49t-20 -49t-49 -20t-50 20z" />
    <glyph glyph-name="semicolon" unicode=";" horiz-adv-x="238" 
d="M70 335q-20 20 -20 49t20 49q21 20 50 20t49 -20t20 -49t-20 -49t-49 -20t-50 20zM50 114q0 29 20 49t50 20t49.5 -20t19.5 -49q0 -41 -26.5 -86.5t-69.5 -83.5q-13 -12 -27 -7l-11 4q-6 2 -7.5 9t3.5 14q30 42 30 62q0 24 -15 44q-16 20 -16 44z" />
    <glyph glyph-name="less" unicode="&#x3c;" horiz-adv-x="588" 
d="M62 386l459 184q6 2 11.5 -1.5t5.5 -10.5v-59q0 -13 -12 -18l-312 -122q-5 -1 -5 -6t5 -6l312 -122q12 -3 12 -18v-58q0 -7 -5.5 -11t-11.5 -2l-459 184q-12 4 -12 17v32q0 13 12 17z" />
    <glyph glyph-name="equal" unicode="=" horiz-adv-x="573" 
d="M509 397h-444q-15 0 -15 15v59q0 14 15 14h444q5 0 9.5 -4.5t4.5 -9.5v-60q0 -5 -4.5 -9.5t-9.5 -4.5zM509 221h-444q-6 0 -10.5 4.5t-4.5 10.5v59q0 14 15 14h444q5 0 9.5 -4.5t4.5 -9.5v-60q0 -5 -4.5 -9.5t-9.5 -4.5z" />
    <glyph glyph-name="greater" unicode="&#x3e;" horiz-adv-x="588" 
d="M67 570l460 -184q11 -5 11 -17v-32q0 -12 -11 -17l-460 -184q-6 -2 -11.5 2t-5.5 11v58q0 15 13 18l311 122q5 1 5 6t-5 6l-311 122q-13 4 -13 18v59q0 7 5.5 10.5t11.5 1.5z" />
    <glyph glyph-name="question" unicode="?" horiz-adv-x="474" 
d="M229 717q104 0 169 -56q64 -55 64 -146v-4q0 -62 -26.5 -101t-86.5 -73q-39 -24 -56 -48t-17 -57v-5q0 -14 -15 -14h-87q-14 0 -14 15v5q0 63 23 97t75 69q45 28 62 49.5t17 55.5v4q0 41 -28 66t-80 25q-67 0 -114 -39q-12 -8 -21 3l-53 68q-7 12 3 21q86 65 185 65z
M147 65q0 30 20.5 50t50.5 20q29 0 49.5 -20t20.5 -50q0 -29 -20.5 -49t-49.5 -20t-50 20t-21 49z" />
    <glyph glyph-name="at" unicode="@" horiz-adv-x="1137" 
d="M433 269v-44q0 -59 32 -96q32 -35 86 -35q53 0 91 35q13 10 13 27v182q0 18 -13 28q-37 34 -91 34t-86 -35.5t-32 -95.5zM314 222v50q0 105 58 167q58 64 144 64q78 0 137 -56q2 -2 5 -1.5t4 3.5l9 35q5 11 15 11h78q14 0 14 -14v-378q0 -20 12 -29t31 -5q77 17 136 101
q59 85 59 189q0 126 -90 201t-245 75q-103 0 -205.5 -40t-182.5 -108q-77 -66 -125 -158q-47 -92 -47 -189q0 -124 92 -201q94 -77 242 -77q106 0 199 41q15 8 20 -8l10 -25q5 -15 -7 -19q-105 -47 -221 -47q-179 0 -291 88q-112 87 -112 241q0 105 54 209q54 103 141 178
q85 75 201 122q117 47 230 47q181 0 293 -86q112 -85 112 -241q0 -73 -31.5 -143.5t-83.5 -119.5q-49 -48 -106.5 -76t-108.5 -28q-67 0 -89 55q-4 10 -13 2q-58 -60 -138 -60q-90 0 -145 64t-55 166z" />
    <glyph glyph-name="A" unicode="A" horiz-adv-x="662" 
d="M20 18l289 677q5 11 16 11h18q11 0 16 -11l290 -677q2 -7 -2 -12.5t-11 -5.5h-96q-14 0 -20 12l-37 90q-6 14 -21 14h-256q-15 0 -20 -14l-38 -90q-4 -12 -19 -12h-97q-7 0 -11 5.5t-1 12.5zM327 446l-95 -228q-4 -10 7 -10h191q10 0 6 10l-95 228q-2 5 -7 5t-7 -5z" />
    <glyph glyph-name="B" unicode="B" horiz-adv-x="621" 
d="M72 14v678q0 5 4.5 9.5t10.5 4.5h240q83 0 137 -51q55 -49 55 -128v-7q0 -66 -51 -109q-10 -12 3 -19q54 -21 86 -67t32 -103v-8q0 -88 -58 -150q-59 -63 -149 -64h-296q-14 0 -14 14zM349 318h-143q-10 0 -10 -11v-187q0 -10 9 -10h139q52 0 83 27.5t31 74.5v8
q0 44 -28 71t-81 27zM298 596h-92q-10 0 -10 -10v-165q0 -11 10 -11h97q40 2 66 27t26 64v7q0 41 -26 64.5t-71 23.5z" />
    <glyph glyph-name="C" unicode="C" horiz-adv-x="610" 
d="M46 323v58q0 149 93 242t240 93q102 0 185 -56q12 -8 3 -21l-53 -70q-12 -11 -21 -2q-50 35 -114 35q-95 0 -151.5 -60.5t-56.5 -160.5v-58q0 -100 56 -160t152 -60q60 0 113 35q12 11 20 -2l55 -71q11 -12 -3 -21q-80 -54 -185 -54q-149 0 -241 92t-92 241z" />
    <glyph glyph-name="D" unicode="D" horiz-adv-x="694" 
d="M87 706h235q148 0 237 -89t89 -234v-62q0 -153 -94 -237q-93 -84 -232 -84h-236q-5 0 -9.5 4t-4.5 10v678q0 5 4.5 9.5t10.5 4.5zM322 596h-116q-10 0 -10 -10v-466q0 -10 9 -10h117q93 0 147 56.5t54 154.5v62q0 99 -53.5 156t-147.5 57z" />
    <glyph glyph-name="E" unicode="E" horiz-adv-x="584" 
d="M72 14v678q0 5 4.5 9.5t10.5 4.5h442q6 0 10.5 -4.5t4.5 -9.5v-82q0 -14 -15 -14h-323q-10 0 -10 -10v-175q0 -9 10 -9h231q6 0 10.5 -4.5t4.5 -10.5v-72q0 -14 -15 -14h-231q-10 0 -10 -11v-170q0 -10 9 -10h324q6 0 10.5 -4.5t4.5 -9.5v-82q0 -14 -15 -14h-443
q-5 0 -9.5 4t-4.5 10z" />
    <glyph glyph-name="F" unicode="F" horiz-adv-x="567" 
d="M72 14v678q0 5 4.5 9.5t9.5 4.5h444q6 0 10 -4.5t4 -9.5v-82q0 -14 -14 -14h-325q-9 0 -9 -10v-211q0 -10 9 -10h232q6 0 10.5 -4.5t4.5 -9.5v-72q0 -15 -15 -15h-232q-9 0 -9 -10v-240q0 -14 -15 -14h-95q-5 0 -9.5 4t-4.5 10z" />
    <glyph glyph-name="G" unicode="G" horiz-adv-x="694" 
d="M46 323v58q0 149 93 242q95 93 240 93q110 0 190 -59q14 -8 3 -20l-53 -70q-9 -11 -22 -2q-49 37 -118 37q-93 0 -151 -61q-57 -60 -57 -160v-58q0 -100 56 -160t150 -60q68 0 119 33q10 6 10 20v102q0 10 -10 10h-110q-15 0 -15 14v64q0 14 15 14h229q14 0 14 -14v-332
q0 -5 -4 -9.5t-10 -4.5h-12q-11 0 -17 8l-35 38q-6 7 -15 1q-68 -57 -176 -57q-138 0 -227 92q-87 93 -87 241z" />
    <glyph glyph-name="H" unicode="H" horiz-adv-x="718" 
d="M72 14v678q0 5 4.5 9.5t10.5 4.5h94q6 0 10.5 -4.5t4.5 -9.5v-281q0 -9 10 -9h307q10 0 10 9v281q0 14 15 14h94q5 0 9.5 -4.5t4.5 -9.5v-678q0 -6 -4.5 -10t-9.5 -4h-94q-15 0 -15 14v276q0 11 -10 11h-307q-10 0 -10 -11v-276q0 -6 -4.5 -10t-9.5 -4h-95q-15 0 -15 14z
" />
    <glyph glyph-name="I" unicode="I" horiz-adv-x="268" 
d="M72 14v678q0 5 4.5 9.5t9.5 4.5h96q5 0 9.5 -4.5t4.5 -9.5v-678q0 -6 -4.5 -10t-9.5 -4h-96q-5 0 -9.5 4t-4.5 10z" />
    <glyph glyph-name="J" unicode="J" horiz-adv-x="382" 
d="M202 168v524q0 5 4.5 9.5t9.5 4.5h96q5 0 9.5 -4.5t4.5 -9.5v-528q0 -72 -45 -121q-43 -49 -122 -49q-67 0 -119 28q-15 6 -6 21l37 65q6 11 17 5q27 -12 48 -12q30 0 48 18.5t18 48.5z" />
    <glyph glyph-name="K" unicode="K" horiz-adv-x="652" 
d="M72 14v678q0 5 4.5 9.5t9.5 4.5h95q5 0 9.5 -4.5t4.5 -9.5v-293q0 -10 10 -10h5q77 0 135 43q111 82 129 243l2 17q0 14 15 14h98q6 0 10.5 -4.5t3.5 -10.5l-2 -20q-11 -99 -56.5 -181t-117.5 -133q-8 -5 -4 -15l201 -321q4 -6 0 -13.5t-13 -7.5h-108q-9 0 -14 8
l-172 288q-6 10 -16 7q-39 -13 -91 -13h-5q-10 0 -10 -11v-265q0 -6 -4.5 -10t-9.5 -4h-95q-5 0 -9.5 4t-4.5 10z" />
    <glyph glyph-name="L" unicode="L" horiz-adv-x="540" 
d="M72 14v678q0 5 4.5 9.5t10.5 4.5h95q5 0 9.5 -4.5t4.5 -9.5v-572q0 -10 10 -10h297q6 0 10 -4.5t4 -9.5v-82q0 -14 -14 -14h-416q-15 0 -15 14z" />
    <glyph glyph-name="M" unicode="M" horiz-adv-x="809" 
d="M43 16l96 678q1 12 14 12h9q9 0 13 -7l225 -356q1 -3 5 -3t6 3l225 356q3 7 13 7h9q12 0 14 -12l96 -678q1 -7 -3.5 -11.5t-10.5 -4.5h-92q-12 0 -14 12l-54 388q0 5 -6 6.5t-9 -3.5l-162 -250q-4 -7 -12 -7t-11 7l-162 250q-3 5 -8.5 3.5t-6.5 -6.5l-53 -388
q-2 -12 -14 -12h-92q-7 0 -11.5 4.5t-3.5 11.5z" />
    <glyph glyph-name="N" unicode="N" horiz-adv-x="731" 
d="M72 14v678q0 5 4.5 9.5t10.5 4.5h11q8 0 13 -5l412 -431q3 -3 7.5 -1.5t4.5 6.5v417q0 5 4 9.5t10 4.5h94q15 0 15 -14v-678q0 -14 -15 -14h-12q-9 0 -16 7l-407 431q-3 3 -7.5 1.5t-4.5 -6.5v-419q0 -14 -14 -14h-95q-15 0 -15 14z" />
    <glyph glyph-name="O" unicode="O" horiz-adv-x="746" 
d="M46 324v59q0 149 90 241q92 92 237 92q146 0 236 -92q91 -91 91 -241v-59q0 -151 -90 -242q-90 -92 -237 -92t-237 92q-90 91 -90 242zM171 383v-59q0 -104 54 -162.5t148 -58.5q93 0 147 58.5t54 162.5v59q0 102 -54 160.5t-147 58.5q-94 0 -148 -58.5t-54 -160.5z" />
    <glyph glyph-name="P" unicode="P" horiz-adv-x="624" 
d="M72 14v678q0 5 4.5 9.5t10.5 4.5h299q88 0 147 -62q60 -62 60 -153v-8q0 -97 -63 -158q-61 -61 -148 -61h-177q-10 0 -10 -10v-240q0 -14 -14 -14h-95q-14 0 -14 14zM338 596h-133q-10 0 -10 -11v-210q0 -11 10 -11h138q52 0 82.5 30.5t30.5 81.5v7q0 53 -31 83t-87 30z
" />
    <glyph glyph-name="Q" unicode="Q" horiz-adv-x="746" 
d="M46 324v59q0 149 90 241q92 92 237 92q146 0 236 -92q91 -91 91 -241v-59q0 -126 -64 -211q-63 -86 -172 -111q-11 -3 -8 -15q18 -53 58 -85.5t99 -36.5q13 0 13 -15v-81q0 -15 -14 -15q-103 2 -177 62q-73 62 -99 162q-5 14 -20 17q-123 16 -197 105q-73 88 -73 224z
M171 383v-59q0 -104 54 -162.5t148 -58.5q93 0 147 58.5t54 162.5v59q0 102 -54 160.5t-147 58.5q-94 0 -148 -58.5t-54 -160.5z" />
    <glyph glyph-name="R" unicode="R" horiz-adv-x="644" 
d="M72 14v678q0 5 4.5 9.5t10.5 4.5h295q88 0 148 -62t60 -153v-8q0 -76 -43 -128q-44 -53 -105 -74q-11 -3 -8 -13q17 -75 63.5 -118.5t115.5 -47.5q13 -1 13 -15v-79q0 -15 -14 -15q-118 2 -196 71t-101 193q-2 11 -13 11h-96q-10 0 -10 -11v-243q0 -6 -4.5 -10t-9.5 -4
h-95q-15 0 -15 14zM196 585v-211q0 -11 10 -11h138q52 0 82.5 30.5t30.5 82.5v7q0 53 -31 83t-86 30h-134q-10 0 -10 -11z" />
    <glyph glyph-name="S" unicode="S" horiz-adv-x="572" 
d="M302 716q99 0 181 -63q11 -9 3 -20l-55 -72q-11 -14 -21 -2q-50 39 -108 39q-49 0 -77.5 -22t-28.5 -58v-3q0 -40 32 -61q33 -21 115 -40q105 -24 154 -71t49 -130v-4q0 -97 -70 -158t-192 -61q-61 0 -123 21.5t-106 55.5q-13 9 -3 21l56 74q8 10 20 1q29 -23 72.5 -40
t83.5 -17q65 0 99.5 26t34.5 72v4q0 37 -25 62q-10 10 -34 19q-25 11 -43 15l-57 15q-65 16 -104 36q-79 41 -84 158v4q0 89 64 144t167 55z" />
    <glyph glyph-name="T" unicode="T" horiz-adv-x="563" 
d="M16 610v82q0 14 15 14h501q5 0 9.5 -4.5t4.5 -9.5v-82q0 -6 -4.5 -10t-9.5 -4h-179q-10 0 -10 -11v-571q0 -14 -15 -14h-94q-14 0 -14 14v571q0 4 -3.5 7.5t-7.5 3.5h-178q-15 0 -15 14z" />
    <glyph glyph-name="U" unicode="U" horiz-adv-x="701" 
d="M67 278v414q0 5 4.5 9.5t10.5 4.5h94q6 0 10 -4.5t4 -9.5v-414q0 -85 41 -130t119 -45q79 0 120 45t41 130v414q0 5 4 9.5t10 4.5h95q6 0 10 -4.5t4 -9.5v-414q0 -132 -77 -211q-77 -77 -207 -77t-207 77q-76 77 -76 211z" />
    <glyph glyph-name="V" unicode="V" horiz-adv-x="655" 
d="M286 11l-270 677q-3 6 1 12t11 6h98q15 0 19 -13l180 -474q2 -5 6 -5t6 5l180 474q4 13 18 13h99q6 0 10 -5.5t1 -12.5l-269 -677q-5 -11 -17 -11h-57q-11 0 -16 11z" />
    <glyph glyph-name="W" unicode="W" horiz-adv-x="962" 
d="M239 13l-222 676q-2 6 1.5 11.5t10.5 5.5h98q15 0 19 -15l145 -469q2 -5 6.5 -5.5t7.5 4.5l166 381q5 9 12 9h3q6 0 11 -9l166 -381q8 -10 14 1l144 469q5 15 19 15h98q6 0 10 -5.5t2 -11.5l-222 -676q-4 -13 -18 -13h-49q-13 0 -18 11l-153 348q-1 4 -7 4q-5 0 -6 -4
l-154 -348q-5 -11 -17 -11h-49q-14 0 -18 13z" />
    <glyph glyph-name="X" unicode="X" horiz-adv-x="693" 
d="M270 386l-209 300q-5 6 -1 13t12 7h112q11 0 17 -9l140 -206q5 -5 9 -5q5 0 8 5l140 206q6 9 17 9h112q9 0 12.5 -7t-0.5 -13l-210 -300q-10 -13 0 -25l238 -341q5 -6 1 -13t-12 -7h-114q-11 0 -17 9l-167 247q-3 4 -8 4q-6 0 -9 -4l-167 -247q-6 -9 -17 -9h-114
q-8 0 -11.5 7t0.5 13l238 341q10 12 0 25z" />
    <glyph glyph-name="Y" unicode="Y" horiz-adv-x="661" 
d="M273 18v197q0 11 -6 21l-248 450q-4 7 0 13.5t12 6.5h104q13 0 18 -11l175 -332q2 -3 6 -3h1q3 0 6 3l175 332q5 11 17 11h105q8 0 11.5 -6.5t-0.5 -13.5l-248 -450q-5 -10 -5 -21v-197q0 -18 -18 -18h-87q-7 0 -12.5 5t-5.5 13z" />
    <glyph glyph-name="Z" unicode="Z" horiz-adv-x="600" 
d="M71 610v82q0 5 4 9.5t10 4.5h463q15 0 15 -14v-6q0 -6 -4 -13l-337 -547q-3 -5 -0.5 -10.5t8.5 -5.5h313q15 0 15 -14v-82q0 -14 -15 -14h-500q-5 0 -9.5 4t-4.5 10v9q0 8 5 15l333 542q3 5 0 10.5t-9 5.5h-273q-14 0 -14 14z" />
    <glyph glyph-name="bracketleft" unicode="[" horiz-adv-x="340" 
d="M90 -141v989q0 14 15 14h180q6 0 10.5 -4.5t4.5 -9.5v-78q0 -6 -4.5 -10.5t-10.5 -4.5h-66q-10 0 -10 -10v-784q0 -10 10 -10h66q6 0 10.5 -4.5t4.5 -9.5v-78q0 -15 -15 -15h-180q-6 0 -10.5 4.5t-4.5 10.5z" />
    <glyph glyph-name="backslash" unicode="\" horiz-adv-x="502" 
d="M34 862h80q16 0 20 -13l354 -986q3 -8 -1 -13.5t-13 -5.5h-80q-13 0 -20 13l-354 986q-3 7 1 13t13 6z" />
    <glyph glyph-name="bracketright" unicode="]" horiz-adv-x="340" 
d="M40 770v78q0 5 4.5 9.5t10.5 4.5h179q15 0 15 -14v-989q0 -15 -15 -15h-179q-15 0 -15 15v78q0 5 4.5 9.5t10.5 4.5h65q11 0 11 10v784q0 10 -11 10h-65q-6 0 -10.5 4.5t-4.5 10.5z" />
    <glyph glyph-name="asciicircum" unicode="^" horiz-adv-x="508" 
d="M35 73l189 404q4 12 17 12h32q13 0 17 -12l189 -404q2 -6 -1.5 -11.5t-10.5 -5.5h-58q-11 0 -19 12l-126 281q-7 12 -14 0l-126 -281q-8 -12 -18 -12h-58q-8 0 -12 5.5t-1 11.5z" />
    <glyph glyph-name="underscore" unicode="_" horiz-adv-x="600" 
d="M0 -120h600q6 0 11 -4.5t5 -9.5v-64q0 -5 -5 -9.5t-11 -4.5h-600q-6 0 -10 4.5t-4 9.5v64q0 5 4 9.5t10 4.5z" />
    <glyph glyph-name="grave" unicode="`" horiz-adv-x="200" 
d="M-6 671l57 33q15 8 25 -2l132 -106q6 -5 5.5 -12t-6.5 -11l-41 -24q-11 -6 -23 1l-149 97q-7 4 -7 11.5t7 12.5z" />
    <glyph glyph-name="a" unicode="a" 
d="M34 222v50q0 103 59 167q58 64 144 64q77 0 136 -56q2 -2 5.5 -1.5t4.5 3.5l8 35q3 11 16 11h78q5 0 9.5 -4t4.5 -10v-467q0 -6 -4.5 -10t-9.5 -4h-95q-14 0 -14 14v28q0 4 -4 5.5t-7 -1.5q-57 -54 -131 -54q-90 0 -145 64t-55 166zM154 269v-44q0 -60 31.5 -95.5
t85.5 -35.5q51 0 92 35q13 10 13 27v182q0 18 -13 28q-38 34 -92 34t-85.5 -35.5t-31.5 -95.5z" />
    <glyph glyph-name="b" unicode="b" 
d="M55 14v678q0 14 14 14h94q14 0 14 -14v-232q0 -4 3.5 -6t7.5 1q50 48 124 48q83 0 145 -65t62 -166v-50q0 -108 -60 -169t-146 -61q-76 0 -132 56q-2 2 -4.5 2.5t-4.5 -1t-2 -4.5l-8 -36q-2 -9 -13 -9h-80q-14 0 -14 14zM282 400q-54 0 -92 -35q-13 -10 -13 -27v-182
q0 -17 13 -27q41 -35 92 -35q54 0 85.5 35.5t31.5 95.5v44q0 60 -31.5 95.5t-85.5 35.5z" />
    <glyph glyph-name="c" unicode="c" horiz-adv-x="446" 
d="M34 220v55q0 95 71 163t175 68q75 0 137 -38q13 -8 5 -20l-38 -63q-8 -12 -19 -5q-38 23 -85 23q-54 0 -89.5 -37t-35.5 -92v-52q0 -55 35.5 -92.5t89.5 -37.5q44 0 84 23q13 6 19 -6l36 -63q7 -14 -6 -21q-60 -36 -133 -36q-105 0 -175 67q-71 68 -71 164z" />
    <glyph glyph-name="d" unicode="d" 
d="M34 222v50q0 103 59 167q58 64 144 64q75 0 128 -49q3 -3 7 -1.5t4 6.5v233q0 14 14 14h95q5 0 9.5 -4t4.5 -10v-678q0 -6 -4.5 -10t-9.5 -4h-81q-12 0 -13 9l-9 38q-1 3 -4 4t-6 -2q-54 -57 -137 -57q-90 0 -145 64q-56 65 -56 166zM154 269v-44q0 -60 31.5 -95.5
t85.5 -35.5q51 0 92 35q13 10 13 27v182q0 18 -13 28q-37 34 -92 34q-54 0 -85.5 -35.5t-31.5 -95.5z" />
    <glyph glyph-name="e" unicode="e" horiz-adv-x="531" 
d="M34 221v53q0 102 65 167t168 65q101 0 165 -64t64 -168v-47q0 -15 -15 -15h-317q-9 0 -9 -10q5 -52 40.5 -82t90.5 -30q49 0 86 31q8 9 19 1l66 -51q13 -11 -1 -22q-68 -60 -170 -60q-108 0 -180 66t-72 166zM268 405q-99 0 -112 -103q-2 -11 10 -11h198q12 0 10 11
q-12 103 -106 103z" />
    <glyph glyph-name="f" unicode="f" horiz-adv-x="340" 
d="M87 506v72q0 135 152 135q67 0 122 -31q15 -8 6 -21l-32 -58q-6 -13 -20 -5q-26 15 -52 15q-24 0 -38.5 -12.5t-14.5 -35.5v-59q0 -11 10 -11h107q5 0 9.5 -4t4.5 -10v-50q0 -6 -4.5 -10.5t-9.5 -4.5h-107q-10 0 -10 -10v-392q0 -14 -15 -14h-94q-5 0 -9.5 4t-4.5 10v392
q0 10 -11 10h-51q-6 0 -10.5 4.5t-4.5 10.5v50q0 14 15 14h51q11 0 11 11z" />
    <glyph glyph-name="g" unicode="g" 
d="M34 222v50q0 103 59 167q58 64 144 64q77 0 136 -56q3 -3 6 -2t4 4l8 35q3 11 16 11h78q5 0 9.5 -4t4.5 -10v-497q0 -102 -68 -162q-67 -61 -178 -61q-87 0 -145 39q-13 5 -5 20l34 56q7 13 20 5q35 -21 88 -21q63 0 97 33.5t34 93.5v60q0 4 -3.5 5.5t-7.5 -1.5
q-56 -59 -131 -59q-90 0 -145 64t-55 166zM154 269v-44q0 -60 31.5 -95.5t85.5 -35.5q51 0 92 35q13 10 13 27v182q0 18 -13 28q-37 34 -92 34q-54 0 -85.5 -35.5t-31.5 -95.5z" />
    <glyph glyph-name="h" unicode="h" horiz-adv-x="542" 
d="M55 14v678q0 14 14 14h94q14 0 14 -14v-236q0 -5 4 -6.5t8 2.5q46 51 130 51q82 0 127.5 -51t45.5 -143v-295q0 -14 -14 -14h-94q-15 0 -15 14v289q0 93 -88 93q-50 0 -90 -34q-14 -11 -14 -29v-319q0 -14 -14 -14h-94q-14 0 -14 14z" />
    <glyph glyph-name="i" unicode="i" horiz-adv-x="232" 
d="M55 14v467q0 14 14 14h94q14 0 14 -14v-467q0 -14 -14 -14h-94q-14 0 -14 14zM70 583q-18 18 -18 45t19 45q19 19 45 19t45 -19q19 -18 19 -45t-19 -45q-18 -18 -45 -18t-46 18z" />
    <glyph glyph-name="j" unicode="j" horiz-adv-x="232" 
d="M63 -52v533q0 14 14 14h94q14 0 14 -14v-533q0 -73 -45 -121q-43 -49 -121 -49q-68 0 -119 27q-14 7 -7 20l34 61q7 12 18 6q23 -12 51 -12q32 0 49.5 18.5t17.5 49.5zM78 583q-18 18 -18 45t19 45q19 19 45 19t45 -19q19 -18 19 -45t-19 -45q-18 -18 -45 -18t-46 18z
" />
    <glyph glyph-name="k" unicode="k" horiz-adv-x="513" 
d="M55 14v678q0 14 14 14h94q14 0 14 -14v-390q0 -12 12 -10q66 10 107.5 57t48.5 117l1 16q1 13 14 13h98q6 0 10.5 -4t3.5 -11l-3 -20q-18 -128 -115 -200q-8 -6 -2 -13l145 -225q5 -7 0.5 -14.5t-13.5 -7.5h-105q-10 0 -13 8l-113 193q-5 9 -15 6q-24 -8 -52 -9
q-9 0 -9 -10v-174q0 -14 -14 -14h-94q-14 0 -14 14z" />
    <glyph glyph-name="l" unicode="l" horiz-adv-x="232" 
d="M55 14v678q0 14 14 14h94q14 0 14 -14v-678q0 -14 -14 -14h-94q-14 0 -14 14z" />
    <glyph glyph-name="m" unicode="m" horiz-adv-x="846" 
d="M55 14v467q0 14 14 14h80q11 0 13 -9l8 -36q1 -3 4.5 -4t7.5 2q49 55 131 55q105 0 146 -81q7 -10 12 0q53 81 154 81q81 0 126 -51.5t45 -143.5v-294q0 -14 -14 -14h-95q-14 0 -14 14v289q0 93 -87 93q-59 0 -89 -44q-13 -13 -13 -29v-309q0 -14 -14 -14h-94
q-5 0 -9.5 4t-4.5 10v289q0 93 -87 93q-49 0 -84 -31q-14 -9 -14 -28v-323q0 -14 -14 -14h-94q-14 0 -14 14z" />
    <glyph glyph-name="n" unicode="n" horiz-adv-x="542" 
d="M55 14v467q0 14 14 14h80q11 0 13 -9l8 -39q1 -4 5 -5t7 3q55 58 139 58q81 0 126 -51t45 -143v-295q0 -14 -15 -14h-94q-5 0 -9.5 4t-4.5 10v289q0 93 -88 93q-52 0 -90 -34q-14 -12 -14 -29v-319q0 -14 -14 -14h-94q-14 0 -14 14z" />
    <glyph glyph-name="o" unicode="o" horiz-adv-x="559" 
d="M34 220v55q0 99 70 165t175 66t175 -66q70 -64 70 -165v-55q0 -100 -70 -166q-71 -65 -175 -65q-105 0 -175 66t-70 165zM154 274v-53q0 -58 34.5 -94.5t90.5 -36.5t90.5 36t34.5 95v53q0 59 -34.5 95t-90.5 36t-90.5 -36.5t-34.5 -94.5z" />
    <glyph glyph-name="p" unicode="p" 
d="M55 -198v679q0 14 14 14h80q11 0 12 -9l8 -34q1 -3 4.5 -4t7.5 2q55 53 131 53q83 0 145 -65t62 -166v-50q0 -108 -60 -169t-146 -61q-72 0 -125 47q-4 3 -7.5 1.5t-3.5 -5.5v-233q0 -14 -14 -14h-94q-14 0 -14 14zM282 400q-54 0 -92 -35q-13 -10 -13 -27v-182
q0 -17 13 -27q41 -35 92 -35q54 0 85.5 35.5t31.5 95.5v44q0 60 -31.5 95.5t-85.5 35.5z" />
    <glyph glyph-name="q" unicode="q" 
d="M34 222v50q0 103 59 167q58 64 144 64q83 0 136 -56q2 -2 5.5 -2t4.5 4l8 35q3 11 16 11h77q15 0 15 -14v-679q0 -14 -15 -14h-94q-14 0 -14 14v240q0 4 -4 5.5t-7 -1.5q-54 -54 -131 -54q-90 0 -145 64t-55 166zM154 269v-44q0 -60 31.5 -95.5t85.5 -35.5q51 0 92 35
q13 10 13 27v182q0 18 -13 28q-37 34 -92 34q-54 0 -85.5 -35.5t-31.5 -95.5z" />
    <glyph glyph-name="r" unicode="r" horiz-adv-x="396" 
d="M55 14v467q0 14 14 14h80q11 0 13 -9l8 -32q1 -3 4.5 -4t6.5 2q45 50 118 50q49 0 91 -27q10 -9 4 -20l-42 -66q-7 -11 -20 -4q-23 13 -51 13q-53 0 -91 -35q-13 -10 -13 -31v-318q0 -14 -14 -14h-94q-14 0 -14 14z" />
    <glyph glyph-name="s" unicode="s" horiz-adv-x="421" 
d="M361 456q10 -7 2 -20l-44 -58q-9 -11 -21 -2q-37 26 -69 26q-25 0 -41 -13t-16 -32v-4q0 -23 18.5 -35t66.5 -22q78 -16 115 -47t37 -96v-4q0 -67 -50 -114q-49 -46 -138 -46q-98 0 -174 58q-11 9 -2 20l46 60q8 11 20 3q51 -39 105 -39q36 0 54.5 15t18.5 39v3
q0 26 -18.5 38t-68.5 24q-77 16 -114 48t-37 95v4q0 64 49 106q50 42 124 42q75 0 137 -49z" />
    <glyph glyph-name="t" unicode="t" horiz-adv-x="360" 
d="M78 505v114q0 6 4.5 10.5t10.5 4.5h94q14 0 14 -15v-114q0 -10 11 -10h106q14 0 14 -14v-50q0 -15 -14 -15h-106q-11 0 -11 -10v-266q0 -21 15 -33.5t37 -12.5q27 0 51 15q5 3 11.5 1t8.5 -7l35 -59q9 -15 -6 -21q-58 -31 -123 -31q-74 0 -113 34t-39 99v281q0 10 -10 10
h-52q-14 0 -14 15v50q0 14 14 14h52q10 0 10 10z" />
    <glyph glyph-name="u" unicode="u" horiz-adv-x="536" 
d="M50 188v293q0 14 14 14h94q15 0 15 -14v-290q0 -93 86 -93q47 0 85 34q14 11 14 28v321q0 6 4.5 10t9.5 4h94q15 0 15 -14v-467q0 -14 -15 -14h-79q-10 0 -13 9l-9 38q-5 7 -10 2q-53 -57 -136 -57q-80 0 -124.5 51t-44.5 145z" />
    <glyph glyph-name="v" unicode="v" horiz-adv-x="528" 
d="M205 11l-191 467q-2 6 1.5 11.5t10.5 5.5h92q15 0 18 -13l124 -329q2 -5 6 -5t6 5l124 329q3 13 18 13h92q7 0 10.5 -5.5t1.5 -11.5l-191 -467q-5 -12 -17 -12h-88q-14 0 -17 12z" />
    <glyph glyph-name="w" unicode="w" horiz-adv-x="750" 
d="M160 13l-139 466q-2 16 12 16h93q14 0 19 -14l88 -324q0 -3 1.5 -4.5t3.5 -1.5t4 1t3 4l111 279q5 11 17 11h6q12 0 17 -11l111 -279q2 -5 6.5 -4.5t6.5 5.5l87 324q5 14 18 14h94q14 0 12 -16l-139 -466q-4 -13 -18 -13h-92q-12 0 -17 12l-82 201q-2 5 -7 5t-7 -5
l-82 -201q-5 -12 -17 -12h-93q-13 0 -17 13z" />
    <glyph glyph-name="x" unicode="x" horiz-adv-x="524" 
d="M196 266l-164 211q-5 5 -1.5 11.5t10.5 6.5h101q12 0 18 -9l98 -130q7 -7 14 0l98 130q6 9 18 9h101q7 0 10.5 -6.5t-1.5 -11.5l-164 -211q-4 -4 0 -12l180 -236q4 -5 1 -11.5t-10 -6.5h-102q-12 0 -18 9l-113 152q-2 3 -7 3t-7 -3l-113 -152q-6 -9 -18 -9h-102
q-7 0 -10 6.5t1 11.5l180 236q4 8 0 12z" />
    <glyph glyph-name="y" unicode="y" horiz-adv-x="533" 
d="M210 40l-195 437q-3 6 0.5 12t10.5 6h93q13 0 17 -12l129 -308q2 -5 6 -5t6 5l129 308q6 12 18 12h89q7 0 10.5 -5t0.5 -12l-294 -678q-4 -12 -18 -12h-83q-7 0 -10.5 6t-1.5 12l93 217q5 9 0 17z" />
    <glyph glyph-name="z" unicode="z" horiz-adv-x="466" 
d="M52 420v61q0 14 14 14h366q14 0 14 -14v-4q0 -7 -4 -14l-243 -358q-3 -5 0 -10.5t9 -5.5h217q14 0 14 -14v-61q0 -14 -14 -14h-391q-15 0 -15 14v3q0 7 5 15l242 357q4 5 1 11t-10 6h-191q-6 0 -10 4.5t-4 9.5z" />
    <glyph glyph-name="braceleft" unicode="{" horiz-adv-x="328" 
d="M129 477v256q0 94 80 138q6 3 13 0l63 -29q17 -9 4 -22q-41 -39 -41 -106v-237q0 -70 -52 -116q-3 -3 -3 -8t4 -7q51 -51 51 -117v-237q0 -68 41 -106q5 -4 4 -11.5t-8 -10.5l-59 -28q-9 -6 -17 0q-80 44 -80 137v256q0 64 -53 114q-10 11 0 21q53 47 53 113z" />
    <glyph glyph-name="bar" unicode="|" horiz-adv-x="306" 
d="M123 -141v989q0 5 4 9.5t10 4.5h33q6 0 10.5 -4.5t4.5 -9.5v-989q0 -15 -15 -15h-33q-14 0 -14 15z" />
    <glyph glyph-name="braceright" unicode="}" horiz-adv-x="328" 
d="M100 477v237q0 67 -41 106q-5 4 -4 11.5t8 10.5l60 28q8 5 16 0q80 -44 80 -137v-256q0 -64 53 -114q10 -11 0 -21q-53 -47 -53 -113v-256q0 -94 -80 -138q-7 -4 -13 0l-63 29q-17 9 -4 22q41 38 41 105v238q0 67 52 116q8 8 -1 15q-51 51 -51 117z" />
    <glyph glyph-name="asciitilde" unicode="~" horiz-adv-x="535" 
d="M181 334q28 0 49 -7q20 -5 34 -11q5 -2 33 -19q46 -26 80 -26q47 0 86 39q7 6 17 5t15 -9l16 -24q9 -14 -2 -28q-65 -65 -141 -65q-39 0 -69 13l-17 7q-19 15 -30 18q-43 25 -79 25q-44 0 -83 -36q-5 -5 -15.5 -3.5t-14.5 8.5l-16 23q-10 16 2 28q57 62 135 62z" />
    <glyph glyph-name="exclamdown" unicode="&#xa1;" horiz-adv-x="283" 
d="M203 267v-464q0 -15 -14 -15h-94q-15 0 -15 15v464q0 14 15 14h93q15 0 15 -14zM212 431q0 -30 -20.5 -50t-50.5 -20q-29 0 -49.5 20t-20.5 50q0 29 20.5 49t49.5 20t50 -20t21 -49z" />
    <glyph glyph-name="cent" unicode="&#xa2;" horiz-adv-x="452" 
d="M34 220v55q0 89 61 153q61 65 156 76v77q0 5 4 9.5t10 4.5h33q6 0 10.5 -4.5t4.5 -9.5v-77q57 -7 104 -36q13 -8 5 -20l-38 -63q-8 -12 -19 -5q-38 23 -85 23q-54 0 -89.5 -37t-35.5 -92v-52q0 -55 35.5 -92.5t89.5 -37.5q44 0 84 23q13 6 19 -6l36 -63q7 -14 -6 -21
q-46 -28 -100 -34v-85q0 -15 -15 -15h-33q-14 0 -14 15v85q-94 9 -156 74q-61 65 -61 155z" />
    <glyph glyph-name="sterling" unicode="&#xa3;" horiz-adv-x="540" 
d="M309 715q81 0 149 -36q13 -6 7 -18l-27 -67q-6 -15 -20 -7q-40 22 -91 22q-57 0 -90 -35t-29 -92l7 -79q0 -10 10 -10h77q15 0 15 -15v-54q0 -14 -15 -14h-68q-12 0 -10 -12l5 -60q6 -63 -29 -113q-2 -5 0.5 -10t8.5 -5h280q14 0 14 -15v-81q0 -14 -14 -14h-422
q-14 0 -14 14v58q0 10 7 18q56 52 48 135l-7 75q0 10 -10 10h-52q-15 0 -15 14v54q0 15 15 15h43q12 0 10 11l-8 81q-8 101 54 165q63 65 171 65z" />
    <glyph glyph-name="yen" unicode="&#xa5;" horiz-adv-x="655" 
d="M270 18v92h-140q-6 0 -10.5 5t-4.5 10v31q0 5 4.5 9.5t10.5 4.5h140v45q0 11 -6 21l-7 13h-127q-6 0 -10.5 4.5t-4.5 10.5v30q0 6 4.5 10.5t10.5 4.5h94l-208 377q-4 7 0 13.5t12 6.5h104q13 0 18 -11l175 -332q1 -3 6 -3h1q3 0 6 3l175 332q5 11 17 11h105
q8 0 11.5 -6.5t-0.5 -13.5l-208 -377h94q14 0 14 -15v-31q0 -14 -14 -14h-127l-7 -13q-5 -10 -5 -21v-45h139q6 0 10 -4.5t4 -9.5v-31q0 -15 -14 -15h-139v-92q0 -8 -5.5 -13t-12.5 -5h-87q-18 0 -18 18z" />
    <glyph glyph-name="brokenbar" unicode="&#xa6;" horiz-adv-x="306" 
d="M137 862h33q6 0 10.5 -4.5t4.5 -9.5v-429q0 -15 -15 -15h-33q-14 0 -14 15v429q0 5 4 9.5t10 4.5zM137 302h33q6 0 10.5 -4.5t4.5 -9.5v-429q0 -15 -15 -15h-33q-14 0 -14 15v429q0 5 4 9.5t10 4.5z" />
    <glyph glyph-name="section" unicode="&#xa7;" horiz-adv-x="588" 
d="M312 717q94 0 174 -60q11 -9 2 -19l-52 -68q-10 -12 -20 -2q-47 37 -104 37q-48 0 -75 -19.5t-27 -52.5v-3q0 -35 29 -53q31 -17 113 -38q98 -25 139.5 -60t41.5 -102v-4q0 -76 -66 -115q-7 -6 0 -12q66 -42 66 -121v-4q0 -90 -66 -145q-65 -56 -176 -56q-119 0 -216 73
q-11 9 -3 20l53 70q9 11 19 1q68 -53 147 -53q121 0 121 85v4q0 38 -33 54q-18 10 -39 15q-15 5 -25 6q-5 2 -16 4.5t-25 6t-19 4.5q-101 26 -140 59q-40 34 -40 108v4q0 80 68 119q6 6 0 10q-51 40 -51 118v4q0 84 60 134q61 51 160 51zM311 345l-75 22q-13 3 -19 -7
q-24 -24 -24 -58v-3q0 -43 23 -63q23 -19 87 -35l68 -18q14 -3 20 7q24 27 24 60v2q0 42 -22 58q-22 19 -82 35z" />
    <glyph glyph-name="dieresis" unicode="&#xa8;" horiz-adv-x="200" 
d="M5 680q22 0 37.5 -16t15.5 -38t-15.5 -38t-37.5 -16q-23 0 -38.5 16t-15.5 38t15.5 38t38.5 16zM195 680q22 0 37.5 -16t15.5 -38t-15.5 -38t-37.5 -16q-23 0 -38.5 16t-15.5 38t15.5 38t38.5 16z" />
    <glyph glyph-name="copyright" unicode="&#xa9;" horiz-adv-x="756" 
d="M379 673q137 0 227 -90t90 -229t-90 -229q-91 -89 -227 -89q-137 0 -229 89q-90 90 -90 229q0 141 90 229q91 90 229 90zM379 641q-123 0 -206 -81q-81 -80 -81 -206t81 -206q82 -80 206 -80q122 0 204 80q81 80 81 206t-81 206q-81 81 -204 81zM165 335v39q0 96 62 156
q61 61 160 61q75 0 134 -42q8 -6 2 -14l-35 -46q-10 -9 -17 -2q-34 28 -84 28q-63 0 -99 -38.5t-36 -102.5v-39q0 -64 36 -102t99 -38q49 0 83 27q8 6 16 -2l37 -47q6 -8 -2 -14q-55 -40 -134 -40q-99 0 -161 59q-61 60 -61 157z" />
    <glyph glyph-name="ordfeminine" unicode="&#xaa;" horiz-adv-x="468" 
d="M46 488v40q0 84 47 134q47 51 115 51q62 0 109 -44q5 -3 7 2l7 27q3 9 13 9h63q11 0 11 -12v-373q0 -13 -11 -13h-75q-13 0 -13 13v21q0 9 -8 3q-45 -42 -105 -42q-71 0 -116 51q-44 52 -44 133zM143 526v-35q0 -48 25 -76t68 -28q45 0 72 27q11 8 11 21v146q0 13 -11 21
q-29 28 -72 28t-68 -28t-25 -76z" />
    <glyph glyph-name="guillemotleft" unicode="&#xab;" horiz-adv-x="433" 
d="M40 250q0 5 3 10l111 155q5 8 14 8h46q6 0 8 -4.5t-1 -8.5l-93 -153q-5 -7 0 -14l93 -153q3 -4 1 -8.5t-8 -4.5h-46q-9 0 -14 8l-111 155q-3 4 -3 10zM210 250q0 5 3 10l111 155q5 8 14 8h46q6 0 8 -4.5t-1 -8.5l-93 -153q-5 -7 0 -14l93 -153q3 -4 1 -8.5t-8 -4.5h-46
q-9 0 -14 8l-111 155q-3 4 -3 10z" />
    <glyph glyph-name="logicalnot" unicode="&#xac;" horiz-adv-x="573" 
d="M50 411v60q0 14 15 14h443q6 0 10.5 -4.5t4.5 -9.5v-236q0 -5 -4.5 -9.5t-10.5 -4.5h-65q-6 0 -10 4.5t-4 9.5v152q0 10 -11 10h-353q-15 0 -15 14z" />
    <glyph glyph-name="registered" unicode="&#xae;" horiz-adv-x="509" 
d="M255 723q92 0 153 -61q61 -60 61 -154t-61 -155q-62 -60 -153 -60q-93 0 -154 60q-61 61 -61 155t61 154q61 61 154 61zM255 693q-81 0 -133 -52t-52 -133t52 -133t133 -52q79 0 131 52q53 53 53 133t-53 133q-52 52 -131 52zM158 384v255q0 8 8 8h111q35 0 58.5 -24
t23.5 -60v-3q0 -54 -51 -76q-6 -1 -4 -9q13 -52 64 -55q7 -1 7 -9v-30q0 -8 -8 -8q-44 0 -74.5 26t-39.5 71q-1 7 -7 7h-29q-6 0 -6 -7v-86q0 -8 -9 -8h-36q-8 0 -8 8zM211 593v-69q0 -5 6 -5h46q18 0 29 10.5t11 28.5v3q0 18 -11 28.5t-30 10.5h-45q-6 0 -6 -7z" />
    <glyph glyph-name="overscore" unicode="&#xaf;" horiz-adv-x="400" 
d="M71 658h260q14 0 14 -15v-48q0 -6 -4.5 -10.5t-9.5 -4.5h-260q-15 0 -15 15v48q0 15 15 15z" />
    <glyph glyph-name="degree" unicode="&#xb0;" horiz-adv-x="253" 
d="M238 607q0 -47 -32 -77t-80 -30t-79.5 30t-31.5 77q0 48 31.5 78t79.5 30t80 -30t32 -78zM126 551q26 0 40.5 15t14.5 41q0 27 -14.5 42t-40.5 15q-25 0 -40 -15t-15 -42q0 -26 15 -41t40 -15z" />
    <glyph glyph-name="plusminus" unicode="&#xb1;" horiz-adv-x="573" 
d="M243 497v136q0 6 4.5 10.5t9.5 4.5h60q5 0 9.5 -4.5t4.5 -10.5v-136q0 -10 11 -10h167q5 0 9.5 -4.5t4.5 -10.5v-59q0 -6 -4.5 -10t-9.5 -4h-167q-11 0 -11 -10v-136q0 -6 -4.5 -10t-9.5 -4h-60q-5 0 -9.5 4t-4.5 10v136q0 10 -11 10h-167q-15 0 -15 15v58q0 15 15 15
h167q11 0 11 10zM50 121v60q0 5 4 9.5t10 4.5h444q6 0 10.5 -4.5t4.5 -9.5v-59q0 -5 -4.5 -10t-10.5 -5h-444q-6 0 -10 4.5t-4 9.5z" />
    <glyph glyph-name="twosuperior" unicode="&#xb2;" horiz-adv-x="357" 
d="M165 862q73 0 115 -38.5t42 -103.5v-11q0 -50 -62 -124l-88 -102q-4 -5 -2 -10.5t9 -5.5h119q14 0 14 -15v-54q0 -15 -14 -15h-248q-15 0 -15 15v37q0 10 7 17l149 178q38 44 38 75v10q0 29 -19.5 47t-51.5 18q-35 0 -67 -17q-16 -8 -20 7l-19 45q-4 12 6 18
q53 29 107 29z" />
    <glyph glyph-name="threesuperior" unicode="&#xb3;" horiz-adv-x="347" 
d="M146 377q-48 0 -98 26q-10 7 -6 18l19 47q6 12 20 7q29 -15 60 -15q36 0 59 21.5t23 54.5v7q0 34 -20.5 54t-55.5 20q-25 0 -46 -7q-10 -3 -16 6l-9 13q-8 7 2 17l95 110q4 4 1.5 10.5t-9.5 6.5h-97q-5 0 -9.5 4t-4.5 10v55q0 5 4.5 9.5t9.5 4.5h222q6 0 10.5 -4.5
t4.5 -9.5v-41q0 -9 -7 -16l-94 -102q51 -7 82 -44.5t31 -93.5v-12q0 -67 -49 -112q-50 -44 -122 -44z" />
    <glyph glyph-name="acute" unicode="&#xb4;" horiz-adv-x="400" 
d="M93 596l132 106q9 9 24 2l57 -33q7 -4 7.5 -12t-6.5 -12l-149 -97q-10 -6 -24 -1l-40 24q-6 4 -6.5 11t5.5 12z" />
    <glyph glyph-name="mu" unicode="&#xb5;" horiz-adv-x="536" 
d="M53 -198v679q0 14 14 14h95q14 0 14 -14v-329q0 -14 12 -26q28 -28 72 -28q49 0 84 34q14 11 14 28v321q0 6 4.5 10t9.5 4h94q15 0 15 -14v-467q0 -14 -15 -14h-79q-9 0 -13 9l-9 38q-5 7 -10 2q-45 -48 -105 -48q-36 0 -65 20q-9 1 -9 -8v-211q0 -14 -15 -14h-94
q-14 0 -14 14z" />
    <glyph glyph-name="paragraph" unicode="&#xb6;" horiz-adv-x="789" 
d="M23 465v12q0 100 70 164q71 65 176 65h468q6 0 10 -4.5t4 -9.5v-82q0 -14 -14 -14h-56q-10 0 -10 -11v-571q0 -14 -15 -14h-94q-14 0 -14 14v571q0 11 -11 11h-133q-10 0 -10 -11v-571q0 -14 -15 -14h-94q-14 0 -14 14v218q0 4 -3.5 7.5t-7.5 3.5q-102 1 -170 63
q-67 61 -67 159zM143 477v-12q0 -56 31.5 -87.5t85.5 -31.5q4 0 7.5 3.5t3.5 7.5v228q0 4 -3.5 7.5t-7.5 3.5q-54 0 -85.5 -31.5t-31.5 -87.5z" />
    <glyph glyph-name="middot" unicode="&#xb7;" horiz-adv-x="238" 
d="M69 306q-20 20 -20 49t20 49q21 20 50 20t49 -20t20 -49t-20 -49q-20 -19 -49 -19t-50 19z" />
    <glyph glyph-name="cedilla" unicode="&#xb8;" horiz-adv-x="400" 
d="M252 -152v7q0 44 -68 44q-30 0 -55 -12q-8 -5 -14 3l-5 7q-4 6 0 12l55 91h59l-22 -36q-3 -4 -0.5 -9t8.5 -5q50 -2 79 -27t29 -66v-10q0 -46 -37 -75t-96 -29q-38 0 -80 20q-14 8 -6 20l10 22q6 12 20 6q27 -11 52 -11q71 0 71 48z" />
    <glyph glyph-name="onesuperior" unicode="&#xb9;" horiz-adv-x="238" 
d="M102 856h56q5 0 9.5 -4.5t4.5 -9.5v-444q0 -6 -4.5 -10.5t-9.5 -4.5h-62q-6 0 -10.5 4.5t-4.5 10.5v358q0 11 -10 11h-7q-8 0 -12 7t0 14l36 61q4 7 14 7z" />
    <glyph glyph-name="ordmasculine" unicode="&#xba;" horiz-adv-x="485" 
d="M46 490v36q0 80 56 133t141 53q83 0 139 -54q57 -52 57 -132v-36q0 -80 -56 -133t-140 -53q-85 0 -141 53t-56 133zM143 526v-36q0 -46 27.5 -74.5t72.5 -28.5q44 0 71 28.5t27 74.5v36q0 46 -27 75t-71 29q-45 0 -72.5 -28.5t-27.5 -75.5z" />
    <glyph glyph-name="guillemotright" unicode="&#xbb;" horiz-adv-x="433" 
d="M396 250q0 -6 -3 -10l-111 -155q-5 -8 -14 -8h-47q-6 0 -8 4.5t1 8.5l94 153q5 7 0 14l-94 153q-3 4 -1 8.5t8 4.5h47q9 0 14 -8l111 -155q3 -5 3 -10zM226 250q0 -6 -3 -10l-111 -155q-5 -8 -14 -8h-47q-6 0 -8 4.5t1 8.5l93 153q5 7 0 14l-93 153q-3 4 -1 8.5t8 4.5h47
q9 0 14 -8l111 -155q3 -5 3 -10z" />
    <glyph glyph-name="onequarter" unicode="&#xbc;" horiz-adv-x="714" 
d="M133 19l302 673q5 14 21 14h52q9 0 13 -6t1 -13l-302 -673q-6 -14 -21 -14h-52q-8 0 -12.5 6t-1.5 13zM96 706h56q5 0 9.5 -4.5t4.5 -9.5v-444q0 -6 -4.5 -10.5t-9.5 -4.5h-62q-6 0 -10.5 4.5t-4.5 10.5v358q0 11 -10 11h-7q-8 0 -12 7t0 14l36 61q4 7 14 7zM370 179
l182 286q5 8 14 8h55q6 0 10 -4.5t4 -9.5v-258q0 -10 11 -10h24q15 0 15 -15v-45q0 -14 -15 -14h-24q-11 0 -11 -10v-92q0 -15 -14 -15h-61q-15 0 -15 15v92q0 10 -11 10h-155q-15 0 -15 14v31q0 10 6 17zM531 293l-61 -89q-3 -4 -0.5 -8.5t8.5 -4.5h56q11 0 11 10v88
q0 6 -5 8t-9 -4z" />
    <glyph glyph-name="onehalf" unicode="&#xbd;" horiz-adv-x="764" 
d="M133 19l302 673q5 14 21 14h52q9 0 13 -6t1 -13l-302 -673q-6 -14 -21 -14h-52q-8 0 -12.5 6t-1.5 13zM96 706h56q5 0 9.5 -4.5t4.5 -9.5v-444q0 -6 -4.5 -10.5t-9.5 -4.5h-62q-6 0 -10.5 4.5t-4.5 10.5v358q0 11 -10 11h-7q-8 0 -12 7t0 14l36 61q4 7 14 7zM572 479
q72 0 114.5 -38.5t42.5 -103.5v-11q0 -50 -62 -124l-88 -102q-4 -4 -1.5 -10t8.5 -6h119q14 0 14 -15v-54q0 -15 -14 -15h-249q-14 0 -14 15v37q0 10 7 17l148 178q39 45 39 75v10q0 29 -19.5 46.5t-51.5 17.5q-38 0 -67 -16q-15 -8 -20 6l-19 46q-5 12 6 18q53 29 107 29z
" />
    <glyph glyph-name="threequarters" unicode="&#xbe;" horiz-adv-x="816" 
d="M474 179l182 286q5 8 14 8h54q15 0 15 -14v-258q0 -10 10 -10h25q14 0 14 -15v-45q0 -14 -14 -14h-25q-10 0 -10 -10v-92q0 -15 -15 -15h-61q-14 0 -14 15v92q0 10 -11 10h-155q-15 0 -15 14v31q0 10 6 17zM152 227q-51 0 -98 26q-12 7 -7 18l19 47q6 14 21 7
q29 -15 60 -15q35 0 58.5 21.5t23.5 54.5v7q0 34 -21 54t-56 20q-24 0 -45 -7q-11 -5 -17 6l-9 13q-5 8 2 17l95 110q5 4 2 10.5t-10 6.5h-96q-15 0 -15 14v55q0 5 4.5 9.5t10.5 4.5h221q15 0 15 -14v-41q0 -9 -7 -16l-94 -102q51 -7 82.5 -44.5t31.5 -93.5v-12
q0 -67 -49 -112q-50 -44 -122 -44zM244 19l302 673q6 14 21 14h53q8 0 12 -6t2 -13l-303 -673q-5 -14 -21 -14h-52q-8 0 -12.5 6t-1.5 13zM634 293l-60 -89q-3 -4 -0.5 -8.5t8.5 -4.5h56q11 0 11 10v88q0 6 -5.5 8t-9.5 -4z" />
    <glyph glyph-name="questiondown" unicode="&#xbf;" horiz-adv-x="480" 
d="M256 -220q-105 0 -169 55t-64 146v4q0 63 26.5 102t86.5 73q73 43 73 105v5q0 13 15 13h88q14 0 14 -15v-4q0 -64 -24 -98q-21 -33 -75 -68q-44 -28 -61.5 -50t-17.5 -55v-4q0 -41 28 -66t80 -25q67 0 114 38q12 10 21 -2l53 -69q10 -10 -3 -20q-83 -65 -185 -65z
M317 480q21 -20 21 -49t-21 -50q-20 -20 -49 -20t-50 20q-21 21 -21 50t21 49q21 21 50 21t49 -21z" />
    <glyph glyph-name="Agrave" unicode="&#xc0;" horiz-adv-x="662" 
d="M20 18l289 677q5 11 16 11h18q11 0 16 -11l290 -677q2 -7 -2 -12.5t-11 -5.5h-96q-14 0 -20 12l-37 90q-6 14 -21 14h-256q-15 0 -20 -14l-38 -90q-4 -12 -19 -12h-97q-7 0 -11 5.5t-1 12.5zM327 446l-95 -228q-4 -10 7 -10h191q10 0 6 10l-95 228q-2 5 -7 5t-7 -5z
M227 882l57 33q15 8 25 -2l132 -106q6 -5 5.5 -12t-6.5 -11l-41 -24q-11 -6 -23 1l-149 97q-7 4 -7 12t7 12z" />
    <glyph glyph-name="Aacute" unicode="&#xc1;" horiz-adv-x="662" 
d="M20 18l289 677q5 11 16 11h18q11 0 16 -11l290 -677q2 -7 -2 -12.5t-11 -5.5h-96q-14 0 -20 12l-37 90q-6 14 -21 14h-256q-15 0 -20 -14l-38 -90q-4 -12 -19 -12h-97q-7 0 -11 5.5t-1 12.5zM327 446l-95 -228q-4 -10 7 -10h191q10 0 6 10l-95 228q-2 5 -7 5t-7 -5z
M226 807l132 106q9 9 24 2l57 -33q7 -4 7.5 -12t-6.5 -12l-149 -97q-10 -6 -24 -1l-40 24q-6 4 -6.5 11t5.5 12z" />
    <glyph glyph-name="Acircumflex" unicode="&#xc2;" horiz-adv-x="662" 
d="M20 18l289 677q5 11 16 11h18q11 0 16 -11l290 -677q2 -7 -2 -12.5t-11 -5.5h-96q-14 0 -20 12l-37 90q-6 14 -21 14h-256q-15 0 -20 -14l-38 -90q-4 -12 -19 -12h-97q-7 0 -11 5.5t-1 12.5zM327 446l-95 -228q-4 -10 7 -10h191q10 0 6 10l-95 228q-2 5 -7 5t-7 -5z
M342 908l138 -98q6 -4 5.5 -11t-6.5 -11l-33 -21q-9 -5 -17 0l-89 55q-6 2 -12 0l-89 -55q-9 -6 -17 0l-33 21q-6 4 -6.5 11t5.5 11l138 98q8 6 16 0z" />
    <glyph glyph-name="Atilde" unicode="&#xc3;" horiz-adv-x="662" 
d="M20 18l289 677q5 11 16 11h18q11 0 16 -11l290 -677q2 -7 -2 -12.5t-11 -5.5h-96q-14 0 -20 12l-37 90q-6 14 -21 14h-256q-15 0 -20 -14l-38 -90q-4 -12 -19 -12h-97q-7 0 -11 5.5t-1 12.5zM327 446l-95 -228q-4 -10 7 -10h191q10 0 6 10l-95 228q-2 5 -7 5t-7 -5z
M343 870q31 -17 50 -17q25 0 54 20q10 7 19 -4l22 -35q5 -10 -2 -17q-37 -43 -93 -43q-32 0 -73 22q-25 16 -50 16q-28 0 -50 -18q-10 -7 -19 5l-22 35q-7 8 2 17q37 40 89 40q37 0 73 -21z" />
    <glyph glyph-name="Adieresis" unicode="&#xc4;" horiz-adv-x="662" 
d="M20 18l289 677q5 11 16 11h18q11 0 16 -11l290 -677q2 -7 -2 -12.5t-11 -5.5h-96q-14 0 -20 12l-37 90q-6 14 -21 14h-256q-15 0 -20 -14l-38 -90q-4 -12 -19 -12h-97q-7 0 -11 5.5t-1 12.5zM327 446l-95 -228q-4 -10 7 -10h191q10 0 6 10l-95 228q-2 5 -7 5t-7 -5z
M201 798q-16 16 -16 39t16 38q16 16 38 16t37 -16q16 -16 16 -38t-16 -38q-15 -16 -37 -16t-38 15zM391 798q-16 16 -16 39t16 38q16 16 38 16t37 -16q16 -16 16 -38t-16 -38q-15 -16 -37 -16t-38 15z" />
    <glyph glyph-name="Aring" unicode="&#xc5;" horiz-adv-x="662" 
d="M20 18l289 677q5 11 16 11h18q11 0 16 -11l290 -677q2 -7 -2 -12.5t-11 -5.5h-96q-14 0 -20 12l-37 90q-6 14 -21 14h-256q-15 0 -20 -14l-38 -90q-4 -12 -19 -12h-97q-7 0 -11 5.5t-1 12.5zM327 446l-95 -228q-4 -10 7 -10h191q10 0 6 10l-95 228q-2 5 -7 5t-7 -5z
M270 899q26 24 64 24t63 -24q26 -24 26 -62t-26 -62q-25 -24 -63 -24t-64 24q-25 24 -25 62t25 62zM293 837q0 -42 41 -42t41 42t-41 42t-41 -42z" />
    <glyph glyph-name="AE" unicode="&#xc6;" horiz-adv-x="851" 
d="M20 18l290 677q5 11 16 11h473q15 0 15 -14v-82q0 -14 -15 -14h-386q-11 0 -6 -11l75 -174q4 -9 14 -9h220q15 0 15 -15v-72q0 -14 -15 -14h-176q-10 0 -6 -12l72 -169q4 -10 14 -10h179q15 0 15 -14v-82q0 -14 -15 -14h-259q-14 0 -19 12l-38 90q-5 14 -20 14h-257
q-14 0 -20 -14l-37 -90q-6 -12 -19 -12h-97q-7 0 -11.5 5.5t-1.5 12.5zM328 446l-95 -228q-4 -10 6 -10h192q10 0 6 10l-95 228q-2 5 -7 5t-7 -5z" />
    <glyph glyph-name="Ccedilla" unicode="&#xc7;" horiz-adv-x="610" 
d="M422 -152v7q0 44 -68 44q-29 0 -55 -12q-8 -5 -14 3l-5 7q-4 6 0 12l50 84q-129 15 -207 104q-77 91 -77 226v58q0 149 93 242t240 93q102 0 185 -56q12 -8 3 -21l-53 -70q-12 -11 -21 -2q-50 35 -114 35q-95 0 -151.5 -60.5t-56.5 -160.5v-58q0 -100 56 -160t152 -60
q60 0 113 35q12 11 20 -2l55 -71q11 -12 -3 -21q-73 -51 -176 -54l-16 -26q-3 -4 -0.5 -9t8.5 -5q50 -2 79 -27t29 -66v-10q0 -46 -37 -75t-96 -29q-38 0 -80 20q-14 8 -6 20l10 22q6 12 20 6q27 -11 52 -11q71 0 71 48z" />
    <glyph glyph-name="Egrave" unicode="&#xc8;" horiz-adv-x="584" 
d="M72 14v678q0 5 4.5 9.5t10.5 4.5h442q6 0 10.5 -4.5t4.5 -9.5v-82q0 -14 -15 -14h-323q-10 0 -10 -10v-175q0 -9 10 -9h231q6 0 10.5 -4.5t4.5 -10.5v-72q0 -14 -15 -14h-231q-10 0 -10 -11v-170q0 -10 9 -10h324q6 0 10.5 -4.5t4.5 -9.5v-82q0 -14 -15 -14h-443
q-5 0 -9.5 4t-4.5 10zM204 882l57 33q15 8 25 -2l132 -106q6 -5 5.5 -12t-6.5 -11l-41 -24q-11 -6 -23 1l-149 97q-7 4 -7 12t7 12z" />
    <glyph glyph-name="Eacute" unicode="&#xc9;" horiz-adv-x="584" 
d="M72 14v678q0 5 4.5 9.5t10.5 4.5h442q6 0 10.5 -4.5t4.5 -9.5v-82q0 -14 -15 -14h-323q-10 0 -10 -10v-175q0 -9 10 -9h231q6 0 10.5 -4.5t4.5 -10.5v-72q0 -14 -15 -14h-231q-10 0 -10 -11v-170q0 -10 9 -10h324q6 0 10.5 -4.5t4.5 -9.5v-82q0 -14 -15 -14h-443
q-5 0 -9.5 4t-4.5 10zM195 807l132 106q9 9 24 2l57 -33q7 -4 7.5 -12t-6.5 -12l-149 -97q-10 -6 -24 -1l-40 24q-6 4 -6.5 11t5.5 12z" />
    <glyph glyph-name="Ecircumflex" unicode="&#xca;" horiz-adv-x="584" 
d="M72 14v678q0 5 4.5 9.5t10.5 4.5h442q6 0 10.5 -4.5t4.5 -9.5v-82q0 -14 -15 -14h-323q-10 0 -10 -10v-175q0 -9 10 -9h231q6 0 10.5 -4.5t4.5 -10.5v-72q0 -14 -15 -14h-231q-10 0 -10 -11v-170q0 -10 9 -10h324q6 0 10.5 -4.5t4.5 -9.5v-82q0 -14 -15 -14h-443
q-5 0 -9.5 4t-4.5 10zM319 908l138 -98q6 -4 5.5 -11t-6.5 -11l-33 -21q-9 -5 -17 0l-89 55q-6 2 -12 0l-89 -55q-9 -6 -17 0l-33 21q-6 4 -6.5 11t5.5 11l138 98q8 6 16 0z" />
    <glyph glyph-name="Edieresis" unicode="&#xcb;" horiz-adv-x="584" 
d="M72 14v678q0 5 4.5 9.5t10.5 4.5h442q6 0 10.5 -4.5t4.5 -9.5v-82q0 -14 -15 -14h-323q-10 0 -10 -10v-175q0 -9 10 -9h231q6 0 10.5 -4.5t4.5 -10.5v-72q0 -14 -15 -14h-231q-10 0 -10 -11v-170q0 -10 9 -10h324q6 0 10.5 -4.5t4.5 -9.5v-82q0 -14 -15 -14h-443
q-5 0 -9.5 4t-4.5 10zM217 891q22 0 37.5 -16t15.5 -38t-15.5 -38t-37.5 -16q-23 0 -38.5 15.5t-15.5 38.5t15.5 38.5t38.5 15.5zM407 891q22 0 37.5 -16t15.5 -38t-15.5 -38t-37.5 -16q-23 0 -38.5 15.5t-15.5 38.5t15.5 38.5t38.5 15.5z" />
    <glyph glyph-name="Igrave" unicode="&#xcc;" horiz-adv-x="268" 
d="M72 14v678q0 5 4.5 9.5t9.5 4.5h96q5 0 9.5 -4.5t4.5 -9.5v-678q0 -6 -4.5 -10t-9.5 -4h-96q-5 0 -9.5 4t-4.5 10zM27 882l57 33q15 8 25 -2l132 -106q6 -5 5.5 -12t-6.5 -11l-41 -24q-11 -6 -23 1l-149 97q-7 4 -7 12t7 12z" />
    <glyph glyph-name="Iacute" unicode="&#xcd;" horiz-adv-x="268" 
d="M26 807l132 106q9 9 24 2l57 -33q7 -4 7.5 -12t-6.5 -12l-149 -97q-10 -6 -24 -1l-40 24q-6 4 -6.5 11t5.5 12zM72 14v678q0 5 4.5 9.5t9.5 4.5h96q5 0 9.5 -4.5t4.5 -9.5v-678q0 -6 -4.5 -10t-9.5 -4h-96q-5 0 -9.5 4t-4.5 10z" />
    <glyph glyph-name="Icircumflex" unicode="&#xce;" horiz-adv-x="268" 
d="M143 908l138 -98q6 -4 5.5 -11t-6.5 -11l-33 -21q-8 -5 -17 0l-89 55q-6 2 -12 0l-89 -55q-9 -6 -17 0l-33 21q-6 4 -6.5 11t5.5 11l138 98q8 6 16 0zM73 14v678q0 5 4.5 9.5t9.5 4.5h96q5 0 9.5 -4.5t4.5 -9.5v-678q0 -6 -4.5 -10t-9.5 -4h-96q-5 0 -9.5 4t-4.5 10z" />
    <glyph glyph-name="Idieresis" unicode="&#xcf;" horiz-adv-x="268" 
d="M72 14v678q0 5 4.5 9.5t9.5 4.5h96q5 0 9.5 -4.5t4.5 -9.5v-678q0 -6 -4.5 -10t-9.5 -4h-96q-5 0 -9.5 4t-4.5 10zM39 891q22 0 37.5 -16t15.5 -38t-15.5 -38t-37.5 -16q-23 0 -38.5 15.5t-15.5 38.5t15.5 38.5t38.5 15.5zM229 891q22 0 37.5 -16t15.5 -38t-15.5 -38
t-37.5 -16q-23 0 -38.5 15.5t-15.5 38.5t15.5 38.5t38.5 15.5z" />
    <glyph glyph-name="Eth" unicode="&#xd0;" horiz-adv-x="694" 
d="M87 706h235q148 0 237 -89t89 -234v-62q0 -153 -94 -237q-93 -84 -232 -84h-235q-15 0 -15 14v290q0 10 -10 10h-38q-6 0 -10.5 4.5t-4.5 9.5v43q0 6 4.5 10.5t10.5 4.5h38q10 0 10 10v296q0 5 4.5 9.5t10.5 4.5zM322 596h-116q-10 0 -10 -10v-190q0 -10 10 -10h39
q14 0 14 -15v-43q0 -5 -4 -9.5t-10 -4.5h-39q-10 0 -10 -10v-184q0 -10 10 -10h116q93 0 147 56.5t54 154.5v62q0 99 -53.5 156t-147.5 57z" />
    <glyph glyph-name="Ntilde" unicode="&#xd1;" horiz-adv-x="731" 
d="M72 14v678q0 5 4.5 9.5t10.5 4.5h11q8 0 13 -5l412 -431q3 -3 7.5 -1.5t4.5 6.5v417q0 5 4 9.5t10 4.5h94q15 0 15 -14v-678q0 -14 -15 -14h-12q-9 0 -16 7l-407 431q-3 3 -7.5 1.5t-4.5 -6.5v-419q0 -14 -14 -14h-95q-15 0 -15 14zM379 870q31 -17 50 -17q25 0 54 20
q10 7 19 -4l22 -35q5 -10 -2 -17q-37 -43 -93 -43q-32 0 -73 22q-25 16 -50 16q-28 0 -50 -18q-10 -7 -19 5l-22 35q-7 8 2 17q37 40 89 40q37 0 73 -21z" />
    <glyph glyph-name="Ograve" unicode="&#xd2;" horiz-adv-x="746" 
d="M46 324v59q0 149 90 241q92 92 237 92q146 0 236 -92q91 -91 91 -241v-59q0 -151 -90 -242q-90 -92 -237 -92t-237 92q-90 91 -90 242zM171 383v-59q0 -104 54 -162.5t148 -58.5q93 0 147 58.5t54 162.5v59q0 102 -54 160.5t-147 58.5q-94 0 -148 -58.5t-54 -160.5z
M266 882l57 33q15 8 25 -2l132 -106q6 -5 5.5 -12t-6.5 -11l-41 -24q-11 -6 -23 1l-149 97q-7 4 -7 12t7 12z" />
    <glyph glyph-name="Oacute" unicode="&#xd3;" horiz-adv-x="746" 
d="M46 324v59q0 149 90 241q92 92 237 92q146 0 236 -92q91 -91 91 -241v-59q0 -151 -90 -242q-90 -92 -237 -92t-237 92q-90 91 -90 242zM171 383v-59q0 -104 54 -162.5t148 -58.5q93 0 147 58.5t54 162.5v59q0 102 -54 160.5t-147 58.5q-94 0 -148 -58.5t-54 -160.5z
M265 807l132 106q9 9 24 2l57 -33q7 -4 7.5 -12t-6.5 -12l-149 -97q-10 -6 -24 -1l-40 24q-6 4 -6.5 11t5.5 12z" />
    <glyph glyph-name="Ocircumflex" unicode="&#xd4;" horiz-adv-x="746" 
d="M46 324v59q0 149 90 241q92 92 237 92q146 0 236 -92q91 -91 91 -241v-59q0 -151 -90 -242q-90 -92 -237 -92t-237 92q-90 91 -90 242zM171 383v-59q0 -104 54 -162.5t148 -58.5q93 0 147 58.5t54 162.5v59q0 102 -54 160.5t-147 58.5q-94 0 -148 -58.5t-54 -160.5z
M381 908l138 -98q6 -4 5.5 -11t-6.5 -11l-33 -21q-9 -5 -17 0l-89 55q-6 2 -12 0l-89 -55q-9 -6 -17 0l-33 21q-6 4 -6.5 11t5.5 11l138 98q8 6 16 0z" />
    <glyph glyph-name="Otilde" unicode="&#xd5;" horiz-adv-x="746" 
d="M382 870q31 -17 50 -17q25 0 54 20q10 7 19 -4l22 -35q5 -10 -2 -17q-37 -43 -93 -43q-32 0 -73 22q-25 16 -50 16q-27 0 -50 -18q-10 -7 -19 5l-22 35q-8 8 2 17q37 40 89 40q37 0 73 -21zM46 324v59q0 149 90 241q92 92 237 92q146 0 236 -92q91 -91 91 -241v-59
q0 -151 -90 -242q-90 -92 -237 -92t-237 92q-90 91 -90 242zM171 383v-59q0 -104 54 -162.5t148 -58.5q93 0 147 58.5t54 162.5v59q0 102 -54 160.5t-147 58.5q-94 0 -148 -58.5t-54 -160.5z" />
    <glyph glyph-name="Odieresis" unicode="&#xd6;" horiz-adv-x="746" 
d="M46 324v59q0 149 90 241q92 92 237 92q146 0 236 -92q91 -91 91 -241v-59q0 -151 -90 -242q-90 -92 -237 -92t-237 92q-90 91 -90 242zM171 383v-59q0 -104 54 -162.5t148 -58.5q93 0 147 58.5t54 162.5v59q0 102 -54 160.5t-147 58.5q-94 0 -148 -58.5t-54 -160.5z
M240 798q-16 16 -16 39t16 38q16 16 38 16t37 -16q16 -16 16 -38t-16 -38q-15 -16 -37 -16t-38 15zM430 798q-16 16 -16 39t16 38q16 16 38 16t37 -16q16 -16 16 -38t-16 -38q-15 -16 -37 -16t-38 15z" />
    <glyph glyph-name="multiply" unicode="&#xd7;" horiz-adv-x="479" 
d="M179 360l-140 141q-10 10 -1 21l42 42q11 9 21 -1l140 -141q9 -5 15 1l140 140q10 9 21 0l42 -42q9 -11 0 -20l-140 -140q-8 -8 -1 -15l140 -140q10 -10 0 -20l-41 -42q-11 -9 -22 0l-139 140q-6 6 -15 0l-139 -140q-11 -9 -22 0l-41 41q-11 11 0 21l140 140q8 6 0 14z
" />
    <glyph glyph-name="Oslash" unicode="&#xd8;" horiz-adv-x="746" 
d="M46 324v59q0 149 90 241q92 92 237 92q58 0 107 -15l19 41q6 14 21 14h55q9 0 13 -6t1 -13l-32 -71q69 -43 106 -116.5t37 -166.5v-59q0 -151 -90 -242q-90 -92 -237 -92q-60 0 -112 16l-19 -42q-6 -14 -21 -14h-55q-8 0 -12.5 6t-1.5 13l33 73q-66 42 -102.5 115.5
t-36.5 166.5zM574 324v59q0 115 -67 173l-199 -445q34 -8 65 -8q93 0 147 58.5t54 162.5zM171 383v-59q0 -114 63 -172l199 442q-32 8 -60 8q-94 0 -148 -58.5t-54 -160.5z" />
    <glyph glyph-name="Ugrave" unicode="&#xd9;" horiz-adv-x="701" 
d="M67 278v414q0 5 4.5 9.5t10.5 4.5h94q6 0 10 -4.5t4 -9.5v-414q0 -85 41 -130t119 -45q79 0 120 45t41 130v414q0 5 4 9.5t10 4.5h95q6 0 10 -4.5t4 -9.5v-414q0 -132 -77 -211q-77 -77 -207 -77t-207 77q-76 77 -76 211zM244 882l57 33q15 8 25 -2l132 -106
q6 -5 5.5 -12t-6.5 -11l-41 -24q-11 -6 -23 1l-149 97q-7 4 -7 12t7 12z" />
    <glyph glyph-name="Uacute" unicode="&#xda;" horiz-adv-x="701" 
d="M67 278v414q0 5 4.5 9.5t10.5 4.5h94q6 0 10 -4.5t4 -9.5v-414q0 -85 41 -130t119 -45q79 0 120 45t41 130v414q0 5 4 9.5t10 4.5h95q6 0 10 -4.5t4 -9.5v-414q0 -132 -77 -211q-77 -77 -207 -77t-207 77q-76 77 -76 211zM243 807l132 106q9 9 24 2l57 -33q7 -4 7.5 -12
t-6.5 -12l-149 -97q-10 -6 -24 -1l-40 24q-6 4 -6.5 11t5.5 12z" />
    <glyph glyph-name="Ucircumflex" unicode="&#xdb;" horiz-adv-x="701" 
d="M67 278v414q0 5 4.5 9.5t10.5 4.5h94q6 0 10 -4.5t4 -9.5v-414q0 -85 41 -130t119 -45q79 0 120 45t41 130v414q0 5 4 9.5t10 4.5h95q6 0 10 -4.5t4 -9.5v-414q0 -132 -77 -211q-77 -77 -207 -77t-207 77q-76 77 -76 211zM358 908l138 -98q6 -4 5.5 -11t-6.5 -11l-33 -21
q-8 -5 -17 0l-89 55q-6 2 -12 0l-89 -55q-9 -6 -17 0l-33 21q-6 4 -6.5 11t5.5 11l138 98q8 6 16 0z" />
    <glyph glyph-name="Udieresis" unicode="&#xdc;" horiz-adv-x="701" 
d="M67 278v414q0 5 4.5 9.5t10.5 4.5h94q6 0 10 -4.5t4 -9.5v-414q0 -85 41 -130t119 -45q79 0 120 45t41 130v414q0 5 4 9.5t10 4.5h95q6 0 10 -4.5t4 -9.5v-414q0 -132 -77 -211q-77 -77 -207 -77t-207 77q-76 77 -76 211zM218 798q-16 16 -16 39t16 38q16 16 38 16
t37 -16q16 -16 16 -38t-16 -38q-15 -16 -37 -16t-38 15zM408 798q-16 16 -16 39t16 38q16 16 38 16t37 -16q16 -16 16 -38t-16 -38q-15 -16 -37 -16t-38 15z" />
    <glyph glyph-name="Yacute" unicode="&#xdd;" horiz-adv-x="661" 
d="M273 18v197q0 11 -6 21l-248 450q-4 7 0 13.5t12 6.5h104q13 0 18 -11l175 -332q2 -3 6 -3h1q3 0 6 3l175 332q5 11 17 11h105q8 0 11.5 -6.5t-0.5 -13.5l-248 -450q-5 -10 -5 -21v-197q0 -18 -18 -18h-87q-7 0 -12.5 5t-5.5 13zM226 807l132 106q9 9 24 2l57 -33
q7 -4 7.5 -12t-6.5 -12l-149 -97q-10 -6 -24 -1l-40 24q-6 4 -6.5 11t5.5 12z" />
    <glyph glyph-name="Thorn" unicode="&#xde;" horiz-adv-x="617" 
d="M72 14v678q0 14 14 14h95q14 0 14 -14v-95q0 -11 10 -11h181q88 0 148 -63q60 -61 60 -153v-7q0 -97 -63 -158q-64 -62 -149 -62h-177q-10 0 -10 -10v-119q0 -14 -14 -14h-95q-14 0 -14 14zM338 475h-133q-10 0 -10 -10v-211q0 -10 10 -10h138q52 0 82.5 30t30.5 81v7
q0 53 -31 83t-87 30z" />
    <glyph glyph-name="germandbls" unicode="&#xdf;" horiz-adv-x="569" 
d="M55 14v500q0 77 59 130q60 54 153 54h18q94 0 151 -51q58 -51 58 -128v-7q0 -75 -64 -120q-11 -8 0 -14q49 -24 76.5 -67t27.5 -97v-7q0 -88 -62 -148q-62 -59 -157 -59h-55q-14 0 -14 14v68q0 14 14 14h29q51 0 82.5 30.5t31.5 78.5v8q0 45 -28 73.5t-81 28.5h-34
q-14 0 -14 14v60q0 14 14 14h14q43 1 69.5 25.5t26.5 65.5v7q0 41 -24.5 66t-65.5 25h-10q-41 0 -66.5 -26.5t-25.5 -66.5v-485q0 -14 -14 -14h-95q-14 0 -14 14z" />
    <glyph glyph-name="agrave" unicode="&#xe0;" 
d="M34 222v50q0 103 59 167q58 64 144 64q77 0 136 -56q2 -2 5.5 -1.5t4.5 3.5l8 35q3 11 16 11h78q5 0 9.5 -4t4.5 -10v-467q0 -6 -4.5 -10t-9.5 -4h-95q-14 0 -14 14v28q0 4 -4 5.5t-7 -1.5q-57 -54 -131 -54q-90 0 -145 64t-55 166zM154 269v-44q0 -60 31.5 -95.5
t85.5 -35.5q51 0 92 35q13 10 13 27v182q0 18 -13 28q-38 34 -92 34t-85.5 -35.5t-31.5 -95.5zM181 671l57 33q15 8 25 -2l132 -106q6 -5 5.5 -12t-6.5 -11l-41 -24q-11 -6 -23 1l-149 97q-7 4 -7 11.5t7 12.5z" />
    <glyph glyph-name="aacute" unicode="&#xe1;" 
d="M34 222v50q0 103 59 167q58 64 144 64q77 0 136 -56q2 -2 5.5 -1.5t4.5 3.5l8 35q3 11 16 11h78q5 0 9.5 -4t4.5 -10v-467q0 -6 -4.5 -10t-9.5 -4h-95q-14 0 -14 14v28q0 4 -4 5.5t-7 -1.5q-57 -54 -131 -54q-90 0 -145 64t-55 166zM154 269v-44q0 -60 31.5 -95.5
t85.5 -35.5q51 0 92 35q13 10 13 27v182q0 18 -13 28q-38 34 -92 34t-85.5 -35.5t-31.5 -95.5zM186 596l132 106q9 9 24 2l57 -33q7 -4 7.5 -12t-6.5 -12l-149 -97q-10 -6 -24 -1l-40 24q-6 4 -6.5 11t5.5 12z" />
    <glyph glyph-name="acircumflex" unicode="&#xe2;" 
d="M34 222v50q0 103 59 167q58 64 144 64q77 0 136 -56q2 -2 5.5 -1.5t4.5 3.5l8 35q3 11 16 11h78q5 0 9.5 -4t4.5 -10v-467q0 -6 -4.5 -10t-9.5 -4h-95q-14 0 -14 14v28q0 4 -4 5.5t-7 -1.5q-57 -54 -131 -54q-90 0 -145 64t-55 166zM154 269v-44q0 -60 31.5 -95.5
t85.5 -35.5q51 0 92 35q13 10 13 27v182q0 18 -13 28q-38 34 -92 34t-85.5 -35.5t-31.5 -95.5zM300 697l138 -98q6 -4 5.5 -11t-6.5 -11l-33 -21q-8 -5 -17 0l-89 55q-6 2 -12 0l-89 -55q-9 -6 -17 0l-33 21q-6 4 -6.5 11t5.5 11l138 98q8 6 16 0z" />
    <glyph glyph-name="atilde" unicode="&#xe3;" 
d="M34 222v50q0 103 59 167q58 64 144 64q77 0 136 -56q2 -2 5.5 -1.5t4.5 3.5l8 35q3 11 16 11h78q5 0 9.5 -4t4.5 -10v-467q0 -6 -4.5 -10t-9.5 -4h-95q-14 0 -14 14v28q0 4 -4 5.5t-7 -1.5q-57 -54 -131 -54q-90 0 -145 64t-55 166zM154 269v-44q0 -60 31.5 -95.5
t85.5 -35.5q51 0 92 35q13 10 13 27v182q0 18 -13 28q-38 34 -92 34t-85.5 -35.5t-31.5 -95.5zM307 659q31 -17 50 -17q25 0 54 20q10 7 19 -4l22 -35q5 -10 -2 -17q-37 -43 -93 -43q-32 0 -73 22q-25 16 -50 16q-28 0 -50 -18q-10 -7 -19 5l-22 35q-7 7 2 17q37 40 89 40
q37 0 73 -21z" />
    <glyph glyph-name="adieresis" unicode="&#xe4;" 
d="M34 222v50q0 103 59 167q58 64 144 64q77 0 136 -56q2 -2 5.5 -1.5t4.5 3.5l8 35q3 11 16 11h78q5 0 9.5 -4t4.5 -10v-467q0 -6 -4.5 -10t-9.5 -4h-95q-14 0 -14 14v28q0 4 -4 5.5t-7 -1.5q-57 -54 -131 -54q-90 0 -145 64t-55 166zM154 269v-44q0 -60 31.5 -95.5
t85.5 -35.5q51 0 92 35q13 10 13 27v182q0 18 -13 28q-38 34 -92 34t-85.5 -35.5t-31.5 -95.5zM166 588q-16 16 -16 38t16 38t38 16t37 -16q16 -16 16 -38t-16 -38q-15 -16 -37 -16t-38 16zM356 588q-16 16 -16 38t16 38t38 16t37 -16q16 -16 16 -38t-16 -38
q-15 -16 -37 -16t-38 16z" />
    <glyph glyph-name="aring" unicode="&#xe5;" 
d="M34 222v50q0 103 59 167q58 64 144 64q77 0 136 -56q2 -2 5.5 -1.5t4.5 3.5l8 35q3 11 16 11h78q5 0 9.5 -4t4.5 -10v-467q0 -6 -4.5 -10t-9.5 -4h-95q-14 0 -14 14v28q0 4 -4 5.5t-7 -1.5q-57 -54 -131 -54q-90 0 -145 64t-55 166zM154 269v-44q0 -60 31.5 -95.5
t85.5 -35.5q51 0 92 35q13 10 13 27v182q0 18 -13 28q-38 34 -92 34t-85.5 -35.5t-31.5 -95.5zM240 688q26 24 64 24t63 -24q26 -24 26 -62t-26 -62q-25 -24 -63 -24t-64 24q-25 24 -25 62t25 62zM263 626q0 -42 41 -42t41 42t-41 42t-41 -42z" />
    <glyph glyph-name="ae" unicode="&#xe6;" horiz-adv-x="837" 
d="M33 144v4q0 71 50.5 107t137.5 36h107q11 0 11 11v31q0 32 -24 49.5t-66 17.5q-65 0 -109 -35q-12 -8 -20 3l-45 60q-8 11 2 20q74 56 180 56q99 0 152 -44q9 -8 17 0q61 46 147 46q101 0 165 -64t64 -168v-47q0 -15 -15 -15h-317q-7 0 -9 -8v-2q5 -52 40.5 -82t90.5 -30
q49 0 86 31q8 9 19 1l66 -51q13 -11 -1 -22q-68 -60 -170 -60q-65 0 -120 26q-8 5 -11 -4q-3 -11 -14 -11h-80q-13 0 -14 10l-7 35q-1 4 -5 4.5t-7 -2.5q-55 -55 -137 -55q-77 0 -120.5 42t-43.5 110zM574 405q-99 0 -112 -103q-2 -11 10 -11h198q12 0 10 11
q-12 103 -106 103zM153 156v-3q0 -27 20 -43t58 -16q53 0 94 35q14 11 14 27v45q0 11 -11 11h-87q-88 0 -88 -56z" />
    <glyph glyph-name="ccedilla" unicode="&#xe7;" horiz-adv-x="446" 
d="M325 -152v7q0 44 -68 44q-29 0 -55 -12q-8 -5 -14 3l-5 7q-5 6 0 12l50 84q-88 15 -143 78q-56 65 -56 149v55q0 95 71 163t175 68q75 0 137 -38q13 -8 5 -20l-38 -63q-8 -12 -19 -5q-38 23 -85 23q-54 0 -89.5 -37t-35.5 -92v-52q0 -55 35.5 -92.5t89.5 -37.5
q44 0 84 23q13 6 19 -6l36 -63q7 -14 -6 -21q-53 -33 -123 -36l-15 -25q-3 -4 -0.5 -9t8.5 -5q50 -2 79 -27t29 -66v-10q0 -46 -37 -75t-96 -29q-38 0 -80 20q-14 8 -6 20l10 22q6 12 20 6q27 -11 52 -11q71 0 71 48z" />
    <glyph glyph-name="egrave" unicode="&#xe8;" horiz-adv-x="531" 
d="M34 221v53q0 102 65 167t168 65q101 0 165 -64t64 -168v-47q0 -15 -15 -15h-317q-9 0 -9 -10q5 -52 40.5 -82t90.5 -30q49 0 86 31q8 9 19 1l66 -51q13 -11 -1 -22q-68 -60 -170 -60q-108 0 -180 66t-72 166zM268 405q-99 0 -112 -103q-2 -11 10 -11h198q12 0 10 11
q-12 103 -106 103zM178 671l57 33q15 8 25 -2l132 -106q6 -5 5.5 -12t-6.5 -11l-41 -24q-11 -6 -23 1l-149 97q-7 4 -7 11.5t7 12.5z" />
    <glyph glyph-name="eacute" unicode="&#xe9;" horiz-adv-x="531" 
d="M34 221v53q0 102 65 167t168 65q101 0 165 -64t64 -168v-47q0 -15 -15 -15h-317q-9 0 -9 -10q5 -52 40.5 -82t90.5 -30q49 0 86 31q8 9 19 1l66 -51q13 -11 -1 -22q-68 -60 -170 -60q-108 0 -180 66t-72 166zM268 405q-99 0 -112 -103q-2 -11 10 -11h198q12 0 10 11
q-12 103 -106 103zM166 596l132 106q9 9 24 2l57 -33q7 -4 7.5 -12t-6.5 -12l-149 -97q-10 -6 -24 -1l-40 24q-6 4 -6.5 11t5.5 12z" />
    <glyph glyph-name="ecircumflex" unicode="&#xea;" horiz-adv-x="531" 
d="M34 221v53q0 102 65 167t168 65q101 0 165 -64t64 -168v-47q0 -15 -15 -15h-317q-9 0 -9 -10q5 -52 40.5 -82t90.5 -30q49 0 86 31q8 9 19 1l66 -51q13 -11 -1 -22q-68 -60 -170 -60q-108 0 -180 66t-72 166zM268 405q-99 0 -112 -103q-2 -11 10 -11h198q12 0 10 11
q-12 103 -106 103zM285 697l138 -98q6 -4 5.5 -11t-6.5 -11l-33 -21q-9 -5 -17 0l-89 55q-6 2 -12 0l-89 -55q-9 -6 -17 0l-33 21q-6 4 -6.5 11t5.5 11l138 98q8 6 16 0z" />
    <glyph glyph-name="edieresis" unicode="&#xeb;" horiz-adv-x="531" 
d="M34 221v53q0 102 65 167t168 65q101 0 165 -64t64 -168v-47q0 -15 -15 -15h-317q-9 0 -9 -10q5 -52 40.5 -82t90.5 -30q49 0 86 31q8 9 19 1l66 -51q13 -11 -1 -22q-68 -60 -170 -60q-108 0 -180 66t-72 166zM268 405q-99 0 -112 -103q-2 -11 10 -11h198q12 0 10 11
q-12 103 -106 103zM142 588q-16 16 -16 38t16 38t38 16t37 -16q16 -16 16 -38t-16 -38q-15 -16 -37 -16t-38 16zM332 588q-16 16 -16 38t16 38t38 16t37 -16q16 -16 16 -38t-16 -38q-15 -16 -37 -16t-38 16z" />
    <glyph glyph-name="igrave" unicode="&#xec;" horiz-adv-x="232" 
d="M54 14v467q0 6 4.5 10t9.5 4h94q15 0 15 -14v-467q0 -14 -15 -14h-93q-15 0 -15 14zM9 671l57 33q15 8 25 -2l132 -106q6 -5 5.5 -12t-6.5 -11l-41 -24q-11 -6 -23 1l-149 97q-7 4 -7 11.5t7 12.5z" />
    <glyph glyph-name="iacute" unicode="&#xed;" horiz-adv-x="232" 
d="M8 596l132 106q9 9 24 2l57 -33q7 -4 7.5 -12t-6.5 -12l-149 -97q-10 -6 -24 -1l-40 24q-6 4 -6.5 11t5.5 12zM54 14v467q0 6 4.5 10t9.5 4h94q15 0 15 -14v-467q0 -14 -15 -14h-93q-15 0 -15 14z" />
    <glyph glyph-name="icircumflex" unicode="&#xee;" horiz-adv-x="232" 
d="M125 697l138 -98q6 -4 5.5 -11t-6.5 -11l-33 -21q-8 -5 -17 0l-89 55q-6 2 -12 0l-89 -55q-9 -6 -17 0l-33 21q-6 4 -6.5 11t5.5 11l138 98q8 6 16 0zM55 14v467q0 6 4.5 10t9.5 4h94q15 0 15 -14v-467q0 -14 -15 -14h-93q-15 0 -15 14z" />
    <glyph glyph-name="idieresis" unicode="&#xef;" horiz-adv-x="232" 
d="M21 680q22 0 37.5 -16t15.5 -38t-15.5 -38t-37.5 -16q-23 0 -38.5 16t-15.5 38t15.5 38t38.5 16zM211 680q22 0 37.5 -16t15.5 -38t-15.5 -38t-37.5 -16q-23 0 -38.5 16t-15.5 38t15.5 38t38.5 16zM54 14v467q0 6 4.5 10t9.5 4h94q15 0 15 -14v-467q0 -14 -15 -14h-93
q-15 0 -15 14z" />
    <glyph glyph-name="eth" unicode="&#xf0;" horiz-adv-x="557" 
d="M34 222v52q0 104 63 168t152 64q76 0 128 -46q3 -2 5.5 -0.5t1.5 4.5q-17 53 -58 96q-7 7 -19 3l-55 -26q-5 -3 -11.5 -1t-8.5 7l-18 39q-6 15 8 20l27 13q10 6 1 11q-27 18 -50 29q-6 3 -8 10t3 12l44 57q8 10 21 5q58 -31 96 -63q8 -7 20 -2l52 24q13 7 19 -7l18 -39
q7 -12 -7 -18l-31 -15q-10 -5 -3 -13q99 -121 99 -331v-53q0 -100 -70 -167q-71 -66 -175 -66t-174 66q-70 67 -70 167zM154 274v-52q0 -59 34.5 -95t89.5 -36q56 0 90.5 36t34.5 95v52q0 58 -34.5 94t-90.5 36t-90 -36t-34 -94z" />
    <glyph glyph-name="ntilde" unicode="&#xf1;" horiz-adv-x="542" 
d="M55 14v467q0 14 14 14h80q11 0 13 -9l8 -39q1 -4 5 -5t7 3q55 58 139 58q81 0 126 -51t45 -143v-295q0 -14 -15 -14h-94q-5 0 -9.5 4t-4.5 10v289q0 93 -88 93q-52 0 -90 -34q-14 -12 -14 -29v-319q0 -14 -14 -14h-94q-14 0 -14 14zM292 659q31 -17 50 -17q25 0 54 20
q10 7 19 -4l22 -35q5 -10 -2 -17q-37 -43 -93 -43q-32 0 -73 22q-25 16 -50 16q-28 0 -50 -18q-10 -7 -19 5l-22 35q-7 7 2 17q37 40 89 40q37 0 73 -21z" />
    <glyph glyph-name="ograve" unicode="&#xf2;" horiz-adv-x="559" 
d="M34 220v55q0 99 70 165t175 66t175 -66q70 -64 70 -165v-55q0 -100 -70 -166q-71 -65 -175 -65q-105 0 -175 66t-70 165zM154 274v-53q0 -58 34.5 -94.5t90.5 -36.5t90.5 36t34.5 95v53q0 59 -34.5 95t-90.5 36t-90.5 -36.5t-34.5 -94.5zM173 671l57 33q15 8 25 -2
l132 -106q6 -5 5.5 -12t-6.5 -11l-41 -24q-11 -6 -23 1l-149 97q-7 4 -7 11.5t7 12.5z" />
    <glyph glyph-name="oacute" unicode="&#xf3;" horiz-adv-x="559" 
d="M34 220v55q0 99 70 165t175 66t175 -66q70 -64 70 -165v-55q0 -100 -70 -166q-71 -65 -175 -65q-105 0 -175 66t-70 165zM154 274v-53q0 -58 34.5 -94.5t90.5 -36.5t90.5 36t34.5 95v53q0 59 -34.5 95t-90.5 36t-90.5 -36.5t-34.5 -94.5zM171 596l132 106q9 9 24 2
l57 -33q7 -4 7.5 -12t-6.5 -12l-149 -97q-10 -6 -24 -1l-40 24q-6 4 -6.5 11t5.5 12z" />
    <glyph glyph-name="ocircumflex" unicode="&#xf4;" horiz-adv-x="559" 
d="M34 220v55q0 99 70 165t175 66t175 -66q70 -64 70 -165v-55q0 -100 -70 -166q-71 -65 -175 -65q-105 0 -175 66t-70 165zM154 274v-53q0 -58 34.5 -94.5t90.5 -36.5t90.5 36t34.5 95v53q0 59 -34.5 95t-90.5 36t-90.5 -36.5t-34.5 -94.5zM287 697l138 -98q6 -4 5.5 -11
t-6.5 -11l-33 -21q-9 -5 -17 0l-89 55q-6 2 -12 0l-89 -55q-9 -6 -17 0l-33 21q-6 4 -6.5 11t5.5 11l138 98q8 6 16 0z" />
    <glyph glyph-name="otilde" unicode="&#xf5;" horiz-adv-x="559" 
d="M288 659q31 -17 50 -17q25 0 54 20q10 7 19 -4l22 -35q5 -10 -2 -17q-37 -43 -93 -43q-32 0 -73 22q-25 16 -50 16q-27 0 -50 -18q-10 -7 -19 5l-22 35q-8 7 2 17q37 40 89 40q37 0 73 -21zM34 220v55q0 99 70 165t175 66t175 -66q70 -64 70 -165v-55q0 -100 -70 -166
q-71 -65 -175 -65q-105 0 -175 66t-70 165zM154 274v-53q0 -58 34.5 -94.5t90.5 -36.5t90.5 36t34.5 95v53q0 59 -34.5 95t-90.5 36t-90.5 -36.5t-34.5 -94.5z" />
    <glyph glyph-name="odieresis" unicode="&#xf6;" horiz-adv-x="559" 
d="M34 220v55q0 99 70 165t175 66t175 -66q70 -64 70 -165v-55q0 -100 -70 -166q-71 -65 -175 -65q-105 0 -175 66t-70 165zM154 274v-53q0 -58 34.5 -94.5t90.5 -36.5t90.5 36t34.5 95v53q0 59 -34.5 95t-90.5 36t-90.5 -36.5t-34.5 -94.5zM185 680q22 0 37.5 -16t15.5 -38
t-15.5 -38t-37.5 -16q-23 0 -38.5 16t-15.5 38t15.5 38t38.5 16zM375 680q22 0 37.5 -16t15.5 -38t-15.5 -38t-37.5 -16q-23 0 -38.5 16t-15.5 38t15.5 38t38.5 16z" />
    <glyph glyph-name="divide" unicode="&#xf7;" horiz-adv-x="573" 
d="M509 309h-444q-15 0 -15 15v59q0 14 15 14h444q5 0 9.5 -4.5t4.5 -9.5v-60q0 -5 -4.5 -9.5t-9.5 -4.5zM228 518q0 25 17 42t42 17q24 0 41 -17t17 -42q0 -24 -17 -41t-41 -17q-25 0 -42 17t-17 41zM228 187q0 24 17 41t42 17q24 0 41 -17t17 -41q0 -25 -17 -42t-41 -17
q-25 0 -42 17t-17 42z" />
    <glyph glyph-name="oslash" unicode="&#xf8;" horiz-adv-x="559" 
d="M34 220v55q0 99 70 165t175 66q30 0 67 -8l15 33q6 14 21 14h56q8 0 12 -6t2 -13l-28 -62q47 -31 73.5 -80.5t26.5 -108.5v-55q0 -100 -70 -166q-71 -65 -175 -65q-28 0 -65 8l-14 -33q-6 -14 -21 -14h-56q-8 0 -12.5 6t-1.5 13l27 60q-48 31 -75 81t-27 110zM154 274
v-53q0 -53 28 -88l121 270q-22 2 -24 2q-56 0 -90.5 -36.5t-34.5 -94.5zM404 221v53q0 52 -27 86l-120 -269q5 -1 22 -1q56 0 90.5 36t34.5 95z" />
    <glyph glyph-name="ugrave" unicode="&#xf9;" horiz-adv-x="536" 
d="M50 188v293q0 14 14 14h94q15 0 15 -14v-290q0 -93 86 -93q47 0 85 34q14 11 14 28v321q0 6 4.5 10t9.5 4h94q15 0 15 -14v-467q0 -14 -15 -14h-79q-10 0 -13 9l-9 38q-5 7 -10 2q-53 -57 -136 -57q-80 0 -124.5 51t-44.5 145zM163 671l57 33q15 8 25 -2l132 -106
q6 -5 5.5 -12t-6.5 -11l-41 -24q-11 -6 -23 1l-149 97q-7 4 -7 11.5t7 12.5z" />
    <glyph glyph-name="uacute" unicode="&#xfa;" horiz-adv-x="536" 
d="M50 188v293q0 14 14 14h94q15 0 15 -14v-290q0 -93 86 -93q47 0 85 34q14 11 14 28v321q0 6 4.5 10t9.5 4h94q15 0 15 -14v-467q0 -14 -15 -14h-79q-10 0 -13 9l-9 38q-5 7 -10 2q-53 -57 -136 -57q-80 0 -124.5 51t-44.5 145zM162 596l132 106q9 9 24 2l57 -33
q7 -4 7.5 -12t-6.5 -12l-149 -97q-10 -6 -24 -1l-40 24q-6 4 -6.5 11t5.5 12z" />
    <glyph glyph-name="ucircumflex" unicode="&#xfb;" horiz-adv-x="536" 
d="M50 188v293q0 14 14 14h94q15 0 15 -14v-290q0 -93 86 -93q47 0 85 34q14 11 14 28v321q0 6 4.5 10t9.5 4h94q15 0 15 -14v-467q0 -14 -15 -14h-79q-10 0 -13 9l-9 38q-5 7 -10 2q-53 -57 -136 -57q-80 0 -124.5 51t-44.5 145zM277 697l138 -98q6 -4 5.5 -11t-6.5 -11
l-33 -21q-9 -5 -17 0l-89 55q-6 2 -12 0l-89 -55q-9 -6 -17 0l-33 21q-6 4 -6.5 11t5.5 11l138 98q8 6 16 0z" />
    <glyph glyph-name="udieresis" unicode="&#xfc;" horiz-adv-x="536" 
d="M50 188v293q0 14 14 14h94q15 0 15 -14v-290q0 -93 86 -93q47 0 85 34q14 11 14 28v321q0 6 4.5 10t9.5 4h94q15 0 15 -14v-467q0 -14 -15 -14h-79q-10 0 -13 9l-9 38q-5 7 -10 2q-53 -57 -136 -57q-80 0 -124.5 51t-44.5 145zM175 680q22 0 37.5 -16t15.5 -38t-15.5 -38
t-37.5 -16q-23 0 -38.5 16t-15.5 38t15.5 38t38.5 16zM365 680q22 0 37.5 -16t15.5 -38t-15.5 -38t-37.5 -16q-23 0 -38.5 16t-15.5 38t15.5 38t38.5 16z" />
    <glyph glyph-name="yacute" unicode="&#xfd;" horiz-adv-x="533" 
d="M210 40l-195 437q-3 6 0.5 12t10.5 6h93q13 0 17 -12l129 -308q2 -5 6 -5t6 5l129 308q6 12 18 12h89q7 0 10.5 -5t0.5 -12l-294 -678q-4 -12 -18 -12h-83q-7 0 -10.5 6t-1.5 12l93 217q5 9 0 17zM159 596l132 106q9 9 24 2l57 -33q7 -4 7.5 -12t-6.5 -12l-149 -97
q-10 -6 -24 -1l-40 24q-6 4 -6.5 11t5.5 12z" />
    <glyph glyph-name="thorn" unicode="&#xfe;" 
d="M55 -198v890q0 14 14 14h94q14 0 14 -14v-232q0 -4 3.5 -5.5t7.5 0.5q52 48 124 48q83 0 145 -65t62 -166v-50q0 -108 -60 -169t-146 -61q-72 0 -125 47q-4 2 -7.5 1t-3.5 -5v-233q0 -14 -14 -14h-94q-14 0 -14 14zM190 365q-13 -10 -13 -27v-182q0 -17 13 -27
q38 -35 92 -35t85.5 35.5t31.5 95.5v44q0 60 -32 95q-32 36 -85 36q-54 0 -92 -35z" />
    <glyph glyph-name="ydieresis" unicode="&#xff;" horiz-adv-x="533" 
d="M210 40l-195 437q-3 6 0.5 12t10.5 6h93q13 0 17 -12l129 -308q2 -5 6 -5t6 5l129 308q6 12 18 12h89q7 0 10.5 -5t0.5 -12l-294 -678q-4 -12 -18 -12h-83q-7 0 -10.5 6t-1.5 12l93 217q5 9 0 17zM133 588q-16 16 -16 38t16 38t38 16t37 -16q16 -16 16 -38t-16 -38
q-15 -16 -37 -16t-38 16zM323 588q-16 16 -16 38t16 38t38 16t37 -16q16 -16 16 -38t-16 -38q-15 -16 -37 -16t-38 16z" />
    <glyph glyph-name="Amacron" unicode="&#x100;" horiz-adv-x="662" 
d="M20 18l289 677q5 11 16 11h18q11 0 16 -11l290 -677q2 -7 -2 -12.5t-11 -5.5h-96q-14 0 -20 12l-37 90q-6 14 -21 14h-256q-15 0 -20 -14l-38 -90q-4 -12 -19 -12h-97q-7 0 -11 5.5t-1 12.5zM327 446l-95 -228q-4 -10 7 -10h191q10 0 6 10l-95 228q-2 5 -7 5t-7 -5z
M204 869h260q14 0 14 -15v-48q0 -6 -4.5 -10.5t-9.5 -4.5h-260q-15 0 -15 15v48q0 15 15 15z" />
    <glyph glyph-name="amacron" unicode="&#x101;" 
d="M34 222v50q0 103 59 167q58 64 144 64q77 0 136 -56q2 -2 5.5 -1.5t4.5 3.5l8 35q3 11 16 11h78q5 0 9.5 -4t4.5 -10v-467q0 -6 -4.5 -10t-9.5 -4h-95q-14 0 -14 14v28q0 4 -4 5.5t-7 -1.5q-57 -54 -131 -54q-90 0 -145 64t-55 166zM154 269v-44q0 -60 31.5 -95.5
t85.5 -35.5q51 0 92 35q13 10 13 27v182q0 18 -13 28q-38 34 -92 34t-85.5 -35.5t-31.5 -95.5zM163 658h260q14 0 14 -15v-48q0 -6 -4.5 -10.5t-9.5 -4.5h-260q-15 0 -15 15v48q0 15 15 15z" />
    <glyph glyph-name="Abreve" unicode="&#x102;" horiz-adv-x="662" 
d="M20 18l289 677q5 11 16 11h18q11 0 16 -11l290 -677q2 -7 -2 -12.5t-11 -5.5h-96q-14 0 -20 12l-37 90q-6 14 -21 14h-256q-15 0 -20 -14l-38 -90q-4 -12 -19 -12h-97q-7 0 -11 5.5t-1 12.5zM327 446l-95 -228q-4 -10 7 -10h191q10 0 6 10l-95 228q-2 5 -7 5t-7 -5z
M424 893q6 11 18 5l38 -23q13 -6 4 -19q-12 -19 -27 -34t-51 -34q-36 -17 -72 -17q-56 0 -93 28q-38 28 -57 57q-9 13 4 19l38 23q12 6 18 -5q39 -48 90 -48t90 48z" />
    <glyph glyph-name="abreve" unicode="&#x103;" 
d="M34 222v50q0 103 59 167q58 64 144 64q77 0 136 -56q2 -2 5.5 -1.5t4.5 3.5l8 35q3 11 16 11h78q5 0 9.5 -4t4.5 -10v-467q0 -6 -4.5 -10t-9.5 -4h-95q-14 0 -14 14v28q0 4 -4 5.5t-7 -1.5q-57 -54 -131 -54q-90 0 -145 64t-55 166zM154 269v-44q0 -60 31.5 -95.5
t85.5 -35.5q51 0 92 35q13 10 13 27v182q0 18 -13 28q-38 34 -92 34t-85.5 -35.5t-31.5 -95.5zM387 682q6 11 18 5l38 -23q13 -6 4 -19q-12 -19 -27 -34t-51 -34q-36 -17 -72 -17q-56 0 -93 28q-38 28 -57 57q-9 13 4 19l38 23q12 6 18 -5q39 -48 90 -48t90 48z" />
    <glyph glyph-name="Aogonek" unicode="&#x104;" horiz-adv-x="662" 
d="M450 -88v9q0 60 66 99l-33 82q-6 14 -21 14h-256q-15 0 -20 -14l-38 -90q-4 -12 -19 -12h-97q-7 0 -11 5.5t-1 12.5l289 677q5 11 16 11h18q11 0 16 -11l290 -677q2 -7 -2 -12.5t-11 -5.5h-48q-73 -27 -73 -75v-4q0 -55 69 -55q22 0 52 11q14 6 19 -6l10 -21
q8 -14 -6 -20q-42 -20 -79 -20q-58 0 -94 28t-36 74zM327 446l-95 -228q-4 -10 7 -10h191q10 0 6 10l-95 228q-2 5 -7 5t-7 -5z" />
    <glyph glyph-name="aogonek" unicode="&#x105;" 
d="M305 -88v9q0 63 71 102v19q0 4 -4 5.5t-7 -1.5q-57 -54 -131 -54q-90 0 -145 64t-55 166v50q0 103 59 167q58 64 144 64q77 0 136 -56q2 -2 5.5 -1.5t4.5 3.5l8 35q3 11 16 11h78q5 0 9.5 -4t4.5 -10v-467q0 -6 -4.5 -10t-9.5 -4h-42q-73 -27 -73 -75v-4q0 -55 69 -55
q22 0 52 11q14 6 19 -6l10 -21q8 -14 -6 -20q-42 -20 -79 -20q-58 0 -94 28t-36 74zM154 269v-44q0 -60 31.5 -95.5t85.5 -35.5q51 0 92 35q13 10 13 27v182q0 18 -13 28q-38 34 -92 34t-85.5 -35.5t-31.5 -95.5z" />
    <glyph glyph-name="Cacute" unicode="&#x106;" horiz-adv-x="610" 
d="M46 323v58q0 149 93 242t240 93q102 0 185 -56q12 -8 3 -21l-53 -70q-12 -11 -21 -2q-50 35 -114 35q-95 0 -151.5 -60.5t-56.5 -160.5v-58q0 -100 56 -160t152 -60q60 0 113 35q12 11 20 -2l55 -71q11 -12 -3 -21q-80 -54 -185 -54q-149 0 -241 92t-92 241zM266 807
l132 106q9 9 24 2l57 -33q7 -4 7.5 -12t-6.5 -12l-149 -97q-10 -6 -24 -1l-40 24q-6 4 -6.5 11t5.5 12z" />
    <glyph glyph-name="cacute" unicode="&#x107;" horiz-adv-x="446" 
d="M34 220v55q0 95 71 163t175 68q75 0 137 -38q13 -8 5 -20l-38 -63q-8 -12 -19 -5q-38 23 -85 23q-54 0 -89.5 -37t-35.5 -92v-52q0 -55 35.5 -92.5t89.5 -37.5q44 0 84 23q13 6 19 -6l36 -63q7 -14 -6 -21q-60 -36 -133 -36q-105 0 -175 67q-71 68 -71 164zM160 596
l132 106q9 9 24 2l57 -33q7 -4 7.5 -12t-6.5 -12l-149 -97q-10 -6 -24 -1l-40 24q-6 4 -6.5 11t5.5 12z" />
    <glyph glyph-name="Ccircumflex" unicode="&#x108;" horiz-adv-x="610" 
d="M46 323v58q0 149 93 242t240 93q102 0 185 -56q12 -8 3 -21l-53 -70q-12 -11 -21 -2q-50 35 -114 35q-95 0 -151.5 -60.5t-56.5 -160.5v-58q0 -100 56 -160t152 -60q60 0 113 35q12 11 20 -2l55 -71q11 -12 -3 -21q-80 -54 -185 -54q-149 0 -241 92t-92 241zM380 908
l138 -98q6 -4 5.5 -11t-6.5 -11l-33 -21q-9 -5 -17 0l-89 55q-6 2 -12 0l-89 -55q-9 -6 -17 0l-33 21q-6 4 -6.5 11t5.5 11l138 98q8 6 16 0z" />
    <glyph glyph-name="ccircumflex" unicode="&#x109;" horiz-adv-x="446" 
d="M34 220v55q0 95 71 163t175 68q75 0 137 -38q13 -8 5 -20l-38 -63q-8 -12 -19 -5q-38 23 -85 23q-54 0 -89.5 -37t-35.5 -92v-52q0 -55 35.5 -92.5t89.5 -37.5q44 0 84 23q13 6 19 -6l36 -63q7 -14 -6 -21q-60 -36 -133 -36q-105 0 -175 67q-71 68 -71 164zM278 697
l138 -98q6 -4 5.5 -11t-6.5 -11l-33 -21q-8 -5 -17 0l-89 55q-6 2 -12 0l-89 -55q-9 -6 -17 0l-33 21q-6 4 -6.5 11t5.5 11l138 98q8 6 16 0z" />
    <glyph glyph-name="Cdotaccent" unicode="&#x10a;" horiz-adv-x="610" 
d="M46 323v58q0 149 93 242t240 93q102 0 185 -56q12 -8 3 -21l-53 -70q-12 -11 -21 -2q-50 35 -114 35q-95 0 -151.5 -60.5t-56.5 -160.5v-58q0 -100 56 -160t152 -60q60 0 113 35q12 11 20 -2l55 -71q11 -12 -3 -21q-80 -54 -185 -54q-149 0 -241 92t-92 241zM376 897
q24 0 42 -17.5t18 -41.5t-18 -41.5t-42 -17.5q-25 0 -42.5 17t-17.5 42t17.5 42t42.5 17z" />
    <glyph glyph-name="cdotaccent" unicode="&#x10b;" horiz-adv-x="446" 
d="M34 220v55q0 95 71 163t175 68q75 0 137 -38q13 -8 5 -20l-38 -63q-8 -12 -19 -5q-38 23 -85 23q-54 0 -89.5 -37t-35.5 -92v-52q0 -55 35.5 -92.5t89.5 -37.5q44 0 84 23q13 6 19 -6l36 -63q7 -14 -6 -21q-60 -36 -133 -36q-105 0 -175 67q-71 68 -71 164zM278 686
q24 0 42 -17.5t18 -41.5t-18 -41.5t-42 -17.5q-25 0 -42.5 17t-17.5 42t17.5 42t42.5 17z" />
    <glyph glyph-name="Ccaron" unicode="&#x10c;" horiz-adv-x="610" 
d="M46 323v58q0 149 93 242t240 93q102 0 185 -56q12 -8 3 -21l-53 -70q-12 -11 -21 -2q-50 35 -114 35q-95 0 -151.5 -60.5t-56.5 -160.5v-58q0 -100 56 -160t152 -60q60 0 113 35q12 11 20 -2l55 -71q11 -12 -3 -21q-80 -54 -185 -54q-149 0 -241 92t-92 241zM384 843
l89 55q9 5 17 0l33 -21q6 -4 6.5 -11t-5.5 -11l-138 -98q-8 -6 -16 0l-138 98q-6 4 -5.5 11t6.5 11l33 21q8 6 17 0l89 -55q6 -2 12 0z" />
    <glyph glyph-name="ccaron" unicode="&#x10d;" horiz-adv-x="446" 
d="M34 220v55q0 95 71 163t175 68q75 0 137 -38q13 -8 5 -20l-38 -63q-8 -12 -19 -5q-38 23 -85 23q-54 0 -89.5 -37t-35.5 -92v-52q0 -55 35.5 -92.5t89.5 -37.5q44 0 84 23q13 6 19 -6l36 -63q7 -14 -6 -21q-60 -36 -133 -36q-105 0 -175 67q-71 68 -71 164zM284 632
l89 55q9 5 17 0l33 -21q6 -4 6.5 -11t-5.5 -11l-138 -98q-5 -3 -8 -3q-4 0 -8 3l-138 98q-6 4 -5.5 11t6.5 11l33 21q8 6 17 0l89 -55q6 -2 12 0z" />
    <glyph glyph-name="Dcaron" unicode="&#x10e;" horiz-adv-x="694" 
d="M87 706h235q148 0 237 -89t89 -234v-62q0 -153 -94 -237q-93 -84 -232 -84h-236q-5 0 -9.5 4t-4.5 10v678q0 5 4.5 9.5t10.5 4.5zM322 596h-116q-10 0 -10 -10v-466q0 -10 9 -10h117q93 0 147 56.5t54 154.5v62q0 99 -53.5 156t-147.5 57zM339 843l89 55q8 5 17 0l33 -21
q6 -4 6.5 -11t-5.5 -11l-138 -98q-8 -5 -16 0l-138 98q-6 4 -5.5 11t6.5 11l33 21q8 6 17 0l89 -55q6 -2 12 0z" />
    <glyph glyph-name="dcaron" unicode="&#x10f;" 
d="M543 670q0 21 15 35.5t37 14.5t36.5 -14.5t14.5 -35.5q0 -61 -71 -126q-8 -7 -19 -5l-8 4q-4 1 -5.5 6t1.5 10q22 26 22 46q0 18 -11 32q-12 17 -12 33zM34 222v50q0 103 59 167q58 64 144 64q75 0 128 -49q3 -3 7 -1.5t4 6.5v233q0 14 14 14h95q5 0 9.5 -4t4.5 -10v-678
q0 -6 -4.5 -10t-9.5 -4h-81q-12 0 -13 9l-9 38q-1 3 -4 4t-6 -2q-54 -57 -137 -57q-90 0 -145 64q-56 65 -56 166zM154 269v-44q0 -60 31.5 -95.5t85.5 -35.5q51 0 92 35q13 10 13 27v182q0 18 -13 28q-37 34 -92 34q-54 0 -85.5 -35.5t-31.5 -95.5z" />
    <glyph glyph-name="Dcroat" unicode="&#x110;" horiz-adv-x="694" 
d="M87 706h235q148 0 237 -89t89 -234v-62q0 -153 -94 -237q-93 -84 -232 -84h-235q-15 0 -15 14v290q0 10 -10 10h-38q-6 0 -10.5 4.5t-4.5 9.5v43q0 6 4.5 10.5t10.5 4.5h38q10 0 10 10v296q0 5 4.5 9.5t10.5 4.5zM322 596h-116q-10 0 -10 -10v-190q0 -10 10 -10h39
q14 0 14 -15v-43q0 -5 -4 -9.5t-10 -4.5h-39q-10 0 -10 -10v-184q0 -10 10 -10h116q93 0 147 56.5t54 154.5v62q0 99 -53.5 156t-147.5 57z" />
    <glyph glyph-name="dslash" unicode="&#x111;" 
d="M34 222v50q0 103 59 167q58 64 144 64q75 0 128 -49q3 -3 7 -1.5t4 6.5v72q0 10 -10 10h-65q-6 0 -10.5 4.5t-4.5 10.5v42q0 6 4.5 10.5t10.5 4.5h65q10 0 10 10v69q0 14 14 14h95q5 0 9.5 -4t4.5 -10v-69q0 -10 10 -10h33q6 0 10.5 -4.5t4.5 -10.5v-42q0 -6 -4.5 -10.5
t-10.5 -4.5h-33q-10 0 -10 -10v-517q0 -6 -4.5 -10t-9.5 -4h-81q-8 0 -13 9l-9 38q-1 3 -4.5 3.5t-5.5 -1.5q-58 -57 -137 -57q-90 0 -145 64q-56 65 -56 166zM154 269v-44q0 -61 31 -96q32 -35 86 -35t92 35q13 10 13 27v182q0 18 -13 28q-38 34 -92 34t-85.5 -35.5
t-31.5 -95.5z" />
    <glyph glyph-name="Emacron" unicode="&#x112;" horiz-adv-x="584" 
d="M72 14v678q0 5 4.5 9.5t10.5 4.5h442q6 0 10.5 -4.5t4.5 -9.5v-82q0 -14 -15 -14h-323q-10 0 -10 -10v-175q0 -9 10 -9h231q6 0 10.5 -4.5t4.5 -10.5v-72q0 -14 -15 -14h-231q-10 0 -10 -11v-170q0 -10 9 -10h324q6 0 10.5 -4.5t4.5 -9.5v-82q0 -14 -15 -14h-443
q-5 0 -9.5 4t-4.5 10zM178 869h260q14 0 14 -15v-48q0 -6 -4.5 -10.5t-9.5 -4.5h-260q-15 0 -15 15v48q0 15 15 15z" />
    <glyph glyph-name="emacron" unicode="&#x113;" horiz-adv-x="531" 
d="M34 221v53q0 102 65 167t168 65q101 0 165 -64t64 -168v-47q0 -15 -15 -15h-317q-9 0 -9 -10q5 -52 40.5 -82t90.5 -30q49 0 86 31q8 9 19 1l66 -51q13 -11 -1 -22q-68 -60 -170 -60q-108 0 -180 66t-72 166zM268 405q-99 0 -112 -103q-2 -11 10 -11h198q12 0 10 11
q-12 103 -106 103zM140 658h260q14 0 14 -15v-48q0 -6 -4.5 -10.5t-9.5 -4.5h-260q-15 0 -15 15v48q0 15 15 15z" />
    <glyph glyph-name="Edotaccent" unicode="&#x116;" horiz-adv-x="584" 
d="M72 14v678q0 5 4.5 9.5t10.5 4.5h442q6 0 10.5 -4.5t4.5 -9.5v-82q0 -14 -15 -14h-323q-10 0 -10 -10v-175q0 -9 10 -9h231q6 0 10.5 -4.5t4.5 -10.5v-72q0 -14 -15 -14h-231q-10 0 -10 -11v-170q0 -10 9 -10h324q6 0 10.5 -4.5t4.5 -9.5v-82q0 -14 -15 -14h-443
q-5 0 -9.5 4t-4.5 10zM313 897q24 0 42 -17.5t18 -41.5t-18 -41.5t-42 -17.5q-25 0 -42.5 17t-17.5 42t17.5 42t42.5 17z" />
    <glyph glyph-name="edotaccent" unicode="&#x117;" horiz-adv-x="531" 
d="M34 221v53q0 102 65 167t168 65q101 0 165 -64t64 -168v-47q0 -15 -15 -15h-317q-9 0 -9 -10q5 -52 40.5 -82t90.5 -30q49 0 86 31q8 9 19 1l66 -51q13 -11 -1 -22q-68 -60 -170 -60q-108 0 -180 66t-72 166zM268 405q-99 0 -112 -103q-2 -11 10 -11h198q12 0 10 11
q-12 103 -106 103zM277 686q24 0 42 -17.5t18 -41.5t-18 -41.5t-42 -17.5q-25 0 -42.5 17t-17.5 42t17.5 42t42.5 17z" />
    <glyph glyph-name="Eogonek" unicode="&#x118;" horiz-adv-x="584" 
d="M382 -88v9q0 46 38 79h-334q-5 0 -9.5 4t-4.5 10v678q0 5 4.5 9.5t10.5 4.5h442q6 0 10.5 -4.5t4.5 -9.5v-82q0 -14 -15 -14h-323q-10 0 -10 -10v-175q0 -9 10 -9h231q6 0 10.5 -4.5t4.5 -10.5v-72q0 -14 -15 -14h-231q-10 0 -10 -11v-170q0 -10 9 -10h324q6 0 10.5 -4.5
t4.5 -9.5v-82q0 -14 -15 -14h-9q-73 -27 -73 -75v-4q0 -55 69 -55q22 0 52 11q14 6 19 -6l10 -21q8 -14 -6 -20q-42 -20 -79 -20q-58 0 -94 28t-36 74z" />
    <glyph glyph-name="eogonek" unicode="&#x119;" horiz-adv-x="531" 
d="M222 -88v9q0 38 29 70q-94 10 -156 74q-61 64 -61 156v53q0 102 65 167t168 65q101 0 165 -64t64 -168v-47q0 -15 -15 -15h-317q-9 0 -9 -10q5 -52 40.5 -82t90.5 -30q49 0 86 31q8 9 19 1l66 -51q13 -11 -1 -22q-47 -41 -108 -53q-61 -25 -61 -71v-4q0 -55 69 -55
q22 0 52 11q14 6 19 -6l10 -21q8 -14 -6 -20q-42 -20 -79 -20q-58 0 -94 28t-36 74zM268 405q-99 0 -112 -103q-2 -11 10 -11h198q12 0 10 11q-12 103 -106 103z" />
    <glyph glyph-name="Ecaron" unicode="&#x11a;" horiz-adv-x="584" 
d="M72 14v678q0 5 4.5 9.5t10.5 4.5h442q6 0 10.5 -4.5t4.5 -9.5v-82q0 -14 -15 -14h-323q-10 0 -10 -10v-175q0 -9 10 -9h231q6 0 10.5 -4.5t4.5 -10.5v-72q0 -14 -15 -14h-231q-10 0 -10 -11v-170q0 -10 9 -10h324q6 0 10.5 -4.5t4.5 -9.5v-82q0 -14 -15 -14h-443
q-5 0 -9.5 4t-4.5 10zM318 843l89 55q9 5 17 0l33 -21q6 -4 6.5 -11t-5.5 -11l-138 -98q-5 -3 -8 -3q-4 0 -8 3l-138 98q-6 4 -5.5 11t6.5 11l33 21q8 6 17 0l89 -55q6 -2 12 0z" />
    <glyph glyph-name="ecaron" unicode="&#x11b;" horiz-adv-x="531" 
d="M34 221v53q0 102 65 167t168 65q101 0 165 -64t64 -168v-47q0 -15 -15 -15h-317q-9 0 -9 -10q5 -52 40.5 -82t90.5 -30q49 0 86 31q8 9 19 1l66 -51q13 -11 -1 -22q-68 -60 -170 -60q-108 0 -180 66t-72 166zM268 405q-99 0 -112 -103q-2 -11 10 -11h198q12 0 10 11
q-12 103 -106 103zM283 632l89 55q8 5 17 0l33 -21q6 -4 6.5 -11t-5.5 -11l-138 -98q-8 -5 -16 0l-138 98q-6 4 -5.5 11t6.5 11l33 21q8 6 17 0l89 -55q6 -2 12 0z" />
    <glyph glyph-name="Gcircumflex" unicode="&#x11c;" horiz-adv-x="694" 
d="M46 323v58q0 149 93 242q95 93 240 93q110 0 190 -59q14 -8 3 -20l-53 -70q-9 -11 -22 -2q-49 37 -118 37q-93 0 -151 -61q-57 -60 -57 -160v-58q0 -100 56 -160t150 -60q68 0 119 33q10 6 10 20v102q0 10 -10 10h-110q-15 0 -15 14v64q0 14 15 14h229q14 0 14 -14v-332
q0 -5 -4 -9.5t-10 -4.5h-12q-11 0 -17 8l-35 38q-6 7 -15 1q-68 -57 -176 -57q-138 0 -227 92q-87 93 -87 241zM385 908l138 -98q6 -4 5.5 -11t-6.5 -11l-33 -21q-9 -5 -17 0l-89 55q-6 2 -12 0l-89 -55q-9 -6 -17 0l-33 21q-6 4 -6.5 11t5.5 11l138 98q8 6 16 0z" />
    <glyph glyph-name="gcircumflex" unicode="&#x11d;" 
d="M34 222v50q0 103 59 167q58 64 144 64q77 0 136 -56q3 -3 6 -2t4 4l8 35q3 11 16 11h78q5 0 9.5 -4t4.5 -10v-497q0 -102 -68 -162q-67 -61 -178 -61q-87 0 -145 39q-13 5 -5 20l34 56q7 13 20 5q35 -21 88 -21q63 0 97 33.5t34 93.5v60q0 4 -3.5 5.5t-7.5 -1.5
q-56 -59 -131 -59q-90 0 -145 64t-55 166zM154 269v-44q0 -60 31.5 -95.5t85.5 -35.5q51 0 92 35q13 10 13 27v182q0 18 -13 28q-37 34 -92 34q-54 0 -85.5 -35.5t-31.5 -95.5zM303 697l138 -98q6 -4 5.5 -11t-6.5 -11l-33 -21q-9 -5 -17 0l-89 55q-6 2 -12 0l-89 -55
q-9 -6 -17 0l-33 21q-6 4 -6.5 11t5.5 11l138 98q8 6 16 0z" />
    <glyph glyph-name="Gbreve" unicode="&#x11e;" horiz-adv-x="694" 
d="M46 323v58q0 149 93 242q95 93 240 93q110 0 190 -59q14 -8 3 -20l-53 -70q-9 -11 -22 -2q-49 37 -118 37q-93 0 -151 -61q-57 -60 -57 -160v-58q0 -100 56 -160t150 -60q68 0 119 33q10 6 10 20v102q0 10 -10 10h-110q-15 0 -15 14v64q0 14 15 14h229q14 0 14 -14v-332
q0 -5 -4 -9.5t-10 -4.5h-12q-11 0 -17 8l-35 38q-6 7 -15 1q-68 -57 -176 -57q-138 0 -227 92q-87 93 -87 241zM470 893q6 11 18 5l38 -23q13 -6 4 -19q-12 -19 -27 -34t-51 -34q-36 -17 -72 -17q-56 0 -93 28q-38 28 -57 57q-9 13 4 19l38 23q12 6 18 -5q39 -48 90 -48
t90 48z" />
    <glyph glyph-name="gbreve" unicode="&#x11f;" 
d="M34 222v50q0 103 59 167q58 64 144 64q77 0 136 -56q3 -3 6 -2t4 4l8 35q3 11 16 11h78q5 0 9.5 -4t4.5 -10v-497q0 -102 -68 -162q-67 -61 -178 -61q-87 0 -145 39q-13 5 -5 20l34 56q7 13 20 5q35 -21 88 -21q63 0 97 33.5t34 93.5v60q0 4 -3.5 5.5t-7.5 -1.5
q-56 -59 -131 -59q-90 0 -145 64t-55 166zM154 269v-44q0 -60 31.5 -95.5t85.5 -35.5q51 0 92 35q13 10 13 27v182q0 18 -13 28q-37 34 -92 34q-54 0 -85.5 -35.5t-31.5 -95.5zM386 682q6 11 18 5l38 -23q13 -6 4 -19q-12 -19 -27 -34t-51 -34q-36 -17 -72 -17q-56 0 -93 28
t-57 57q-9 13 4 19l38 23q12 6 18 -5q39 -48 90 -48t90 48z" />
    <glyph glyph-name="Gdotaccent" unicode="&#x120;" horiz-adv-x="694" 
d="M46 323v58q0 149 93 242q95 93 240 93q110 0 190 -59q14 -8 3 -20l-53 -70q-9 -11 -22 -2q-49 37 -118 37q-93 0 -151 -61q-57 -60 -57 -160v-58q0 -100 56 -160t150 -60q68 0 119 33q10 6 10 20v102q0 10 -10 10h-110q-15 0 -15 14v64q0 14 15 14h229q14 0 14 -14v-332
q0 -5 -4 -9.5t-10 -4.5h-12q-11 0 -17 8l-35 38q-6 7 -15 1q-68 -57 -176 -57q-138 0 -227 92q-87 93 -87 241zM384 897q24 0 42 -17.5t18 -41.5t-18 -41.5t-42 -17.5q-25 0 -42.5 17t-17.5 42t17.5 42t42.5 17z" />
    <glyph glyph-name="gdotaccent" unicode="&#x121;" 
d="M34 222v50q0 103 59 167q58 64 144 64q77 0 136 -56q3 -3 6 -2t4 4l8 35q3 11 16 11h78q5 0 9.5 -4t4.5 -10v-497q0 -102 -68 -162q-67 -61 -178 -61q-87 0 -145 39q-13 5 -5 20l34 56q7 13 20 5q35 -21 88 -21q63 0 97 33.5t34 93.5v60q0 4 -3.5 5.5t-7.5 -1.5
q-56 -59 -131 -59q-90 0 -145 64t-55 166zM154 269v-44q0 -60 31.5 -95.5t85.5 -35.5q51 0 92 35q13 10 13 27v182q0 18 -13 28q-37 34 -92 34q-54 0 -85.5 -35.5t-31.5 -95.5zM294 686q24 0 42 -17.5t18 -41.5t-18 -41.5t-42 -17.5q-25 0 -42.5 17t-17.5 42t17.5 42
t42.5 17z" />
    <glyph glyph-name="uni0122" unicode="&#x122;" horiz-adv-x="694" 
d="M46 323v58q0 149 93 242q95 93 240 93q110 0 190 -59q14 -8 3 -20l-53 -70q-9 -11 -22 -2q-49 37 -118 37q-93 0 -151 -61q-57 -60 -57 -160v-58q0 -100 56 -160t150 -60q68 0 119 33q10 6 10 20v102q0 10 -10 10h-110q-15 0 -15 14v64q0 14 15 14h229q14 0 14 -14v-332
q0 -5 -4 -9.5t-10 -4.5h-12q-11 0 -17 8l-35 38q-6 7 -15 1q-68 -57 -176 -57q-138 0 -227 92q-87 93 -87 241zM317 -110q0 21 14.5 35.5t37.5 14.5q21 0 35.5 -14.5t14.5 -35.5q0 -64 -71 -126q-8 -7 -19 -5l-8 4q-4 1 -5 6t2 10q21 28 21 46t-11 32q-11 17 -11 33z" />
    <glyph glyph-name="uni0123" unicode="&#x123;" 
d="M333 619q0 -21 -14.5 -35.5t-36.5 -14.5t-36.5 14.5t-14.5 35.5q0 64 71 126q8 7 19 5l8 -3q10 -6 4 -17q-36 -46 -11 -78q11 -17 11 -33zM34 222v50q0 103 59 167q58 64 144 64q77 0 136 -56q3 -3 6 -2t4 4l8 35q3 11 16 11h78q5 0 9.5 -4t4.5 -10v-497q0 -102 -68 -162
q-67 -61 -178 -61q-87 0 -145 39q-13 5 -5 20l34 56q7 13 20 5q35 -21 88 -21q63 0 97 33.5t34 93.5v60q0 4 -3.5 5.5t-7.5 -1.5q-56 -59 -131 -59q-90 0 -145 64t-55 166zM154 269v-44q0 -60 31.5 -95.5t85.5 -35.5q51 0 92 35q13 10 13 27v182q0 18 -13 28q-37 34 -92 34
q-54 0 -85.5 -35.5t-31.5 -95.5z" />
    <glyph glyph-name="Hcircumflex" unicode="&#x124;" horiz-adv-x="718" 
d="M72 14v678q0 5 4.5 9.5t10.5 4.5h94q6 0 10.5 -4.5t4.5 -9.5v-281q0 -9 10 -9h307q10 0 10 9v281q0 14 15 14h94q5 0 9.5 -4.5t4.5 -9.5v-678q0 -6 -4.5 -10t-9.5 -4h-94q-15 0 -15 14v276q0 11 -10 11h-307q-10 0 -10 -11v-276q0 -6 -4.5 -10t-9.5 -4h-95q-15 0 -15 14z
M367 908l138 -98q6 -4 5.5 -11t-6.5 -11l-33 -21q-9 -5 -17 0l-89 55q-6 2 -12 0l-89 -55q-9 -6 -17 0l-33 21q-6 4 -6.5 11t5.5 11l138 98q8 6 16 0z" />
    <glyph glyph-name="hcircumflex" unicode="&#x125;" horiz-adv-x="542" 
d="M57 14v678q0 14 14 14h94q14 0 14 -14v-236q0 -5 4 -6.5t8 2.5q47 51 130 51q82 0 127.5 -51t45.5 -143v-295q0 -14 -14 -14h-94q-15 0 -15 14v289q0 93 -88 93q-50 0 -90 -34q-14 -11 -14 -29v-319q0 -14 -14 -14h-94q-14 0 -14 14zM127 908l138 -98q6 -4 5.5 -11
t-6.5 -11l-33 -21q-9 -5 -17 0l-89 55q-6 2 -12 0l-89 -55q-9 -6 -17 0l-33 21q-6 4 -6.5 11t5.5 11l138 98q8 6 16 0z" />
    <glyph glyph-name="Hbar" unicode="&#x126;" horiz-adv-x="718" 
d="M72 609v83q0 5 4.5 9.5t10.5 4.5h94q6 0 10.5 -4.5t4.5 -9.5v-83q0 -10 10 -10h307q10 0 10 10v83q0 14 15 14h94q5 0 9.5 -4.5t4.5 -9.5v-83q0 -10 10 -10h30q5 0 9.5 -4.5t4.5 -10.5v-42q0 -6 -4.5 -10.5t-9.5 -4.5h-30q-10 0 -10 -10v-503q0 -6 -4.5 -10t-9.5 -4h-94
q-15 0 -15 14v276q0 11 -10 11h-307q-10 0 -10 -11v-276q0 -6 -4.5 -10t-9.5 -4h-95q-15 0 -15 14v503q0 10 -10 10h-28q-15 0 -15 15v42q0 15 15 15h28q10 0 10 10zM196 517v-106q0 -9 10 -9h307q10 0 10 9v106q0 10 -10 10h-307q-10 0 -10 -10z" />
    <glyph glyph-name="hbar" unicode="&#x127;" horiz-adv-x="542" 
d="M55 623v69q0 14 14 14h94q14 0 14 -14v-69q0 -10 10 -10h66q5 0 9.5 -4.5t4.5 -10.5v-42q0 -6 -4.5 -10.5t-9.5 -4.5h-66q-10 0 -10 -10v-75q0 -5 4 -6.5t8 2.5q51 51 130 51q82 0 127.5 -51t45.5 -143v-295q0 -14 -14 -14h-94q-15 0 -15 14v289q0 93 -88 93
q-53 0 -90 -34q-14 -9 -14 -27v-321q0 -14 -14 -14h-94q-14 0 -14 14v517q0 10 -11 10h-33q-6 0 -10.5 4.5t-4.5 10.5v42q0 6 4.5 10.5t10.5 4.5h33q11 0 11 10z" />
    <glyph glyph-name="Imacron" unicode="&#x12a;" horiz-adv-x="268" 
d="M72 14v678q0 5 4.5 9.5t9.5 4.5h96q5 0 9.5 -4.5t4.5 -9.5v-678q0 -6 -4.5 -10t-9.5 -4h-96q-5 0 -9.5 4t-4.5 10zM5 869h260q14 0 14 -15v-48q0 -6 -4.5 -10.5t-9.5 -4.5h-260q-15 0 -15 15v48q0 15 15 15z" />
    <glyph glyph-name="imacron" unicode="&#x12b;" horiz-adv-x="232" 
d="M54 14v467q0 6 4.5 10t9.5 4h94q15 0 15 -14v-467q0 -14 -15 -14h-93q-15 0 -15 14zM-13 658h260q14 0 14 -15v-48q0 -6 -4.5 -10.5t-9.5 -4.5h-260q-15 0 -15 15v48q0 15 15 15z" />
    <glyph glyph-name="Iogonek" unicode="&#x12e;" horiz-adv-x="268" 
d="M2 -88v9q0 62 70 101v670q0 5 4.5 9.5t9.5 4.5h96q5 0 9.5 -4.5t4.5 -9.5v-678q0 -6 -4.5 -10t-9.5 -4h-42q-73 -27 -73 -75v-4q0 -55 69 -55q22 0 52 11q14 6 19 -6l10 -21q8 -14 -6 -20q-42 -20 -79 -20q-58 0 -94 28t-36 74z" />
    <glyph glyph-name="iogonek" unicode="&#x12f;" horiz-adv-x="232" 
d="M-17 -88v9q0 64 72 103v457q0 14 14 14h94q14 0 14 -14v-467q0 -14 -14 -14h-42q-73 -27 -73 -75v-4q0 -55 69 -55q22 0 52 11q14 6 19 -6l10 -21q8 -14 -6 -20q-42 -20 -79 -20q-58 0 -94 28t-36 74zM70 583q-18 18 -18 45t19 45q19 19 45 19t45 -19q19 -18 19 -45
t-19 -45q-18 -18 -45 -18t-46 18z" />
    <glyph glyph-name="Idot" unicode="&#x130;" horiz-adv-x="268" 
d="M72 14v678q0 5 4.5 9.5t9.5 4.5h96q5 0 9.5 -4.5t4.5 -9.5v-678q0 -6 -4.5 -10t-9.5 -4h-96q-5 0 -9.5 4t-4.5 10zM134 897q24 0 42 -17.5t18 -41.5t-18 -41.5t-42 -17.5q-25 0 -42.5 17t-17.5 42t17.5 42t42.5 17z" />
    <glyph glyph-name="dotlessi" unicode="&#x131;" horiz-adv-x="231" 
d="M54 14v467q0 6 4.5 10t9.5 4h94q15 0 15 -14v-467q0 -14 -15 -14h-93q-15 0 -15 14z" />
    <glyph glyph-name="Jcircumflex" unicode="&#x134;" horiz-adv-x="382" 
d="M202 168v524q0 5 4.5 9.5t9.5 4.5h96q5 0 9.5 -4.5t4.5 -9.5v-528q0 -72 -45 -121q-43 -49 -122 -49q-67 0 -119 28q-15 6 -6 21l37 65q6 11 17 5q27 -12 48 -12q30 0 48 18.5t18 48.5zM274 908l138 -98q6 -4 5.5 -11t-6.5 -11l-33 -21q-9 -5 -17 0l-89 55q-6 2 -12 0
l-89 -55q-9 -6 -17 0l-33 21q-6 4 -6.5 11t5.5 11l138 98q8 6 16 0z" />
    <glyph glyph-name="jcircumflex" unicode="&#x135;" horiz-adv-x="236" 
d="M66 -52v533q0 14 14 14h95q5 0 9.5 -4t4.5 -10v-533q0 -73 -45 -121q-43 -49 -122 -49q-67 0 -118 27q-15 5 -7 20l34 61q5 11 17 6q24 -12 52 -12q32 0 49 18.5t17 49.5zM135 697l138 -98q6 -4 5.5 -11t-6.5 -11l-33 -21q-8 -5 -17 0l-89 55q-6 2 -12 0l-89 -55
q-9 -6 -17 0l-33 21q-6 4 -6.5 11t5.5 11l138 98q8 6 16 0z" />
    <glyph glyph-name="uni0136" unicode="&#x136;" horiz-adv-x="652" 
d="M72 14v678q0 5 4.5 9.5t9.5 4.5h95q5 0 9.5 -4.5t4.5 -9.5v-293q0 -10 10 -10h5q77 0 135 43q111 82 129 243l2 17q0 14 15 14h98q6 0 10.5 -4.5t3.5 -10.5l-2 -20q-11 -99 -56.5 -181t-117.5 -133q-8 -5 -4 -15l201 -321q4 -6 0 -13.5t-13 -7.5h-108q-9 0 -14 8
l-172 288q-6 10 -16 7q-39 -13 -91 -13h-5q-10 0 -10 -11v-265q0 -6 -4.5 -10t-9.5 -4h-95q-5 0 -9.5 4t-4.5 10zM279 -110q0 21 14.5 35.5t37.5 14.5q21 0 35.5 -14.5t14.5 -35.5q0 -64 -71 -126q-8 -7 -19 -5l-8 4q-4 1 -5 6t2 10q21 28 21 46t-11 32q-11 17 -11 33z" />
    <glyph glyph-name="uni0137" unicode="&#x137;" horiz-adv-x="513" 
d="M55 14v678q0 14 14 14h94q14 0 14 -14v-390q0 -12 12 -10q66 10 107.5 57t48.5 117l1 16q1 13 14 13h98q6 0 10.5 -4t3.5 -11l-3 -20q-18 -128 -115 -200q-8 -6 -2 -13l145 -225q5 -7 0.5 -14.5t-13.5 -7.5h-105q-10 0 -13 8l-113 193q-5 9 -15 6q-24 -8 -52 -9
q-9 0 -9 -10v-174q0 -14 -14 -14h-94q-14 0 -14 14zM214 -110q0 21 14.5 35.5t37.5 14.5q21 0 35.5 -14.5t14.5 -35.5q0 -64 -71 -126q-8 -7 -19 -5l-8 4q-4 1 -5 6t2 10q21 28 21 46t-11 32q-11 17 -11 33z" />
    <glyph glyph-name="Lacute" unicode="&#x139;" horiz-adv-x="540" 
d="M72 14v678q0 5 4.5 9.5t10.5 4.5h95q5 0 9.5 -4.5t4.5 -9.5v-572q0 -10 10 -10h297q6 0 10 -4.5t4 -9.5v-82q0 -14 -14 -14h-416q-15 0 -15 14zM171 807l132 106q9 9 24 2l57 -33q7 -4 7.5 -12t-6.5 -12l-149 -97q-10 -6 -24 -1l-40 24q-6 4 -6.5 11t5.5 12z" />
    <glyph glyph-name="lacute" unicode="&#x13a;" horiz-adv-x="232" 
d="M8 807l132 106q9 9 24 2l57 -33q7 -4 7.5 -12t-6.5 -12l-149 -97q-10 -6 -24 -1l-40 24q-6 4 -6.5 11t5.5 12zM55 14v678q0 14 14 14h94q14 0 14 -14v-678q0 -14 -14 -14h-94q-14 0 -14 14z" />
    <glyph glyph-name="uni013B" unicode="&#x13b;" horiz-adv-x="540" 
d="M233 -110q0 21 14.5 35.5t37.5 14.5q21 0 35.5 -14.5t14.5 -35.5q0 -64 -71 -126q-8 -7 -19 -5l-8 4q-4 1 -5 6t2 10q21 28 21 46t-11 32q-11 17 -11 33zM72 14v678q0 5 4.5 9.5t10.5 4.5h95q5 0 9.5 -4.5t4.5 -9.5v-572q0 -10 10 -10h297q6 0 10 -4.5t4 -9.5v-82
q0 -14 -14 -14h-416q-15 0 -15 14z" />
    <glyph glyph-name="uni013C" unicode="&#x13c;" horiz-adv-x="232" 
d="M66 -110q0 21 14.5 35.5t37.5 14.5q21 0 35.5 -14.5t14.5 -35.5q0 -64 -71 -126q-8 -7 -19 -5l-8 4q-4 1 -5 6t2 10q21 29 21 46q0 18 -11 32q-11 17 -11 33zM55 14v678q0 14 14 14h94q14 0 14 -14v-678q0 -14 -14 -14h-94q-14 0 -14 14z" />
    <glyph glyph-name="Lcaron" unicode="&#x13d;" horiz-adv-x="540" 
d="M287 844q0 21 14.5 35t37.5 14q22 0 36 -14t14 -35q0 -63 -70 -126q-11 -8 -19 -5l-9 3q-9 6 -3 16q22 31 22 47q0 17 -11 31q-12 16 -12 34zM72 14v678q0 5 4.5 9.5t10.5 4.5h95q5 0 9.5 -4.5t4.5 -9.5v-572q0 -10 10 -10h297q6 0 10 -4.5t4 -9.5v-82q0 -14 -14 -14
h-416q-15 0 -15 14z" />
    <glyph glyph-name="lcaron" unicode="&#x13e;" horiz-adv-x="232" 
d="M222 670q0 21 14.5 35.5t36.5 14.5t36.5 -14.5t14.5 -35.5q0 -61 -71 -126q-8 -7 -19 -5l-8 4q-4 1 -5.5 6t1.5 10q22 26 22 46q0 18 -11 32q-11 17 -11 33zM55 14v678q0 14 14 14h94q14 0 14 -14v-678q0 -14 -14 -14h-94q-14 0 -14 14z" />
    <glyph glyph-name="Lslash" unicode="&#x141;" horiz-adv-x="540" 
d="M78 366v326q0 5 4.5 9.5t10.5 4.5h95q5 0 9.5 -4.5t4.5 -9.5v-272q0 -12 11 -7l26 12q15 6 19 -7l19 -39q4 -12 -7 -19l-55 -26q-13 -4 -13 -21v-193q0 -10 10 -10h297q6 0 10 -4.5t4 -9.5v-82q0 -14 -14 -14h-416q-15 0 -15 14v245q0 12 -11 7l-26 -13q-13 -7 -19 7
l-19 39q-6 12 8 20l54 25q13 6 13 22z" />
    <glyph glyph-name="lslash" unicode="&#x142;" horiz-adv-x="232" 
d="M62 366v326q0 14 14 14h94q14 0 14 -14v-272q0 -5 3.5 -7t7.5 0l27 12q15 6 19 -7l18 -39q7 -12 -6 -19l-55 -26q-14 -5 -14 -21v-299q0 -14 -14 -14h-94q-14 0 -14 14v245q0 4 -4 6.5t-8 0.5l-25 -13q-5 -3 -11.5 -0.5t-8.5 7.5l-18 39q-7 12 7 20l54 25q14 8 14 22z
" />
    <glyph glyph-name="Nacute" unicode="&#x143;" horiz-adv-x="731" 
d="M72 14v678q0 5 4.5 9.5t10.5 4.5h11q8 0 13 -5l412 -431q3 -3 7.5 -1.5t4.5 6.5v417q0 5 4 9.5t10 4.5h94q15 0 15 -14v-678q0 -14 -15 -14h-12q-9 0 -16 7l-407 431q-3 3 -7.5 1.5t-4.5 -6.5v-419q0 -14 -14 -14h-95q-15 0 -15 14zM258 807l132 106q9 9 24 2l57 -33
q7 -4 7.5 -12t-6.5 -12l-149 -97q-10 -6 -24 -1l-40 24q-6 4 -6.5 11t5.5 12z" />
    <glyph glyph-name="nacute" unicode="&#x144;" horiz-adv-x="542" 
d="M55 14v467q0 14 14 14h80q11 0 13 -9l8 -39q1 -4 5 -5t7 3q55 58 139 58q81 0 126 -51t45 -143v-295q0 -14 -15 -14h-94q-5 0 -9.5 4t-4.5 10v289q0 93 -88 93q-52 0 -90 -34q-14 -12 -14 -29v-319q0 -14 -14 -14h-94q-14 0 -14 14zM178 596l132 106q9 9 24 2l57 -33
q7 -4 7.5 -12t-6.5 -12l-149 -97q-10 -6 -24 -1l-40 24q-6 4 -6.5 11t5.5 12z" />
    <glyph glyph-name="uni0145" unicode="&#x145;" horiz-adv-x="731" 
d="M72 14v678q0 5 4.5 9.5t10.5 4.5h11q8 0 13 -5l412 -431q3 -3 7.5 -1.5t4.5 6.5v417q0 5 4 9.5t10 4.5h94q15 0 15 -14v-678q0 -14 -15 -14h-12q-9 0 -16 7l-407 431q-3 3 -7.5 1.5t-4.5 -6.5v-419q0 -14 -14 -14h-95q-15 0 -15 14zM319 -110q0 21 14.5 35.5t37.5 14.5
q21 0 35.5 -14.5t14.5 -35.5q0 -64 -71 -126q-8 -7 -19 -5l-8 4q-4 1 -5 6t2 10q21 28 21 46t-11 32q-11 17 -11 33z" />
    <glyph glyph-name="uni0146" unicode="&#x146;" horiz-adv-x="542" 
d="M55 14v467q0 14 14 14h80q11 0 13 -9l8 -39q1 -4 5 -5t7 3q55 58 139 58q81 0 126 -51t45 -143v-295q0 -14 -15 -14h-94q-5 0 -9.5 4t-4.5 10v289q0 93 -88 93q-52 0 -90 -34q-14 -12 -14 -29v-319q0 -14 -14 -14h-94q-14 0 -14 14zM221 -110q0 21 14.5 35.5t37.5 14.5
q21 0 35.5 -14.5t14.5 -35.5q0 -64 -71 -126q-8 -7 -19 -5l-8 4q-4 1 -5 6t2 10q21 28 21 46t-11 32q-11 17 -11 33z" />
    <glyph glyph-name="Ncaron" unicode="&#x147;" horiz-adv-x="731" 
d="M72 14v678q0 5 4.5 9.5t10.5 4.5h11q8 0 13 -5l412 -431q3 -3 7.5 -1.5t4.5 6.5v417q0 5 4 9.5t10 4.5h94q15 0 15 -14v-678q0 -14 -15 -14h-12q-9 0 -16 7l-407 431q-3 3 -7.5 1.5t-4.5 -6.5v-419q0 -14 -14 -14h-95q-15 0 -15 14zM384 843l89 55q9 5 17 0l33 -21
q6 -4 6.5 -11t-5.5 -11l-138 -98q-8 -6 -16 0l-138 98q-6 4 -5.5 11t6.5 11l33 21q8 6 17 0l89 -55q6 -2 12 0z" />
    <glyph glyph-name="ncaron" unicode="&#x148;" horiz-adv-x="542" 
d="M55 14v467q0 14 14 14h80q11 0 13 -9l8 -39q1 -4 5 -5t7 3q55 58 139 58q81 0 126 -51t45 -143v-295q0 -14 -15 -14h-94q-5 0 -9.5 4t-4.5 10v289q0 93 -88 93q-52 0 -90 -34q-14 -12 -14 -29v-319q0 -14 -14 -14h-94q-14 0 -14 14zM292 632l89 55q9 5 17 0l33 -21
q6 -4 6.5 -11t-5.5 -11l-138 -98q-8 -6 -16 0l-138 98q-6 4 -5.5 11t6.5 11l33 21q8 6 17 0l89 -55q6 -2 12 0z" />
    <glyph glyph-name="Omacron" unicode="&#x14c;" horiz-adv-x="746" 
d="M46 324v59q0 149 90 241q92 92 237 92q146 0 236 -92q91 -91 91 -241v-59q0 -151 -90 -242q-90 -92 -237 -92t-237 92q-90 91 -90 242zM171 383v-59q0 -104 54 -162.5t148 -58.5q93 0 147 58.5t54 162.5v59q0 102 -54 160.5t-147 58.5q-94 0 -148 -58.5t-54 -160.5z
M243 869h260q14 0 14 -15v-48q0 -6 -4.5 -10.5t-9.5 -4.5h-260q-15 0 -15 15v48q0 15 15 15z" />
    <glyph glyph-name="omacron" unicode="&#x14d;" horiz-adv-x="559" 
d="M34 220v55q0 99 70 165t175 66t175 -66q70 -64 70 -165v-55q0 -100 -70 -166q-71 -65 -175 -65q-105 0 -175 66t-70 165zM154 274v-53q0 -58 34.5 -94.5t90.5 -36.5t90.5 36t34.5 95v53q0 59 -34.5 95t-90.5 36t-90.5 -36.5t-34.5 -94.5zM150 658h260q14 0 14 -15v-48
q0 -6 -4.5 -10.5t-9.5 -4.5h-260q-15 0 -15 15v48q0 15 15 15z" />
    <glyph glyph-name="Ohungarumlaut" unicode="&#x150;" horiz-adv-x="746" 
d="M46 324v59q0 149 90 241q92 92 237 92q146 0 236 -92q91 -91 91 -241v-59q0 -151 -90 -242q-90 -92 -237 -92t-237 92q-90 91 -90 242zM171 383v-59q0 -104 54 -162.5t148 -58.5q93 0 147 58.5t54 162.5v59q0 102 -54 160.5t-147 58.5q-94 0 -148 -58.5t-54 -160.5z
M375 797l134 109q7 6 17 1l47 -26q7 -5 7 -13t-7 -12l-152 -99q-8 -5 -16 0l-29 17q-6 4 -6.5 11t5.5 12zM175 797l134 109q7 6 17 1l47 -26q7 -5 7 -13t-7 -12l-152 -99q-8 -5 -16 0l-29 17q-6 4 -6.5 11t5.5 12z" />
    <glyph glyph-name="ohungarumlaut" unicode="&#x151;" horiz-adv-x="559" 
d="M282 586l134 109q7 6 17 1l47 -26q7 -4 7 -12t-7 -13l-152 -99q-8 -5 -16 0l-29 17q-6 4 -6.5 11t5.5 12zM82 586l134 109q7 6 17 1l47 -26q7 -4 7 -12t-7 -13l-152 -99q-8 -5 -16 0l-29 17q-6 4 -6.5 11t5.5 12zM34 220v55q0 99 70 165t175 66t175 -66q70 -64 70 -165
v-55q0 -100 -70 -166q-71 -65 -175 -65q-105 0 -175 66t-70 165zM154 274v-53q0 -58 34.5 -94.5t90.5 -36.5t90.5 36t34.5 95v53q0 59 -34.5 95t-90.5 36t-90.5 -36.5t-34.5 -94.5z" />
    <glyph glyph-name="OE" unicode="&#x152;" horiz-adv-x="1086" 
d="M46 324v59q0 149 90 241q92 92 237 92q116 0 188 -72q5 -4 9 -1.5t4 7.5v42q0 5 4.5 9.5t10.5 4.5h442q6 0 10.5 -4.5t4.5 -9.5v-82q0 -14 -15 -14h-323q-10 0 -10 -10v-175q0 -9 10 -9h231q6 0 10.5 -4.5t4.5 -10.5v-72q0 -14 -15 -14h-231q-10 0 -10 -11v-170
q0 -10 9 -10h324q6 0 10.5 -4.5t4.5 -9.5v-82q0 -14 -15 -14h-443q-5 0 -9.5 4t-4.5 10v42q0 5 -4 7.5t-9 -1.5q-73 -72 -188 -72q-147 0 -237 92q-90 91 -90 242zM171 383v-59q0 -104 54 -162.5t148 -58.5q93 0 147 58.5t54 162.5v59q0 102 -54 160.5t-147 58.5
q-94 0 -148 -58.5t-54 -160.5z" />
    <glyph glyph-name="oe" unicode="&#x153;" horiz-adv-x="901" 
d="M34 220v55q0 99 70 165t175 66q106 0 175 -66q7 -6 13 0q66 66 170 66q101 0 165 -64t64 -168v-47q0 -15 -15 -15h-317q-9 0 -9 -10q5 -52 40.5 -82t90.5 -30q49 0 86 31q8 9 19 1l66 -51q13 -11 -1 -22q-68 -60 -170 -60q-111 0 -182 68q-9 8 -17 0q-71 -68 -178 -68
q-105 0 -175 66t-70 165zM154 274v-53q0 -58 34.5 -94.5t90.5 -36.5t90.5 36t34.5 95v53q0 59 -34.5 95t-90.5 36t-90.5 -36.5t-34.5 -94.5zM638 405q-99 0 -112 -103q-2 -11 10 -11h198q12 0 10 11q-12 103 -106 103z" />
    <glyph glyph-name="Racute" unicode="&#x154;" horiz-adv-x="644" 
d="M72 14v678q0 5 4.5 9.5t10.5 4.5h295q88 0 148 -62t60 -153v-8q0 -76 -43 -128q-44 -53 -105 -74q-11 -3 -8 -13q17 -75 63.5 -118.5t115.5 -47.5q13 -1 13 -15v-79q0 -15 -14 -15q-118 2 -196 71t-101 193q-2 11 -13 11h-96q-10 0 -10 -11v-243q0 -6 -4.5 -10t-9.5 -4
h-95q-15 0 -15 14zM196 585v-211q0 -11 10 -11h138q52 0 82.5 30.5t30.5 82.5v7q0 53 -31 83t-86 30h-134q-10 0 -10 -11zM219 807l132 106q9 9 24 2l57 -33q7 -4 7.5 -12t-6.5 -12l-149 -97q-10 -6 -24 -1l-40 24q-6 4 -6.5 11t5.5 12z" />
    <glyph glyph-name="racute" unicode="&#x155;" horiz-adv-x="396" 
d="M55 14v467q0 14 14 14h80q11 0 13 -9l8 -32q1 -3 4.5 -4t6.5 2q45 50 118 50q49 0 91 -27q10 -9 4 -20l-42 -66q-7 -11 -20 -4q-23 13 -51 13q-53 0 -91 -35q-13 -10 -13 -31v-318q0 -14 -14 -14h-94q-14 0 -14 14zM128 596l132 106q9 9 24 2l57 -33q7 -4 7.5 -12
t-6.5 -12l-149 -97q-10 -6 -24 -1l-40 24q-6 4 -6.5 11t5.5 12z" />
    <glyph glyph-name="uni0156" unicode="&#x156;" horiz-adv-x="644" 
d="M72 14v678q0 5 4.5 9.5t10.5 4.5h295q88 0 148 -62t60 -153v-8q0 -76 -43 -128q-44 -53 -105 -74q-11 -3 -8 -13q17 -75 63.5 -118.5t115.5 -47.5q13 -1 13 -15v-79q0 -15 -14 -15q-118 2 -196 71t-101 193q-2 11 -13 11h-96q-10 0 -10 -11v-243q0 -6 -4.5 -10t-9.5 -4
h-95q-15 0 -15 14zM196 585v-211q0 -11 10 -11h138q52 0 82.5 30.5t30.5 82.5v7q0 53 -31 83t-86 30h-134q-10 0 -10 -11zM275 -110q0 21 14.5 35.5t37.5 14.5q21 0 35.5 -14.5t14.5 -35.5q0 -64 -71 -126q-8 -7 -19 -5l-8 4q-4 1 -5 6t2 10q21 28 21 46t-11 32
q-11 17 -11 33z" />
    <glyph glyph-name="uni0157" unicode="&#x157;" horiz-adv-x="396" 
d="M55 14v467q0 14 14 14h80q11 0 13 -9l8 -32q1 -3 4.5 -4t6.5 2q45 50 118 50q49 0 91 -27q10 -9 4 -20l-42 -66q-7 -11 -20 -4q-23 13 -51 13q-53 0 -91 -35q-13 -10 -13 -31v-318q0 -14 -14 -14h-94q-14 0 -14 14zM165 -110q0 21 14.5 35.5t37.5 14.5q21 0 35.5 -14.5
t14.5 -35.5q0 -64 -71 -126q-8 -7 -19 -5l-8 4q-4 1 -5 6t2 10q21 28 21 46t-11 32q-11 17 -11 33z" />
    <glyph glyph-name="Rcaron" unicode="&#x158;" horiz-adv-x="644" 
d="M72 14v678q0 5 4.5 9.5t10.5 4.5h295q88 0 148 -62t60 -153v-8q0 -76 -43 -128q-44 -53 -105 -74q-11 -3 -8 -13q17 -75 63.5 -118.5t115.5 -47.5q13 -1 13 -15v-79q0 -15 -14 -15q-118 2 -196 71t-101 193q-2 11 -13 11h-96q-10 0 -10 -11v-243q0 -6 -4.5 -10t-9.5 -4
h-95q-15 0 -15 14zM196 585v-211q0 -11 10 -11h138q52 0 82.5 30.5t30.5 82.5v7q0 53 -31 83t-86 30h-134q-10 0 -10 -11zM328 843l89 55q9 5 17 0l33 -21q6 -4 6.5 -11t-5.5 -11l-138 -98q-8 -6 -16 0l-138 98q-6 4 -5.5 11t6.5 11l33 21q8 6 17 0l89 -55q6 -2 12 0z" />
    <glyph glyph-name="rcaron" unicode="&#x159;" horiz-adv-x="396" 
d="M55 14v467q0 14 14 14h80q11 0 13 -9l8 -32q1 -3 4.5 -4t6.5 2q45 50 118 50q49 0 91 -27q10 -9 4 -20l-42 -66q-7 -11 -20 -4q-23 13 -51 13q-53 0 -91 -35q-13 -10 -13 -31v-318q0 -14 -14 -14h-94q-14 0 -14 14zM232 632l89 55q9 5 17 0l33 -21q6 -4 6.5 -11t-5.5 -11
l-138 -98q-8 -6 -16 0l-138 98q-6 4 -5.5 11t6.5 11l33 21q8 6 17 0l89 -55q6 -2 12 0z" />
    <glyph glyph-name="Sacute" unicode="&#x15a;" horiz-adv-x="572" 
d="M302 716q99 0 181 -63q11 -9 3 -20l-55 -72q-11 -14 -21 -2q-50 39 -108 39q-49 0 -77.5 -22t-28.5 -58v-3q0 -40 32 -61q33 -21 115 -40q105 -24 154 -71t49 -130v-4q0 -97 -70 -158t-192 -61q-61 0 -123 21.5t-106 55.5q-13 9 -3 21l56 74q8 10 20 1q29 -23 72.5 -40
t83.5 -17q65 0 99.5 26t34.5 72v4q0 37 -25 62q-10 10 -34 19q-25 11 -43 15l-57 15q-65 16 -104 36q-79 41 -84 158v4q0 89 64 144t167 55zM188 807l132 106q9 9 24 2l57 -33q7 -4 7.5 -12t-6.5 -12l-149 -97q-10 -6 -24 -1l-40 24q-6 4 -6.5 11t5.5 12z" />
    <glyph glyph-name="sacute" unicode="&#x15b;" horiz-adv-x="421" 
d="M361 456q10 -7 2 -20l-44 -58q-9 -11 -21 -2q-37 26 -69 26q-25 0 -41 -13t-16 -32v-4q0 -23 18.5 -35t66.5 -22q78 -16 115 -47t37 -96v-4q0 -67 -50 -114q-49 -46 -138 -46q-98 0 -174 58q-11 9 -2 20l46 60q8 11 20 3q51 -39 105 -39q36 0 54.5 15t18.5 39v3
q0 26 -18.5 38t-68.5 24q-77 16 -114 48t-37 95v4q0 64 49 106q50 42 124 42q75 0 137 -49zM119 596l132 106q9 9 24 2l57 -33q7 -4 7.5 -12t-6.5 -12l-149 -97q-10 -6 -24 -1l-40 24q-6 4 -6.5 11t5.5 12z" />
    <glyph glyph-name="Scircumflex" unicode="&#x15c;" horiz-adv-x="572" 
d="M302 716q99 0 181 -63q11 -9 3 -20l-55 -72q-11 -14 -21 -2q-50 39 -108 39q-49 0 -77.5 -22t-28.5 -58v-3q0 -40 32 -61q33 -21 115 -40q105 -24 154 -71t49 -130v-4q0 -97 -70 -158t-192 -61q-61 0 -123 21.5t-106 55.5q-13 9 -3 21l56 74q8 10 20 1q29 -23 72.5 -40
t83.5 -17q65 0 99.5 26t34.5 72v4q0 37 -25 62q-10 10 -34 19q-25 11 -43 15l-57 15q-65 16 -104 36q-79 41 -84 158v4q0 89 64 144t167 55zM309 908l138 -98q6 -4 5.5 -11t-6.5 -11l-33 -21q-9 -5 -17 0l-89 55q-6 2 -12 0l-89 -55q-9 -6 -17 0l-33 21q-6 4 -6.5 11t5.5 11
l138 98q8 6 16 0z" />
    <glyph glyph-name="scircumflex" unicode="&#x15d;" horiz-adv-x="421" 
d="M361 456q10 -7 2 -20l-44 -58q-9 -11 -21 -2q-37 26 -69 26q-25 0 -41 -13t-16 -32v-4q0 -23 18.5 -35t66.5 -22q78 -16 115 -47t37 -96v-4q0 -67 -50 -114q-49 -46 -138 -46q-98 0 -174 58q-11 9 -2 20l46 60q8 11 20 3q51 -39 105 -39q36 0 54.5 15t18.5 39v3
q0 26 -18.5 38t-68.5 24q-77 16 -114 48t-37 95v4q0 64 49 106q50 42 124 42q75 0 137 -49zM233 697l138 -98q6 -4 5.5 -11t-6.5 -11l-33 -21q-8 -5 -17 0l-89 55q-6 2 -12 0l-89 -55q-9 -6 -17 0l-33 21q-6 4 -6.5 11t5.5 11l138 98q8 6 16 0z" />
    <glyph glyph-name="Scedilla" unicode="&#x15e;" horiz-adv-x="572" 
d="M341 -152v7q0 44 -68 44q-29 0 -55 -12q-8 -5 -14 3l-5 7q-5 6 0 12l50 83q-112 11 -194 75q-13 9 -3 21l56 74q8 10 20 1q29 -23 72.5 -40t83.5 -17q65 0 99.5 26t34.5 72v4q0 37 -25 62q-10 10 -34 19q-25 11 -43 15l-57 15q-65 16 -104 36q-79 41 -84 158v4
q0 89 64 144t167 55q99 0 181 -63q11 -9 3 -20l-55 -72q-11 -14 -21 -2q-50 39 -108 39q-49 0 -77.5 -22t-28.5 -58v-3q0 -40 32 -61q33 -21 115 -40q105 -24 154 -71t49 -130v-4q0 -91 -64 -152q-63 -60 -175 -66l-16 -27q-3 -4 -0.5 -9t8.5 -5q50 -2 79 -27t29 -66v-10
q0 -46 -37 -75t-96 -29q-38 0 -80 20q-14 8 -6 20l10 22q6 12 20 6q27 -11 52 -11q71 0 71 48z" />
    <glyph glyph-name="scedilla" unicode="&#x15f;" horiz-adv-x="421" 
d="M264 -152v7q0 44 -68 44q-29 0 -55 -12q-8 -5 -14 3l-5 7q-4 6 0 12l50 84q-70 11 -125 54q-11 9 -2 20l46 60q8 11 20 3q51 -39 105 -39q36 0 54.5 15t18.5 39v3q0 26 -18.5 38t-68.5 24q-77 16 -114 48t-37 95v4q0 64 49 106q50 42 124 42q75 0 137 -49q10 -7 2 -20
l-44 -58q-9 -11 -21 -2q-37 26 -69 26q-25 0 -41 -13t-16 -32v-4q0 -23 18.5 -35t66.5 -22q78 -16 115 -47t37 -96v-4q0 -67 -49 -112t-131 -48l-15 -25q-3 -4 -0.5 -9t8.5 -5q50 -2 79 -27t29 -66v-10q0 -46 -37 -75t-96 -29q-38 0 -80 20q-14 8 -6 20l10 22q6 12 20 6
q27 -11 52 -11q71 0 71 48z" />
    <glyph glyph-name="Scaron" unicode="&#x160;" horiz-adv-x="572" 
d="M302 716q99 0 181 -63q11 -9 3 -20l-55 -72q-11 -14 -21 -2q-50 39 -108 39q-49 0 -77.5 -22t-28.5 -58v-3q0 -40 32 -61q33 -21 115 -40q105 -24 154 -71t49 -130v-4q0 -97 -70 -158t-192 -61q-61 0 -123 21.5t-106 55.5q-13 9 -3 21l56 74q8 10 20 1q29 -23 72.5 -40
t83.5 -17q65 0 99.5 26t34.5 72v4q0 37 -25 62q-10 10 -34 19q-25 11 -43 15l-57 15q-65 16 -104 36q-79 41 -84 158v4q0 89 64 144t167 55zM309 843l89 55q8 5 17 0l33 -21q6 -4 6.5 -11t-5.5 -11l-138 -98q-8 -5 -16 0l-138 98q-6 4 -5.5 11t6.5 11l33 21q8 6 17 0l89 -55
q6 -2 12 0z" />
    <glyph glyph-name="scaron" unicode="&#x161;" horiz-adv-x="421" 
d="M361 456q10 -7 2 -20l-44 -58q-9 -11 -21 -2q-37 26 -69 26q-25 0 -41 -13t-16 -32v-4q0 -23 18.5 -35t66.5 -22q78 -16 115 -47t37 -96v-4q0 -67 -50 -114q-49 -46 -138 -46q-98 0 -174 58q-11 9 -2 20l46 60q8 11 20 3q51 -39 105 -39q36 0 54.5 15t18.5 39v3
q0 26 -18.5 38t-68.5 24q-77 16 -114 48t-37 95v4q0 64 49 106q50 42 124 42q75 0 137 -49zM233 632l89 55q9 5 17 0l33 -21q6 -4 6.5 -11t-5.5 -11l-138 -98q-5 -3 -8 -3t-8 3l-138 98q-6 4 -5.5 11t6.5 11l33 21q8 6 17 0l89 -55q6 -2 12 0z" />
    <glyph glyph-name="uni0162" unicode="&#x162;" horiz-adv-x="563" 
d="M16 610v82q0 14 15 14h501q5 0 9.5 -4.5t4.5 -9.5v-82q0 -6 -4.5 -10t-9.5 -4h-179q-10 0 -10 -11v-571q0 -14 -15 -14h-94q-14 0 -14 14v571q0 4 -3.5 7.5t-7.5 3.5h-178q-15 0 -15 14zM228 -110q0 21 14.5 35.5t37.5 14.5q21 0 35.5 -14.5t14.5 -35.5q0 -64 -71 -126
q-8 -7 -19 -5l-8 4q-4 1 -5 6t2 10q21 28 21 46t-11 32q-11 17 -11 33z" />
    <glyph glyph-name="uni0163" unicode="&#x163;" horiz-adv-x="360" 
d="M78 505v114q0 6 4.5 10.5t10.5 4.5h94q14 0 14 -15v-114q0 -10 11 -10h106q14 0 14 -14v-50q0 -15 -14 -15h-106q-11 0 -11 -10v-266q0 -21 15 -33.5t37 -12.5q27 0 51 15q5 3 11.5 1t8.5 -7l35 -59q9 -15 -6 -21q-58 -31 -123 -31q-74 0 -113 34t-39 99v281q0 10 -10 10
h-52q-14 0 -14 15v50q0 14 14 14h52q10 0 10 10zM136 -110q0 21 14.5 35.5t37.5 14.5q21 0 35.5 -14.5t14.5 -35.5q0 -64 -71 -126q-8 -7 -19 -5l-8 4q-4 1 -5 6t2 10q21 28 21 46t-11 32q-11 17 -11 33z" />
    <glyph glyph-name="Tcaron" unicode="&#x164;" horiz-adv-x="563" 
d="M16 610v82q0 14 15 14h501q5 0 9.5 -4.5t4.5 -9.5v-82q0 -6 -4.5 -10t-9.5 -4h-179q-10 0 -10 -11v-571q0 -14 -15 -14h-94q-14 0 -14 14v571q0 4 -3.5 7.5t-7.5 3.5h-178q-15 0 -15 14zM287 843l89 55q8 5 17 0l33 -21q6 -4 6.5 -11t-5.5 -11l-138 -98q-8 -5 -16 0
l-138 98q-6 4 -5.5 11t6.5 11l33 21q8 6 17 0l89 -55q6 -2 12 0z" />
    <glyph glyph-name="tcaron" unicode="&#x165;" horiz-adv-x="360" 
d="M290 670q0 21 15 35.5t37 14.5t36.5 -14.5t14.5 -35.5q0 -61 -71 -126q-8 -7 -19 -5l-9 4q-3 1 -4.5 6t1.5 10q22 29 22 46q0 18 -11 32q-12 15 -12 33zM78 505v114q0 6 4.5 10.5t10.5 4.5h94q14 0 14 -15v-114q0 -10 11 -10h106q14 0 14 -14v-50q0 -15 -14 -15h-106
q-11 0 -11 -10v-266q0 -21 15 -33.5t37 -12.5q27 0 51 15q5 3 11.5 1t8.5 -7l35 -59q9 -15 -6 -21q-58 -31 -123 -31q-74 0 -113 34t-39 99v281q0 10 -10 10h-52q-14 0 -14 15v50q0 14 14 14h52q10 0 10 10z" />
    <glyph glyph-name="Umacron" unicode="&#x16a;" horiz-adv-x="701" 
d="M67 278v414q0 5 4.5 9.5t10.5 4.5h94q6 0 10 -4.5t4 -9.5v-414q0 -85 41 -130t119 -45q79 0 120 45t41 130v414q0 5 4 9.5t10 4.5h95q6 0 10 -4.5t4 -9.5v-414q0 -132 -77 -211q-77 -77 -207 -77t-207 77q-76 77 -76 211zM221 869h260q14 0 14 -15v-48q0 -6 -4.5 -10.5
t-9.5 -4.5h-260q-15 0 -15 15v48q0 15 15 15z" />
    <glyph glyph-name="umacron" unicode="&#x16b;" horiz-adv-x="536" 
d="M50 188v293q0 14 14 14h94q15 0 15 -14v-290q0 -93 86 -93q47 0 85 34q14 11 14 28v321q0 6 4.5 10t9.5 4h94q15 0 15 -14v-467q0 -14 -15 -14h-79q-10 0 -13 9l-9 38q-5 7 -10 2q-53 -57 -136 -57q-80 0 -124.5 51t-44.5 145zM138 658h260q14 0 14 -15v-48
q0 -6 -4.5 -10.5t-9.5 -4.5h-260q-15 0 -15 15v48q0 15 15 15z" />
    <glyph glyph-name="Ubreve" unicode="&#x16c;" horiz-adv-x="701" 
d="M67 278v414q0 5 4.5 9.5t10.5 4.5h94q6 0 10 -4.5t4 -9.5v-414q0 -85 41 -130t119 -45q79 0 120 45t41 130v414q0 5 4 9.5t10 4.5h95q6 0 10 -4.5t4 -9.5v-414q0 -132 -77 -211q-77 -77 -207 -77t-207 77q-76 77 -76 211zM440 893q6 11 18 5l38 -23q13 -6 4 -19
q-12 -19 -27 -34t-51 -34q-36 -17 -72 -17q-56 0 -93 28q-38 28 -57 57q-9 13 4 19l38 23q12 6 18 -5q39 -48 90 -48t90 48z" />
    <glyph glyph-name="ubreve" unicode="&#x16d;" horiz-adv-x="536" 
d="M50 188v293q0 14 14 14h94q15 0 15 -14v-290q0 -93 86 -93q47 0 85 34q14 11 14 28v321q0 6 4.5 10t9.5 4h94q15 0 15 -14v-467q0 -14 -15 -14h-79q-10 0 -13 9l-9 38q-5 7 -10 2q-53 -57 -136 -57q-80 0 -124.5 51t-44.5 145zM357 682q6 11 18 5l38 -23q13 -6 4 -19
q-12 -19 -27 -34t-51 -34q-36 -17 -72 -17q-56 0 -93 28q-38 28 -57 57q-9 13 4 19l38 23q12 6 18 -5q39 -48 90 -48t90 48z" />
    <glyph glyph-name="Uring" unicode="&#x16e;" horiz-adv-x="701" 
d="M67 278v414q0 5 4.5 9.5t10.5 4.5h94q6 0 10 -4.5t4 -9.5v-414q0 -85 41 -130t119 -45q79 0 120 45t41 130v414q0 5 4 9.5t10 4.5h95q6 0 10 -4.5t4 -9.5v-414q0 -132 -77 -211q-77 -77 -207 -77t-207 77q-76 77 -76 211zM286 899q26 24 64 24t63 -24q26 -24 26 -62
t-26 -62q-25 -24 -63 -24t-64 24q-25 24 -25 62t25 62zM309 837q0 -42 41 -42t41 42t-41 42t-41 -42z" />
    <glyph glyph-name="uring" unicode="&#x16f;" horiz-adv-x="536" 
d="M50 188v293q0 14 14 14h94q15 0 15 -14v-290q0 -93 86 -93q47 0 85 34q14 11 14 28v321q0 6 4.5 10t9.5 4h94q15 0 15 -14v-467q0 -14 -15 -14h-79q-10 0 -13 9l-9 38q-5 7 -10 2q-53 -57 -136 -57q-80 0 -124.5 51t-44.5 145zM203 688q25 24 64 24q37 0 63 -24t26 -62
t-26 -62t-63 -24q-39 0 -64 24t-25 62t25 62zM226 626q0 -42 41 -42t41 42t-41 42t-41 -42z" />
    <glyph glyph-name="Uhungarumlaut" unicode="&#x170;" horiz-adv-x="701" 
d="M67 278v414q0 5 4.5 9.5t10.5 4.5h94q6 0 10 -4.5t4 -9.5v-414q0 -85 41 -130t119 -45q79 0 120 45t41 130v414q0 5 4 9.5t10 4.5h95q6 0 10 -4.5t4 -9.5v-414q0 -132 -77 -211q-77 -77 -207 -77t-207 77q-76 77 -76 211zM352 797l134 109q7 6 17 1l47 -26q7 -5 7 -13
t-7 -12l-152 -99q-8 -5 -16 0l-29 17q-6 4 -6.5 11t5.5 12zM152 797l134 109q7 6 17 1l47 -26q7 -5 7 -13t-7 -12l-152 -99q-8 -5 -16 0l-29 17q-6 4 -6.5 11t5.5 12z" />
    <glyph glyph-name="uhungarumlaut" unicode="&#x171;" horiz-adv-x="536" 
d="M50 188v293q0 14 14 14h94q15 0 15 -14v-290q0 -93 86 -93q47 0 85 34q14 11 14 28v321q0 6 4.5 10t9.5 4h94q15 0 15 -14v-467q0 -14 -15 -14h-79q-10 0 -13 9l-9 38q-5 7 -10 2q-53 -57 -136 -57q-80 0 -124.5 51t-44.5 145zM279 586l134 109q7 6 17 1l47 -26
q7 -4 7 -12t-7 -13l-152 -99q-8 -5 -16 0l-29 17q-6 4 -6.5 11t5.5 12zM79 586l134 109q7 6 17 1l47 -26q7 -4 7 -12t-7 -13l-152 -99q-8 -5 -16 0l-29 17q-6 4 -6.5 11t5.5 12z" />
    <glyph glyph-name="Uogonek" unicode="&#x172;" horiz-adv-x="701" 
d="M296 -88v9q0 38 29 70q-119 7 -189 84q-69 76 -69 203v414q0 5 4.5 9.5t10.5 4.5h94q6 0 10 -4.5t4 -9.5v-414q0 -85 41 -130t119 -45q79 0 120 45t41 130v414q0 5 4 9.5t10 4.5h95q6 0 10 -4.5t4 -9.5v-414q0 -110 -53.5 -183t-148.5 -95q-71 -27 -71 -75v-4
q0 -55 69 -55q22 0 52 11q14 6 19 -6l10 -21q8 -14 -6 -20q-42 -20 -79 -20q-58 0 -94 28t-36 74z" />
    <glyph glyph-name="uogonek" unicode="&#x173;" horiz-adv-x="536" 
d="M303 -88v9q0 61 68 100l-6 26q-5 7 -10 2q-53 -57 -136 -57q-80 0 -124.5 51t-44.5 145v293q0 14 14 14h94q15 0 15 -14v-290q0 -93 86 -93q47 0 85 34q14 11 14 28v321q0 6 4.5 10t9.5 4h94q15 0 15 -14v-467q0 -14 -15 -14h-25q-73 -27 -73 -75v-4q0 -55 69 -55
q22 0 52 11q14 6 19 -6l10 -21q8 -14 -6 -20q-42 -20 -79 -20q-58 0 -94 28t-36 74z" />
    <glyph glyph-name="Ydieresis" unicode="&#x178;" horiz-adv-x="661" 
d="M273 18v197q0 11 -6 21l-248 450q-4 7 0 13.5t12 6.5h104q13 0 18 -11l175 -332q2 -3 6 -3h1q3 0 6 3l175 332q5 11 17 11h105q8 0 11.5 -6.5t-0.5 -13.5l-248 -450q-5 -10 -5 -21v-197q0 -18 -18 -18h-87q-7 0 -12.5 5t-5.5 13zM239 891q22 0 37.5 -16t15.5 -38
t-15.5 -38t-37.5 -16q-23 0 -38.5 15.5t-15.5 38.5t15.5 38.5t38.5 15.5zM429 891q22 0 37.5 -16t15.5 -38t-15.5 -38t-37.5 -16q-23 0 -38.5 15.5t-15.5 38.5t15.5 38.5t38.5 15.5z" />
    <glyph glyph-name="Zacute" unicode="&#x179;" horiz-adv-x="600" 
d="M71 610v82q0 5 4 9.5t10 4.5h463q15 0 15 -14v-6q0 -6 -4 -13l-337 -547q-3 -5 -0.5 -10.5t8.5 -5.5h313q15 0 15 -14v-82q0 -14 -15 -14h-500q-5 0 -9.5 4t-4.5 10v9q0 8 5 15l333 542q3 5 0 10.5t-9 5.5h-273q-14 0 -14 14zM214 807l132 106q9 9 24 2l57 -33
q7 -4 7.5 -12t-6.5 -12l-149 -97q-10 -6 -24 -1l-40 24q-6 4 -6.5 11t5.5 12z" />
    <glyph glyph-name="zacute" unicode="&#x17a;" horiz-adv-x="466" 
d="M52 420v61q0 14 14 14h366q14 0 14 -14v-4q0 -7 -4 -14l-243 -358q-3 -5 0 -10.5t9 -5.5h217q14 0 14 -14v-61q0 -14 -14 -14h-391q-15 0 -15 14v3q0 7 5 15l242 357q4 5 1 11t-10 6h-191q-6 0 -10 4.5t-4 9.5zM151 596l132 106q9 9 24 2l57 -33q7 -4 7.5 -12t-6.5 -12
l-149 -97q-10 -6 -24 -1l-40 24q-6 4 -6.5 11t5.5 12z" />
    <glyph glyph-name="Zdotaccent" unicode="&#x17b;" horiz-adv-x="600" 
d="M71 610v82q0 5 4 9.5t10 4.5h463q15 0 15 -14v-6q0 -6 -4 -13l-337 -547q-3 -5 -0.5 -10.5t8.5 -5.5h313q15 0 15 -14v-82q0 -14 -15 -14h-500q-5 0 -9.5 4t-4.5 10v9q0 8 5 15l333 542q3 5 0 10.5t-9 5.5h-273q-14 0 -14 14zM320 897q24 0 42 -17.5t18 -41.5t-18 -41.5
t-42 -17.5q-25 0 -42.5 17t-17.5 42t17.5 42t42.5 17z" />
    <glyph glyph-name="zdotaccent" unicode="&#x17c;" horiz-adv-x="466" 
d="M52 420v61q0 14 14 14h366q14 0 14 -14v-4q0 -7 -4 -14l-243 -358q-3 -5 0 -10.5t9 -5.5h217q14 0 14 -14v-61q0 -14 -14 -14h-391q-15 0 -15 14v3q0 7 5 15l242 357q4 5 1 11t-10 6h-191q-6 0 -10 4.5t-4 9.5zM253 686q24 0 42 -17.5t18 -41.5t-18 -41.5t-42 -17.5
q-25 0 -42.5 17t-17.5 42t17.5 42t42.5 17z" />
    <glyph glyph-name="Zcaron" unicode="&#x17d;" horiz-adv-x="600" 
d="M71 610v82q0 5 4 9.5t10 4.5h463q15 0 15 -14v-6q0 -6 -4 -13l-337 -547q-3 -5 -0.5 -10.5t8.5 -5.5h313q15 0 15 -14v-82q0 -14 -15 -14h-500q-5 0 -9.5 4t-4.5 10v9q0 8 5 15l333 542q3 5 0 10.5t-9 5.5h-273q-14 0 -14 14zM329 843l89 55q8 5 17 0l33 -21
q6 -4 6.5 -11t-5.5 -11l-138 -98q-8 -5 -16 0l-138 98q-6 4 -5.5 11t6.5 11l33 21q8 6 17 0l89 -55q6 -2 12 0z" />
    <glyph glyph-name="zcaron" unicode="&#x17e;" horiz-adv-x="466" 
d="M52 420v61q0 14 14 14h366q14 0 14 -14v-4q0 -7 -4 -14l-243 -358q-3 -5 0 -10.5t9 -5.5h217q14 0 14 -14v-61q0 -14 -14 -14h-391q-15 0 -15 14v3q0 7 5 15l242 357q4 5 1 11t-10 6h-191q-6 0 -10 4.5t-4 9.5zM258 632l89 55q9 5 17 0l33 -21q6 -4 6.5 -11t-5.5 -11
l-138 -98q-5 -3 -8 -3q-4 0 -8 3l-138 98q-6 4 -5.5 11t6.5 11l33 21q8 6 17 0l89 -55q6 -2 12 0z" />
    <glyph glyph-name="florin" unicode="&#x192;" horiz-adv-x="388" 
d="M150 506l13 72q23 135 175 135q55 0 110 -31q13 -7 4 -20l-39 -59q-6 -12 -18 -6q-26 16 -50 16q-53 0 -62 -48l-10 -59q-2 -11 8 -11h94q14 0 14 -14v-50q0 -6 -4.5 -10.5t-9.5 -4.5h-108q-11 0 -12 -10l-90 -511q-26 -134 -174 -134q-53 0 -110 30q-14 8 -5 21l39 58
q6 13 18 6q26 -16 51 -16q50 0 61 48l87 498q1 10 -9 10h-50q-13 0 -15 15l1 50q-1 6 4 10t11 4h64q10 0 12 11z" />
    <glyph glyph-name="circumflex" unicode="&#x2c6;" horiz-adv-x="400" 
d="M208 697l138 -98q6 -4 5.5 -11t-6.5 -11l-33 -21q-8 -5 -17 0l-89 55q-6 2 -12 0l-89 -55q-9 -6 -17 0l-33 21q-6 4 -6.5 11t5.5 11l138 98q8 6 16 0z" />
    <glyph glyph-name="caron" unicode="&#x2c7;" horiz-adv-x="200" 
d="M108 632l89 55q9 5 17 0l33 -21q6 -4 6.5 -11t-5.5 -11l-138 -98q-8 -6 -16 0l-138 98q-6 4 -5.5 11t6.5 11l33 21q8 6 17 0l89 -55q6 -2 12 0z" />
    <glyph glyph-name="breve" unicode="&#x2d8;" horiz-adv-x="400" 
d="M291 682q6 11 18 5l38 -23q13 -6 4 -19q-12 -19 -27 -34t-51 -34q-36 -17 -72 -17q-56 0 -93 28q-38 28 -57 57q-9 13 4 19l38 23q12 6 18 -5q39 -48 90 -48t90 48z" />
    <glyph glyph-name="dotaccent" unicode="&#x2d9;" horiz-adv-x="340" 
d="M170 686q24 0 42 -17.5t18 -41.5t-18 -41.5t-42 -17.5q-25 0 -42.5 17t-17.5 42t17.5 42t42.5 17z" />
    <glyph glyph-name="ring" unicode="&#x2da;" horiz-adv-x="400" 
d="M136 688q26 24 64 24t63 -24q26 -24 26 -62t-26 -62q-25 -24 -63 -24t-64 24q-25 24 -25 62t25 62zM159 626q0 -42 41 -42t41 42t-41 42t-41 -42z" />
    <glyph glyph-name="ogonek" unicode="&#x2db;" horiz-adv-x="400" 
d="M92 -88v9q0 42 34.5 75.5t95.5 50.5q7 2 12.5 -2t5.5 -10v-21q0 -11 -10 -14q-73 -27 -73 -75v-4q0 -55 69 -55q22 0 52 11q14 6 19 -6l10 -21q8 -14 -6 -20q-42 -20 -79 -20q-58 0 -94 28t-36 74z" />
    <glyph glyph-name="tilde" unicode="&#x2dc;" horiz-adv-x="400" 
d="M217 659q31 -17 50 -17q25 0 54 20q10 7 19 -4l22 -35q5 -10 -2 -17q-37 -43 -93 -43q-32 0 -73 22q-25 16 -50 16q-28 0 -50 -18q-10 -7 -19 5l-22 35q-7 7 2 17q37 40 89 40q37 0 73 -21z" />
    <glyph glyph-name="hungarumlaut" unicode="&#x2dd;" horiz-adv-x="400" 
d="M204 586l134 109q7 6 17 1l47 -26q7 -4 7 -12t-7 -13l-152 -99q-8 -5 -16 0l-29 17q-6 4 -6.5 11t5.5 12zM4 586l134 109q7 6 17 1l47 -26q7 -4 7 -12t-7 -13l-152 -99q-8 -5 -16 0l-29 17q-6 4 -6.5 11t5.5 12z" />
    <glyph glyph-name="pi" unicode="&#x3c0;" horiz-adv-x="556" 
d="M34 495h488q5 0 9.5 -4.5t4.5 -9.5v-51q0 -5 -4.5 -9.5t-9.5 -4.5h-47q-10 0 -10 -10v-392q0 -14 -15 -14h-94q-14 0 -14 14v392q0 10 -11 10h-106q-10 0 -10 -10v-392q0 -14 -15 -14h-94q-15 0 -15 14v392q0 10 -10 10h-47q-5 0 -9.5 4.5t-4.5 9.5v51q0 5 4.5 9.5
t9.5 4.5z" />
    <glyph glyph-name="endash" unicode="&#x2013;" horiz-adv-x="451" 
d="M51 295h348q6 0 10.5 -4.5t4.5 -9.5v-64q0 -5 -4.5 -9.5t-10.5 -4.5h-348q-5 0 -9.5 4.5t-4.5 9.5v64q0 5 4.5 9.5t9.5 4.5z" />
    <glyph glyph-name="emdash" unicode="&#x2014;" horiz-adv-x="802" 
d="M34 295h733q6 0 10.5 -4.5t4.5 -9.5v-64q0 -5 -4.5 -9.5t-10.5 -4.5h-733q-5 0 -9.5 4.5t-4.5 9.5v64q0 5 4.5 9.5t9.5 4.5z" />
    <glyph glyph-name="quoteleft" unicode="&#x2018;" horiz-adv-x="192" 
d="M161 570q0 -25 -17.5 -42.5t-43.5 -17.5t-43 17.5t-17 42.5q0 75 84 149q10 10 23 6l9 -3q15 -6 4 -20q-43 -56 -13 -93q14 -17 14 -39z" />
    <glyph glyph-name="quoteright" unicode="&#x2019;" horiz-adv-x="192" 
d="M55 652q0 25 17 42t43 17t43 -17.5t17 -41.5q0 -75 -83 -149q-11 -11 -23 -6l-10 3q-13 7 -4 20q43 56 13 93q-13 16 -13 39z" />
    <glyph glyph-name="quotesinglbase" unicode="&#x201a;" horiz-adv-x="200" 
d="M34 59q0 25 17 42.5t44 17.5q26 0 43 -17.5t17 -42.5q0 -36 -23 -76.5t-60 -71.5q-12 -11 -24 -6l-9 3q-13 6 -4 19q26 35 26 56q0 22 -13 38q-14 20 -14 38z" />
    <glyph glyph-name="quotedblleft" unicode="&#x201c;" horiz-adv-x="354" 
d="M161 570q0 -25 -17.5 -42.5t-43.5 -17.5t-43 17.5t-17 42.5q0 75 84 149q10 10 23 6l9 -3q15 -6 4 -20q-43 -56 -13 -93q14 -20 14 -39zM322 570q0 -25 -17 -42.5t-43 -17.5t-43 17.5t-17 42.5q0 75 83 149q11 11 23 6l10 -3q13 -6 4 -20q-43 -56 -13 -93q13 -16 13 -39z
" />
    <glyph glyph-name="quotedblright" unicode="&#x201d;" horiz-adv-x="354" 
d="M55 652q0 25 17 42t43 17t43 -17.5t17 -41.5q0 -75 -83 -149q-11 -11 -23 -6l-10 3q-13 7 -4 20q43 56 13 93q-13 16 -13 39zM216 652q0 24 17.5 41.5t43.5 17.5t43 -17.5t17 -41.5q0 -75 -84 -149q-10 -10 -23 -6l-9 3q-5 2 -6.5 8.5t2.5 11.5q43 56 13 93
q-14 17 -14 39z" />
    <glyph glyph-name="quotedblbase" unicode="&#x201e;" horiz-adv-x="363" 
d="M34 59q0 25 17 42.5t44 17.5q26 0 43 -17.5t17 -42.5q0 -36 -23 -76.5t-60 -71.5q-12 -11 -24 -6l-9 3q-13 6 -4 19q26 35 26 56q0 22 -13 38q-14 20 -14 38zM196 59q0 25 17 42.5t44 17.5q26 0 43.5 -17.5t17.5 -42.5q0 -36 -23.5 -76t-61.5 -72q-11 -11 -23 -6l-9 3
q-13 6 -4 19q26 35 26 56t-13 38q-14 20 -14 38z" />
    <glyph glyph-name="dagger" unicode="&#x2020;" horiz-adv-x="473" 
d="M175 543v118q0 6 4.5 10.5t9.5 4.5h94q6 0 10.5 -4.5t4.5 -10.5v-118q0 -10 10 -10h110q15 0 15 -15v-49q0 -15 -15 -15h-110q-10 0 -10 -10v-399q0 -6 -4.5 -10.5t-10.5 -4.5h-94q-5 0 -9.5 4.5t-4.5 10.5v399q0 10 -11 10h-110q-14 0 -14 15v50q0 14 14 14h110
q11 0 11 10z" />
    <glyph glyph-name="daggerdbl" unicode="&#x2021;" horiz-adv-x="473" 
d="M175 543v118q0 6 4.5 10.5t9.5 4.5h94q6 0 10.5 -4.5t4.5 -10.5v-118q0 -10 10 -10h110q15 0 15 -15v-49q0 -15 -15 -15h-110q-10 0 -10 -10v-183q0 -8 10 -8h110q14 0 14 -15v-50q0 -14 -14 -14h-110q-10 0 -10 -10v-119q0 -6 -4.5 -10.5t-10.5 -4.5h-94q-5 0 -9.5 4.5
t-4.5 10.5v119q0 10 -10 10h-110q-14 0 -14 14v50q0 15 14 15h110q10 0 10 10v181q0 10 -11 10h-110q-14 0 -14 15v50q0 14 14 14h110q11 0 11 10z" />
    <glyph glyph-name="bullet" unicode="&#x2022;" horiz-adv-x="421" 
d="M211 497q59 0 100 -41q42 -40 42 -101q0 -60 -41 -101q-40 -40 -101 -40t-102 40q-41 41 -41 101t41 101q43 41 102 41z" />
    <glyph glyph-name="ellipsis" unicode="&#x2026;" horiz-adv-x="714" 
d="M69 15q-20 20 -20 49t20 49q21 20 50 20t49 -20t20 -49t-20 -49q-20 -19 -49 -19t-50 19zM307 15q-20 20 -20 49t20 49q21 20 50 20t49 -20t20 -49t-20 -49q-20 -19 -49 -19t-50 19zM545 15q-20 20 -20 49t20 49q21 20 50 20t49 -20t20 -49t-20 -49q-20 -19 -49 -19
t-50 19z" />
    <glyph glyph-name="perthousand" unicode="&#x2030;" horiz-adv-x="1312" 
d="M173 23l446 667q10 16 31 16h75q9 0 13.5 -8t-0.5 -15l-447 -667q-10 -16 -31 -16h-75q-9 0 -13 8t1 15zM230 712q77 0 129 -49q53 -48 53 -124v-3q0 -77 -52 -126t-130 -49q-77 0 -129 49t-52 126v3q0 76 52 124q52 49 129 49zM323 536v3q0 44 -25.5 69t-67.5 25
t-67.5 -25t-25.5 -69v-3q0 -45 25 -70t68 -25t68 25t25 70zM680 346q76 0 128 -49q53 -50 53 -125v-3q0 -77 -52 -126q-53 -48 -129 -48q-78 0 -130 48q-51 49 -51 126v3q0 76 52 125t129 49zM773 169v3q0 44 -25.5 69t-67.5 25q-43 0 -68 -25t-25 -69v-3q0 -45 25.5 -70
t67.5 -25t67.5 25t25.5 70zM1082 346q76 0 128 -49q53 -50 53 -125v-3q0 -77 -52 -126q-53 -48 -129 -48q-78 0 -130 48q-52 49 -52 126v3q0 76 52 125t130 49zM1175 169v3q0 44 -25.5 69t-67.5 25q-43 0 -68 -25t-25 -69v-3q0 -45 25.5 -70t67.5 -25t67.5 25.5t25.5 69.5z
" />
    <glyph glyph-name="guilsinglleft" unicode="&#x2039;" horiz-adv-x="263" 
d="M40 250q0 5 3 10l111 155q5 8 14 8h46q6 0 8 -4.5t-1 -8.5l-93 -153q-5 -7 0 -14l93 -153q3 -4 1 -8.5t-8 -4.5h-46q-9 0 -14 8l-111 155q-3 4 -3 10z" />
    <glyph glyph-name="guilsinglright" unicode="&#x203a;" horiz-adv-x="263" 
d="M226 250q0 -6 -3 -10l-111 -155q-5 -8 -14 -8h-47q-6 0 -8 4.5t1 8.5l93 153q5 7 0 14l-93 153q-3 4 -1 8.5t8 4.5h47q9 0 14 -8l111 -155q3 -5 3 -10z" />
    <glyph glyph-name="fraction" unicode="&#x2044;" horiz-adv-x="422" 
d="M19 19l302 673q6 14 21 14h56q9 0 13 -6t1 -13l-302 -673q-5 -14 -21 -14h-56q-8 0 -12.5 6t-1.5 13z" />
    <glyph glyph-name="zerosuperior" unicode="&#x2070;" horiz-adv-x="377" 
d="M35 537v166q0 71 43 114q44 45 111 45q68 0 110.5 -44t42.5 -115v-166q0 -71 -42.5 -115.5t-110.5 -44.5t-111 44.5t-43 115.5zM125 701v-162q0 -81 64 -81t64 81v163q0 80 -64 80t-64 -81z" />
    <glyph glyph-name="foursuperior" unicode="&#x2074;" horiz-adv-x="372" 
d="M22 563l182 286q4 7 14 7h55q6 0 10.5 -4.5t4.5 -9.5v-258q0 -10 10 -10h25q6 0 10 -4.5t4 -9.5v-45q0 -15 -14 -15h-25q-10 0 -10 -10v-92q0 -6 -4.5 -10.5t-10.5 -4.5h-61q-14 0 -14 15v92q0 10 -11 10h-156q-6 0 -10.5 4.5t-4.5 10.5v30q0 9 6 18zM183 677l-60 -90
q-7 -13 8 -13h56q11 0 11 10v89q0 6 -5.5 7.5t-9.5 -3.5z" />
    <glyph glyph-name="fivesuperior" unicode="&#x2075;" horiz-adv-x="347" 
d="M56 611v231q0 5 4.5 9.5t10.5 4.5h214q5 0 9.5 -4.5t4.5 -9.5v-55q0 -6 -4.5 -10t-9.5 -4h-136q-10 0 -10 -11v-63q0 -10 11 -10q12 4 22 4q66 0 105.5 -40t39.5 -107v-12q0 -67 -50 -112q-49 -45 -121 -45q-51 0 -98 26q-10 7 -6 18l19 47q4 13 20 6q26 -14 59 -14
q36 0 59.5 21.5t23.5 54.5v8q4 49 -47.5 67t-97.5 -13q-7 -3 -14.5 0.5t-7.5 12.5z" />
    <glyph glyph-name="sixsuperior" unicode="&#x2076;" horiz-adv-x="374" 
d="M205 681q60 0 97 -39.5t37 -103.5v-12q0 -66 -45 -108q-44 -41 -109 -41q-66 0 -108 41.5t-42 109.5v178q0 67 47 111q47 45 118 45q54 0 98 -26q12 -5 8 -18l-20 -46q-8 -14 -21 -8q-29 15 -59 15q-35 0 -58 -21.5t-23 -53.5v-38q0 -10 9 -6q32 21 71 21zM188 607
q-30 0 -48 -19t-18 -52v-9q0 -32 17.5 -50.5t45.5 -18.5t46 18.5t18 50.5v9q0 33 -16.5 52t-44.5 19z" />
    <glyph glyph-name="sevensuperior" unicode="&#x2077;" horiz-adv-x="300" 
d="M10 787v55q0 5 4 9.5t10 4.5h251q15 0 15 -14v-35q0 -10 -5 -22l-146 -391q-5 -11 -14 -11h-66q-7 0 -11.5 6.5t-1.5 13.5l140 356q8 14 -9 14h-153q-14 0 -14 14z" />
    <glyph glyph-name="eightsuperior" unicode="&#x2078;" horiz-adv-x="367" 
d="M326 730v-6q0 -49 -38 -85q-2 -1 -2 -5t2 -5q51 -37 51 -101v-11q0 -61 -44 -100.5t-111 -39.5q-68 0 -112 39q-44 41 -44 101v11q0 62 52 101q2 1 2 5t-2 5q-38 35 -38 85v6q0 58 40 95t102 37t102 -37t40 -95zM132 725v-6q0 -22 14.5 -38t37.5 -16q22 0 36.5 16
t14.5 38v6q3 36 -24 51t-54.5 0t-24.5 -51zM123 534v-12q-2 -40 29.5 -57t63 0t28.5 57v12q0 28 -16.5 45.5t-43.5 17.5t-44 -18t-17 -45z" />
    <glyph glyph-name="ninesuperior" unicode="&#x2079;" horiz-adv-x="374" 
d="M169 558q-60 0 -97 39.5t-37 102.5v13q0 65 45 107t110 42q66 0 107.5 -42t41.5 -110v-177q0 -67 -47 -112q-47 -44 -118 -44q-51 0 -98 26q-13 4 -7 17l19 47q8 15 22 7q30 -14 58 -14q35 0 58.5 21t23.5 54v38q0 12 -10 6q-28 -21 -71 -21zM186 632q30 0 48 19t18 52v9
q0 32 -17 50.5t-45 18.5q-30 0 -47.5 -18.5t-17.5 -50.5v-9q0 -33 16.5 -52t44.5 -19z" />
    <glyph glyph-name="zeroinferior" unicode="&#x2080;" horiz-adv-x="377" 
d="M35 4v166q0 71 43 114q44 45 111 45q68 0 110.5 -44t42.5 -115v-166q0 -71 -42.5 -115.5t-110.5 -44.5t-111 44.5t-43 115.5zM125 168v-162q0 -81 64 -81t64 81v163q0 80 -64 80t-64 -81z" />
    <glyph glyph-name="oneinferior" unicode="&#x2081;" horiz-adv-x="238" 
d="M102 323h56q5 0 9.5 -4.5t4.5 -9.5v-444q0 -6 -4.5 -10.5t-9.5 -4.5h-62q-6 0 -10.5 4.5t-4.5 10.5v358q0 11 -10 11h-7q-8 0 -12 7t0 14l36 61q4 7 14 7z" />
    <glyph glyph-name="twoinferior" unicode="&#x2082;" horiz-adv-x="357" 
d="M165 329q73 0 115 -38.5t42 -103.5v-11q0 -50 -62 -124l-88 -102q-4 -4 -1.5 -10t8.5 -6h119q14 0 14 -15v-54q0 -15 -14 -15h-248q-15 0 -15 15v37q0 10 7 17l149 178q38 44 38 75v10q0 29 -19.5 47t-51.5 18q-35 0 -67 -17q-16 -8 -20 7l-19 45q-4 12 6 18
q53 29 107 29z" />
    <glyph glyph-name="threeinferior" unicode="&#x2083;" horiz-adv-x="347" 
d="M146 -156q-48 0 -98 26q-10 8 -6 18l19 47q6 12 20 7q29 -15 60 -15q36 0 59 21.5t23 54.5v7q0 34 -20.5 54t-55.5 20q-25 0 -46 -7q-10 -3 -16 6l-9 13q-8 8 2 17l95 110q4 5 1.5 11t-9.5 6h-97q-5 0 -9.5 4t-4.5 10v55q0 5 4.5 9.5t9.5 4.5h222q6 0 10.5 -4.5t4.5 -9.5
v-41q0 -9 -7 -16l-94 -102q51 -7 82 -44.5t31 -93.5v-12q0 -68 -49 -111q-50 -45 -122 -45z" />
    <glyph glyph-name="fourinferior" unicode="&#x2084;" horiz-adv-x="372" 
d="M22 30l182 286q4 7 14 7h55q6 0 10.5 -4.5t4.5 -9.5v-258q0 -10 10 -10h25q6 0 10 -4.5t4 -9.5v-45q0 -15 -14 -15h-25q-10 0 -10 -10v-92q0 -6 -4.5 -10.5t-10.5 -4.5h-61q-14 0 -14 15v92q0 10 -11 10h-156q-6 0 -10.5 4.5t-4.5 10.5v30q0 9 6 18zM183 144l-60 -90
q-3 -4 -0.5 -8.5t8.5 -4.5h56q11 0 11 10v89q0 6 -5.5 7.5t-9.5 -3.5z" />
    <glyph glyph-name="fiveinferior" unicode="&#x2085;" horiz-adv-x="347" 
d="M56 78v231q0 5 4.5 9.5t10.5 4.5h214q5 0 9.5 -4.5t4.5 -9.5v-55q0 -6 -4.5 -10t-9.5 -4h-136q-10 0 -10 -11v-63q0 -10 11 -10q12 4 22 4q66 0 105.5 -40t39.5 -107v-12q0 -67 -50 -112q-49 -45 -121 -45q-51 0 -98 26q-10 8 -6 18l19 47q4 13 20 6q26 -14 59 -14
q36 0 59.5 21.5t23.5 54.5v8q4 49 -47.5 67t-97.5 -13q-7 -3 -14.5 0.5t-7.5 12.5z" />
    <glyph glyph-name="sixinferior" unicode="&#x2086;" horiz-adv-x="374" 
d="M205 148q60 0 97 -39.5t37 -103.5v-12q0 -67 -45 -107q-43 -42 -109 -42t-108 41.5t-42 109.5v178q0 67 47 111q47 45 118 45q54 0 98 -26q12 -5 8 -18l-20 -46q-8 -14 -21 -8q-29 15 -59 15q-35 0 -58 -21.5t-23 -53.5v-38q0 -11 9 -6q32 21 71 21zM188 74
q-30 0 -48 -19t-18 -52v-9q0 -32 17.5 -50.5t45.5 -18.5t46 18.5t18 50.5v9q0 33 -16.5 52t-44.5 19z" />
    <glyph glyph-name="seveninferior" unicode="&#x2087;" horiz-adv-x="300" 
d="M10 254v55q0 5 4 9.5t10 4.5h251q15 0 15 -14v-35q0 -10 -5 -22l-146 -391q-5 -11 -14 -11h-66q-7 0 -11.5 6.5t-1.5 13.5l140 356q8 14 -9 14h-153q-14 0 -14 14z" />
    <glyph glyph-name="eightinferior" unicode="&#x2088;" horiz-adv-x="367" 
d="M326 197v-6q0 -49 -38 -85q-5 -5 0 -10q51 -38 51 -101v-11q0 -61 -44 -100.5t-111 -39.5q-69 0 -112 40q-44 39 -44 100v11q0 62 52 101q5 5 0 10q-38 35 -38 85v6q0 58 40 95t102 37t102 -37t40 -95zM132 192v-6q0 -22 14.5 -38t37.5 -16q22 0 36.5 16t14.5 38v6
q3 36 -24 51t-54.5 0t-24.5 -51zM123 1v-12q-2 -40 29.5 -57t63 0t28.5 57v12q0 28 -16.5 45.5t-43.5 17.5t-44 -18t-17 -45z" />
    <glyph glyph-name="nineinferior" unicode="&#x2089;" horiz-adv-x="374" 
d="M169 25q-60 0 -97 39.5t-37 102.5v13q0 65 45 107t110 42q66 0 107.5 -42t41.5 -110v-177q0 -67 -47 -111q-47 -45 -118 -45q-51 0 -98 26q-13 4 -7 17l19 47q8 15 22 7q30 -14 58 -14q35 0 58.5 21t23.5 54v38q0 4 -3 6t-7 0q-28 -21 -71 -21zM186 99q30 0 48 19t18 52
v9q0 32 -17 50.5t-45 18.5q-30 0 -47.5 -18.5t-17.5 -50.5v-9q0 -33 16.5 -52t44.5 -19z" />
    <glyph glyph-name="Euro" unicode="&#x20ac;" horiz-adv-x="609" 
d="M46 314v9v58v11h-27q-14 0 -14 15v31q0 14 14 14h33q23 121 110 192q88 72 217 72q102 0 185 -56q12 -8 3 -21l-53 -70q-12 -11 -21 -2q-50 35 -114 35q-77 0 -129.5 -40t-70.5 -110h242q14 0 14 -14v-31q0 -15 -14 -15h-250v-11v-58v-9h250q6 0 10 -4.5t4 -9.5v-32
q0 -5 -4 -9.5t-10 -4.5h-242q17 -71 69.5 -111t130.5 -40q60 0 113 35q12 11 20 -2l55 -71q11 -12 -3 -21q-80 -54 -185 -54q-130 0 -219 71q-88 72 -109 193h-32q-14 0 -14 15v31q0 5 4 9.5t10 4.5h27z" />
    <glyph glyph-name="trademark" unicode="&#x2122;" horiz-adv-x="830" 
d="M40 630v66q0 10 10 10h280q9 0 9 -10v-66q0 -10 -9 -10h-85q-6 0 -6 -7v-293q0 -10 -10 -10h-79q-9 0 -9 10v293q0 7 -7 7h-84q-10 0 -10 10zM358 321l52 377q2 8 10 8h30q7 0 9 -5l102 -169q1 -2 4 -2t4 2l102 169q3 5 9 5h30q7 0 9 -8l54 -377q2 -11 -10 -11h-75
q-7 0 -9 8l-27 184q-1 3 -4 3.5t-4 -1.5l-71 -109q-3 -5 -8 -5q-6 0 -9 5l-70 109q-6 6 -8 -2l-26 -184q-2 -8 -10 -8h-74q-4 0 -7.5 3.5t-2.5 7.5z" />
    <glyph glyph-name="Omega" unicode="&#x2126;" horiz-adv-x="739" 
d="M696 383v-33q0 -67 -34 -128t-87 -98q-4 -3 -1.5 -8.5t8.5 -5.5h75q15 0 15 -14v-82q0 -14 -15 -14h-234q-14 0 -14 14v67q0 14 10 21q83 47 117.5 106.5t34.5 141.5v33q0 102 -54 160.5t-148 58.5q-93 0 -147 -58.5t-54 -160.5v-33q0 -82 34.5 -141.5t116.5 -106.5
q11 -6 11 -21v-67q0 -6 -4.5 -10t-9.5 -4h-235q-15 0 -15 14v82q0 14 15 14h76q6 0 8 5.5t-2 8.5q-53 37 -87 98t-34 128v33q0 149 90 241q92 92 237 92q146 0 236 -92q91 -91 91 -241z" />
    <glyph glyph-name="partialdiff" unicode="&#x2202;" horiz-adv-x="557" 
d="M34 222v52q0 104 63 168t152 64q76 0 128 -46q3 -2 5.5 -1t1.5 5q-34 102 -184 191q-6 3 -8 10t3 12l44 57q8 10 21 5q9 -6 13 -8q97 -61 140 -107q110 -121 110 -349v-53q0 -100 -70 -167q-71 -66 -175 -66t-174 66q-70 67 -70 167zM154 274v-52q0 -59 34.5 -95
t89.5 -36q56 0 90.5 36t34.5 95v52q0 58 -34.5 94t-90.5 36t-90 -36t-34 -94z" />
    <glyph glyph-name="increment" unicode="&#x2206;" horiz-adv-x="716" 
d="M332 706h58q11 0 16 -11l290 -677q3 -6 -1 -12t-11 -6h-646q-7 0 -11 6t-1 12l290 677q5 11 16 11zM355 496l-158 -370q-2 -5 0.5 -10.5t8.5 -5.5h310q6 0 9 5t1 11l-159 370q-2 5 -6 5t-6 -5z" />
    <glyph glyph-name="product" unicode="&#x220f;" horiz-adv-x="704" 
d="M34 706h636q5 0 9.5 -4.5t4.5 -9.5v-82q0 -6 -4.5 -10t-9.5 -4h-70q-10 0 -10 -11v-571q0 -14 -15 -14h-95q-14 0 -14 14v571q0 11 -10 11h-208q-10 0 -10 -11v-571q0 -14 -15 -14h-94q-15 0 -15 14v571q0 11 -10 11h-70q-5 0 -9.5 4t-4.5 10v82q0 5 4.5 9.5t9.5 4.5z
" />
    <glyph glyph-name="summation" unicode="&#x2211;" horiz-adv-x="617" 
d="M42 706h501q6 0 10 -4.5t4 -9.5v-82q0 -14 -14 -14h-325q-6 0 -9 -5.5t0 -10.5l155 -214q6 -10 0 -19l-156 -221q-3 -5 -0.5 -10.5t8.5 -5.5h327q15 0 15 -14v-82q0 -14 -15 -14h-500q-5 0 -9.5 4t-4.5 10v44q0 9 7 19l203 270q7 10 0 20l-206 268q-6 9 -6 16v41
q0 5 4.5 9.5t10.5 4.5z" />
    <glyph glyph-name="minus" unicode="&#x2212;" horiz-adv-x="573" 
d="M509 309h-444q-15 0 -15 15v59q0 14 15 14h444q5 0 9.5 -4.5t4.5 -9.5v-60q0 -5 -4.5 -9.5t-9.5 -4.5z" />
    <glyph glyph-name="radical" unicode="&#x221a;" horiz-adv-x="599" 
d="M10 317v59q0 6 4.5 10.5t9.5 4.5h177q14 0 18 -13l69 -174q2 -5 6 -5q5 0 7 5l185 489q3 13 18 13h78q7 0 10.5 -5.5t1.5 -11.5l-270 -678q-3 -12 -16 -12h-28q-12 0 -17 12l-115 279q-4 13 -18 13h-106q-5 0 -9.5 4t-4.5 10z" />
    <glyph glyph-name="infinity" unicode="&#x221e;" horiz-adv-x="786" 
d="M215 512q73 0 168 -90q10 -10 20 0q35 31 52 45q55 45 121 45q69 0 114 -45q46 -45 46 -115q0 -66 -48 -114q-46 -48 -117 -48q-73 0 -168 90q-10 10 -20 0q-48 -47 -86.5 -68.5t-86.5 -21.5q-68 0 -115 45q-45 45 -45 115q0 65 47 114q48 48 118 48zM215 425
q-31 0 -52.5 -22t-21.5 -53q0 -32 20 -52.5t51 -20.5q40 0 110 65q9 9 0 18q-70 65 -107 65zM574 425q-42 0 -110 -65q-9 -9 0 -18q70 -65 107 -65q30 0 52 22.5t22 52.5q0 32 -20 52.5t-51 20.5z" />
    <glyph glyph-name="integral" unicode="&#x222b;" horiz-adv-x="296" 
d="M88 -15v748q0 65 39 100t113 35q38 0 78 -12q16 -4 11 -20l-19 -63q-3 -15 -17 -10q-18 5 -29 5q-24 0 -38.5 -12.5t-14.5 -35.5v-747q0 -66 -38.5 -100.5t-112.5 -34.5q-37 0 -79 12q-14 5 -11 20l19 63q5 14 18 10q18 -5 29 -5q24 0 38 12t14 35z" />
    <glyph glyph-name="approxequal" unicode="&#x2248;" horiz-adv-x="573" 
d="M179 508q53 0 116 -25t114 -25q40 0 88 24q14 6 20 -9l13 -43q4 -13 -7 -18q-62 -38 -124 -38q-51 0 -117 24q-63 25 -114 25q-30 0 -87 -23q-14 -6 -20 9l-13 42q-3 12 7 19q62 38 124 38zM179 332q53 0 116 -25q65 -24 114 -24q40 0 88 23q14 6 20 -9l13 -43
q3 -11 -7 -18q-62 -38 -124 -38q-51 0 -117 24q-63 25 -114 25q-39 0 -87 -23q-14 -6 -20 9l-13 43q-3 11 7 18q62 38 124 38z" />
    <glyph glyph-name="notequal" unicode="&#x2260;" horiz-adv-x="573" 
d="M88 53l84 168h-107q-6 0 -10.5 4.5t-4.5 10.5v59q0 14 15 14h151l44 88h-195q-15 0 -15 15v59q0 14 15 14h239l88 175q9 16 31 16h54q9 0 13 -8t0 -15l-85 -168h104q5 0 9.5 -4.5t4.5 -9.5v-60q0 -5 -4.5 -9.5t-9.5 -4.5h-148l-44 -88h192q5 0 9.5 -4.5t4.5 -9.5v-60
q0 -5 -4.5 -9.5t-9.5 -4.5h-236l-87 -175q-13 -16 -32 -16h-54q-9 0 -12.5 8t0.5 15z" />
    <glyph glyph-name="lessequal" unicode="&#x2264;" horiz-adv-x="573" 
d="M62 479l444 179q6 2 11.5 -2t5.5 -11v-58q0 -15 -13 -18l-296 -117q-5 -1 -5 -6t5 -6l296 -116q13 -1 13 -17v-58q0 -7 -5.5 -11t-11.5 -2l-444 177q-12 5 -12 17v32q0 14 12 17zM508 107h-444q-6 0 -10 4.5t-4 9.5v60q0 5 4 9.5t10 4.5h444q6 0 10.5 -4.5t4.5 -9.5v-59
q0 -5 -4.5 -10t-10.5 -5z" />
    <glyph glyph-name="greaterequal" unicode="&#x2265;" horiz-adv-x="573" 
d="M67 658l444 -179q12 -3 12 -17v-32q0 -12 -12 -17l-444 -177q-6 -2 -11.5 2t-5.5 11v58q0 16 13 17l296 116q5 2 5 6t-5 6l-296 117q-13 3 -13 18v58q0 7 5.5 11t11.5 2zM509 107h-444q-6 0 -10.5 5t-4.5 10v59q0 5 4.5 9.5t10.5 4.5h444q5 0 9.5 -4.5t4.5 -9.5v-60
q0 -5 -4.5 -9.5t-9.5 -4.5z" />
    <glyph glyph-name="lozenge" unicode="&#x25ca;" horiz-adv-x="528" 
d="M16 360l190 335q8 12 17 12h88q9 0 17 -12l190 -335q5 -9 0 -17l-190 -332q-8 -12 -17 -12h-88q-9 0 -17 12l-190 332q-3 9 0 17zM261 576l-122 -218q-1 -8 0 -12l122 -216q2 -5 6 -5t6 5l121 216q2 4 0 12l-121 218q-2 5 -6 5t-6 -5z" />
    <glyph glyph-name="commaaccent" unicode="&#xf6c3;" horiz-adv-x="400" 
d="M157 -110q0 21 14.5 35.5t37.5 14.5q21 0 35.5 -14.5t14.5 -35.5q0 -64 -71 -126q-8 -7 -19 -5l-8 4q-4 1 -5 6t2 10q21 28 21 46t-11 32q-11 17 -11 33z" />
    <glyph glyph-name="NULL" horiz-adv-x="0" 
 />
    <glyph glyph-name="CR" horiz-adv-x="333" 
 />
    <glyph glyph-name="R.alt" horiz-adv-x="641" 
d="M72 14v678q0 5 4.5 9.5t10.5 4.5h294q88 0 148 -63q61 -61 61 -153v-6q0 -66 -33.5 -117t-88.5 -77q-10 -6 -5 -14l129 -255q3 -6 -0.5 -13.5t-12.5 -7.5h-103q-8 0 -13 8l-121 249q-5 11 -18 11h-118q-10 0 -10 -11v-243q0 -14 -15 -14h-94q-15 0 -15 14zM196 585v-211
q0 -11 10 -11h138q50 0 81 30.5t31 82.5v6q0 53 -31.5 83.5t-86.5 30.5h-132q-10 0 -10 -11z" />
    <glyph glyph-name="Racute.alt" horiz-adv-x="641" 
d="M72 14v678q0 5 4.5 9.5t10.5 4.5h294q88 0 148 -63q61 -61 61 -153v-6q0 -66 -33.5 -117t-88.5 -77q-10 -6 -5 -14l129 -255q3 -6 -0.5 -13.5t-12.5 -7.5h-103q-8 0 -13 8l-121 249q-5 11 -18 11h-118q-10 0 -10 -11v-243q0 -14 -15 -14h-94q-15 0 -15 14zM196 585v-211
q0 -11 10 -11h138q50 0 81 30.5t31 82.5v6q0 53 -31.5 83.5t-86.5 30.5h-132q-10 0 -10 -11zM214 807l132 106q9 9 24 2l57 -33q7 -4 7.5 -12t-6.5 -12l-149 -97q-10 -6 -24 -1l-40 24q-6 4 -6.5 11t5.5 12z" />
    <glyph glyph-name="Rcaron.alt" horiz-adv-x="641" 
d="M72 14v678q0 5 4.5 9.5t10.5 4.5h294q88 0 148 -63q61 -61 61 -153v-6q0 -66 -33.5 -117t-88.5 -77q-10 -6 -5 -14l129 -255q3 -6 -0.5 -13.5t-12.5 -7.5h-103q-8 0 -13 8l-121 249q-5 11 -18 11h-118q-10 0 -10 -11v-243q0 -14 -15 -14h-94q-15 0 -15 14zM196 585v-211
q0 -11 10 -11h138q50 0 81 30.5t31 82.5v6q0 53 -31.5 83.5t-86.5 30.5h-132q-10 0 -10 -11zM324 843l89 55q9 5 17 0l33 -21q6 -4 6.5 -11t-5.5 -11l-138 -98q-5 -3 -8 -3q-4 0 -8 3l-138 98q-6 4 -5.5 11t6.5 11l33 21q8 6 17 0l89 -55q6 -2 12 0z" />
    <glyph glyph-name="Rcommaaccent.alt" horiz-adv-x="641" 
d="M72 14v678q0 5 4.5 9.5t10.5 4.5h294q88 0 148 -63q61 -61 61 -153v-6q0 -66 -33.5 -117t-88.5 -77q-10 -6 -5 -14l129 -255q3 -6 -0.5 -13.5t-12.5 -7.5h-103q-8 0 -13 8l-121 249q-5 11 -18 11h-118q-10 0 -10 -11v-243q0 -14 -15 -14h-94q-15 0 -15 14zM196 585v-211
q0 -11 10 -11h138q50 0 81 30.5t31 82.5v6q0 53 -31.5 83.5t-86.5 30.5h-132q-10 0 -10 -11zM270 -110q0 21 14.5 35.5t37.5 14.5q21 0 35.5 -14.5t14.5 -35.5q0 -64 -71 -126q-8 -7 -19 -5l-8 4q-4 1 -5 6t2 10q21 28 21 46t-11 32q-11 17 -11 33z" />
    <glyph glyph-name="Y.alt" horiz-adv-x="656" 
d="M259 261l-229 425q-4 7 0 13.5t12 6.5h100q13 0 18 -11l166 -321q2 -5 9 -5t9 5l180 321q6 11 18 11h97q8 0 12 -6.5t1 -13.5l-377 -676q-7 -10 -18 -10h-98q-8 0 -12 6.5t0 13.5l112 200q11 20 0 41z" />
    <glyph glyph-name="Yacute.alt" horiz-adv-x="656" 
d="M259 261l-229 425q-4 7 0 13.5t12 6.5h100q13 0 18 -11l166 -321q2 -5 9 -5t9 5l180 321q6 11 18 11h97q8 0 12 -6.5t1 -13.5l-377 -676q-7 -10 -18 -10h-98q-8 0 -12 6.5t0 13.5l112 200q11 20 0 41zM227 807l132 106q9 9 24 2l57 -33q7 -4 7.5 -12t-6.5 -12l-149 -97
q-10 -6 -24 -1l-40 24q-6 4 -6.5 11t5.5 12z" />
    <glyph glyph-name="Ydieresis.alt" horiz-adv-x="656" 
d="M259 261l-229 425q-4 7 0 13.5t12 6.5h100q13 0 18 -11l166 -321q2 -5 9 -5t9 5l180 321q6 11 18 11h97q8 0 12 -6.5t1 -13.5l-377 -676q-7 -10 -18 -10h-98q-8 0 -12 6.5t0 13.5l112 200q11 20 0 41zM202 798q-16 16 -16 39t16 38q16 16 38 16t37 -16q16 -16 16 -38
t-16 -38q-15 -16 -37 -16t-38 15zM392 798q-16 16 -16 39t16 38q16 16 38 16t37 -16q16 -16 16 -38t-16 -38q-15 -16 -37 -16t-38 15z" />
    <glyph glyph-name="a.alt" horiz-adv-x="513" 
d="M33 144v4q0 71 50.5 107t137.5 36h107q11 0 11 11v31q0 32 -24 49.5t-66 17.5q-65 0 -109 -35q-12 -8 -20 3l-45 60q-8 11 2 20q74 56 180 56q94 0 149 -41.5t55 -116.5v-332q0 -14 -14 -14h-80q-13 0 -14 10l-7 35q-1 4 -5 4.5t-7 -2.5q-55 -55 -137 -55
q-77 0 -120.5 42t-43.5 110zM153 156v-3q0 -27 20 -43t58 -16q53 0 94 35q14 11 14 27v45q0 11 -11 11h-87q-88 0 -88 -56z" />
    <glyph glyph-name="aacute.alt" horiz-adv-x="513" 
d="M33 144v4q0 71 50.5 107t137.5 36h107q11 0 11 11v31q0 32 -24 49.5t-66 17.5q-65 0 -109 -35q-12 -8 -20 3l-45 60q-8 11 2 20q74 56 180 56q94 0 149 -41.5t55 -116.5v-332q0 -14 -14 -14h-80q-13 0 -14 10l-7 35q-1 4 -5 4.5t-7 -2.5q-55 -55 -137 -55
q-77 0 -120.5 42t-43.5 110zM153 156v-3q0 -27 20 -43t58 -16q53 0 94 35q14 11 14 27v45q0 11 -11 11h-87q-88 0 -88 -56zM174 596l132 106q9 9 24 2l57 -33q7 -4 7.5 -12t-6.5 -12l-149 -97q-10 -6 -24 -1l-40 24q-6 4 -6.5 11t5.5 12z" />
    <glyph glyph-name="agrave.alt" horiz-adv-x="513" 
d="M33 144v4q0 71 50.5 107t137.5 36h107q11 0 11 11v31q0 32 -24 49.5t-66 17.5q-65 0 -109 -35q-12 -8 -20 3l-45 60q-8 11 2 20q74 56 180 56q94 0 149 -41.5t55 -116.5v-332q0 -14 -14 -14h-80q-13 0 -14 10l-7 35q-1 4 -5 4.5t-7 -2.5q-55 -55 -137 -55
q-77 0 -120.5 42t-43.5 110zM153 156v-3q0 -27 20 -43t58 -16q53 0 94 35q14 11 14 27v45q0 11 -11 11h-87q-88 0 -88 -56zM184 671l57 33q15 8 25 -2l132 -106q6 -5 5.5 -12t-6.5 -11l-41 -24q-11 -6 -23 1l-149 97q-7 4 -7 11.5t7 12.5z" />
    <glyph glyph-name="acircumflex.alt" horiz-adv-x="513" 
d="M33 144v4q0 71 50.5 107t137.5 36h107q11 0 11 11v31q0 32 -24 49.5t-66 17.5q-65 0 -109 -35q-12 -8 -20 3l-45 60q-8 11 2 20q74 56 180 56q94 0 149 -41.5t55 -116.5v-332q0 -14 -14 -14h-80q-13 0 -14 10l-7 35q-1 4 -5 4.5t-7 -2.5q-55 -55 -137 -55
q-77 0 -120.5 42t-43.5 110zM153 156v-3q0 -27 20 -43t58 -16q53 0 94 35q14 11 14 27v45q0 11 -11 11h-87q-88 0 -88 -56zM280 697l138 -98q6 -4 5.5 -11t-6.5 -11l-33 -21q-8 -5 -17 0l-89 55q-6 2 -12 0l-89 -55q-9 -6 -17 0l-33 21q-6 4 -6.5 11t5.5 11l138 98q8 6 16 0
z" />
    <glyph glyph-name="atilde.alt" horiz-adv-x="513" 
d="M33 144v4q0 71 50.5 107t137.5 36h107q11 0 11 11v31q0 32 -24 49.5t-66 17.5q-65 0 -109 -35q-12 -8 -20 3l-45 60q-8 11 2 20q74 56 180 56q94 0 149 -41.5t55 -116.5v-332q0 -14 -14 -14h-80q-13 0 -14 10l-7 35q-1 4 -5 4.5t-7 -2.5q-55 -55 -137 -55
q-77 0 -120.5 42t-43.5 110zM153 156v-3q0 -27 20 -43t58 -16q53 0 94 35q14 11 14 27v45q0 11 -11 11h-87q-88 0 -88 -56zM290 659q31 -17 50 -17q25 0 54 20q10 7 19 -4l22 -35q5 -10 -2 -17q-37 -43 -93 -43q-32 0 -73 22q-25 16 -50 16q-28 0 -50 -18q-10 -7 -19 5
l-22 35q-8 7 2 17q37 40 89 40q37 0 73 -21z" />
    <glyph glyph-name="adieresis.alt" horiz-adv-x="513" 
d="M33 144v4q0 71 50.5 107t137.5 36h107q11 0 11 11v31q0 32 -24 49.5t-66 17.5q-65 0 -109 -35q-12 -8 -20 3l-45 60q-8 11 2 20q74 56 180 56q94 0 149 -41.5t55 -116.5v-332q0 -14 -14 -14h-80q-13 0 -14 10l-7 35q-1 4 -5 4.5t-7 -2.5q-55 -55 -137 -55
q-77 0 -120.5 42t-43.5 110zM153 156v-3q0 -27 20 -43t58 -16q53 0 94 35q14 11 14 27v45q0 11 -11 11h-87q-88 0 -88 -56zM183 680q22 0 37.5 -16t15.5 -38t-15.5 -38t-37.5 -16q-23 0 -38.5 16t-15.5 38t15.5 38t38.5 16zM373 680q22 0 37.5 -16t15.5 -38t-15.5 -38
t-37.5 -16q-23 0 -38.5 16t-15.5 38t15.5 38t38.5 16z" />
    <glyph glyph-name="amacron.alt" horiz-adv-x="513" 
d="M33 144v4q0 71 50.5 107t137.5 36h107q11 0 11 11v31q0 32 -24 49.5t-66 17.5q-65 0 -109 -35q-12 -8 -20 3l-45 60q-8 11 2 20q74 56 180 56q94 0 149 -41.5t55 -116.5v-332q0 -14 -14 -14h-80q-13 0 -14 10l-7 35q-1 4 -5 4.5t-7 -2.5q-55 -55 -137 -55
q-77 0 -120.5 42t-43.5 110zM153 156v-3q0 -27 20 -43t58 -16q53 0 94 35q14 11 14 27v45q0 11 -11 11h-87q-88 0 -88 -56zM149 658h260q14 0 14 -15v-48q0 -6 -4.5 -10.5t-9.5 -4.5h-260q-15 0 -15 15v48q0 15 15 15z" />
    <glyph glyph-name="aring.alt" horiz-adv-x="513" 
d="M33 144v4q0 71 50.5 107t137.5 36h107q11 0 11 11v31q0 32 -24 49.5t-66 17.5q-65 0 -109 -35q-12 -8 -20 3l-45 60q-8 11 2 20q74 56 180 56q94 0 149 -41.5t55 -116.5v-332q0 -14 -14 -14h-80q-13 0 -14 10l-7 35q-1 4 -5 4.5t-7 -2.5q-55 -55 -137 -55
q-77 0 -120.5 42t-43.5 110zM153 156v-3q0 -27 20 -43t58 -16q53 0 94 35q14 11 14 27v45q0 11 -11 11h-87q-88 0 -88 -56zM212 688q25 24 64 24q38 0 63 -24q26 -24 26 -62t-26 -62q-25 -24 -63 -24t-64 24q-25 24 -25 62t25 62zM235 626q0 -42 41 -42t41 42t-41 42
t-41 -42z" />
    <glyph glyph-name="aogonek.alt" horiz-adv-x="513" 
d="M267 -88v9q0 68 82 108l-3 16q-1 4 -5 4.5t-7 -2.5q-55 -55 -137 -55q-77 0 -120.5 42t-43.5 110v4q0 71 50.5 107t137.5 36h107q11 0 11 11v31q0 32 -24 49.5t-66 17.5q-65 0 -109 -35q-12 -8 -20 3l-45 60q-8 11 2 20q74 56 180 56q94 0 149 -41.5t55 -116.5v-332
q0 -14 -14 -14h-42q-73 -27 -73 -75v-4q0 -55 69 -55q22 0 52 11q14 6 19 -6l10 -21q8 -14 -6 -20q-42 -20 -79 -20q-58 0 -94 28t-36 74zM153 156v-3q0 -27 20 -43t58 -16q53 0 94 35q14 11 14 27v45q0 11 -11 11h-87q-88 0 -88 -56z" />
    <glyph glyph-name="abreve.alt" horiz-adv-x="513" 
d="M33 144v4q0 71 50.5 107t137.5 36h107q11 0 11 11v31q0 32 -24 49.5t-66 17.5q-65 0 -109 -35q-12 -8 -20 3l-45 60q-8 11 2 20q74 56 180 56q94 0 149 -41.5t55 -116.5v-332q0 -14 -14 -14h-80q-13 0 -14 10l-7 35q-1 4 -5 4.5t-7 -2.5q-55 -55 -137 -55
q-77 0 -120.5 42t-43.5 110zM153 156v-3q0 -27 20 -43t58 -16q53 0 94 35q14 11 14 27v45q0 11 -11 11h-87q-88 0 -88 -56zM372 682q6 11 18 5l38 -23q13 -6 4 -19q-12 -19 -27 -34t-51 -34q-36 -17 -72 -17q-56 0 -93 28t-57 57q-9 13 4 19l38 23q12 6 18 -5q39 -48 90 -48
t90 48z" />
    <glyph glyph-name="g.alt" horiz-adv-x="538" 
d="M269 2q101 0 163 -48t62 -128v-16q0 -90 -71 -146q-71 -57 -189 -57q-89 0 -170 45q-10 6 -6 18l27 63q7 13 19 6q56 -29 123 -29t107 28t40 73v10q0 44 -38 69.5t-103 25.5q-64 0 -115 -23q-12 -6 -18 5l-12 19q-4 7 0 15l82 134q7 9 -5 15q-60 24 -95.5 73.5
t-35.5 114.5v24q0 93 69 151q68 58 163 58q74 0 133 -36q11 -6 15 3l9 15q6 11 21 11h65q8 0 12 -7.5t-1 -14.5l-42 -69q-6 -10 -1 -19q22 -41 22 -92v-24q0 -92 -66 -149q-65 -56 -158 -59q-10 0 -14 -10l-28 -45q-2 -4 -0.5 -6t5.5 -1q18 3 31 3zM151 290v-17
q0 -50 33 -79.5t82 -29.5q50 0 82.5 29.5t32.5 79.5v17q0 50 -32.5 79.5t-82.5 29.5q-49 0 -82 -29.5t-33 -79.5z" />
    <glyph glyph-name="gcircumflex.alt" horiz-adv-x="538" 
d="M269 2q101 0 163 -48t62 -128v-16q0 -90 -71 -146q-71 -57 -189 -57q-89 0 -170 45q-10 6 -6 18l27 63q7 13 19 6q56 -29 123 -29t107 28t40 73v10q0 44 -38 69.5t-103 25.5q-64 0 -115 -23q-12 -6 -18 5l-12 19q-4 7 0 15l82 134q7 9 -5 15q-60 24 -95.5 73.5
t-35.5 114.5v24q0 93 69 151q68 58 163 58q74 0 133 -36q11 -6 15 3l9 15q6 11 21 11h65q8 0 12 -7.5t-1 -14.5l-42 -69q-6 -10 -1 -19q22 -41 22 -92v-24q0 -92 -66 -149q-65 -56 -158 -59q-10 0 -14 -10l-28 -45q-2 -4 -0.5 -6t5.5 -1q18 3 31 3zM151 290v-17
q0 -50 33 -79.5t82 -29.5q50 0 82.5 29.5t32.5 79.5v17q0 50 -32.5 79.5t-82.5 29.5q-49 0 -82 -29.5t-33 -79.5zM278 697l138 -98q6 -4 5.5 -11t-6.5 -11l-33 -21q-8 -5 -17 0l-89 55q-6 2 -12 0l-89 -55q-9 -6 -17 0l-33 21q-6 4 -6.5 11t5.5 11l138 98q8 6 16 0z" />
    <glyph glyph-name="gbreve.alt" horiz-adv-x="538" 
d="M269 2q101 0 163 -48t62 -128v-16q0 -90 -71 -146q-71 -57 -189 -57q-89 0 -170 45q-10 6 -6 18l27 63q7 13 19 6q56 -29 123 -29t107 28t40 73v10q0 44 -38 69.5t-103 25.5q-64 0 -115 -23q-12 -6 -18 5l-12 19q-4 7 0 15l82 134q7 9 -5 15q-60 24 -95.5 73.5
t-35.5 114.5v24q0 93 69 151q68 58 163 58q74 0 133 -36q11 -6 15 3l9 15q6 11 21 11h65q8 0 12 -7.5t-1 -14.5l-42 -69q-6 -10 -1 -19q22 -41 22 -92v-24q0 -92 -66 -149q-65 -56 -158 -59q-10 0 -14 -10l-28 -45q-2 -4 -0.5 -6t5.5 -1q18 3 31 3zM151 290v-17
q0 -50 33 -79.5t82 -29.5q50 0 82.5 29.5t32.5 79.5v17q0 50 -32.5 79.5t-82.5 29.5q-49 0 -82 -29.5t-33 -79.5zM360 682q6 11 18 5l38 -23q13 -6 4 -19q-12 -19 -27 -34t-51 -34q-36 -17 -72 -17q-56 0 -93 28t-57 57q-9 13 4 19l38 23q12 6 18 -5q39 -48 90 -48t90 48z
" />
    <glyph glyph-name="gdotaccent.alt" horiz-adv-x="538" 
d="M269 2q101 0 163 -48t62 -128v-16q0 -90 -71 -146q-71 -57 -189 -57q-89 0 -170 45q-10 6 -6 18l27 63q7 13 19 6q56 -29 123 -29t107 28t40 73v10q0 44 -38 69.5t-103 25.5q-64 0 -115 -23q-12 -6 -18 5l-12 19q-4 7 0 15l82 134q7 9 -5 15q-60 24 -95.5 73.5
t-35.5 114.5v24q0 93 69 151q68 58 163 58q74 0 133 -36q11 -6 15 3l9 15q6 11 21 11h65q8 0 12 -7.5t-1 -14.5l-42 -69q-6 -10 -1 -19q22 -41 22 -92v-24q0 -92 -66 -149q-65 -56 -158 -59q-10 0 -14 -10l-28 -45q-2 -4 -0.5 -6t5.5 -1q18 3 31 3zM151 290v-17
q0 -50 33 -79.5t82 -29.5q50 0 82.5 29.5t32.5 79.5v17q0 50 -32.5 79.5t-82.5 29.5q-49 0 -82 -29.5t-33 -79.5zM269 686q24 0 42 -17.5t18 -41.5t-18 -41.5t-42 -17.5q-25 0 -42.5 17t-17.5 42t17.5 42t42.5 17z" />
    <glyph glyph-name="gcommaaccent.alt" horiz-adv-x="538" 
d="M330 619q0 -21 -14.5 -35.5t-37.5 -14.5q-22 0 -36 14.5t-14 35.5q0 63 70 126q9 7 19 5l9 -3q9 -7 3 -17q-22 -29 -22 -46q0 -18 11 -32q12 -15 12 -33zM269 2q101 0 163 -48t62 -128v-16q0 -90 -71 -146q-71 -57 -189 -57q-89 0 -170 45q-10 6 -6 18l27 63q7 13 19 6
q56 -29 123 -29t107 28t40 73v10q0 44 -38 69.5t-103 25.5q-64 0 -115 -23q-12 -6 -18 5l-12 19q-4 7 0 15l82 134q7 9 -5 15q-60 24 -95.5 73.5t-35.5 114.5v24q0 93 69 151q68 58 163 58q74 0 133 -36q11 -6 15 3l9 15q6 11 21 11h65q8 0 12 -7.5t-1 -14.5l-42 -69
q-6 -10 -1 -19q22 -41 22 -92v-24q0 -92 -66 -149q-65 -56 -158 -59q-10 0 -14 -10l-28 -45q-2 -4 -0.5 -6t5.5 -1q18 3 31 3zM151 290v-17q0 -50 33 -79.5t82 -29.5q50 0 82.5 29.5t32.5 79.5v17q0 50 -32.5 79.5t-82.5 29.5q-49 0 -82 -29.5t-33 -79.5z" />
    <glyph glyph-name="g.salt" horiz-adv-x="542" 
d="M332 495h158q15 0 15 -14v-5q0 -8 -5 -16l-28 -43q-6 -7 -1 -15q32 -49 32 -109v-24q0 -93 -69 -151q-68 -58 -164 -58q-34 0 -67 9q-9 3 -15 -5q-14 -19 -14 -37v-2q0 -15 12 -33q5 -8 17 -5q32 8 67 8q92 0 163 -50q70 -51 76 -142q0 -15 -15 -15h-91q-13 0 -14 13
q-3 41 -33.5 66t-85.5 25q-53 0 -84 -25t-33 -66q-1 -13 -15 -13h-91q-14 0 -14 15q6 82 67 134q8 8 1 16q-27 31 -27 71v3q0 43 29 78q7 10 -1 17q-64 57 -64 147v24q0 93 69 151q68 58 163 58q35 0 62 -7zM156 290v-17q0 -50 32.5 -79.5t81.5 -29.5q50 0 82.5 29.5
t32.5 79.5v17q0 50 -32.5 79.5t-82.5 29.5q-49 0 -81.5 -29.5t-32.5 -79.5z" />
    <glyph glyph-name="gcircumflex.salt" horiz-adv-x="542" 
d="M332 495h158q15 0 15 -14v-5q0 -8 -5 -16l-28 -43q-6 -7 -1 -15q32 -49 32 -109v-24q0 -93 -69 -151q-68 -58 -164 -58q-34 0 -67 9q-9 3 -15 -5q-14 -19 -14 -37v-2q0 -15 12 -33q5 -8 17 -5q32 8 67 8q92 0 163 -50q70 -51 76 -142q0 -15 -15 -15h-91q-13 0 -14 13
q-3 41 -33.5 66t-85.5 25q-53 0 -84 -25t-33 -66q-1 -13 -15 -13h-91q-14 0 -14 15q6 82 67 134q8 8 1 16q-27 31 -27 71v3q0 43 29 78q7 10 -1 17q-64 57 -64 147v24q0 93 69 151q68 58 163 58q35 0 62 -7zM156 290v-17q0 -50 32.5 -79.5t81.5 -29.5q50 0 82.5 29.5
t32.5 79.5v17q0 50 -32.5 79.5t-82.5 29.5q-49 0 -81.5 -29.5t-32.5 -79.5zM280 697l138 -98q6 -4 5.5 -11t-6.5 -11l-33 -21q-8 -5 -17 0l-89 55q-6 2 -12 0l-89 -55q-9 -6 -17 0l-33 21q-6 4 -6.5 11t5.5 11l138 98q8 6 16 0z" />
    <glyph glyph-name="gbreve.salt" horiz-adv-x="542" 
d="M332 495h158q15 0 15 -14v-5q0 -8 -5 -16l-28 -43q-6 -7 -1 -15q32 -49 32 -109v-24q0 -93 -69 -151q-68 -58 -164 -58q-34 0 -67 9q-9 3 -15 -5q-14 -19 -14 -37v-2q0 -15 12 -33q5 -8 17 -5q32 8 67 8q92 0 163 -50q70 -51 76 -142q0 -15 -15 -15h-91q-13 0 -14 13
q-3 41 -33.5 66t-85.5 25q-53 0 -84 -25t-33 -66q-1 -13 -15 -13h-91q-14 0 -14 15q6 82 67 134q8 8 1 16q-27 31 -27 71v3q0 43 29 78q7 10 -1 17q-64 57 -64 147v24q0 93 69 151q68 58 163 58q35 0 62 -7zM156 290v-17q0 -50 32.5 -79.5t81.5 -29.5q50 0 82.5 29.5
t32.5 79.5v17q0 50 -32.5 79.5t-82.5 29.5q-49 0 -81.5 -29.5t-32.5 -79.5zM362 682q6 11 18 5l38 -23q13 -6 4 -19q-12 -19 -27 -34t-51 -34q-36 -17 -72 -17q-56 0 -93 28t-57 57q-9 13 4 19l38 23q12 6 18 -5q39 -48 90 -48t90 48z" />
    <glyph glyph-name="gdotaccent.salt" horiz-adv-x="542" 
d="M332 495h158q15 0 15 -14v-5q0 -8 -5 -16l-28 -43q-6 -7 -1 -15q32 -49 32 -109v-24q0 -93 -69 -151q-68 -58 -164 -58q-34 0 -67 9q-9 3 -15 -5q-14 -19 -14 -37v-2q0 -15 12 -33q5 -8 17 -5q32 8 67 8q92 0 163 -50q70 -51 76 -142q0 -15 -15 -15h-91q-13 0 -14 13
q-3 41 -33.5 66t-85.5 25q-53 0 -84 -25t-33 -66q-1 -13 -15 -13h-91q-14 0 -14 15q6 82 67 134q8 8 1 16q-27 31 -27 71v3q0 43 29 78q7 10 -1 17q-64 57 -64 147v24q0 93 69 151q68 58 163 58q35 0 62 -7zM156 290v-17q0 -50 32.5 -79.5t81.5 -29.5q50 0 82.5 29.5
t32.5 79.5v17q0 50 -32.5 79.5t-82.5 29.5q-49 0 -81.5 -29.5t-32.5 -79.5zM272 686q24 0 42 -17.5t18 -41.5t-18 -41.5t-42 -17.5q-25 0 -42.5 17t-17.5 42t17.5 42t42.5 17z" />
    <glyph glyph-name="gcommaaccent.salt" horiz-adv-x="542" 
d="M330 619q0 -21 -14.5 -35.5t-37.5 -14.5q-22 0 -36 14.5t-14 35.5q0 63 70 126q9 7 19 5l9 -3q9 -7 3 -17q-22 -29 -22 -46q0 -18 11 -32q12 -15 12 -33zM332 495h158q15 0 15 -14v-5q0 -8 -5 -16l-28 -43q-6 -7 -1 -15q32 -49 32 -109v-24q0 -93 -69 -151
q-68 -58 -164 -58q-34 0 -67 9q-9 3 -15 -5q-14 -19 -14 -37v-2q0 -15 12 -33q5 -8 17 -5q32 8 67 8q92 0 163 -50q70 -51 76 -142q0 -15 -15 -15h-91q-13 0 -14 13q-3 41 -33.5 66t-85.5 25q-53 0 -84 -25t-33 -66q-1 -13 -15 -13h-91q-14 0 -14 15q6 82 67 134q8 8 1 16
q-27 31 -27 71v3q0 43 29 78q7 10 -1 17q-64 57 -64 147v24q0 93 69 151q68 58 163 58q35 0 62 -7zM156 290v-17q0 -50 32.5 -79.5t81.5 -29.5q50 0 82.5 29.5t32.5 79.5v17q0 50 -32.5 79.5t-82.5 29.5q-49 0 -81.5 -29.5t-32.5 -79.5z" />
    <glyph glyph-name="zero.salt" horiz-adv-x="552" 
d="M49 226v410q0 107 62 172q63 64 165 64q104 0 165 -64q63 -63 63 -172v-410q0 -108 -63 -172q-61 -63 -165 -63q-102 0 -165 63q-62 65 -62 172zM171 635v-406q0 -135 105 -135t105 135v405q0 135 -105 135t-105 -134z" />
    <glyph glyph-name="one.salt" horiz-adv-x="258" 
d="M68 14v730q0 11 -9 11h-38q-10 0 -10 11v85q0 11 10 11h157q14 0 14 -14v-834q0 -5 -4.5 -9.5t-10.5 -4.5h-94q-6 0 -10.5 4.5t-4.5 9.5z" />
    <glyph glyph-name="two.salt" horiz-adv-x="499" 
d="M233 871q107 0 168.5 -55.5t61.5 -152.5v-18q0 -72 -75 -198l-195 -328q-3 -5 -0.5 -8.5t7.5 -3.5h234q14 0 14 -14v-79q0 -14 -14 -14h-378q-15 0 -15 14v56q0 10 5 18l238 408q55 91 55 144v15q0 49 -32.5 79t-86.5 30q-60 0 -106 -25q-12 -7 -20 7l-26 65q-8 12 6 18
q74 42 159 42z" />
    <glyph glyph-name="three.salt" horiz-adv-x="493" 
d="M87 862h338q14 0 14 -15v-62q0 -16 -8 -30l-161 -264q-6 -10 5 -12q85 -8 134 -65t49 -145v-48q0 -101 -71 -166t-180 -65q-77 0 -145 37q-12 6 -6 21l26 64q7 14 20 7q40 -22 95 -22q60 0 99 36t39 91v42q0 56 -35.5 90t-93.5 34q-36 0 -74 -11q-10 -3 -16 6l-10 17
q-4 9 0 18l191 319q3 5 0 10t-8 5h-202q-5 0 -9.5 4.5t-4.5 10.5v78q0 6 4.5 10.5t9.5 4.5z" />
    <glyph glyph-name="four.salt" horiz-adv-x="515" 
d="M29 289l279 564q4 9 14 9h91q5 0 9.5 -4.5t4.5 -10.5v-543q0 -11 10 -11h41q6 0 10 -4.5t4 -9.5v-64q0 -14 -14 -14h-41q-10 0 -10 -11v-176q0 -6 -4.5 -10t-9.5 -4h-95q-5 0 -9.5 4t-4.5 10v176q0 11 -11 11h-253q-14 0 -14 14v58q0 9 3 16zM290 586l-139 -283
q-2 -10 7 -10h135q11 0 11 11v280q0 5 -5.5 6.5t-8.5 -4.5z" />
    <glyph glyph-name="five.salt" horiz-adv-x="470" 
d="M59 372v476q0 14 15 14h326q15 0 15 -14v-79q0 -14 -15 -14h-213q-11 0 -11 -11v-259q0 -11 12 -10q17 7 43 7q97 0 154.5 -57.5t57.5 -154.5v-49q0 -98 -73 -165q-74 -66 -180 -66q-78 0 -143 37q-12 7 -6 18l27 67q6 15 20 7q40 -22 94 -22q60 0 98.5 36.5t38.5 91.5
v42q0 56 -35.5 89.5t-96.5 33.5q-57 0 -106 -30q-6 -4 -14 -0.5t-8 12.5z" />
    <glyph glyph-name="six.salt" horiz-adv-x="534" 
d="M301 485q90 0 145 -58q55 -56 55 -152v-67q0 -94 -66 -156q-67 -62 -165 -62t-161 60q-62 62 -62 158v432q0 100 70 166q71 66 177 66q76 0 144 -37q11 -6 7 -19l-27 -66q-6 -15 -20 -7q-43 22 -95 22q-58 0 -95.5 -36t-37.5 -92v-192q0 -5 4 -6.5t8 1.5q45 45 119 45z
M275 389q-48 0 -78 -32t-30 -86v-59q0 -54 28 -86.5t75 -32.5q48 0 77.5 32.5t29.5 86.5v59q0 54 -27.5 86t-74.5 32z" />
    <glyph glyph-name="seven.salt" horiz-adv-x="436" 
d="M34 862h383q14 0 14 -15v-51q0 -13 -5 -26l-219 -760q-3 -10 -14 -10h-109q-7 0 -11.5 5.5t-2.5 12.5l222 725q5 11 -8 11h-250q-5 0 -9.5 4.5t-4.5 9.5v79q0 6 4.5 10.5t9.5 4.5z" />
    <glyph glyph-name="eight.salt" horiz-adv-x="543" 
d="M480 679v-48q0 -83 -66 -134q-8 -8 0 -13q87 -56 87 -155v-133q0 -89 -65 -148t-165 -59q-101 0 -166 59q-64 58 -64 148v133q0 100 88 155q8 5 0 13q-66 51 -66 134v48q0 84 58 138q58 55 150 55t150 -55q59 -54 59 -138zM181 671v-48q0 -40 25.5 -67t64.5 -27t64 27
t25 67v48q0 45 -24.5 71.5t-64.5 26.5t-65 -26.5t-25 -71.5zM168 339v-136q0 -50 28.5 -80.5t74.5 -30.5t74.5 30.5t28.5 80.5v136q0 46 -28.5 75t-74.5 29t-74.5 -28.5t-28.5 -75.5z" />
    <glyph glyph-name="nine.salt" horiz-adv-x="534" 
d="M233 384q-90 0 -145 58t-55 152v59q0 93 66 155q68 62 165 62q98 0 160 -60q63 -60 63 -157v-432q0 -101 -70 -165q-71 -65 -177 -65q-74 0 -144 37q-12 6 -6 18l27 66q6 13 19 8q48 -23 96 -23q58 0 95 36t37 91v200q0 5 -3.5 6.5t-7.5 -1.5q-47 -45 -120 -45zM259 480
q49 0 79 32t30 85v53q0 53 -28.5 85t-75.5 32t-76.5 -32t-29.5 -85v-53q0 -53 27.5 -85t73.5 -32z" />
    <glyph glyph-name="comma.alt" horiz-adv-x="238" 
d="M49 -95v164q0 30 20 49t50 19t49.5 -19t19.5 -49q0 -23 -15 -46l-89 -125q-8 -8 -15 -8h-6q-14 0 -14 15z" />
    <glyph glyph-name="semicolon.alt" horiz-adv-x="238" 
d="M69 335q-20 20 -20 49t20 49q21 20 50 20t49 -20t20 -49t-20 -49t-49 -20t-50 20zM49 -49v163q2 30 21.5 49.5t48.5 19.5t49 -19.5t20 -49.5q0 -22 -15 -45l-89 -125q-6 -8 -15 -8h-6q-14 0 -14 15z" />
    <glyph glyph-name="g.salt_j" horiz-adv-x="779" 
d="M332 495h158q15 0 15 -14v-5q0 -8 -5 -16l-28 -43q-6 -7 -1 -15q32 -49 32 -109v-24q0 -93 -69 -151q-68 -58 -164 -58q-34 0 -67 9q-9 3 -15 -5q-14 -19 -14 -37v-2q0 -15 12 -33q5 -8 17 -5q32 8 67 8q63 0 117.5 -24t86.5 -68q7 -10 31 -10q96 0 96 87v501q0 6 4.5 10
t9.5 4h95q14 0 14 -14v-501q0 -78 -44.5 -126t-121.5 -48q-20 0 -37 3q-11 1 -12 -9q-1 -12 -15 -12h-91q-13 0 -14 13q-3 41 -33.5 66t-85.5 25q-53 0 -84 -25t-33 -66q-1 -13 -15 -13h-91q-14 0 -14 15q6 82 67 134q8 8 1 16q-27 31 -27 71v3q0 43 29 78q7 10 -1 17
q-64 57 -64 147v24q0 93 69 151q68 58 163 58q35 0 62 -7zM156 290v-17q0 -50 32.5 -79.5t81.5 -29.5q50 0 82.5 29.5t32.5 79.5v17q0 50 -32.5 79.5t-82.5 29.5q-49 0 -81.5 -29.5t-32.5 -79.5zM663 692q26 0 45 -18.5t19 -45.5t-18.5 -45t-45.5 -18t-45.5 18t-18.5 45
t18.5 45.5t45.5 18.5z" />
    <glyph glyph-name="g.alt_j" horiz-adv-x="775" 
d="M269 2q83 0 141 -33.5t76 -91.5q2 -9 12 -10q5 -1 16 -1q38 0 60.5 22t22.5 60v533q0 6 4.5 10t9.5 4h95q14 0 14 -14v-533q0 -74 -49 -123q-49 -51 -129 -51q-22 0 -40 3q-11 2 -12 -7q-16 -75 -85 -119t-171 -44q-89 0 -170 45q-10 6 -6 18l27 63q7 13 19 6
q56 -29 123 -29t107 28t40 73v10q0 44 -38 69.5t-103 25.5q-64 0 -115 -23q-12 -6 -18 5l-12 19q-4 7 0 15l82 134q7 9 -5 15q-60 24 -95.5 73.5t-35.5 114.5v24q0 93 69 151q68 58 163 58q74 0 133 -36q11 -6 15 3l9 15q6 11 21 11h65q8 0 12 -7.5t-1 -14.5l-42 -69
q-6 -10 -1 -19q22 -41 22 -92v-24q0 -92 -66 -149q-65 -56 -158 -59q-10 0 -14 -10l-28 -45q-2 -4 -0.5 -6t5.5 -1q18 3 31 3zM151 290v-17q0 -50 33 -79.5t82 -29.5q50 0 82.5 29.5t32.5 79.5v17q0 50 -32.5 79.5t-82.5 29.5q-49 0 -82 -29.5t-33 -79.5zM613 583
q-18 18 -18 45t19 45q19 19 45 19t45 -19q19 -18 19 -45t-19 -45q-18 -18 -45 -18t-46 18z" />
    <glyph glyph-name="zero.onum" horiz-adv-x="546" 
d="M45 226v108q0 108 62 172q63 64 166 64q102 0 165 -64q63 -65 63 -172v-108q0 -108 -63 -172t-165 -64q-103 0 -166 64q-62 65 -62 172zM168 333v-104q0 -136 105 -136t105 136v103q0 135 -105 135t-105 -134z" />
    <glyph glyph-name="one.onum" horiz-adv-x="274" 
d="M82 14v418q0 11 -10 11h-23q-7 0 -11.5 7t-0.5 15l54 88q4 7 14 7h86q14 0 14 -14v-532q0 -6 -4.5 -10t-9.5 -4h-95q-5 0 -9.5 4t-4.5 10z" />
    <glyph glyph-name="two.onum" horiz-adv-x="477" 
d="M207 570q109 0 171.5 -48.5t62.5 -135.5v-14q0 -105 -105 -174l-127 -84q-5 -3 -4 -8.5t7 -5.5h207q14 0 14 -15v-71q0 -14 -14 -14h-382q-5 0 -9.5 4t-4.5 10v77q0 15 14 24l190 122q88 57 88 124v11q0 41 -31.5 66t-87.5 25q-63 0 -106 -25q-14 -6 -20 7l-26 65
q-7 13 6 19q74 41 157 41z" />
    <glyph glyph-name="three.onum" horiz-adv-x="448" 
d="M37 474v72q0 14 15 14h337q5 0 9.5 -4t4.5 -10v-49q0 -18 -10 -28l-140 -161q-4 -4 -2.5 -8t6.5 -5q77 -10 121 -64.5t44 -138.5v-18q0 -98 -72 -164t-181 -66q-78 0 -143 37q-10 6 -6 19l27 66q6 15 21 7q41 -23 93 -23q60 0 99 36.5t39 91.5v11q0 56 -35.5 90t-93.5 34
q-36 0 -72 -11q-13 -1 -17 6l-9 17q-5 11 2 18l164 202q4 5 1.5 10t-8.5 5h-179q-6 0 -10.5 4.5t-4.5 9.5z" />
    <glyph glyph-name="four.onum" horiz-adv-x="516" 
d="M30 145l293 404q6 11 20 11h70q14 0 14 -14v-389q0 -10 11 -10h50q15 0 15 -15v-63q0 -15 -15 -15h-50q-11 0 -11 -10v-176q0 -14 -14 -14h-95q-14 0 -14 14v176q0 10 -11 10h-253q-14 0 -14 15v60q0 9 4 16zM292 344l-135 -185q-5 -12 5 -12h131q11 0 11 10v184
q0 5 -4.5 6t-7.5 -3z" />
    <glyph glyph-name="five.onum" horiz-adv-x="466" 
d="M62 195v351q0 14 15 14h327q14 0 14 -14v-72q0 -5 -4 -9.5t-10 -4.5h-213q-11 0 -11 -11v-142q0 -10 11 -10q18 8 43 8q98 0 155 -57t57 -155v-18q0 -98 -73 -164q-73 -67 -180 -67q-78 0 -143 37q-12 5 -6 18l27 67q6 15 20 7q41 -23 94 -23q60 0 98 37q39 36 39 91v12
q0 56 -36 89q-34 34 -95 34q-59 0 -106 -30q-7 -4 -15 0t-8 12z" />
    <glyph glyph-name="six.onum" horiz-adv-x="530" 
d="M303 438q90 0 145 -58t55 -152v-20q0 -95 -67 -156q-67 -62 -164 -62q-99 0 -161 60q-62 62 -62 158v277q0 101 69 165q71 66 178 66q75 0 143 -37q13 -6 7 -18l-27 -66q-6 -14 -19 -8q-43 22 -96 22q-58 0 -95 -36t-37 -92v-83q0 -5 3.5 -6t7.5 2q47 44 120 44zM276 343
q-48 0 -78 -32t-30 -86v-13q0 -54 28.5 -86.5t75.5 -32.5t76.5 32.5t29.5 86.5v13q0 54 -27.5 86t-74.5 32z" />
    <glyph glyph-name="seven.onum" horiz-adv-x="437" 
d="M29 560h381q15 0 15 -14v-48q0 -16 -6 -31l-219 -601q-3 -13 -17 -13h-108q-5 0 -8.5 5t-1.5 11l223 577q2 5 -1 9.5t-9 4.5h-249q-6 0 -10.5 4.5t-4.5 9.5v72q0 14 15 14z" />
    <glyph glyph-name="eight.onum" horiz-adv-x="542" 
d="M480 524v-10q0 -83 -66 -134q-8 -8 0 -13q87 -55 87 -155v-16q0 -89 -65 -148t-165 -59q-101 0 -166 59q-64 58 -64 148v16q0 100 88 155q8 5 0 13q-66 51 -66 134v10q0 83 58 137q58 55 150 55t150 -55q59 -54 59 -137zM181 515v-9q0 -40 25.5 -67t64.5 -27t64 27t25 67
v9q0 45 -24.5 71.5t-64.5 26.5t-65 -26.5t-25 -71.5zM168 222v-19q0 -50 28.5 -80.5t74.5 -30.5t74.5 30.5t28.5 80.5v19q0 47 -28.5 76t-74.5 29t-74.5 -29t-28.5 -76z" />
    <glyph glyph-name="nine.onum" horiz-adv-x="530" 
d="M227 122q-90 0 -145 58t-55 152v19q0 96 66 157q68 62 165 62q99 0 160 -61q63 -60 63 -158v-276q0 -101 -70 -165q-71 -66 -177 -66q-74 0 -144 37q-12 6 -6 18l27 66q6 14 19 8q43 -22 96 -22q58 0 95 36t37 91v84q0 5 -3.5 6t-7.5 -2q-47 -44 -120 -44zM253 217
q48 0 78.5 32t30.5 86v13q0 53 -28.5 86t-75.5 33t-76.5 -33t-29.5 -86v-13q0 -54 27.5 -86t73.5 -32z" />
    <glyph glyph-name="zero.tnum" horiz-adv-x="520" 
d="M32 226v108q0 108 62 172q63 64 166 64q102 0 165 -64q63 -65 63 -172v-108q0 -108 -63 -172t-165 -64q-103 0 -166 64q-62 65 -62 172zM155 333v-104q0 -136 105 -136t105 136v103q0 135 -105 135t-105 -134z" />
    <glyph glyph-name="one.tnum" horiz-adv-x="520" 
d="M149 560h158q15 0 15 -14v-432q0 -11 10 -11h125q14 0 14 -14v-75q0 -5 -4 -9.5t-10 -4.5h-393q-6 0 -10.5 4.5t-4.5 9.5v75q0 14 15 14h124q11 0 11 11v336q0 10 -11 10h-84q-8 0 -12.5 7t-0.5 15l44 71q4 7 14 7z" />
    <glyph glyph-name="two.tnum" horiz-adv-x="520" 
d="M243 570q109 0 171.5 -48.5t62.5 -135.5v-14q0 -105 -105 -174l-127 -84q-5 -3 -4 -8.5t7 -5.5h207q14 0 14 -15v-71q0 -14 -14 -14h-382q-5 0 -9.5 4t-4.5 10v77q0 15 14 24l190 122q88 57 88 124v11q0 41 -31.5 66t-87.5 25q-63 0 -106 -25q-14 -6 -20 7l-26 65
q-7 13 6 19q74 41 157 41z" />
    <glyph glyph-name="three.tnum" horiz-adv-x="520" 
d="M80 474v72q0 14 15 14h337q5 0 9.5 -4t4.5 -10v-49q0 -18 -10 -28l-140 -161q-4 -4 -2.5 -8t6.5 -5q77 -10 121 -64.5t44 -138.5v-18q0 -98 -72 -164t-181 -66q-78 0 -143 37q-10 6 -6 19l27 66q6 15 21 7q41 -23 93 -23q60 0 99 36.5t39 91.5v11q0 56 -35.5 90t-93.5 34
q-36 0 -72 -11q-13 -1 -17 6l-9 17q-5 11 2 18l164 202q4 5 1.5 10t-8.5 5h-179q-6 0 -10.5 4.5t-4.5 9.5z" />
    <glyph glyph-name="four.tnum" horiz-adv-x="520" 
d="M33 145l293 404q6 11 20 11h70q14 0 14 -14v-389q0 -10 11 -10h50q15 0 15 -15v-63q0 -15 -15 -15h-50q-11 0 -11 -10v-176q0 -14 -14 -14h-95q-14 0 -14 14v176q0 10 -11 10h-253q-14 0 -14 15v60q0 9 4 16zM295 344l-135 -185q-5 -12 5 -12h131q11 0 11 10v184
q0 5 -4.5 6t-7.5 -3z" />
    <glyph glyph-name="five.tnum" horiz-adv-x="520" 
d="M88 195v351q0 14 15 14h327q14 0 14 -14v-72q0 -5 -4 -9.5t-10 -4.5h-213q-11 0 -11 -11v-142q0 -10 11 -10q18 8 43 8q98 0 155 -57t57 -155v-18q0 -98 -73 -164q-73 -67 -180 -67q-78 0 -143 37q-12 5 -6 18l27 67q6 15 20 7q41 -23 94 -23q60 0 98 37q39 36 39 91v12
q0 56 -36 89q-34 34 -95 34q-59 0 -106 -30q-7 -4 -15 0t-8 12z" />
    <glyph glyph-name="six.tnum" horiz-adv-x="520" 
d="M294 438q90 0 145 -58t55 -152v-20q0 -95 -67 -156q-67 -62 -164 -62q-99 0 -161 60q-62 62 -62 158v277q0 101 69 165q70 66 178 66q75 0 143 -37q13 -6 7 -18l-27 -66q-6 -14 -19 -8q-43 22 -96 22q-58 0 -95 -36t-37 -92v-83q0 -5 3.5 -6t7.5 2q47 44 120 44zM267 343
q-48 0 -78 -32t-30 -86v-13q0 -54 28.5 -86.5t75.5 -32.5t76.5 32.5t29.5 86.5v13q0 54 -27.5 86t-74.5 32z" />
    <glyph glyph-name="seven.tnum" horiz-adv-x="520" 
d="M79 560h381q15 0 15 -14v-48q0 -16 -6 -31l-219 -601q-3 -13 -17 -13h-108q-5 0 -8.5 5t-1.5 11l223 577q2 5 -1 9.5t-9 4.5h-249q-6 0 -10.5 4.5t-4.5 9.5v72q0 14 15 14z" />
    <glyph glyph-name="eight.tnum" horiz-adv-x="520" 
d="M469 524v-10q0 -83 -66 -134q-8 -8 0 -13q87 -55 87 -155v-16q0 -89 -65 -148t-165 -59q-101 0 -166 59q-64 58 -64 148v16q0 100 88 155q8 5 0 13q-66 51 -66 134v10q0 83 58 137q58 55 150 55t150 -55q59 -54 59 -137zM170 515v-9q0 -40 25.5 -67t64.5 -27t64 27t25 67
v9q0 45 -24.5 71.5t-64.5 26.5t-65 -26.5t-25 -71.5zM157 222v-19q0 -50 28.5 -80.5t74.5 -30.5t74.5 30.5t28.5 80.5v19q0 47 -28.5 76t-74.5 29t-74.5 -29t-28.5 -76z" />
    <glyph glyph-name="nine.tnum" horiz-adv-x="520" 
d="M226 122q-90 0 -145 58t-55 152v19q0 96 66 157q68 62 165 62q99 0 160 -61q63 -60 63 -158v-276q0 -101 -70 -165q-70 -66 -177 -66q-74 0 -144 37q-12 6 -6 18l27 66q6 14 19 8q43 -22 96 -22q58 0 95 36t37 91v84q0 5 -3.5 6t-7.5 -2q-47 -44 -120 -44zM252 217
q48 0 78.5 32t30.5 86v13q0 53 -28.5 86t-75.5 33t-76.5 -33t-29.5 -86v-13q0 -54 27.5 -86t73.5 -32z" />
    <glyph glyph-name="zero.lnum" horiz-adv-x="520" 
d="M31 226v254q0 108 63 172t166 64q102 0 165 -64q63 -65 63 -172v-254q0 -108 -63 -172t-165 -64q-103 0 -166 64t-63 172zM155 479v-250q0 -136 105 -136t105 136v249q0 62 -26 98.5t-79 36.5q-105 0 -105 -134z" />
    <glyph glyph-name="one.lnum" horiz-adv-x="520" 
d="M140 706h165q15 0 15 -14v-571q0 -11 10 -11h124q15 0 15 -14v-82q0 -14 -15 -14h-392q-6 0 -10.5 4.5t-4.5 9.5v82q0 14 15 14h124q10 0 10 11v468q0 10 -10 10h-94q-9 0 -13 7t1 15l46 78q4 7 14 7z" />
    <glyph glyph-name="two.lnum" horiz-adv-x="520" 
d="M245 716q107 0 168 -57q63 -55 63 -151v-18q0 -79 -92 -186l-162 -186q-2 -3 -0.5 -7t5.5 -4h220q5 0 9.5 -4t4.5 -10v-79q0 -6 -4.5 -10t-9.5 -4h-379q-5 0 -9.5 4t-4.5 10v54q0 12 7 19l231 275q60 72 60 124v13q0 50 -32.5 80t-86.5 30q-62 0 -105 -25q-16 -6 -20 7
l-27 65q-6 13 6 19q74 41 158 41z" />
    <glyph glyph-name="three.lnum" horiz-adv-x="520" 
d="M214 -10q-76 0 -141 36q-14 6 -8 20l27 66q6 14 21 7q41 -23 93 -23q60 0 99 36.5t39 91.5v11q0 56 -35.5 90t-93.5 34q-36 0 -72 -11q-13 -2 -18 8l-8 15q-5 11 2 18l160 195q5 4 2.5 9.5t-8.5 5.5h-176q-6 0 -10.5 4.5t-4.5 9.5v79q0 14 15 14h337q5 0 9.5 -4t4.5 -10
v-55q0 -11 -10 -22l-138 -159q-4 -4 -2.5 -9.5t7.5 -6.5q75 -11 118.5 -65.5t43.5 -136.5v-18q0 -98 -72 -164t-181 -66z" />
    <glyph glyph-name="four.lnum" horiz-adv-x="520" 
d="M34 268l275 427q6 11 20 11h88q14 0 14 -14v-410q0 -4 3.5 -7t7.5 -3h50q15 0 15 -15v-63q0 -15 -15 -15h-50q-11 0 -11 -10v-155q0 -14 -14 -14h-95q-14 0 -14 14v155q0 10 -10 10h-254q-14 0 -14 15v58q0 9 4 16zM296 490l-135 -208q-2 -3 -0.5 -6.5t5.5 -3.5h132
q10 0 10 10v205q0 5 -4.5 6t-7.5 -3z" />
    <glyph glyph-name="five.lnum" horiz-adv-x="520" 
d="M90 341v351q0 14 15 14h327q14 0 14 -14v-79q0 -5 -4 -9.5t-10 -4.5h-213q-11 0 -11 -11v-135q0 -10 11 -10q18 8 43 8q98 0 155 -57t57 -155v-18q0 -98 -73 -165q-73 -66 -180 -66q-78 0 -143 37q-12 5 -6 18l27 67q6 15 20 7q41 -23 94 -23q59 0 98 36q39 38 39 92v12
q0 56 -36 89q-34 34 -95 34q-59 0 -106 -30q-7 -4 -15 0t-8 12z" />
    <glyph glyph-name="six.lnum" horiz-adv-x="520" 
d="M294 438q89 0 144 -58t55 -152v-20q0 -94 -66 -156q-67 -62 -165 -62t-161 60q-62 62 -62 158v277q0 101 70 165q70 66 178 66q75 0 143 -37q13 -6 7 -18l-27 -66q-6 -14 -20 -8q-41 22 -95 22q-58 0 -95 -36t-37 -92v-83q0 -5 3.5 -6.5t7.5 2.5q47 44 120 44zM267 343
q-48 0 -78 -32t-30 -86v-13q0 -54 28 -86.5t75 -32.5q48 0 77.5 32.5t29.5 86.5v13q0 53 -28 85.5t-74 32.5z" />
    <glyph glyph-name="seven.lnum" horiz-adv-x="520" 
d="M74 706h381q15 0 15 -14v-48q0 -16 -6 -31l-219 -600q-3 -13 -17 -13h-108q-5 0 -8.5 5t-1.5 11l219 569q2 5 -1 9.5t-9 4.5h-245q-6 0 -10.5 4.5t-4.5 9.5v79q0 14 15 14z" />
    <glyph glyph-name="eight.lnum" horiz-adv-x="520" 
d="M468 524v-10q0 -81 -65 -134q-8 -8 0 -13q87 -57 87 -155v-16q0 -89 -65 -148t-165 -59q-101 0 -166 59q-64 58 -64 148v16q0 100 87 155q9 6 0 13q-66 53 -66 134v10q0 83 58 137q58 55 151 55q92 0 150 -55q58 -54 58 -137zM170 515v-9q0 -40 25.5 -67t64.5 -27
q38 0 63.5 27t25.5 67v9q0 45 -24.5 71.5t-64.5 26.5t-65 -26.5t-25 -71.5zM157 222v-19q0 -50 28.5 -80.5t74.5 -30.5q45 0 73.5 30t28.5 81v19q0 47 -28 76t-74 29t-74.5 -29t-28.5 -76z" />
    <glyph glyph-name="nine.lnum" horiz-adv-x="520" 
d="M226 268q-90 0 -145 58t-55 152v19q0 95 66 157q67 62 165 62q99 0 160 -61q63 -60 63 -158v-276q0 -100 -70 -166q-71 -65 -177 -65q-76 0 -144 37q-13 6 -7 18l27 66q6 16 20 8q41 -22 95 -22q58 0 95.5 36t37.5 91v84q0 5 -4 6.5t-8 -2.5q-47 -44 -119 -44zM252 363
q48 0 78 32t30 86v13q0 54 -28 86.5t-75 32.5t-77 -33t-30 -86v-13q0 -53 28 -85.5t74 -32.5z" />
    </font>
</defs>
</svg>
